<?xml version="1.0" standalone="no"?>
<!DOCTYPE svg PUBLIC "-//W3C//DTD SVG 1.1//EN" "http://www.w3.org/Graphics/SVG/1.1/DTD/svg11.dtd" >
<svg xmlns="http://www.w3.org/2000/svg" xmlns:xlink="http://www.w3.org/1999/xlink" version="1.1">
<metadata>
Created by FontForge 20201107 at Fri Feb 28 09:30:18 2020
 By 
Copyright (c) 2020 by Eugene Tantsurin. All rights reserved.
</metadata>
<defs>
<font id="ResistSansText-Thin" horiz-adv-x="532" >
  <font-face 
    font-family="Resist Sans Text Thin"
    font-weight="400"
    font-stretch="normal"
    units-per-em="1000"
    panose-1="0 0 2 0 0 0 0 0 0 0"
    ascent="756"
    descent="-244"
    x-height="500"
    cap-height="695"
    bbox="-680 -345 1142 1091"
    underline-thickness="50"
    underline-position="-150"
    unicode-range="U+0020-FB02"
  />
<missing-glyph horiz-adv-x="500" 
d="M410 760v-1000h-317v1000h317zM333 693h-165v-33h65v-37h-66v-33h166v33h-66v37h66v33zM267 564h-100v-104h166v34h-66v70zM233 530v-36h-33v36h33zM333 433h-166v-33h66v-37h-66v-33h100v70h66v33zM333 373h-33v-66h-133v-34h166v100zM333 251h-100v-56h34v23h33v-47
h-100v80h-33v-113h166v113zM333 78h-166v-113h166v113zM300 45v-47h-100v47h100zM333 -58h-166v-33h70l-70 -47v-33h166v33h-102l70 47h32v33z" />
    <glyph glyph-name="fl" unicode="fl" horiz-adv-x="602" 
d="M511 38q21 0 54 5v-41q-38 -7 -57 -7q-55 0 -85 31.5t-30 92.5v598q-25 1 -78 1q-69 0 -110.5 -29.5t-41.5 -90.5l-1 -100l52 2h86v-45h-85l-52 2v-457h-48v457l-51 -2h-51v45h51l52 -2l-1 100q0 78 53 120t140 42h85h5h43v-641q0 -81 70 -81z" />
    <glyph glyph-name="f_f" unicode="ff" horiz-adv-x="590" 
d="M115 0v457l-51 -2h-51v45h51l52 -2l-1 80v58q0 61 33.5 92.5t89.5 31.5q24 0 57 -5v-43q-33 5 -54 5q-33 0 -55.5 -19t-22.5 -62v-57l-1 -81l52 2h125l52 -2l-1 80v58q0 61 33.5 92.5t89.5 31.5q25 0 57 -5v-43q-32 5 -54 5q-33 0 -55.5 -19t-22.5 -62v-57l-1 -81l52 2
h81v-45h-80l-52 2v-457h-48v457l-51 -2h-124l-52 2v-457h-48z" />
    <glyph glyph-name="f_i" unicode="fi" horiz-adv-x="507" 
d="M438 500v-500h-48v455h-175l-52 2v-457h-48v457l-51 -2h-51v45h51l52 -2l-1 100q0 162 149 162h66v-43q-27 1 -59 1q-57 0 -82.5 -28t-25.5 -92l-1 -100l52 2h224zM381 692h66v-66h-66v66z" />
    <glyph glyph-name=".notdef" horiz-adv-x="500" 
d="M410 760v-1000h-317v1000h317zM333 693h-165v-33h65v-37h-66v-33h166v33h-66v37h66v33zM267 564h-100v-104h166v34h-66v70zM233 530v-36h-33v36h33zM333 433h-166v-33h66v-37h-66v-33h100v70h66v33zM333 373h-33v-66h-133v-34h166v100zM333 251h-100v-56h34v23h33v-47
h-100v80h-33v-113h166v113zM333 78h-166v-113h166v113zM300 45v-47h-100v47h100zM333 -58h-166v-33h70l-70 -47v-33h166v33h-102l70 47h32v33z" />
    <glyph glyph-name=".null" horiz-adv-x="0" 
 />
    <glyph glyph-name="nonmarkingreturn" horiz-adv-x="333" 
 />
    <glyph glyph-name="space" unicode=" " horiz-adv-x="290" 
 />
    <glyph glyph-name="exclam" unicode="!" horiz-adv-x="202" 
d="M79 148l-6 291l-2 256h60l-2 -256l-6 -291h-44zM69 -7v64h64v-64h-64z" />
    <glyph glyph-name="quotedbl" unicode="&#x22;" horiz-adv-x="269" 
d="M70 447l-6 174v74h44v-74l-6 -174h-32zM167 448l-6 173v74h44v-74l-6 -173h-32z" />
    <glyph glyph-name="numbersign" unicode="#" horiz-adv-x="873" 
d="M813 357h-185l-47 -209h184l-9 -41h-184l-47 -207h-42l47 207h-237l-47 -207h-42l47 207h-200l9 41h200l47 209h-199l9 41h199l49 217h42l-49 -217h237l49 217h42l-49 -217h185zM539 148l47 209h-237l-47 -209h237z" />
    <glyph glyph-name="dollar" unicode="$" horiz-adv-x="628" 
d="M589 185q0 -81 -65 -136t-174 -59v-70h-44v71q-106 7 -177 64t-91 151l53 6q14 -78 70.5 -123t144.5 -52v295l-35 6q-195 33 -195 172q0 86 63.5 139t166.5 56v70h44v-72q88 -9 145.5 -65t70.5 -157l-47 -4q-11 82 -55.5 126.5t-113.5 53.5v-281l45 -8q194 -33 194 -183z
M275 388l31 -5v276q-84 -3 -132 -42.5t-48 -106.5q0 -52 36 -80.5t113 -41.5zM350 36q87 4 138 45.5t51 103.5q0 59 -33 89.5t-113 43.5l-43 7v-289z" />
    <glyph glyph-name="percent" unicode="%" horiz-adv-x="829" 
d="M212 331q-73 0 -115 52.5t-42 133.5t42 133.5t115 52.5t114 -52t41 -134t-41 -134t-114 -52zM191 0l395 695h53l-395 -695h-53zM213 376q53 0 80.5 39.5t27.5 101.5t-27.5 101.5t-80.5 39.5q-55 0 -83.5 -39.5t-28.5 -101.5t28.5 -101.5t83.5 -39.5zM619 -8
q-73 0 -115 52.5t-42 133.5t42 133.5t115 52.5t114 -52t41 -134t-41 -134t-114 -52zM620 37q53 0 80.5 39.5t27.5 101.5t-27.5 101.5t-80.5 39.5q-55 0 -83.5 -39.5t-28.5 -101.5t28.5 -101.5t83.5 -39.5z" />
    <glyph glyph-name="ampersand" unicode="&#x26;" horiz-adv-x="713" 
d="M297 -10q-102 0 -165.5 51t-63.5 133q0 33 12 61.5t37 53t47 41t58 38.5l-22.5 22.5t-24 25t-20.5 23t-20.5 27t-14 27t-11.5 32t-3 32.5q0 65 47 108.5t121 43.5t121 -43t47 -109q0 -55 -39.5 -101.5t-103.5 -91.5v-3l222 -217h3q51 62 75 162l45 -5q-37 -125 -87 -189
v-3l113 -109h-71l-73 70h-3q-88 -80 -226 -80zM263 396h4q32 25 40.5 31.5t31.5 27t30 32t15 31t8 39.5q0 50 -36 77.5t-82 27.5t-82 -27.5t-36 -77.5q0 -29 21 -63t34 -47t52 -51zM312 38q102 0 179 68l-234 229q-34 -22 -52.5 -35t-41.5 -33.5t-33 -42t-10 -45.5
q0 -65 51.5 -103t140.5 -38z" />
    <glyph glyph-name="quotesingle" unicode="'" horiz-adv-x="177" 
d="M70 448l-6 173v74h44v-74l-6 -173h-32z" />
    <glyph glyph-name="parenleft" unicode="(" horiz-adv-x="208" 
d="M154 -95q-128 182 -128 435q0 252 128 434h37q-113 -215 -113 -434q0 -220 113 -435h-37z" />
    <glyph glyph-name="parenright" unicode=")" horiz-adv-x="208" 
d="M17 -95q113 215 113 435q0 219 -113 434h37q128 -182 128 -434q0 -253 -128 -435h-37z" />
    <glyph glyph-name="asterisk" unicode="*" horiz-adv-x="316" 
d="M109 516l-36 19l18 35l47 59l-70 -13h-41l-1 40l39 3l77 -10l-49 55l-20 36l34 21l22 -32l28 -66l24 64l20 37l36 -20l-17 -36l-47 -58l73 14l42 1l2 -41l-40 -3l-74 10l48 -56l21 -36l-34 -22l-23 33l-30 75l-29 -75z" />
    <glyph glyph-name="plus" unicode="+" horiz-adv-x="539" 
d="M247 95v124l1 77l-201 -1v46l200 -1l-1 96v105h46v-107l-1 -94l89 1h112v-46h-112l-88 1l1 -75v-126h-46z" />
    <glyph glyph-name="comma" unicode="," horiz-adv-x="188" 
d="M38 -130l28 187h62l-38 -187h-52z" />
    <glyph glyph-name="hyphen" unicode="-" horiz-adv-x="498" 
d="M68 245v43h362v-43h-362z" />
    <glyph glyph-name="period" unicode="." horiz-adv-x="202" 
d="M69 -7v64h64v-64h-64z" />
    <glyph glyph-name="slash" unicode="/" horiz-adv-x="277" 
d="M9 -150l213 895h46l-213 -895h-46z" />
    <glyph glyph-name="zero" unicode="0" horiz-adv-x="636" 
d="M319 -5q-121 0 -191.5 92t-70.5 262t70.5 262t191.5 92q122 0 191 -92t69 -262t-69 -262t-191 -92zM321 40q101 0 155 79.5t54 229.5t-54 229.5t-155 79.5q-103 0 -159 -79.5t-56 -229.5t56 -229.5t159 -79.5z" />
    <glyph glyph-name="one" unicode="1" horiz-adv-x="531" 
d="M64 0v45h116l96 -1l-1 111v315l4 56h-12q-41 -76 -203 -76v45q47 0 83 8t69.5 28.5t51.5 62t18 101.5h37v-539l-1 -112l87 1h88v-45h-433z" />
    <glyph glyph-name="two" unicode="2" horiz-adv-x="593" 
d="M49 0v46l227 170q98 74 129 105q79 81 80 166q0 76 -47 121.5t-128 45.5q-83 0 -137.5 -50t-64.5 -137l-49 4q10 103 81.5 166t170.5 63q101 0 162 -59.5t61 -152.5q0 -39 -14 -77t-34 -67t-55 -62.5t-63 -55t-72 -53.5l-162 -117v-9l94 2h307v-49h-486z" />
    <glyph glyph-name="three" unicode="3" horiz-adv-x="594" 
d="M303 -5q-99 0 -173 53.5t-89 149.5l49 5q10 -78 71.5 -121t141.5 -43q86 0 139 40t53 118q0 70 -50.5 107.5t-130.5 37.5h-26v44h26q67 0 112.5 33t45.5 93q0 65 -44.5 104.5t-120.5 39.5q-157 0 -188 -156l-48 4q14 93 78.5 144.5t157.5 51.5t153.5 -52.5t60.5 -135.5
q0 -58 -35 -94.5t-82 -46.5v-11q58 -9 99.5 -51.5t41.5 -111.5q0 -96 -69 -149t-173 -53z" />
    <glyph glyph-name="four" unicode="4" horiz-adv-x="630" 
d="M438 0v116l1 76l-391 -1v40l375 464h65v-332l-1 -128l117 1v-45l-117 1l1 -77v-115h-50zM111 233l80 3l248 -1l-1 126v182l3 99h-9l-54 -75l-213 -265l-54 -60v-9z" />
    <glyph glyph-name="five" unicode="5" horiz-adv-x="605" 
d="M312 -5q-94 0 -166 53t-88 161l45 6q14 -90 71.5 -132.5t137.5 -42.5q83 0 136.5 52t53.5 134t-51 131.5t-134 49.5q-96 0 -178 -73l-50 26l58 335h373v-45h-334l-10 -74l-16 -94l-22 -94l10 -5q79 69 176 69q100 0 163.5 -63.5t63.5 -163.5t-68 -165t-171 -65z" />
    <glyph glyph-name="six" unicode="6" horiz-adv-x="605" 
d="M307 -5q-48 0 -88.5 15t-78.5 49t-60 100.5t-22 159.5q0 189 77 285t191 96q84 0 141.5 -50t74.5 -147l-47 -3q-26 154 -169 154q-101 0 -159 -81.5t-65 -233.5l13 -4q30 58 83 87.5t118 29.5q106 0 168.5 -63.5t62.5 -165.5q0 -101 -67.5 -164.5t-172.5 -63.5zM307 40
q82 0 136 51t54 132q0 83 -50.5 133t-130.5 50q-88 0 -142.5 -49.5t-54.5 -133.5q0 -80 53.5 -131.5t134.5 -51.5z" />
    <glyph glyph-name="seven" unicode="7" horiz-adv-x="551" 
d="M230 0q8 209 64 351.5t192 291.5l-4 14l-82 -7h-359v45h477l15 -54q-135 -146 -190 -285.5t-63 -355.5h-50z" />
    <glyph glyph-name="eight" unicode="8" horiz-adv-x="604" 
d="M302 -5q-109 0 -180 53.5t-71 143.5q0 72 41.5 114.5t94.5 54.5v11q-41 10 -76.5 49.5t-35.5 99.5q0 82 62 130.5t165 48.5q102 0 164 -48.5t62 -130.5q0 -60 -35.5 -99.5t-75.5 -49.5v-11q53 -12 94.5 -55t41.5 -114q0 -90 -71.5 -143.5t-179.5 -53.5zM302 386
q176 0 176 135q0 58 -46 96t-130 38t-130.5 -38t-46.5 -96q0 -69 47.5 -102t129.5 -33zM302 40q92 0 146.5 43t54.5 109q0 72 -54 112t-147 40t-147 -40t-54 -112q0 -66 54 -109t147 -43z" />
    <glyph glyph-name="nine" unicode="9" horiz-adv-x="605" 
d="M296 -5q-85 0 -149.5 50.5t-83.5 146.5l48 4q17 -84 69.5 -119.5t115.5 -35.5q102 0 153.5 81.5t53.5 233.5l-13 4q-30 -58 -83.5 -88.5t-117.5 -30.5q-103 0 -167 65t-64 166q0 100 68 164t172 64q48 0 88.5 -15t78.5 -49t60 -100.5t22 -159.5q0 -190 -67.5 -285.5
t-183.5 -95.5zM289 287q87 0 142 50.5t55 134.5q0 80 -53.5 131.5t-134.5 51.5q-82 0 -136 -51.5t-54 -131.5q0 -82 52 -133.5t129 -51.5z" />
    <glyph glyph-name="colon" unicode=":" horiz-adv-x="202" 
d="M69 436v64h64v-64h-64zM69 -5v64h64v-64h-64z" />
    <glyph glyph-name="semicolon" unicode=";" horiz-adv-x="197" 
d="M73 436v64h64v-64h-64zM47 -130l28 187h62l-38 -187h-52z" />
    <glyph glyph-name="less" unicode="&#x3c;" horiz-adv-x="544" 
d="M497 146l-450 145v54l450 145v-50l-269 -82l-125 -36v-8l125 -36l269 -82v-50z" />
    <glyph glyph-name="equal" unicode="=" horiz-adv-x="569" 
d="M47 395v46h475v-46h-475zM47 195v46h475v-46h-475z" />
    <glyph glyph-name="greater" unicode="&#x3e;" horiz-adv-x="544" 
d="M47 146v50l269 82l125 36v8l-125 36l-269 82v50l450 -145v-54z" />
    <glyph glyph-name="question" unicode="?" horiz-adv-x="554" 
d="M260 163q0 37 11 66t28 49t38 37.5l42 35t38 37t28 49t11 66.5q0 69 -45.5 110.5t-121.5 41.5q-73 0 -126.5 -48.5t-65.5 -129.5l-47 4q12 98 79.5 158.5t159.5 60.5q96 0 156 -54.5t60 -142.5q0 -53 -21 -94t-50.5 -66.5t-59 -49.5t-50.5 -56.5t-21 -73.5h-43zM249 -7
v64h64v-64h-64z" />
    <glyph glyph-name="at" unicode="@" horiz-adv-x="880" 
d="M431 -117q-172 0 -280 114.5t-108 282.5t115 282.5t282 114.5q165 0 281 -114t116 -283q0 -35 -7.5 -68t-23.5 -63.5t-45.5 -48.5t-69.5 -18q-47 0 -78.5 29t-29.5 91h-12q-8 -52 -48 -84.5t-93 -32.5q-79 0 -129 54.5t-50 141.5t50 142.5t129 55.5q53 0 92.5 -32.5
t48.5 -85.5h12l-10 78v35h50v-274q0 -30 17 -51.5t53 -21.5q91 0 91 153q0 152 -99.5 250t-244.5 98q-144 0 -243.5 -100t-99.5 -248t91 -247.5t243 -99.5q82 0 139 13v-49q-53 -14 -139 -14zM436 131q61 0 97 40t36 110q0 73 -35.5 112.5t-97.5 39.5q-59 0 -97 -41
t-38 -111q0 -69 38 -109.5t97 -40.5z" />
    <glyph glyph-name="A" unicode="A" horiz-adv-x="681" 
d="M9 0l301 695h62l300 -695h-56l-83 193h-385l-83 -193h-56zM167 237l73 2h202l73 -2l-18 43l-140 325l-11 38h-10l-11 -38l-141 -326z" />
    <glyph glyph-name="B" unicode="B" horiz-adv-x="608" 
d="M64 0v695h261q108 0 169 -44t61 -136q0 -62 -32.5 -101t-82.5 -50v-12q53 -10 89 -53.5t36 -108.5q0 -94 -61.5 -142t-168.5 -48h-271zM113 379l90 1h122q89 0 134.5 31.5t45.5 103.5q0 73 -45.5 104t-134.5 31h-122l-90 1l1 -90v-92zM113 44l90 1h132q180 0 180 145
q0 71 -47 108t-133 37h-132l-90 1l1 -90v-112z" />
    <glyph glyph-name="C" unicode="C" horiz-adv-x="680" 
d="M350 -10q-139 0 -223.5 97t-84.5 259q0 161 85.5 260t222.5 99q116 0 193.5 -69.5t88.5 -187.5l-49 -5q-10 99 -73.5 158t-159.5 59q-115 0 -186 -87t-71 -227q0 -141 70 -226t187 -85q101 0 166 59t77 161l48 -4q-13 -121 -92 -191t-199 -70z" />
    <glyph glyph-name="D" unicode="D" horiz-adv-x="652" 
d="M64 0v695h228q152 0 235 -90.5t83 -258.5t-83 -257t-235 -89h-228zM113 44l84 1h95q130 0 198.5 77.5t68.5 223.5q0 147 -68.5 225.5t-198.5 78.5h-95l-84 1l1 -90v-427z" />
    <glyph glyph-name="E" unicode="E" horiz-adv-x="571" 
d="M64 0v695h473v-46l-424 1l1 -108v-58l-1 -104l377 1v-45l-377 1l1 -104v-82l-1 -108l424 1v-44h-473z" />
    <glyph glyph-name="F" unicode="F" horiz-adv-x="564" 
d="M64 0v695h473v-46l-424 1l1 -108v-58l-1 -110l387 1v-45l-387 1l1 -98v-233h-50z" />
    <glyph glyph-name="G" unicode="G" horiz-adv-x="687" 
d="M337 -6q-130 0 -214.5 97.5t-84.5 254.5q0 160 85 258t216 98q120 0 193 -70.5t87 -193.5l-46 -3q-11 105 -72 163.5t-162 58.5q-110 0 -180 -86t-70 -225q0 -135 70.5 -220.5t177.5 -85.5q101 0 163.5 57.5t72.5 179.5h-220v50h274v-327h-44l-1 129h-13
q-28 -62 -87.5 -98.5t-144.5 -36.5z" />
    <glyph glyph-name="H" unicode="H" horiz-adv-x="651" 
d="M64 0v695h50v-249l-1 -69l90 1h245l90 -1l-1 68v250h50v-695h-50v265l1 69l-90 -1h-245l-90 1l1 -69v-265h-50z" />
    <glyph glyph-name="I" unicode="I" horiz-adv-x="178" 
d="M64 0v695h50v-695h-50z" />
    <glyph glyph-name="J" unicode="J" horiz-adv-x="362" 
d="M21 -4v47q118 0 174.5 38.5t56.5 142.5v471h50v-481q0 -122 -70.5 -170t-210.5 -48z" />
    <glyph glyph-name="K" unicode="K" horiz-adv-x="637" 
d="M64 0v695h50v-329l-5 -70h13l41 50l396 349h69l-330 -290l323 -405h-65l-295 372l-147 -129v-243h-50z" />
    <glyph glyph-name="L" unicode="L" horiz-adv-x="553" 
d="M64 0v695h50v-554l-1 -97l97 1h313v-45h-459z" />
    <glyph glyph-name="M" unicode="M" horiz-adv-x="846" 
d="M64 0v695h58l273 -577l24 -67h8l24 67l273 577h58v-695h-50v539l5 70h-9l-24 -69l-256 -540h-50l-256 540l-24 69h-9l5 -70v-539h-50z" />
    <glyph glyph-name="N" unicode="N" horiz-adv-x="659" 
d="M64 0v695h65l363 -555l45 -85h14l-6 102v538h50v-695h-66l-377 576l-30 64h-14l6 -102v-538h-50z" />
    <glyph glyph-name="O" unicode="O" horiz-adv-x="691" 
d="M347 -10q-147 0 -226 97t-79 259q0 159 79.5 259t225.5 100t224 -99.5t78 -259.5q0 -162 -77.5 -259t-224.5 -97zM347 35q124 0 187.5 85.5t63.5 225.5q0 138 -64 226t-187 88q-124 0 -189 -88t-65 -226q0 -140 65 -225.5t189 -85.5z" />
    <glyph glyph-name="P" unicode="P" horiz-adv-x="568" 
d="M64 0v695h251q103 0 165 -51.5t62 -154.5t-62 -154t-165 -51h-108l-94 1l1 -88v-197h-50zM113 328l94 1h108q180 0 180 160q0 161 -180 161h-107l-95 1l1 -76v-171z" />
    <glyph glyph-name="Q" unicode="Q" horiz-adv-x="691" 
d="M497 31l47 -47l81 -89l-38 -25l-76 84l-50 60q-52 -20 -114 -20q-142 0 -223.5 95.5t-81.5 256.5q0 163 82 261t223 98t221.5 -97.5t80.5 -261.5q0 -111 -39.5 -193t-112.5 -122zM93 346q0 -139 67.5 -223t186.5 -84t185 83.5t66 223.5q0 143 -66 228.5t-185 85.5
t-186.5 -86t-67.5 -228z" />
    <glyph glyph-name="R" unicode="R" horiz-adv-x="605" 
d="M64 0v695h277q96 0 156.5 -47.5t60.5 -142.5q0 -89 -50 -132.5t-123 -47.5v-9q45 -7 72.5 -31.5t50.5 -93.5l64 -191h-51l-61 187q-21 65 -62 91t-108 26h-77l-100 1l1 -112v-193h-50zM113 348l100 1h118q84 0 132 36.5t48 113.5q0 80 -46 115.5t-134 35.5h-118l-100 1
l1 -101v-91z" />
    <glyph glyph-name="S" unicode="S" horiz-adv-x="627" 
d="M335 -10q-118 0 -197.5 57.5t-99.5 158.5l53 6q16 -81 81.5 -128.5t161.5 -47.5q95 0 150 40.5t55 108.5q0 58 -33.5 89t-112.5 43l-134 20q-195 30 -195 173q0 85 68.5 140t172.5 55q102 0 168 -56.5t81 -167.5l-47 -4q-12 91 -65.5 136.5t-136.5 45.5
q-84 0 -137.5 -41.5t-53.5 -107.5q0 -104 149 -126l132 -20q194 -30 194 -179q0 -87 -69 -141t-185 -54z" />
    <glyph glyph-name="T" unicode="T" horiz-adv-x="616" 
d="M283 0v541l1 108l-86 -1h-185v47h590v-47h-185l-86 1l1 -108v-541h-50z" />
    <glyph glyph-name="U" unicode="U" horiz-adv-x="663" 
d="M333 -10q-123 0 -198 73t-75 198v434h50v-434q0 -103 60.5 -164.5t162.5 -61.5t161 61t59 165v434h50v-434q0 -125 -74 -198t-196 -73z" />
    <glyph glyph-name="V" unicode="V" horiz-adv-x="649" 
d="M294 0l-285 695h56l244 -601l11 -38h10l11 38l243 601h56l-284 -695h-62z" />
    <glyph glyph-name="W" unicode="W" horiz-adv-x="1037" 
d="M238 0l-225 695h55l188 -593l7 -49h12l9 49l201 593h67l201 -593l9 -49h12l7 49l188 593h55l-225 -695h-62l-204 583l-8 59h-12l-8 -59l-205 -583h-62z" />
    <glyph glyph-name="X" unicode="X" horiz-adv-x="651" 
d="M9 0l286 348l-283 347h69l191 -242l48 -71h12l49 71l191 242h67l-282 -347l285 -348h-70l-192 242l-48 71h-12l-48 -71l-195 -242h-68z" />
    <glyph glyph-name="Y" unicode="Y" horiz-adv-x="683" 
d="M317 0v280l-309 415h63l224 -304l41 -73h12l41 73l223 304h63l-308 -415v-280h-50z" />
    <glyph glyph-name="Z" unicode="Z" horiz-adv-x="628" 
d="M30 0v37l468 578l30 24v11h-492v45h559v-35l-470 -580l-30 -24v-11h503v-45h-568z" />
    <glyph glyph-name="bracketleft" unicode="[" horiz-adv-x="217" 
d="M200 706h-124v-747h124v-44h-174v835h174v-44z" />
    <glyph glyph-name="backslash" unicode="\" horiz-adv-x="251" 
d="M222 -150l-213 895h46l213 -895h-46z" />
    <glyph glyph-name="bracketright" unicode="]" horiz-adv-x="217" 
d="M191 750v-835h-174v44h124v747h-124v44h174z" />
    <glyph glyph-name="asciicircum" unicode="^" horiz-adv-x="416" 
d="M51 416l130 279h54l130 -279h-55l-74 167l-24 69h-8l-24 -69l-75 -167h-54z" />
    <glyph glyph-name="underscore" unicode="_" horiz-adv-x="686" 
d="M68 -51v43h550v-43h-550z" />
    <glyph glyph-name="grave" unicode="`" horiz-adv-x="151" 
d="M102 582l-102 151h59l92 -151h-49z" />
    <glyph glyph-name="a" unicode="a" horiz-adv-x="517" 
d="M213 -10q-78 0 -123 36.5t-45 95.5q0 25 6.5 46t16 36.5t28 27.5t33 19.5t42 13t44 8t49 3.5t48 1.5t50 0t46.5 -0.5v56q0 61 -35 96.5t-100 35.5q-68 0 -110.5 -36t-50.5 -104l-48 3q10 87 68.5 134.5t140.5 47.5q85 0 134 -49t49 -130l1 -331h-38l-5 101h-13
q-19 -51 -68.5 -81t-119.5 -30zM222 33q86 0 136 50t50 127v28h-35q-44 1 -67 0.5t-61.5 -3.5t-60 -10t-44.5 -19t-33.5 -32t-10.5 -48q0 -42 31.5 -67.5t94.5 -25.5z" />
    <glyph glyph-name="b" unicode="b" horiz-adv-x="535" 
d="M289 -6q-115 0 -168 101h-12l3 -53v-42h-48v760h48v-303l-3 -51h12q56 100 168 100q87 0 146.5 -68.5t59.5 -188.5q0 -121 -59 -188t-147 -67zM278 40q72 0 119 55t47 154t-47 155t-119 56q-75 0 -120.5 -55t-45.5 -156q0 -100 46 -154.5t120 -54.5z" />
    <glyph glyph-name="c" unicode="c" horiz-adv-x="495" 
d="M260 -10q-100 0 -161 70.5t-61 188.5q0 119 60.5 190t159.5 71q83 0 138 -48t68 -139l-48 -5q-11 74 -52.5 110.5t-105.5 36.5q-79 0 -125.5 -58t-46.5 -158q0 -99 47.5 -156.5t126.5 -57.5q65 0 107.5 37t52.5 111l48 -4q-12 -92 -67.5 -140.5t-140.5 -48.5z" />
    <glyph glyph-name="d" unicode="d" horiz-adv-x="535" 
d="M248 -6q-88 0 -148 67t-60 188q0 120 60 188.5t148 68.5q116 0 166 -102h12l-3 53v303h48v-760h-48v42l3 53h-12q-50 -101 -166 -101zM257 40q73 0 119.5 56.5t46.5 152.5q0 98 -45.5 154.5t-120.5 56.5q-72 0 -119 -56t-47 -155t47 -154t119 -55z" />
    <glyph glyph-name="e" unicode="e" horiz-adv-x="518" 
d="M264 -10q-100 0 -163 68.5t-63 190.5q0 116 60.5 188.5t159.5 72.5q100 0 158 -71t58 -192v-9h-315l-73 1q2 -96 49 -150t129 -54q62 0 103.5 32t56.5 91l46 -5q-19 -78 -73 -120.5t-133 -42.5zM88 281l71 2h194l73 -2q-6 90 -51.5 137t-116.5 47t-118 -47.5t-52 -136.5z
" />
    <glyph glyph-name="f" unicode="f" horiz-adv-x="315" 
d="M115 0v457l-51 -2h-51v45h51l52 -2l-1 80v58q0 61 33.5 92.5t89.5 31.5q24 0 57 -5v-43q-33 5 -54 5q-33 0 -55.5 -19t-22.5 -62v-57l-1 -81l52 2h81v-45h-80l-52 2v-457h-48z" />
    <glyph glyph-name="g" unicode="g" horiz-adv-x="535" 
d="M257 -245q-85 0 -144.5 46.5t-71.5 135.5l49 5q7 -70 52.5 -106.5t114.5 -36.5q166 0 166 182v61l1 53h-8q-53 -101 -170 -101q-88 0 -147 67t-59 188q0 120 59.5 188.5t146.5 68.5q114 0 170 -100h8l-1 51v43h48v-519q0 -111 -56.5 -168.5t-157.5 -57.5zM257 40
q74 0 120 54.5t46 154.5q0 101 -45.5 156t-120.5 55q-72 0 -119 -56t-47 -155t47 -154t119 -55z" />
    <glyph glyph-name="h" unicode="h" 
d="M64 0v760h48v-306l-4 -57h13q61 108 183 108q77 0 122.5 -50t45.5 -149v-306h-48v300q0 89 -35.5 124.5t-96.5 35.5q-73 0 -126.5 -55t-53.5 -155v-250h-48z" />
    <glyph glyph-name="i" unicode="i" horiz-adv-x="186" 
d="M60 626v66h66v-66h-66zM69 0v500h48v-500h-48z" />
    <glyph glyph-name="j" unicode="j" horiz-adv-x="286" 
d="M160 626v66h66v-66h-66zM80 -245q-24 0 -65 3v44q41 -3 61 -3q93 0 93 118v583h48v-583q0 -78 -35.5 -120t-101.5 -42z" />
    <glyph glyph-name="k" unicode="k" horiz-adv-x="497" 
d="M64 0v760h48v-421l-6 -93h10l285 254h67l-222 -197l236 -300v-3h-58l-211 274l-101 -90v-184h-48z" />
    <glyph glyph-name="l" unicode="l" horiz-adv-x="274" 
d="M180 -5q-55 0 -85 31.5t-30 92.5v641h48v-641q0 -81 70 -81q22 0 54 5v-41q-38 -7 -57 -7z" />
    <glyph glyph-name="m" unicode="m" horiz-adv-x="820" 
d="M64 0v500h48v-49l-4 -54h14q15 51 56.5 79.5t88.5 28.5q62 0 100.5 -28.5t48.5 -79.5h15q17 54 58.5 81t96.5 27q79 0 126.5 -49t47.5 -148v-308h-48v291q0 90 -37 129.5t-96 39.5q-62 0 -102.5 -45t-40.5 -144v-271h-48v291q0 169 -135 169q-58 0 -99.5 -55.5
t-41.5 -154.5v-250h-48z" />
    <glyph glyph-name="n" unicode="n" 
d="M64 0v500h48v-46l-4 -57h13q61 108 183 108q77 0 122.5 -50t45.5 -149v-306h-48v300q0 89 -35.5 124.5t-96.5 35.5q-73 0 -126.5 -55t-53.5 -155v-250h-48z" />
    <glyph glyph-name="o" unicode="o" horiz-adv-x="508" 
d="M255 -10q-97 0 -157 68t-60 191q0 124 60 192.5t157 68.5t156 -68.5t59 -192.5q0 -123 -59 -191t-156 -68zM255 34q75 0 121 56t46 159q0 104 -45.5 160.5t-121.5 56.5t-122.5 -56.5t-46.5 -160.5q0 -102 46.5 -158.5t122.5 -56.5z" />
    <glyph glyph-name="p" unicode="p" horiz-adv-x="535" 
d="M64 -240v740h48v-43l-3 -51h12q22 43 64.5 71.5t103.5 28.5q87 0 146.5 -68.5t59.5 -188.5q0 -121 -59 -188t-147 -67q-61 0 -104 28.5t-64 72.5h-12l3 -53v-282h-48zM278 40q72 0 119 55t47 154t-47 155t-119 56q-75 0 -120.5 -55t-45.5 -156q0 -100 46 -154.5
t120 -54.5z" />
    <glyph glyph-name="q" unicode="q" horiz-adv-x="535" 
d="M423 -240v282l3 53h-12q-21 -43 -64 -72t-104 -29q-88 0 -147 67t-59 188q0 120 59.5 188.5t146.5 68.5q116 0 168 -100h12l-3 51v43h48v-740h-48zM257 40q74 0 120 54.5t46 154.5q0 101 -45.5 156t-120.5 55q-72 0 -119 -56t-47 -155t47 -154t119 -55z" />
    <glyph glyph-name="r" unicode="r" horiz-adv-x="357" 
d="M64 0v500h48v-45l-3 -53h14q17 46 58.5 76t102.5 30q30 0 48 -2v-45q-19 2 -46 2q-174 0 -174 -213v-250h-48z" />
    <glyph glyph-name="s" unicode="s" horiz-adv-x="473" 
d="M246 -10q-85 0 -143 40t-73 108l49 5q12 -52 55.5 -80t111.5 -28q67 0 108 27t41 72q0 70 -108 85l-95 12q-147 18 -147 127q0 66 52.5 109t129.5 43q80 0 130 -41.5t59 -115.5l-45 -3q-8 56 -45.5 85.5t-98.5 29.5q-58 0 -95.5 -29.5t-37.5 -76.5q0 -69 102 -82l94 -12
q153 -21 153 -127q0 -66 -54.5 -107t-142.5 -41z" />
    <glyph glyph-name="t" unicode="t" horiz-adv-x="332" 
d="M233 -5q-55 0 -85 31.5t-30 92.5v338l-55 -2h-50v45h50l55 -2v144h48v-87l-2 -57l57 2h73v-45h-73l-55 2v-336q0 -81 70 -81q26 0 58 5v-43q-38 -7 -61 -7z" />
    <glyph glyph-name="u" unicode="u" 
d="M228 -5q-77 0 -122.5 50t-45.5 149v306h48v-300q0 -89 35.5 -124.5t96.5 -35.5q73 0 126.5 55t53.5 155v250h48v-500h-48v46l4 57h-13q-59 -108 -183 -108z" />
    <glyph glyph-name="v" unicode="v" horiz-adv-x="464" 
d="M205 0l-192 500h54l154 -418l6 -28h10l6 28l154 418h54l-192 -500h-54z" />
    <glyph glyph-name="w" unicode="w" horiz-adv-x="768" 
d="M177 0l-164 500h54l131 -414l6 -30h9l6 30l138 414h54l138 -414l6 -30h9l6 30l131 414h54l-164 -500h-59l-138 404l-5 37h-11l-5 -37l-137 -404h-59z" />
    <glyph glyph-name="x" unicode="x" horiz-adv-x="481" 
d="M21 0v3l190 247l-190 247v3h62l116 -161l37 -59h9l37 59l116 161h62v-3l-190 -247l190 -247v-3h-62l-116 160l-37 60h-9l-37 -60l-116 -160h-62z" />
    <glyph glyph-name="y" unicode="y" horiz-adv-x="495" 
d="M91 -241q-12 0 -44 2v42q16 -1 38 -1q38 0 61.5 24.5t48.5 91.5l32 83l-208 499h55l158 -391l13 -48h11l15 48l150 391h54l-241 -601q-33 -83 -63.5 -111.5t-79.5 -28.5z" />
    <glyph glyph-name="z" unicode="z" horiz-adv-x="438" 
d="M33 0v43l281 366l39 35v11h-314v45h369v-43l-280 -363l-40 -38v-11h324v-45h-379z" />
    <glyph glyph-name="braceleft" unicode="{" horiz-adv-x="291" 
d="M221 -91q-47 0 -76 27t-29 84v198q0 44 -20 68t-70 24v44q50 0 70 24t20 68v197q0 58 29 85.5t76 27.5q29 0 53 -3v-41q-60 0 -84 -14.5t-24 -67.5v-182q0 -53 -16.5 -76.5t-53.5 -32.5v-14q37 -9 53.5 -32.5t16.5 -76.5v-181q0 -53 24 -67.5t84 -14.5v-41q-16 -3 -53 -3
z" />
    <glyph glyph-name="bar" unicode="|" horiz-adv-x="178" 
d="M64 -166v891h50v-891h-50z" />
    <glyph glyph-name="braceright" unicode="}" horiz-adv-x="291" 
d="M70 -91q-37 0 -53 3v41q60 0 84 14.5t24 67.5v181q0 53 16.5 76.5t53.5 32.5v14q-37 9 -53.5 32.5t-16.5 76.5v182q0 53 -24 67.5t-84 14.5v41q24 3 53 3q47 0 76 -27.5t29 -85.5v-197q0 -44 20 -68t70 -24v-44q-50 0 -70 -24t-20 -68v-198q0 -57 -29 -84t-76 -27z" />
    <glyph glyph-name="asciitilde" unicode="~" horiz-adv-x="518" 
d="M26 183q0 59 34 93.5t92 34.5q43 0 79 -21.5t68.5 -42.5t66.5 -21q36 0 58 21t22 64h46q0 -59 -34 -93.5t-92 -34.5q-43 0 -79 21.5t-68.5 42.5t-66.5 21q-38 0 -59 -22.5t-21 -62.5h-46z" />
    <glyph glyph-name="uni00A0" unicode="&#xa0;" horiz-adv-x="290" 
 />
    <glyph glyph-name="exclamdown" unicode="&#xa1;" horiz-adv-x="202" 
d="M69 436v64h64v-64h-64zM71 -202l2 256l6 271h44l6 -271l2 -256h-60z" />
    <glyph glyph-name="cent" unicode="&#xa2;" horiz-adv-x="498" 
d="M471 277q-16 -80 -65.5 -129t-124.5 -54v-94h-44v94q-87 11 -141.5 80t-54.5 173q0 106 54 176t142 79v93h44v-93q73 -6 122 -54t64 -127l-48 -5q-12 61 -48 98t-90 43v-418q55 5 91.5 42.5t50.5 99.5zM89 347q0 -83 41 -140t107 -67v417q-67 -9 -107.5 -66.5
t-40.5 -143.5z" />
    <glyph glyph-name="sterling" unicode="&#xa3;" horiz-adv-x="615" 
d="M93 43l484 1v-44h-539v43q68 51 103 101.5t35 120.5q0 14 -1 20h-136v43h126q-6 16 -22.5 51t-25.5 64.5t-9 61.5q0 86 61 140t155 54q41 0 77.5 -10.5t71.5 -35t58.5 -72t29.5 -113.5l-45 -6q-19 192 -193 192q-78 0 -121.5 -42t-43.5 -107q0 -38 26 -102.5t29 -74.5
h291v-43h-283q1 -7 1 -20q0 -72 -38.5 -130.5t-90.5 -87.5v-4z" />
    <glyph glyph-name="currency" unicode="&#xa4;" horiz-adv-x="573" 
d="M82 111l-31 31l78 78q-43 55 -43 125.5t43 126.5l-78 78l31 32l78 -78q56 44 126.5 44t125.5 -44l78 78l32 -32l-78 -78q43 -55 43 -125.5t-43 -126.5l79 -77l-32 -32l-79 78q-55 -43 -126 -43.5t-126 42.5zM180 240q44 -44 106.5 -44t106.5 44t43.5 106.5t-44.5 106.5
t-105.5 44t-106.5 -44q-44 -43 -44 -106t44 -107z" />
    <glyph glyph-name="yen" unicode="&#xa5;" horiz-adv-x="683" 
d="M675 695l-292 -394h192v-43h-208v-57h208v-43h-208v-158h-50v158h-207v43h207v57h-207v43h191l-293 394h67l220 -308l45 -66h4l45 66l220 308h66z" />
    <glyph glyph-name="brokenbar" unicode="&#xa6;" horiz-adv-x="178" 
d="M64 364v361h50v-361h-50zM64 -166v361h50v-361h-50z" />
    <glyph glyph-name="section" unicode="&#xa7;" horiz-adv-x="483" 
d="M253 -23q-87 0 -142.5 43t-62.5 121l46 4q6 -62 49 -92.5t110 -30.5q57 0 96.5 27t39.5 73q0 69 -102 83l-94 12q-150 19 -150 127q0 46 26 77.5t57 44.5v6q-81 27 -81 104q0 62 51.5 104.5t130.5 42.5q81 0 132.5 -43t57.5 -122l-45 -3q-6 63 -45.5 93t-99.5 30
q-55 0 -94 -28.5t-39 -72.5q0 -37 23.5 -54.5t78.5 -27.5l94 -12q150 -19 150 -127q0 -46 -26 -78.5t-52 -42.5v-6q76 -27 76 -106q0 -65 -52 -105.5t-133 -40.5zM298 250q47 18 70.5 41t23.5 61q0 71 -105 85l-113 15q-42 -22 -62.5 -44.5t-20.5 -59.5q0 -71 105 -85z" />
    <glyph glyph-name="dieresis" unicode="&#xa8;" horiz-adv-x="249" 
d="M0 624v67h66v-67h-66zM183 624v67h66v-67h-66z" />
    <glyph glyph-name="copyright" unicode="&#xa9;" horiz-adv-x="846" 
d="M423 -35q-163 0 -271.5 110.5t-108.5 269.5t108.5 269.5t271.5 110.5t271.5 -110.5t108.5 -269.5t-108.5 -269.5t-271.5 -110.5zM423 3q148 0 242 98.5t94 243.5t-94 243.5t-242 98.5t-242 -98.5t-94 -243.5t94 -243.5t242 -98.5zM428 106q-90 0 -144 64t-54 174
q0 108 54.5 173.5t143.5 65.5q74 0 123 -45.5t60 -123.5l-41 -4q-10 64 -47.5 100t-94.5 36q-70 0 -113.5 -55t-43.5 -147t43 -145.5t114 -53.5q60 0 99 35.5t49 99.5l41 -2q-13 -81 -63 -126.5t-126 -45.5z" />
    <glyph glyph-name="ordfeminine" unicode="&#xaa;" horiz-adv-x="517" 
d="M188 239q-65 0 -103.5 32t-38.5 83q0 46 32.5 75.5t78.5 40.5t92 18.5t78.5 18t32.5 30.5v19q0 44 -31.5 73t-84.5 29q-59 0 -97 -36.5t-47 -101.5l-47 4q11 82 62 129t129 47q75 0 120.5 -41.5t45.5 -110.5l1 -202q0 -36 15.5 -48t60.5 -10v-42q-22 -3 -33 -3
q-84 0 -87 91h-3q-17 -43 -64.5 -69t-111.5 -26zM191 282q73 0 121 45.5t48 113.5v36q-23 -13 -72 -22.5t-89 -15.5t-72 -27t-32 -57t25 -54.5t71 -18.5z" />
    <glyph glyph-name="guillemotleft" unicode="&#xab;" horiz-adv-x="477" 
d="M231 46l-184 202v4l184 202h59l-192 -202v-4l192 -202h-59zM371 46l-184 202v4l184 202h59l-192 -202v-4l192 -202h-59z" />
    <glyph glyph-name="logicalnot" unicode="&#xac;" horiz-adv-x="522" 
d="M408 85v209h-344v46h394v-255h-50z" />
    <glyph glyph-name="uni00AD" unicode="&#xad;" horiz-adv-x="498" 
d="M58 245v43h362v-43h-362z" />
    <glyph glyph-name="registered" unicode="&#xae;" horiz-adv-x="846" 
d="M423 -35q-163 0 -271.5 110.5t-108.5 269.5t108.5 269.5t271.5 110.5t271.5 -110.5t108.5 -269.5t-108.5 -269.5t-271.5 -110.5zM423 3q148 0 242 99t94 243t-94 243t-242 99t-242 -99t-94 -243t94 -243t242 -99zM260 105v478h183q69 0 114.5 -31.5t45.5 -102.5
q0 -58 -39 -88t-96 -31v-5q23 -4 40.5 -13t28.5 -24t16.5 -25t11.5 -26q13 -35 45 -132h-40q-5 15 -15 49.5t-15.5 50.5t-17.5 41t-23 36.5t-29.5 21t-41.5 9.5h-61l-68 1v-209h-39zM299 350l68 1h76q120 0 120 98q0 99 -120 99h-144v-198z" />
    <glyph glyph-name="macron" unicode="&#xaf;" horiz-adv-x="272" 
d="M0 637v43h272v-43h-272z" />
    <glyph glyph-name="degree" unicode="&#xb0;" horiz-adv-x="364" 
d="M182 447q-54 0 -92.5 38.5t-38.5 92.5q0 55 38 93t93 38t93 -38t38 -93q0 -54 -38.5 -92.5t-92.5 -38.5zM182 490q36 0 62 26t26 62q0 37 -25.5 63t-62.5 26t-62.5 -26t-25.5 -63q0 -36 26 -62t62 -26z" />
    <glyph glyph-name="plusminus" unicode="&#xb1;" horiz-adv-x="539" 
d="M292 381h200v-46h-199v-160h-46v160h-200v46h199v160h46v-160zM47 95v46h445v-46h-445z" />
    <glyph glyph-name="uni00B2" unicode="&#xb2;" horiz-adv-x="367" 
d="M41 379v26l129 97q31 23 42.5 32.5t33.5 31.5t31 43.5t9 46.5q0 43 -24.5 67.5t-70.5 24.5q-47 0 -77 -27.5t-36 -76.5l-31 3q6 59 47 95t98 36q58 0 92 -33.5t34 -87.5q0 -53 -33.5 -93.5t-96.5 -87.5l-92 -68v-2l52 1h170v-28h-277z" />
    <glyph glyph-name="uni00B3" unicode="&#xb3;" horiz-adv-x="364" 
d="M182 376q-57 0 -99 31t-51 85l32 3q6 -42 39.5 -65.5t78.5 -23.5q48 0 78 22t30 63q0 39 -29.5 60t-72.5 21h-15v30h15q88 0 88 71q0 32 -24 53.5t-66 21.5q-89 0 -107 -85l-30 3q8 51 46 81.5t91 30.5t87.5 -31t34.5 -74q0 -36 -20.5 -56.5t-48.5 -27.5v-4
q35 -6 59.5 -29t24.5 -65q0 -53 -41 -84t-100 -31z" />
    <glyph glyph-name="acute" unicode="&#xb4;" horiz-adv-x="162" 
d="M0 582l106 151h56l-110 -151h-52z" />
    <glyph glyph-name="uni00B5" unicode="&#xb5;" horiz-adv-x="564" 
d="M64 -200v700h48v-300q0 -160 130 -160q70 0 122.5 56.5t52.5 153.5v250h48v-386q0 -43 17 -57.5t63 -13.5v-41q-21 -2 -32 -2q-44 0 -68 27t-23 76h-12q-58 -108 -178 -108q-76 0 -112 51h-8v-246h-48z" />
    <glyph glyph-name="paragraph" unicode="&#xb6;" horiz-adv-x="470" 
d="M224 695h195v-861h-50v817h-95v-817h-50v406q-71 0 -122 67t-51 161q0 93 51 160t122 67z" />
    <glyph glyph-name="periodcentered" unicode="&#xb7;" horiz-adv-x="202" 
d="M69 298v64h64v-64h-64z" />
    <glyph glyph-name="cedilla" unicode="&#xb8;" horiz-adv-x="206" 
d="M66 -228q-9 0 -20 0.5t-24.5 1.5t-21.5 1v37q42 -3 63 -3q103 0 103 55q0 28 -20 41t-72 13v105l34 -3v-69q44 -1 71 -24.5t27 -56.5q0 -98 -140 -98z" />
    <glyph glyph-name="uni00B9" unicode="&#xb9;" horiz-adv-x="330" 
d="M45 379v28h64l55 -1v267h-3q-27 -44 -120 -44v28q129 0 129 118h26v-307l-1 -62l51 1h46v-28h-247z" />
    <glyph glyph-name="ordmasculine" unicode="&#xba;" horiz-adv-x="470" 
d="M236 239q-88 0 -143 60.5t-55 168.5q0 109 55 170.5t143 61.5t142 -61.5t54 -170.5q0 -108 -54 -168.5t-142 -60.5zM236 280q66 0 107 50t41 138q0 90 -41 140t-107 50q-67 0 -108.5 -50t-41.5 -140q0 -88 41.5 -138t108.5 -50z" />
    <glyph glyph-name="guillemotright" unicode="&#xbb;" horiz-adv-x="477" 
d="M47 46l192 202v4l-192 202h59l184 -202v-4l-184 -202h-59zM187 46l192 202v4l-192 202h59l184 -202v-4l-184 -202h-59z" />
    <glyph glyph-name="onequarter" unicode="&#xbc;" horiz-adv-x="898" 
d="M230 -30l450 755h41l-450 -755h-41zM45 299v28h64l55 -1v267h-3q-27 -44 -120 -44v28q129 0 129 118h26v-307l-1 -62l51 1h46v-28h-247zM777 -1v104h-223v28l214 264h41v-262h66v-30h-66v-104h-32zM594 132l45 1h138v172l2 57h-6l-30 -43l-119 -148l-30 -34v-5z" />
    <glyph glyph-name="onehalf" unicode="&#xbd;" horiz-adv-x="935" 
d="M230 -30l450 755h41l-450 -755h-41zM45 299v28h64l55 -1v267h-3q-27 -44 -120 -44v28q129 0 129 118h26v-307l-1 -62l51 1h46v-28h-247zM609 -1v26l129 97q31 23 42.5 32.5t33.5 31.5t31 43.5t9 46.5q0 43 -24.5 67.5t-70.5 24.5q-47 0 -77 -27.5t-36 -76.5l-31 3
q6 59 47 95t98 36q58 0 92 -33.5t34 -87.5q0 -53 -33.5 -93.5t-96.5 -87.5l-92 -68v-2l52 1h170v-28h-277z" />
    <glyph glyph-name="threequarters" unicode="&#xbe;" horiz-adv-x="879" 
d="M211 -30l450 755h41l-450 -755h-41zM182 296q-57 0 -99 31t-51 85l32 3q6 -42 39.5 -65.5t78.5 -23.5q48 0 78 22t30 63q0 39 -29.5 60t-72.5 21h-15v30h15q88 0 88 71q0 32 -24 53.5t-66 21.5q-89 0 -107 -85l-30 3q8 51 46 81.5t91 30.5t87.5 -31t34.5 -74
q0 -36 -20.5 -56.5t-48.5 -27.5v-4q35 -6 59.5 -29t24.5 -65q0 -53 -41 -84t-100 -31zM758 -1v104h-223v28l214 264h41v-262h66v-30h-66v-104h-32zM575 132l45 1h138v172l2 57h-6l-30 -43l-119 -148l-30 -34v-5z" />
    <glyph glyph-name="questiondown" unicode="&#xbf;" horiz-adv-x="586" 
d="M258 436v64h64v-64h-64zM284 -207q-103 0 -167 55t-64 149q0 38 11.5 68.5t29.5 51.5t40.5 39.5t45 36t41.5 35.5t32 44.5t15 57.5h43q0 -44 -15.5 -78t-38.5 -53t-50.5 -40t-50.5 -39.5t-38.5 -50t-15.5 -72.5q0 -75 49.5 -116.5t132.5 -41.5q80 0 134.5 49t69.5 138
l47 -4q-15 -106 -83.5 -167.5t-167.5 -61.5z" />
    <glyph glyph-name="Agrave" unicode="&#xc0;" horiz-adv-x="681" 
d="M316 777l-102 151h59l92 -151h-49zM9 0l301 695h62l300 -695h-56l-83 193h-385l-83 -193h-56zM167 237l73 2h202l73 -2l-18 43l-140 325l-11 38h-10l-11 -38l-141 -326z" />
    <glyph glyph-name="Aacute" unicode="&#xc1;" horiz-adv-x="681" 
d="M316 777l106 151h56l-110 -151h-52zM9 0l301 695h62l300 -695h-56l-83 193h-385l-83 -193h-56zM167 237l73 2h202l73 -2l-18 43l-140 325l-11 38h-10l-11 -38l-141 -326z" />
    <glyph glyph-name="Acircumflex" unicode="&#xc2;" horiz-adv-x="681" 
d="M197 777l121 151h45l120 -151h-53l-83 118h-12l-85 -118h-53zM9 0l301 695h62l300 -695h-56l-83 193h-385l-83 -193h-56zM167 237l73 2h202l73 -2l-18 43l-140 325l-11 38h-10l-11 -38l-141 -326z" />
    <glyph glyph-name="Atilde" unicode="&#xc3;" horiz-adv-x="681" 
d="M202 788q0 128 74 128q29 0 51 -21t39 -41.5t33 -20.5q42 0 42 83h38q0 -128 -78 -128q-27 0 -50 21t-41.5 41.5t-33.5 20.5q-38 0 -38 -83h-36zM9 0l301 695h62l300 -695h-56l-83 193h-385l-83 -193h-56zM167 237l73 2h202l73 -2l-18 43l-140 325l-11 38h-10l-11 -38
l-141 -326z" />
    <glyph glyph-name="Adieresis" unicode="&#xc4;" horiz-adv-x="681" 
d="M216 819v67h66v-67h-66zM399 819v67h66v-67h-66zM9 0l301 695h62l300 -695h-56l-83 193h-385l-83 -193h-56zM167 237l73 2h202l73 -2l-18 43l-140 325l-11 38h-10l-11 -38l-141 -326z" />
    <glyph glyph-name="Aring" unicode="&#xc5;" horiz-adv-x="681" 
d="M341 777q-33 0 -57 24.5t-24 56.5t24 56.5t57 24.5q32 0 56 -24.5t24 -56.5t-24 -56.5t-56 -24.5zM341 811q19 0 33 14t14 33t-14 33t-33 14q-20 0 -34 -14t-14 -33t14 -33t34 -14zM9 0l301 695h62l300 -695h-56l-83 193h-385l-83 -193h-56zM167 237l73 2h202l73 -2
l-18 43l-140 325l-11 38h-10l-11 -38l-141 -326z" />
    <glyph glyph-name="AE" unicode="&#xc6;" horiz-adv-x="993" 
d="M9 0l455 695h495v-46l-414 2l1 -109v-58l-1 -105l377 2v-45l-377 2l1 -105v-82l-1 -109l414 2v-44h-463v218h-281l-145 -218h-61zM245 263h251v387h-10z" />
    <glyph glyph-name="Ccedilla" unicode="&#xc7;" horiz-adv-x="680" 
d="M641 251q-13 -116 -86 -185.5t-186 -75.5v-39q44 -1 71 -24.5t27 -56.5q0 -98 -140 -98q-9 0 -20 0.5t-24.5 1.5t-21.5 1v37q42 -3 63 -3q103 0 103 55q0 28 -20 41t-72 13v72q-133 6 -213 102t-80 254q0 161 85.5 260t222.5 99q116 0 193.5 -69.5t88.5 -187.5l-49 -5
q-10 99 -73.5 158t-159.5 59q-115 0 -186 -87t-71 -227q0 -141 70 -226t187 -85q101 0 166 59t77 161z" />
    <glyph glyph-name="Egrave" unicode="&#xc8;" horiz-adv-x="571" 
d="M289 777l-102 151h59l92 -151h-49zM64 0v695h473v-46l-424 1l1 -108v-58l-1 -104l377 1v-45l-377 1l1 -104v-82l-1 -108l424 1v-44h-473z" />
    <glyph glyph-name="Eacute" unicode="&#xc9;" horiz-adv-x="571" 
d="M289 777l106 151h56l-110 -151h-52zM64 0v695h473v-46l-424 1l1 -108v-58l-1 -104l377 1v-45l-377 1l1 -104v-82l-1 -108l424 1v-44h-473z" />
    <glyph glyph-name="Ecircumflex" unicode="&#xca;" horiz-adv-x="571" 
d="M170 777l121 151h45l120 -151h-53l-83 118h-12l-85 -118h-53zM64 0v695h473v-46l-424 1l1 -108v-58l-1 -104l377 1v-45l-377 1l1 -104v-82l-1 -108l424 1v-44h-473z" />
    <glyph glyph-name="Edieresis" unicode="&#xcb;" horiz-adv-x="571" 
d="M189 819v67h66v-67h-66zM372 819v67h66v-67h-66zM64 0v695h473v-46l-424 1l1 -108v-58l-1 -104l377 1v-45l-377 1l1 -104v-82l-1 -108l424 1v-44h-473z" />
    <glyph glyph-name="Igrave" unicode="&#xcc;" horiz-adv-x="178" 
d="M64 777l-102 151h59l92 -151h-49zM64 0v695h50v-695h-50z" />
    <glyph glyph-name="Iacute" unicode="&#xcd;" horiz-adv-x="178" 
d="M64 777l106 151h56l-110 -151h-52zM64 0v695h50v-695h-50z" />
    <glyph glyph-name="Icircumflex" unicode="&#xce;" horiz-adv-x="178" 
d="M-55 777l121 151h45l120 -151h-53l-83 118h-12l-85 -118h-53zM64 0v695h50v-695h-50z" />
    <glyph glyph-name="Idieresis" unicode="&#xcf;" horiz-adv-x="178" 
d="M-36 819v67h66v-67h-66zM147 819v67h66v-67h-66zM64 0v695h50v-695h-50z" />
    <glyph glyph-name="Eth" unicode="&#xd0;" horiz-adv-x="663" 
d="M303 695q152 0 235 -90.5t83 -258.5t-83 -257t-235 -89h-228v325h-75v45h75v325h228zM303 45q130 0 198.5 77.5t68.5 223.5q0 147 -68.5 225.5t-198.5 78.5h-95l-84 1l1 -90v-191h191v-45h-191v-191l-1 -90l84 1h95z" />
    <glyph glyph-name="Ntilde" unicode="&#xd1;" horiz-adv-x="659" 
d="M191 788q0 128 74 128q29 0 51 -21t39 -41.5t33 -20.5q42 0 42 83h38q0 -128 -78 -128q-27 0 -50 21t-41.5 41.5t-33.5 20.5q-38 0 -38 -83h-36zM64 0v695h65l363 -555l45 -85h14l-6 102v538h50v-695h-66l-377 576l-30 64h-14l6 -102v-538h-50z" />
    <glyph glyph-name="Ograve" unicode="&#xd2;" horiz-adv-x="691" 
d="M321 777l-102 151h59l92 -151h-49zM347 -10q-147 0 -226 97t-79 259q0 159 79.5 259t225.5 100t224 -99.5t78 -259.5q0 -162 -77.5 -259t-224.5 -97zM347 35q124 0 187.5 85.5t63.5 225.5q0 138 -64 226t-187 88q-124 0 -189 -88t-65 -226q0 -140 65 -225.5t189 -85.5z
" />
    <glyph glyph-name="Oacute" unicode="&#xd3;" horiz-adv-x="691" 
d="M321 777l106 151h56l-110 -151h-52zM347 -10q-147 0 -226 97t-79 259q0 159 79.5 259t225.5 100t224 -99.5t78 -259.5q0 -162 -77.5 -259t-224.5 -97zM347 35q124 0 187.5 85.5t63.5 225.5q0 138 -64 226t-187 88q-124 0 -189 -88t-65 -226q0 -140 65 -225.5t189 -85.5z
" />
    <glyph glyph-name="Ocircumflex" unicode="&#xd4;" horiz-adv-x="691" 
d="M202 777l121 151h45l120 -151h-53l-83 118h-12l-85 -118h-53zM347 -10q-147 0 -226 97t-79 259q0 159 79.5 259t225.5 100t224 -99.5t78 -259.5q0 -162 -77.5 -259t-224.5 -97zM347 35q124 0 187.5 85.5t63.5 225.5q0 138 -64 226t-187 88q-124 0 -189 -88t-65 -226
q0 -140 65 -225.5t189 -85.5z" />
    <glyph glyph-name="Otilde" unicode="&#xd5;" horiz-adv-x="691" 
d="M207 788q0 128 74 128q29 0 51 -21t39 -41.5t33 -20.5q42 0 42 83h38q0 -128 -78 -128q-27 0 -50 21t-41.5 41.5t-33.5 20.5q-38 0 -38 -83h-36zM347 -10q-147 0 -226 97t-79 259q0 159 79.5 259t225.5 100t224 -99.5t78 -259.5q0 -162 -77.5 -259t-224.5 -97zM347 35
q124 0 187.5 85.5t63.5 225.5q0 138 -64 226t-187 88q-124 0 -189 -88t-65 -226q0 -140 65 -225.5t189 -85.5z" />
    <glyph glyph-name="Odieresis" unicode="&#xd6;" horiz-adv-x="691" 
d="M221 819v67h66v-67h-66zM404 819v67h66v-67h-66zM347 -10q-147 0 -226 97t-79 259q0 159 79.5 259t225.5 100t224 -99.5t78 -259.5q0 -162 -77.5 -259t-224.5 -97zM347 35q124 0 187.5 85.5t63.5 225.5q0 138 -64 226t-187 88q-124 0 -189 -88t-65 -226q0 -140 65 -225.5
t189 -85.5z" />
    <glyph glyph-name="multiply" unicode="&#xd7;" horiz-adv-x="441" 
d="M79 144l-32 32l88 88l55 54l-77 75l-66 66l32 33l67 -67l74 -76l67 69l75 74l32 -32l-76 -76l-67 -66l64 -62l79 -79l-32 -33l-80 80l-61 63l-52 -54z" />
    <glyph glyph-name="Oslash" unicode="&#xd8;" horiz-adv-x="691" 
d="M546 632q103 -97 103 -286q0 -162 -77.5 -259t-224.5 -97q-95 0 -166 44l-55 -90h-52l72 117q-104 95 -104 285q0 159 79.5 259t225.5 100q96 0 164 -45l56 91h52zM93 346q0 -159 79 -242l314 515q-58 41 -139 41q-124 0 -189 -88t-65 -226zM347 35q124 0 187.5 85.5
t63.5 225.5q0 159 -78 243l-314 -514q57 -40 141 -40z" />
    <glyph glyph-name="Ugrave" unicode="&#xd9;" horiz-adv-x="663" 
d="M307 777l-102 151h59l92 -151h-49zM333 -10q-123 0 -198 73t-75 198v434h50v-434q0 -103 60.5 -164.5t162.5 -61.5t161 61t59 165v434h50v-434q0 -125 -74 -198t-196 -73z" />
    <glyph glyph-name="Uacute" unicode="&#xda;" horiz-adv-x="663" 
d="M307 777l106 151h56l-110 -151h-52zM333 -10q-123 0 -198 73t-75 198v434h50v-434q0 -103 60.5 -164.5t162.5 -61.5t161 61t59 165v434h50v-434q0 -125 -74 -198t-196 -73z" />
    <glyph glyph-name="Ucircumflex" unicode="&#xdb;" horiz-adv-x="663" 
d="M188 777l121 151h45l120 -151h-53l-83 118h-12l-85 -118h-53zM333 -10q-123 0 -198 73t-75 198v434h50v-434q0 -103 60.5 -164.5t162.5 -61.5t161 61t59 165v434h50v-434q0 -125 -74 -198t-196 -73z" />
    <glyph glyph-name="Udieresis" unicode="&#xdc;" horiz-adv-x="663" 
d="M207 819v67h66v-67h-66zM390 819v67h66v-67h-66zM333 -10q-123 0 -198 73t-75 198v434h50v-434q0 -103 60.5 -164.5t162.5 -61.5t161 61t59 165v434h50v-434q0 -125 -74 -198t-196 -73z" />
    <glyph glyph-name="Yacute" unicode="&#xdd;" horiz-adv-x="683" 
d="M317 777l106 151h56l-110 -151h-52zM317 0v280l-309 415h63l224 -304l41 -73h12l41 73l223 304h63l-308 -415v-280h-50z" />
    <glyph glyph-name="Thorn" unicode="&#xde;" horiz-adv-x="568" 
d="M64 0v695h50v-72l-1 -71l95 1h102q104 0 168 -51.5t64 -154.5t-64 -154t-168 -51h-103l-94 1l1 -81v-62h-50zM113 186l94 1h103q185 0 185 160q0 161 -185 161h-102l-95 1l1 -76v-171z" />
    <glyph glyph-name="germandbls" unicode="&#xdf;" horiz-adv-x="578" 
d="M64 0v522q0 108 63.5 173t180.5 65q100 0 159.5 -51t59.5 -144q0 -68 -35.5 -112t-106.5 -55v-13q74 -8 118.5 -56.5t44.5 -121.5q0 -97 -58 -152t-171 -55h-103v55h103q179 0 179 152q0 76 -50.5 117.5t-142.5 41.5h-19v50h19q177 0 177 149q0 71 -45 110.5t-129 39.5
q-89 0 -141.5 -51.5t-52.5 -140.5v-523h-50z" />
    <glyph glyph-name="agrave" unicode="&#xe0;" horiz-adv-x="517" 
d="M252 582l-102 151h59l92 -151h-49zM213 -10q-78 0 -123 36.5t-45 95.5q0 25 6.5 46t16 36.5t28 27.5t33 19.5t42 13t44 8t49 3.5t48 1.5t50 0t46.5 -0.5v56q0 61 -35 96.5t-100 35.5q-68 0 -110.5 -36t-50.5 -104l-48 3q10 87 68.5 134.5t140.5 47.5q85 0 134 -49
t49 -130l1 -331h-38l-5 101h-13q-19 -51 -68.5 -81t-119.5 -30zM222 33q86 0 136 50t50 127v28h-35q-44 1 -67 0.5t-61.5 -3.5t-60 -10t-44.5 -19t-33.5 -32t-10.5 -48q0 -42 31.5 -67.5t94.5 -25.5z" />
    <glyph glyph-name="aacute" unicode="&#xe1;" horiz-adv-x="517" 
d="M252 582l106 151h56l-110 -151h-52zM213 -10q-78 0 -123 36.5t-45 95.5q0 25 6.5 46t16 36.5t28 27.5t33 19.5t42 13t44 8t49 3.5t48 1.5t50 0t46.5 -0.5v56q0 61 -35 96.5t-100 35.5q-68 0 -110.5 -36t-50.5 -104l-48 3q10 87 68.5 134.5t140.5 47.5q85 0 134 -49
t49 -130l1 -331h-38l-5 101h-13q-19 -51 -68.5 -81t-119.5 -30zM222 33q86 0 136 50t50 127v28h-35q-44 1 -67 0.5t-61.5 -3.5t-60 -10t-44.5 -19t-33.5 -32t-10.5 -48q0 -42 31.5 -67.5t94.5 -25.5z" />
    <glyph glyph-name="acircumflex" unicode="&#xe2;" horiz-adv-x="517" 
d="M133 582l121 151h45l120 -151h-53l-83 118h-12l-85 -118h-53zM213 -10q-78 0 -123 36.5t-45 95.5q0 25 6.5 46t16 36.5t28 27.5t33 19.5t42 13t44 8t49 3.5t48 1.5t50 0t46.5 -0.5v56q0 61 -35 96.5t-100 35.5q-68 0 -110.5 -36t-50.5 -104l-48 3q10 87 68.5 134.5
t140.5 47.5q85 0 134 -49t49 -130l1 -331h-38l-5 101h-13q-19 -51 -68.5 -81t-119.5 -30zM222 33q86 0 136 50t50 127v28h-35q-44 1 -67 0.5t-61.5 -3.5t-60 -10t-44.5 -19t-33.5 -32t-10.5 -48q0 -42 31.5 -67.5t94.5 -25.5z" />
    <glyph glyph-name="atilde" unicode="&#xe3;" horiz-adv-x="517" 
d="M138 593q0 128 74 128q23 0 42 -13t30 -28.5t24.5 -28.5t26.5 -13q42 0 42 83h38q0 -128 -78 -128q-27 0 -50 20.5t-41.5 41.5t-33.5 21q-38 0 -38 -83h-36zM213 -10q-78 0 -123 36.5t-45 95.5q0 25 6.5 46t16 36.5t28 27.5t33 19.5t42 13t44 8t49 3.5t48 1.5t50 0
t46.5 -0.5v56q0 61 -35 96.5t-100 35.5q-68 0 -110.5 -36t-50.5 -104l-48 3q10 87 68.5 134.5t140.5 47.5q85 0 134 -49t49 -130l1 -331h-38l-5 101h-13q-19 -51 -68.5 -81t-119.5 -30zM222 33q86 0 136 50t50 127v28h-35q-44 1 -67 0.5t-61.5 -3.5t-60 -10t-44.5 -19
t-33.5 -32t-10.5 -48q0 -42 31.5 -67.5t94.5 -25.5z" />
    <glyph glyph-name="adieresis" unicode="&#xe4;" horiz-adv-x="517" 
d="M152 624v67h66v-67h-66zM335 624v67h66v-67h-66zM213 -10q-78 0 -123 36.5t-45 95.5q0 25 6.5 46t16 36.5t28 27.5t33 19.5t42 13t44 8t49 3.5t48 1.5t50 0t46.5 -0.5v56q0 61 -35 96.5t-100 35.5q-68 0 -110.5 -36t-50.5 -104l-48 3q10 87 68.5 134.5t140.5 47.5
q85 0 134 -49t49 -130l1 -331h-38l-5 101h-13q-19 -51 -68.5 -81t-119.5 -30zM222 33q86 0 136 50t50 127v28h-35q-44 1 -67 0.5t-61.5 -3.5t-60 -10t-44.5 -19t-33.5 -32t-10.5 -48q0 -42 31.5 -67.5t94.5 -25.5z" />
    <glyph glyph-name="aring" unicode="&#xe5;" horiz-adv-x="517" 
d="M277 582q-33 0 -57 24.5t-24 56.5t24 56.5t57 24.5q32 0 56 -24.5t24 -56.5t-24 -56.5t-56 -24.5zM277 616q19 0 33 14t14 33t-14 33t-33 14q-20 0 -34 -14t-14 -33t14 -33t34 -14zM213 -10q-78 0 -123 36.5t-45 95.5q0 25 6.5 46t16 36.5t28 27.5t33 19.5t42 13t44 8
t49 3.5t48 1.5t50 0t46.5 -0.5v56q0 61 -35 96.5t-100 35.5q-68 0 -110.5 -36t-50.5 -104l-48 3q10 87 68.5 134.5t140.5 47.5q85 0 134 -49t49 -130l1 -331h-38l-5 101h-13q-19 -51 -68.5 -81t-119.5 -30zM222 33q86 0 136 50t50 127v28h-35q-44 1 -67 0.5t-61.5 -3.5
t-60 -10t-44.5 -19t-33.5 -32t-10.5 -48q0 -42 31.5 -67.5t94.5 -25.5z" />
    <glyph glyph-name="ae" unicode="&#xe6;" horiz-adv-x="876" 
d="M525 238l-70 1l1 -25q8 -80 54 -126.5t117 -46.5q63 0 102.5 34t52.5 92l46 -5q-18 -77 -70 -122t-131 -45q-64 0 -115 32.5t-79 92.5q-19 -52 -78 -88.5t-136 -36.5q-81 0 -127.5 35t-46.5 90q0 45 27 75t67 43t87 23t87 16t67 20.5t27 37.5v13q0 37 -38.5 74.5
t-101.5 37.5q-134 0 -160 -145l-48 3q14 90 70.5 138.5t137.5 48.5q63 0 108 -29t66 -74q55 103 180 103q102 0 156.5 -69t54.5 -189v-9h-307zM621 459q-72 0 -114 -46t-51 -130l69 1h186l69 -1q-8 85 -48 130.5t-111 45.5zM407 218v54q-28 -20 -85 -33.5t-104.5 -20.5
t-84.5 -31t-37 -66q0 -40 32.5 -61.5t90.5 -21.5q86 0 137 48.5t51 131.5z" />
    <glyph glyph-name="ccedilla" unicode="&#xe7;" horiz-adv-x="495" 
d="M468 179q-12 -87 -62 -135t-127 -53v-30q44 -1 71 -24.5t27 -56.5q0 -98 -140 -98q-9 0 -20 0.5t-24.5 1.5t-21.5 1v37q42 -3 63 -3q103 0 103 55q0 28 -20 41t-72 13v62q-94 6 -150.5 76t-56.5 183q0 119 60.5 190t159.5 71q83 0 138 -48t68 -139l-48 -5
q-11 74 -52.5 110.5t-105.5 36.5q-79 0 -125.5 -58t-46.5 -158q0 -99 47.5 -156.5t126.5 -57.5q65 0 107.5 37t52.5 111z" />
    <glyph glyph-name="egrave" unicode="&#xe8;" horiz-adv-x="518" 
d="M235 582l-102 151h59l92 -151h-49zM264 -10q-100 0 -163 68.5t-63 190.5q0 116 60.5 188.5t159.5 72.5q100 0 158 -71t58 -192v-9h-315l-73 1q2 -96 49 -150t129 -54q62 0 103.5 32t56.5 91l46 -5q-19 -78 -73 -120.5t-133 -42.5zM88 281l71 2h194l73 -2q-6 90 -51.5 137
t-116.5 47t-118 -47.5t-52 -136.5z" />
    <glyph glyph-name="eacute" unicode="&#xe9;" horiz-adv-x="518" 
d="M235 582l106 151h56l-110 -151h-52zM264 -10q-100 0 -163 68.5t-63 190.5q0 116 60.5 188.5t159.5 72.5q100 0 158 -71t58 -192v-9h-315l-73 1q2 -96 49 -150t129 -54q62 0 103.5 32t56.5 91l46 -5q-19 -78 -73 -120.5t-133 -42.5zM88 281l71 2h194l73 -2
q-6 90 -51.5 137t-116.5 47t-118 -47.5t-52 -136.5z" />
    <glyph glyph-name="ecircumflex" unicode="&#xea;" horiz-adv-x="518" 
d="M116 582l121 151h45l120 -151h-53l-83 118h-12l-85 -118h-53zM264 -10q-100 0 -163 68.5t-63 190.5q0 116 60.5 188.5t159.5 72.5q100 0 158 -71t58 -192v-9h-315l-73 1q2 -96 49 -150t129 -54q62 0 103.5 32t56.5 91l46 -5q-19 -78 -73 -120.5t-133 -42.5zM88 281l71 2
h194l73 -2q-6 90 -51.5 137t-116.5 47t-118 -47.5t-52 -136.5z" />
    <glyph glyph-name="edieresis" unicode="&#xeb;" horiz-adv-x="518" 
d="M135 624v67h66v-67h-66zM318 624v67h66v-67h-66zM264 -10q-100 0 -163 68.5t-63 190.5q0 116 60.5 188.5t159.5 72.5q100 0 158 -71t58 -192v-9h-315l-73 1q2 -96 49 -150t129 -54q62 0 103.5 32t56.5 91l46 -5q-19 -78 -73 -120.5t-133 -42.5zM88 281l71 2h194l73 -2
q-6 90 -51.5 137t-116.5 47t-118 -47.5t-52 -136.5z" />
    <glyph glyph-name="igrave" unicode="&#xec;" horiz-adv-x="202" 
d="M76 582l-102 151h59l92 -151h-49zM77 0v500h48v-500h-48z" />
    <glyph glyph-name="iacute" unicode="&#xed;" horiz-adv-x="202" 
d="M76 582l106 151h56l-110 -151h-52zM77 0v500h48v-500h-48z" />
    <glyph glyph-name="icircumflex" unicode="&#xee;" horiz-adv-x="202" 
d="M-43 582l121 151h45l120 -151h-53l-83 118h-12l-85 -118h-53zM77 0v500h48v-500h-48z" />
    <glyph glyph-name="idieresis" unicode="&#xef;" horiz-adv-x="202" 
d="M-24 624v67h66v-67h-66zM159 624v67h66v-67h-66zM77 0v500h48v-500h-48z" />
    <glyph glyph-name="eth" unicode="&#xf0;" horiz-adv-x="514" 
d="M179 700q57 -8 107 -33t94.5 -71t70 -124.5t25.5 -182.5q0 -144 -57 -219t-161 -75q-102 0 -164 67.5t-62 175.5q0 109 61.5 177t161.5 68q56 0 94.5 -25.5t55.5 -57.5h15q-20 121 -89 184t-172 72l-39 -82h-50l39 84q-44 0 -95 -5v46q55 5 108 5h9l33 70h50zM258 40
q82 0 126 55.5t44 142.5q0 90 -47 145t-126 55t-127 -55t-48 -145q0 -89 48.5 -143.5t129.5 -54.5z" />
    <glyph glyph-name="ntilde" unicode="&#xf1;" 
d="M135 593q0 128 74 128q23 0 42 -13t30 -28.5t24.5 -28.5t26.5 -13q42 0 42 83h38q0 -128 -78 -128q-27 0 -50 20.5t-41.5 41.5t-33.5 21q-38 0 -38 -83h-36zM64 0v500h48v-46l-4 -57h13q61 108 183 108q77 0 122.5 -50t45.5 -149v-306h-48v300q0 89 -35.5 124.5
t-96.5 35.5q-73 0 -126.5 -55t-53.5 -155v-250h-48z" />
    <glyph glyph-name="ograve" unicode="&#xf2;" horiz-adv-x="508" 
d="M229 582l-102 151h59l92 -151h-49zM255 -10q-97 0 -157 68t-60 191q0 124 60 192.5t157 68.5t156 -68.5t59 -192.5q0 -123 -59 -191t-156 -68zM255 34q75 0 121 56t46 159q0 104 -45.5 160.5t-121.5 56.5t-122.5 -56.5t-46.5 -160.5q0 -102 46.5 -158.5t122.5 -56.5z" />
    <glyph glyph-name="oacute" unicode="&#xf3;" horiz-adv-x="508" 
d="M229 582l106 151h56l-110 -151h-52zM255 -10q-97 0 -157 68t-60 191q0 124 60 192.5t157 68.5t156 -68.5t59 -192.5q0 -123 -59 -191t-156 -68zM255 34q75 0 121 56t46 159q0 104 -45.5 160.5t-121.5 56.5t-122.5 -56.5t-46.5 -160.5q0 -102 46.5 -158.5t122.5 -56.5z
" />
    <glyph glyph-name="ocircumflex" unicode="&#xf4;" horiz-adv-x="508" 
d="M110 582l121 151h45l120 -151h-53l-83 118h-12l-85 -118h-53zM255 -10q-97 0 -157 68t-60 191q0 124 60 192.5t157 68.5t156 -68.5t59 -192.5q0 -123 -59 -191t-156 -68zM255 34q75 0 121 56t46 159q0 104 -45.5 160.5t-121.5 56.5t-122.5 -56.5t-46.5 -160.5
q0 -102 46.5 -158.5t122.5 -56.5z" />
    <glyph glyph-name="otilde" unicode="&#xf5;" horiz-adv-x="508" 
d="M115 593q0 128 74 128q23 0 42 -13t30 -28.5t24.5 -28.5t26.5 -13q42 0 42 83h38q0 -128 -78 -128q-27 0 -50 20.5t-41.5 41.5t-33.5 21q-38 0 -38 -83h-36zM255 -10q-97 0 -157 68t-60 191q0 124 60 192.5t157 68.5t156 -68.5t59 -192.5q0 -123 -59 -191t-156 -68z
M255 34q75 0 121 56t46 159q0 104 -45.5 160.5t-121.5 56.5t-122.5 -56.5t-46.5 -160.5q0 -102 46.5 -158.5t122.5 -56.5z" />
    <glyph glyph-name="odieresis" unicode="&#xf6;" horiz-adv-x="508" 
d="M129 624v67h66v-67h-66zM312 624v67h66v-67h-66zM255 -10q-97 0 -157 68t-60 191q0 124 60 192.5t157 68.5t156 -68.5t59 -192.5q0 -123 -59 -191t-156 -68zM255 34q75 0 121 56t46 159q0 104 -45.5 160.5t-121.5 56.5t-122.5 -56.5t-46.5 -160.5q0 -102 46.5 -158.5
t122.5 -56.5z" />
    <glyph glyph-name="divide" unicode="&#xf7;" horiz-adv-x="539" 
d="M238 439v64h64v-64h-64zM47 295v46h445v-46h-445zM238 133v64h64v-64h-64z" />
    <glyph glyph-name="oslash" unicode="&#xf8;" horiz-adv-x="508" 
d="M400 454q70 -70 70 -205q0 -123 -59 -191t-156 -68q-69 0 -118 34l-60 -98h-41l73 120q-71 71 -71 203q0 124 60 192.5t157 68.5q67 0 117 -33l58 95h42zM86 249q0 -104 49 -161l213 349q-40 29 -93 29q-76 0 -122.5 -56.5t-46.5 -160.5zM255 34q75 0 121 56t46 159
q0 105 -48 163l-213 -349q40 -29 94 -29z" />
    <glyph glyph-name="ugrave" unicode="&#xf9;" 
d="M238 582l-102 151h59l92 -151h-49zM228 -5q-77 0 -122.5 50t-45.5 149v306h48v-300q0 -89 35.5 -124.5t96.5 -35.5q73 0 126.5 55t53.5 155v250h48v-500h-48v46l4 57h-13q-59 -108 -183 -108z" />
    <glyph glyph-name="uacute" unicode="&#xfa;" 
d="M238 582l106 151h56l-110 -151h-52zM228 -5q-77 0 -122.5 50t-45.5 149v306h48v-300q0 -89 35.5 -124.5t96.5 -35.5q73 0 126.5 55t53.5 155v250h48v-500h-48v46l4 57h-13q-59 -108 -183 -108z" />
    <glyph glyph-name="ucircumflex" unicode="&#xfb;" 
d="M119 582l121 151h45l120 -151h-53l-83 118h-12l-85 -118h-53zM228 -5q-77 0 -122.5 50t-45.5 149v306h48v-300q0 -89 35.5 -124.5t96.5 -35.5q73 0 126.5 55t53.5 155v250h48v-500h-48v46l4 57h-13q-59 -108 -183 -108z" />
    <glyph glyph-name="udieresis" unicode="&#xfc;" 
d="M138 624v67h66v-67h-66zM321 624v67h66v-67h-66zM228 -5q-77 0 -122.5 50t-45.5 149v306h48v-300q0 -89 35.5 -124.5t96.5 -35.5q73 0 126.5 55t53.5 155v250h48v-500h-48v46l4 57h-13q-59 -108 -183 -108z" />
    <glyph glyph-name="yacute" unicode="&#xfd;" horiz-adv-x="495" 
d="M223 582l106 151h56l-110 -151h-52zM91 -241q-12 0 -44 2v42q16 -1 38 -1q38 0 61.5 24.5t48.5 91.5l32 83l-208 499h55l158 -391l13 -48h11l15 48l150 391h54l-241 -601q-33 -83 -63.5 -111.5t-79.5 -28.5z" />
    <glyph glyph-name="thorn" unicode="&#xfe;" horiz-adv-x="535" 
d="M64 -240v1000h48v-303l-4 -61h13q21 48 65.5 79t102.5 31q87 0 146.5 -68.5t59.5 -188.5q0 -121 -59 -188t-147 -67q-58 0 -103 31.5t-65 79.5h-13l4 -63v-282h-48zM278 40q72 0 119 55t47 154t-47 155t-119 56q-75 0 -120.5 -55t-45.5 -156q0 -100 46 -154.5t120 -54.5z
" />
    <glyph glyph-name="ydieresis" unicode="&#xff;" horiz-adv-x="495" 
d="M123 624v67h66v-67h-66zM306 624v67h66v-67h-66zM91 -241q-12 0 -44 2v42q16 -1 38 -1q38 0 61.5 24.5t48.5 91.5l32 83l-208 499h55l158 -391l13 -48h11l15 48l150 391h54l-241 -601q-33 -83 -63.5 -111.5t-79.5 -28.5z" />
    <glyph glyph-name="Amacron" unicode="&#x100;" horiz-adv-x="681" 
d="M205 832v43h272v-43h-272zM9 0l301 695h62l300 -695h-56l-83 193h-385l-83 -193h-56zM167 237l73 2h202l73 -2l-18 43l-140 325l-11 38h-10l-11 -38l-141 -326z" />
    <glyph glyph-name="amacron" unicode="&#x101;" horiz-adv-x="517" 
d="M141 637v43h272v-43h-272zM213 -10q-78 0 -123 36.5t-45 95.5q0 25 6.5 46t16 36.5t28 27.5t33 19.5t42 13t44 8t49 3.5t48 1.5t50 0t46.5 -0.5v56q0 61 -35 96.5t-100 35.5q-68 0 -110.5 -36t-50.5 -104l-48 3q10 87 68.5 134.5t140.5 47.5q85 0 134 -49t49 -130l1 -331
h-38l-5 101h-13q-19 -51 -68.5 -81t-119.5 -30zM222 33q86 0 136 50t50 127v28h-35q-44 1 -67 0.5t-61.5 -3.5t-60 -10t-44.5 -19t-33.5 -32t-10.5 -48q0 -42 31.5 -67.5t94.5 -25.5z" />
    <glyph glyph-name="Abreve" unicode="&#x102;" horiz-adv-x="681" 
d="M341 777q-60 0 -93 39.5t-35 108.5h39q8 -113 89 -113q82 0 88 113h39q-3 -70 -35 -109t-92 -39zM9 0l301 695h62l300 -695h-56l-83 193h-385l-83 -193h-56zM167 237l73 2h202l73 -2l-18 43l-140 325l-11 38h-10l-11 -38l-141 -326z" />
    <glyph glyph-name="abreve" unicode="&#x103;" horiz-adv-x="517" 
d="M277 582q-60 0 -93 39.5t-35 108.5h39q8 -113 89 -113q82 0 88 113h39q-3 -70 -35 -109t-92 -39zM213 -10q-78 0 -123 36.5t-45 95.5q0 25 6.5 46t16 36.5t28 27.5t33 19.5t42 13t44 8t49 3.5t48 1.5t50 0t46.5 -0.5v56q0 61 -35 96.5t-100 35.5q-68 0 -110.5 -36
t-50.5 -104l-48 3q10 87 68.5 134.5t140.5 47.5q85 0 134 -49t49 -130l1 -331h-38l-5 101h-13q-19 -51 -68.5 -81t-119.5 -30zM222 33q86 0 136 50t50 127v28h-35q-44 1 -67 0.5t-61.5 -3.5t-60 -10t-44.5 -19t-33.5 -32t-10.5 -48q0 -42 31.5 -67.5t94.5 -25.5z" />
    <glyph glyph-name="Aogonek" unicode="&#x104;" horiz-adv-x="681" 
d="M635 -172q25 0 52 4v-37q-34 -4 -57 -4q-109 0 -109 87q0 70 94 124l-82 191h-385l-83 -193h-56l301 695h62l300 -695h-10q-102 -65 -102 -120q0 -52 75 -52zM442 239l73 -2l-18 43l-140 325l-11 38h-10l-11 -38l-141 -326l-17 -42l73 2h202z" />
    <glyph glyph-name="aogonek" unicode="&#x105;" horiz-adv-x="517" 
d="M429 -150q25 0 52 4v-37q-34 -4 -57 -4q-109 0 -109 87q0 74 103 128l-4 73h-13q-19 -51 -68.5 -81t-119.5 -30q-78 0 -123 36.5t-45 95.5q0 25 6.5 46t16 36.5t28 27.5t33 19.5t42 13t44 8t49 3.5t48 1.5t50 0t46.5 -0.5v56q0 61 -35 96.5t-100 35.5q-68 0 -110.5 -36
t-50.5 -104l-48 3q10 87 68.5 134.5t140.5 47.5q85 0 134 -49t49 -130l1 -331h-33q-70 -52 -70 -98q0 -52 75 -52zM408 210v28h-35q-44 1 -67 0.5t-61.5 -3.5t-60 -10t-44.5 -19t-33.5 -32t-10.5 -48q0 -42 31.5 -67.5t94.5 -25.5q86 0 136 50t50 127z" />
    <glyph glyph-name="Cacute" unicode="&#x106;" horiz-adv-x="680" 
d="M324 777l106 151h56l-110 -151h-52zM350 -10q-139 0 -223.5 97t-84.5 259q0 161 85.5 260t222.5 99q116 0 193.5 -69.5t88.5 -187.5l-49 -5q-10 99 -73.5 158t-159.5 59q-115 0 -186 -87t-71 -227q0 -141 70 -226t187 -85q101 0 166 59t77 161l48 -4q-13 -121 -92 -191
t-199 -70z" />
    <glyph glyph-name="cacute" unicode="&#x107;" horiz-adv-x="495" 
d="M218 582l106 151h56l-110 -151h-52zM260 -10q-100 0 -161 70.5t-61 188.5q0 119 60.5 190t159.5 71q83 0 138 -48t68 -139l-48 -5q-11 74 -52.5 110.5t-105.5 36.5q-79 0 -125.5 -58t-46.5 -158q0 -99 47.5 -156.5t126.5 -57.5q65 0 107.5 37t52.5 111l48 -4
q-12 -92 -67.5 -140.5t-140.5 -48.5z" />
    <glyph glyph-name="Cdotaccent" unicode="&#x10a;" horiz-adv-x="680" 
d="M316 819v67h66v-67h-66zM350 -10q-139 0 -223.5 97t-84.5 259q0 161 85.5 260t222.5 99q116 0 193.5 -69.5t88.5 -187.5l-49 -5q-10 99 -73.5 158t-159.5 59q-115 0 -186 -87t-71 -227q0 -141 70 -226t187 -85q101 0 166 59t77 161l48 -4q-13 -121 -92 -191t-199 -70z
" />
    <glyph glyph-name="cdotaccent" unicode="&#x10b;" horiz-adv-x="495" 
d="M210 624v67h66v-67h-66zM260 -10q-100 0 -161 70.5t-61 188.5q0 119 60.5 190t159.5 71q83 0 138 -48t68 -139l-48 -5q-11 74 -52.5 110.5t-105.5 36.5q-79 0 -125.5 -58t-46.5 -158q0 -99 47.5 -156.5t126.5 -57.5q65 0 107.5 37t52.5 111l48 -4q-12 -92 -67.5 -140.5
t-140.5 -48.5z" />
    <glyph glyph-name="Ccaron" unicode="&#x10c;" horiz-adv-x="680" 
d="M327 777l-121 151h53l84 -118h14l82 118h53l-120 -151h-45zM350 -10q-139 0 -223.5 97t-84.5 259q0 161 85.5 260t222.5 99q116 0 193.5 -69.5t88.5 -187.5l-49 -5q-10 99 -73.5 158t-159.5 59q-115 0 -186 -87t-71 -227q0 -141 70 -226t187 -85q101 0 166 59t77 161
l48 -4q-13 -121 -92 -191t-199 -70z" />
    <glyph glyph-name="ccaron" unicode="&#x10d;" horiz-adv-x="495" 
d="M221 582l-121 151h53l84 -118h14l82 118h53l-120 -151h-45zM260 -10q-100 0 -161 70.5t-61 188.5q0 119 60.5 190t159.5 71q83 0 138 -48t68 -139l-48 -5q-11 74 -52.5 110.5t-105.5 36.5q-79 0 -125.5 -58t-46.5 -158q0 -99 47.5 -156.5t126.5 -57.5q65 0 107.5 37
t52.5 111l48 -4q-12 -92 -67.5 -140.5t-140.5 -48.5z" />
    <glyph glyph-name="Dcaron" unicode="&#x10e;" horiz-adv-x="652" 
d="M269 777l-121 151h53l84 -118h14l82 118h53l-120 -151h-45zM64 0v695h228q152 0 235 -90.5t83 -258.5t-83 -257t-235 -89h-228zM113 44l84 1h95q130 0 198.5 77.5t68.5 223.5q0 147 -68.5 225.5t-198.5 78.5h-95l-84 1l1 -90v-427z" />
    <glyph glyph-name="dcaron" unicode="&#x10f;" horiz-adv-x="579" 
d="M242 -6q-88 0 -148 67t-60 188q0 120 60 188.5t148 68.5q116 0 166 -102h12l-3 53v303h48v-760h-48v42l3 53h-12q-50 -101 -166 -101zM520 579l6 181h44l-18 -181h-32zM251 40q73 0 119.5 56.5t46.5 152.5q0 98 -45.5 154.5t-120.5 56.5q-72 0 -119 -56t-47 -155t47 -154
t119 -55z" />
    <glyph glyph-name="Dcroat" unicode="&#x110;" horiz-adv-x="663" 
d="M303 695q152 0 235 -90.5t83 -258.5t-83 -257t-235 -89h-228v325h-75v45h75v325h228zM303 45q130 0 198.5 77.5t68.5 223.5q0 147 -68.5 225.5t-198.5 78.5h-95l-84 1l1 -90v-191h191v-45h-191v-191l-1 -90l84 1h95z" />
    <glyph glyph-name="dcroat" unicode="&#x111;" horiz-adv-x="535" 
d="M564 646v-45h-93v-601h-48v42l3 53h-12q-50 -101 -166 -101q-88 0 -148 67t-60 188q0 120 60 188.5t148 68.5q116 0 166 -102h12l-3 53v144h-175v45h175v114h48v-114h93zM257 40q73 0 119.5 56.5t46.5 152.5q0 98 -45.5 154.5t-120.5 56.5q-72 0 -119 -56t-47 -155
t47 -154t119 -55z" />
    <glyph glyph-name="Emacron" unicode="&#x112;" horiz-adv-x="571" 
d="M178 832v43h272v-43h-272zM64 0v695h473v-46l-424 1l1 -108v-58l-1 -104l377 1v-45l-377 1l1 -104v-82l-1 -108l424 1v-44h-473z" />
    <glyph glyph-name="emacron" unicode="&#x113;" horiz-adv-x="518" 
d="M124 637v43h272v-43h-272zM264 -10q-100 0 -163 68.5t-63 190.5q0 116 60.5 188.5t159.5 72.5q100 0 158 -71t58 -192v-9h-315l-73 1q2 -96 49 -150t129 -54q62 0 103.5 32t56.5 91l46 -5q-19 -78 -73 -120.5t-133 -42.5zM88 281l71 2h194l73 -2q-6 90 -51.5 137
t-116.5 47t-118 -47.5t-52 -136.5z" />
    <glyph glyph-name="Edotaccent" unicode="&#x116;" horiz-adv-x="571" 
d="M281 819v67h66v-67h-66zM64 0v695h473v-46l-424 1l1 -108v-58l-1 -104l377 1v-45l-377 1l1 -104v-82l-1 -108l424 1v-44h-473z" />
    <glyph glyph-name="edotaccent" unicode="&#x117;" horiz-adv-x="518" 
d="M227 624v67h66v-67h-66zM264 -10q-100 0 -163 68.5t-63 190.5q0 116 60.5 188.5t159.5 72.5q100 0 158 -71t58 -192v-9h-315l-73 1q2 -96 49 -150t129 -54q62 0 103.5 32t56.5 91l46 -5q-19 -78 -73 -120.5t-133 -42.5zM88 281l71 2h194l73 -2q-6 90 -51.5 137t-116.5 47
t-118 -47.5t-52 -136.5z" />
    <glyph glyph-name="Eogonek" unicode="&#x118;" horiz-adv-x="571" 
d="M510 -172q25 0 52 4v-37q-34 -4 -57 -4q-109 0 -109 87q0 68 91 122h-423v695h473v-46l-424 1l1 -108v-58l-1 -104l377 1v-45l-377 1l1 -104v-82l-1 -108l424 1v-44q-102 -65 -102 -120q0 -52 75 -52z" />
    <glyph glyph-name="eogonek" unicode="&#x119;" horiz-adv-x="518" 
d="M474 238h-315l-73 1q2 -96 49 -150t129 -54q62 0 103.5 32t56.5 91l46 -5q-29 -114 -127 -150q-102 -65 -102 -120q0 -52 75 -52q25 0 52 4v-37q-34 -4 -57 -4q-109 0 -109 87q0 60 71 109h-9q-100 0 -163 68.5t-63 190.5q0 116 60.5 188.5t159.5 72.5q100 0 158 -71
t58 -192v-9zM258 465q-71 0 -118 -47.5t-52 -136.5l71 2h194l73 -2q-6 90 -51.5 137t-116.5 47z" />
    <glyph glyph-name="Ecaron" unicode="&#x11a;" horiz-adv-x="571" 
d="M292 777l-121 151h53l84 -118h14l82 118h53l-120 -151h-45zM64 0v695h473v-46l-424 1l1 -108v-58l-1 -104l377 1v-45l-377 1l1 -104v-82l-1 -108l424 1v-44h-473z" />
    <glyph glyph-name="ecaron" unicode="&#x11b;" horiz-adv-x="518" 
d="M238 582l-121 151h53l84 -118h14l82 118h53l-120 -151h-45zM264 -10q-100 0 -163 68.5t-63 190.5q0 116 60.5 188.5t159.5 72.5q100 0 158 -71t58 -192v-9h-315l-73 1q2 -96 49 -150t129 -54q62 0 103.5 32t56.5 91l46 -5q-19 -78 -73 -120.5t-133 -42.5zM88 281l71 2
h194l73 -2q-6 90 -51.5 137t-116.5 47t-118 -47.5t-52 -136.5z" />
    <glyph glyph-name="Gbreve" unicode="&#x11e;" horiz-adv-x="687" 
d="M344 777q-60 0 -93 39.5t-35 108.5h39q8 -113 89 -113q82 0 88 113h39q-3 -70 -35 -109t-92 -39zM337 -6q-130 0 -214.5 97.5t-84.5 254.5q0 160 85 258t216 98q120 0 193 -70.5t87 -193.5l-46 -3q-11 105 -72 163.5t-162 58.5q-110 0 -180 -86t-70 -225
q0 -135 70.5 -220.5t177.5 -85.5q101 0 163.5 57.5t72.5 179.5h-220v50h274v-327h-44l-1 129h-13q-28 -62 -87.5 -98.5t-144.5 -36.5z" />
    <glyph glyph-name="gbreve" unicode="&#x11f;" horiz-adv-x="535" 
d="M252 582q-60 0 -93 39.5t-35 108.5h39q8 -113 89 -113q82 0 88 113h39q-3 -70 -35 -109t-92 -39zM257 -245q-85 0 -144.5 46.5t-71.5 135.5l49 5q7 -70 52.5 -106.5t114.5 -36.5q166 0 166 182v61l1 53h-8q-53 -101 -170 -101q-88 0 -147 67t-59 188q0 120 59.5 188.5
t146.5 68.5q114 0 170 -100h8l-1 51v43h48v-519q0 -111 -56.5 -168.5t-157.5 -57.5zM257 40q74 0 120 54.5t46 154.5q0 101 -45.5 156t-120.5 55q-72 0 -119 -56t-47 -155t47 -154t119 -55z" />
    <glyph glyph-name="Gdotaccent" unicode="&#x120;" horiz-adv-x="687" 
d="M311 819v67h66v-67h-66zM337 -6q-130 0 -214.5 97.5t-84.5 254.5q0 160 85 258t216 98q120 0 193 -70.5t87 -193.5l-46 -3q-11 105 -72 163.5t-162 58.5q-110 0 -180 -86t-70 -225q0 -135 70.5 -220.5t177.5 -85.5q101 0 163.5 57.5t72.5 179.5h-220v50h274v-327h-44
l-1 129h-13q-28 -62 -87.5 -98.5t-144.5 -36.5z" />
    <glyph glyph-name="gdotaccent" unicode="&#x121;" horiz-adv-x="535" 
d="M219 624v67h66v-67h-66zM257 -245q-85 0 -144.5 46.5t-71.5 135.5l49 5q7 -70 52.5 -106.5t114.5 -36.5q166 0 166 182v61l1 53h-8q-53 -101 -170 -101q-88 0 -147 67t-59 188q0 120 59.5 188.5t146.5 68.5q114 0 170 -100h8l-1 51v43h48v-519q0 -111 -56.5 -168.5
t-157.5 -57.5zM257 40q74 0 120 54.5t46 154.5q0 101 -45.5 156t-120.5 55q-72 0 -119 -56t-47 -155t47 -154t119 -55z" />
    <glyph glyph-name="uni0122" unicode="&#x122;" horiz-adv-x="687" 
d="M337 -6q-130 0 -214.5 97.5t-84.5 254.5q0 160 85 258t216 98q120 0 193 -70.5t87 -193.5l-46 -3q-11 105 -72 163.5t-162 58.5q-110 0 -180 -86t-70 -225q0 -135 70.5 -220.5t177.5 -85.5q101 0 163.5 57.5t72.5 179.5h-220v50h274v-327h-44l-1 129h-13
q-28 -62 -87.5 -98.5t-144.5 -36.5zM277 -263l46 186h44l-52 -186h-38z" />
    <glyph glyph-name="uni0123" unicode="&#x123;" horiz-adv-x="535" 
d="M222 576l59 163h43l-51 -163h-51zM257 -245q-85 0 -144.5 46.5t-71.5 135.5l49 5q7 -70 52.5 -106.5t114.5 -36.5q166 0 166 182v61l1 53h-8q-53 -101 -170 -101q-88 0 -147 67t-59 188q0 120 59.5 188.5t146.5 68.5q114 0 170 -100h8l-1 51v43h48v-519
q0 -111 -56.5 -168.5t-157.5 -57.5zM257 40q74 0 120 54.5t46 154.5q0 101 -45.5 156t-120.5 55q-72 0 -119 -56t-47 -155t47 -154t119 -55z" />
    <glyph glyph-name="Hbar" unicode="&#x126;" horiz-adv-x="651" 
d="M666 566v-43h-79v-523h-50v265l1 69l-90 -1h-245l-90 1l1 -69v-265h-50v523h-78v43h78v129h50v-129h423v129h50v-129h79zM538 377l-1 68v78h-423v-77l-1 -69l90 1h245z" />
    <glyph glyph-name="hbar" unicode="&#x127;" 
d="M304 505q77 0 122.5 -50t45.5 -149v-306h-48v300q0 89 -35.5 124.5t-96.5 35.5q-73 0 -126.5 -55t-53.5 -155v-250h-48v601h-88v45h88v114h48v-114h180v-45h-180v-147l-4 -57h13q61 108 183 108z" />
    <glyph glyph-name="Itilde" unicode="&#x128;" horiz-adv-x="178" 
d="M-50 788q0 128 74 128q29 0 51 -21t39 -41.5t33 -20.5q42 0 42 83h38q0 -128 -78 -128q-27 0 -50 21t-41.5 41.5t-33.5 20.5q-38 0 -38 -83h-36zM64 0v695h50v-695h-50z" />
    <glyph glyph-name="itilde" unicode="&#x129;" horiz-adv-x="202" 
d="M-38 593q0 128 74 128q23 0 42 -13t30 -28.5t24.5 -28.5t26.5 -13q42 0 42 83h38q0 -128 -78 -128q-27 0 -50 20.5t-41.5 41.5t-33.5 21q-38 0 -38 -83h-36zM77 0v500h48v-500h-48z" />
    <glyph glyph-name="Imacron" unicode="&#x12a;" horiz-adv-x="178" 
d="M-47 832v43h272v-43h-272zM64 0v695h50v-695h-50z" />
    <glyph glyph-name="imacron" unicode="&#x12b;" horiz-adv-x="202" 
d="M-35 637v43h272v-43h-272zM77 0v500h48v-500h-48z" />
    <glyph glyph-name="Iogonek" unicode="&#x12e;" horiz-adv-x="178" 
d="M79 -169q25 0 52 4v-37q-34 -4 -57 -4q-109 0 -109 87q0 73 99 126v688h50v-695h-13q-97 -64 -97 -117q0 -52 75 -52z" />
    <glyph glyph-name="iogonek" unicode="&#x12f;" horiz-adv-x="202" 
d="M134 691v-67h-66v67h66zM92 -169q25 0 52 4v-37q-34 -4 -57 -4q-109 0 -109 87q0 73 99 126v493h48v-500h-11q-97 -64 -97 -117q0 -52 75 -52z" />
    <glyph glyph-name="Idotaccent" unicode="&#x130;" horiz-adv-x="178" 
d="M56 819v67h66v-67h-66zM64 0v695h50v-695h-50z" />
    <glyph glyph-name="dotlessi" unicode="&#x131;" horiz-adv-x="202" 
d="M77 0v500h48v-500h-48z" />
    <glyph glyph-name="uni0136" unicode="&#x136;" horiz-adv-x="637" 
d="M64 0v695h50v-329l-5 -70h13l41 50l396 349h69l-330 -290l323 -405h-65l-295 372l-147 -129v-243h-50zM252 -263l46 186h44l-52 -186h-38z" />
    <glyph glyph-name="uni0137" unicode="&#x137;" horiz-adv-x="497" 
d="M64 0v760h48v-421l-6 -93h10l285 254h67l-222 -197l236 -300v-3h-58l-211 274l-101 -90v-184h-48zM177 -263l46 186h44l-52 -186h-38z" />
    <glyph glyph-name="Lacute" unicode="&#x139;" horiz-adv-x="553" 
d="M63 777l106 151h56l-110 -151h-52zM64 0v695h50v-554l-1 -97l97 1h313v-45h-459z" />
    <glyph glyph-name="lacute" unicode="&#x13a;" horiz-adv-x="274" 
d="M64 842l106 151h56l-110 -151h-52zM180 -5q-55 0 -85 31.5t-30 92.5v641h48v-641q0 -81 70 -81q22 0 54 5v-41q-38 -7 -57 -7z" />
    <glyph glyph-name="uni013B" unicode="&#x13b;" horiz-adv-x="553" 
d="M64 0v695h50v-554l-1 -97l97 1h313v-45h-459zM230 -263l46 186h44l-52 -186h-38z" />
    <glyph glyph-name="uni013C" unicode="&#x13c;" horiz-adv-x="274" 
d="M180 -5q-55 0 -85 31.5t-30 92.5v641h48v-641q0 -81 70 -81q22 0 54 5v-41q-38 -7 -57 -7zM99 -263l46 186h44l-52 -186h-38z" />
    <glyph glyph-name="Lcaron" unicode="&#x13d;" horiz-adv-x="553" 
d="M66 777l-121 151h53l84 -118h14l82 118h53l-120 -151h-45zM64 0v695h50v-554l-1 -97l97 1h313v-45h-459z" />
    <glyph glyph-name="lcaron" unicode="&#x13e;" horiz-adv-x="274" 
d="M67 842l-121 151h53l84 -118h14l82 118h53l-120 -151h-45zM180 -5q-55 0 -85 31.5t-30 92.5v641h48v-641q0 -81 70 -81q22 0 54 5v-41q-38 -7 -57 -7z" />
    <glyph glyph-name="Lslash" unicode="&#x141;" horiz-adv-x="553" 
d="M210 45h313v-45h-459v313l-80 -37v46l80 37v336h50v-313l80 37v-46l-80 -37v-195l-1 -97z" />
    <glyph glyph-name="lslash" unicode="&#x142;" horiz-adv-x="274" 
d="M183 38q22 0 54 5v-41q-38 -7 -57 -7q-55 0 -85 31.5t-30 92.5v226l-76 -37v46l76 37v369h48v-346l77 37v-46l-77 -37v-249q0 -81 70 -81z" />
    <glyph glyph-name="Nacute" unicode="&#x143;" horiz-adv-x="659" 
d="M305 777l106 151h56l-110 -151h-52zM64 0v695h65l363 -555l45 -85h14l-6 102v538h50v-695h-66l-377 576l-30 64h-14l6 -102v-538h-50z" />
    <glyph glyph-name="nacute" unicode="&#x144;" 
d="M249 582l106 151h56l-110 -151h-52zM64 0v500h48v-46l-4 -57h13q61 108 183 108q77 0 122.5 -50t45.5 -149v-306h-48v300q0 89 -35.5 124.5t-96.5 35.5q-73 0 -126.5 -55t-53.5 -155v-250h-48z" />
    <glyph glyph-name="uni0145" unicode="&#x145;" horiz-adv-x="659" 
d="M64 0v695h65l363 -555l45 -85h14l-6 102v538h50v-695h-66l-377 576l-30 64h-14l6 -102v-538h-50zM263 -263l46 186h44l-52 -186h-38z" />
    <glyph glyph-name="uni0146" unicode="&#x146;" 
d="M64 0v500h48v-46l-4 -57h13q61 108 183 108q77 0 122.5 -50t45.5 -149v-306h-48v300q0 89 -35.5 124.5t-96.5 35.5q-73 0 -126.5 -55t-53.5 -155v-250h-48zM204 -263l46 186h44l-52 -186h-38z" />
    <glyph glyph-name="Ncaron" unicode="&#x147;" horiz-adv-x="659" 
d="M308 777l-121 151h53l84 -118h14l82 118h53l-120 -151h-45zM64 0v695h65l363 -555l45 -85h14l-6 102v538h50v-695h-66l-377 576l-30 64h-14l6 -102v-538h-50z" />
    <glyph glyph-name="ncaron" unicode="&#x148;" 
d="M252 582l-121 151h53l84 -118h14l82 118h53l-120 -151h-45zM64 0v500h48v-46l-4 -57h13q61 108 183 108q77 0 122.5 -50t45.5 -149v-306h-48v300q0 89 -35.5 124.5t-96.5 35.5q-73 0 -126.5 -55t-53.5 -155v-250h-48z" />
    <glyph glyph-name="Eng" unicode="&#x14a;" horiz-adv-x="679" 
d="M565 695h50v-745q0 -63 -41 -97.5t-113 -34.5q-33 0 -69 4v44q34 -5 62 -5q52 0 82.5 24.5t30.5 67.5v21l-415 602l-30 64h-14l6 -102v-538h-50v695h65l383 -558l45 -82h14l-6 102v538z" />
    <glyph glyph-name="eng" unicode="&#x14b;" 
d="M341 -169q-31 0 -82 6v42q45 -5 75 -5q47 0 68.5 30t21.5 92v304q0 89 -35.5 124.5t-96.5 35.5q-73 0 -126.5 -55t-53.5 -155v-250h-48v500h48v-46l-4 -57h13q58 108 183 108q77 0 122.5 -50t45.5 -149v-313q0 -162 -131 -162z" />
    <glyph glyph-name="Omacron" unicode="&#x14c;" horiz-adv-x="691" 
d="M210 832v43h272v-43h-272zM347 -10q-147 0 -226 97t-79 259q0 159 79.5 259t225.5 100t224 -99.5t78 -259.5q0 -162 -77.5 -259t-224.5 -97zM347 35q124 0 187.5 85.5t63.5 225.5q0 138 -64 226t-187 88q-124 0 -189 -88t-65 -226q0 -140 65 -225.5t189 -85.5z" />
    <glyph glyph-name="omacron" unicode="&#x14d;" horiz-adv-x="508" 
d="M118 637v43h272v-43h-272zM255 -10q-97 0 -157 68t-60 191q0 124 60 192.5t157 68.5t156 -68.5t59 -192.5q0 -123 -59 -191t-156 -68zM255 34q75 0 121 56t46 159q0 104 -45.5 160.5t-121.5 56.5t-122.5 -56.5t-46.5 -160.5q0 -102 46.5 -158.5t122.5 -56.5z" />
    <glyph glyph-name="Ohungarumlaut" unicode="&#x150;" horiz-adv-x="691" 
d="M271 777l103 151h53l-115 -151h-41zM372 777l103 151h53l-115 -151h-41zM347 -10q-147 0 -226 97t-79 259q0 159 79.5 259t225.5 100t224 -99.5t78 -259.5q0 -162 -77.5 -259t-224.5 -97zM347 35q124 0 187.5 85.5t63.5 225.5q0 138 -64 226t-187 88q-124 0 -189 -88
t-65 -226q0 -140 65 -225.5t189 -85.5z" />
    <glyph glyph-name="ohungarumlaut" unicode="&#x151;" horiz-adv-x="508" 
d="M179 582l103 151h53l-115 -151h-41zM280 582l103 151h53l-115 -151h-41zM255 -10q-97 0 -157 68t-60 191q0 124 60 192.5t157 68.5t156 -68.5t59 -192.5q0 -123 -59 -191t-156 -68zM255 34q75 0 121 56t46 159q0 104 -45.5 160.5t-121.5 56.5t-122.5 -56.5t-46.5 -160.5
q0 -102 46.5 -158.5t122.5 -56.5z" />
    <glyph glyph-name="OE" unicode="&#x152;" horiz-adv-x="1098" 
d="M347 -6q-142 0 -223.5 95.5t-81.5 256.5t82 258.5t223 97.5q82 0 143.5 -38t97.5 -105h10v136h466v-46h-291l-126 2l1 -109v-58l-1 -105l126 2h234v-45l-360 2l1 -105v-82l-1 -109l417 2v-44h-466v135h-10q-75 -141 -241 -141zM347 39q119 0 185 83.5t66 223.5
q0 141 -66 226t-185 85t-186.5 -85.5t-67.5 -225.5q0 -139 67.5 -223t186.5 -84z" />
    <glyph glyph-name="oe" unicode="&#x153;" horiz-adv-x="934" 
d="M890 238h-323l-71 1q2 -92 50.5 -145t129.5 -53q67 0 109 34t55 92l46 -5q-18 -77 -72.5 -122t-137.5 -45q-70 0 -125 35.5t-83 99.5q-26 -63 -78.5 -99t-124.5 -36q-103 0 -165 70.5t-62 183.5q0 114 62 185t165 71q72 0 124.5 -36t78.5 -100q26 64 78.5 100t123.5 36
q103 0 161.5 -69.5t58.5 -188.5v-9zM265 40q81 0 129 58t48 151q0 95 -47.5 153t-129.5 58t-130.5 -58t-48.5 -153q0 -93 48.5 -151t130.5 -58zM670 459q-71 0 -117 -47t-55 -129l69 1h202l69 -1q-8 83 -52.5 129.5t-115.5 46.5z" />
    <glyph glyph-name="Racute" unicode="&#x154;" horiz-adv-x="605" 
d="M259 777l106 151h56l-110 -151h-52zM64 0v695h277q96 0 156.5 -47.5t60.5 -142.5q0 -89 -50 -132.5t-123 -47.5v-9q45 -7 72.5 -31.5t50.5 -93.5l64 -191h-51l-61 187q-21 65 -62 91t-108 26h-77l-100 1l1 -112v-193h-50zM113 348l100 1h118q84 0 132 36.5t48 113.5
q0 80 -46 115.5t-134 35.5h-118l-100 1l1 -101v-91z" />
    <glyph glyph-name="racute" unicode="&#x155;" horiz-adv-x="357" 
d="M167 582l106 151h56l-110 -151h-52zM64 0v500h48v-45l-3 -53h14q17 46 58.5 76t102.5 30q30 0 48 -2v-45q-19 2 -46 2q-174 0 -174 -213v-250h-48z" />
    <glyph glyph-name="uni0156" unicode="&#x156;" horiz-adv-x="605" 
d="M64 0v695h277q96 0 156.5 -47.5t60.5 -142.5q0 -89 -50 -132.5t-123 -47.5v-9q45 -7 72.5 -31.5t50.5 -93.5l64 -191h-51l-61 187q-21 65 -62 91t-108 26h-77l-100 1l1 -112v-193h-50zM113 348l100 1h118q84 0 132 36.5t48 113.5q0 80 -46 115.5t-134 35.5h-118l-100 1
l1 -101v-91zM237 -263l46 186h44l-52 -186h-38z" />
    <glyph glyph-name="uni0157" unicode="&#x157;" horiz-adv-x="357" 
d="M64 0v500h48v-45l-3 -53h14q17 46 58.5 76t102.5 30q30 0 48 -2v-45q-19 2 -46 2q-174 0 -174 -213v-250h-48zM23 -263l46 186h44l-52 -186h-38z" />
    <glyph glyph-name="Rcaron" unicode="&#x158;" horiz-adv-x="605" 
d="M262 777l-121 151h53l84 -118h14l82 118h53l-120 -151h-45zM64 0v695h277q96 0 156.5 -47.5t60.5 -142.5q0 -89 -50 -132.5t-123 -47.5v-9q45 -7 72.5 -31.5t50.5 -93.5l64 -191h-51l-61 187q-21 65 -62 91t-108 26h-77l-100 1l1 -112v-193h-50zM113 348l100 1h118
q84 0 132 36.5t48 113.5q0 80 -46 115.5t-134 35.5h-118l-100 1l1 -101v-91z" />
    <glyph glyph-name="rcaron" unicode="&#x159;" horiz-adv-x="357" 
d="M170 582l-121 151h53l84 -118h14l82 118h53l-120 -151h-45zM64 0v500h48v-45l-3 -53h14q17 46 58.5 76t102.5 30q30 0 48 -2v-45q-19 2 -46 2q-174 0 -174 -213v-250h-48z" />
    <glyph glyph-name="Sacute" unicode="&#x15a;" horiz-adv-x="627" 
d="M284 777l106 151h56l-110 -151h-52zM335 -10q-118 0 -197.5 57.5t-99.5 158.5l53 6q16 -81 81.5 -128.5t161.5 -47.5q95 0 150 40.5t55 108.5q0 58 -33.5 89t-112.5 43l-134 20q-195 30 -195 173q0 85 68.5 140t172.5 55q102 0 168 -56.5t81 -167.5l-47 -4
q-12 91 -65.5 136.5t-136.5 45.5q-84 0 -137.5 -41.5t-53.5 -107.5q0 -104 149 -126l132 -20q194 -30 194 -179q0 -87 -69 -141t-185 -54z" />
    <glyph glyph-name="sacute" unicode="&#x15b;" horiz-adv-x="473" 
d="M207 582l106 151h56l-110 -151h-52zM246 -10q-85 0 -143 40t-73 108l49 5q12 -52 55.5 -80t111.5 -28q67 0 108 27t41 72q0 70 -108 85l-95 12q-147 18 -147 127q0 66 52.5 109t129.5 43q80 0 130 -41.5t59 -115.5l-45 -3q-8 56 -45.5 85.5t-98.5 29.5q-58 0 -95.5 -29.5
t-37.5 -76.5q0 -69 102 -82l94 -12q153 -21 153 -127q0 -66 -54.5 -107t-142.5 -41z" />
    <glyph glyph-name="Scedilla" unicode="&#x15e;" horiz-adv-x="627" 
d="M335 -10h-4v-39q44 -1 71 -24.5t27 -56.5q0 -98 -140 -98q-9 0 -20 0.5t-24.5 1.5t-21.5 1v37q42 -3 63 -3q103 0 103 55q0 28 -20 41t-72 13v74q-103 9 -171.5 65t-87.5 149l53 6q16 -81 81.5 -128.5t161.5 -47.5q95 0 150 40.5t55 108.5q0 58 -33.5 89t-112.5 43
l-134 20q-195 30 -195 173q0 85 68.5 140t172.5 55q102 0 168 -56.5t81 -167.5l-47 -4q-12 91 -65.5 136.5t-136.5 45.5q-84 0 -137.5 -41.5t-53.5 -107.5q0 -104 149 -126l132 -20q194 -30 194 -179q0 -87 -69 -141t-185 -54z" />
    <glyph glyph-name="scedilla" unicode="&#x15f;" horiz-adv-x="473" 
d="M443 138q0 -63 -50.5 -103.5t-133.5 -44.5v-29q44 -1 71 -24.5t27 -56.5q0 -98 -140 -98q-9 0 -20 0.5t-24.5 1.5t-21.5 1v37q42 -3 63 -3q103 0 103 55q0 28 -20 41t-72 13v63q-76 4 -128.5 43.5t-66.5 103.5l49 5q12 -52 55.5 -80t111.5 -28q67 0 108 27t41 72
q0 70 -108 85l-95 12q-147 18 -147 127q0 66 52.5 109t129.5 43q80 0 130 -41.5t59 -115.5l-45 -3q-8 56 -45.5 85.5t-98.5 29.5q-58 0 -95.5 -29.5t-37.5 -76.5q0 -69 102 -82l94 -12q153 -21 153 -127z" />
    <glyph glyph-name="Scaron" unicode="&#x160;" horiz-adv-x="627" 
d="M287 777l-121 151h53l84 -118h14l82 118h53l-120 -151h-45zM335 -10q-118 0 -197.5 57.5t-99.5 158.5l53 6q16 -81 81.5 -128.5t161.5 -47.5q95 0 150 40.5t55 108.5q0 58 -33.5 89t-112.5 43l-134 20q-195 30 -195 173q0 85 68.5 140t172.5 55q102 0 168 -56.5
t81 -167.5l-47 -4q-12 91 -65.5 136.5t-136.5 45.5q-84 0 -137.5 -41.5t-53.5 -107.5q0 -104 149 -126l132 -20q194 -30 194 -179q0 -87 -69 -141t-185 -54z" />
    <glyph glyph-name="scaron" unicode="&#x161;" horiz-adv-x="473" 
d="M210 582l-121 151h53l84 -118h14l82 118h53l-120 -151h-45zM246 -10q-85 0 -143 40t-73 108l49 5q12 -52 55.5 -80t111.5 -28q67 0 108 27t41 72q0 70 -108 85l-95 12q-147 18 -147 127q0 66 52.5 109t129.5 43q80 0 130 -41.5t59 -115.5l-45 -3q-8 56 -45.5 85.5
t-98.5 29.5q-58 0 -95.5 -29.5t-37.5 -76.5q0 -69 102 -82l94 -12q153 -21 153 -127q0 -66 -54.5 -107t-142.5 -41z" />
    <glyph glyph-name="uni0162" unicode="&#x162;" horiz-adv-x="616" 
d="M603 648h-185l-86 1l1 -108v-541h-8v-49q44 -1 71 -24.5t27 -56.5q0 -98 -140 -98q-9 0 -20 0.5t-24.5 1.5t-21.5 1v37q42 -3 63 -3q103 0 103 55q0 28 -20 41t-72 13v82h-8v541l1 108l-86 -1h-185v47h590v-47z" />
    <glyph glyph-name="uni0163" unicode="&#x163;" horiz-adv-x="332" 
d="M252 -49q44 -1 71 -24.5t27 -56.5q0 -98 -140 -98q-9 0 -20 0.5t-24.5 1.5t-21.5 1v37q42 -3 63 -3q103 0 103 55q0 28 -20 41t-72 13v78q-48 4 -74 35.5t-26 87.5v338l-55 -2h-50v45h50l55 -2v144h48v-87l-2 -57l57 2h73v-45h-73l-55 2v-336q0 -81 70 -81q26 0 58 5v-43
q-30 -5 -42 -6v-45z" />
    <glyph glyph-name="Tcaron" unicode="&#x164;" horiz-adv-x="616" 
d="M286 777l-121 151h53l84 -118h14l82 118h53l-120 -151h-45zM283 0v541l1 108l-86 -1h-185v47h590v-47h-185l-86 1l1 -108v-541h-50z" />
    <glyph glyph-name="tcaron" unicode="&#x165;" horiz-adv-x="332" 
d="M120 724l-121 151h53l84 -118h14l82 118h53l-120 -151h-45zM233 -5q-55 0 -85 31.5t-30 92.5v338l-55 -2h-50v45h50l55 -2v144h48v-87l-2 -57l57 2h73v-45h-73l-55 2v-336q0 -81 70 -81q26 0 58 5v-43q-38 -7 -61 -7z" />
    <glyph glyph-name="Tbar" unicode="&#x166;" horiz-adv-x="616" 
d="M603 648h-185l-86 1l1 -108v-171h133v-45h-133v-325h-50v325h-133v45h133v171l1 108l-86 -1h-185v47h590v-47z" />
    <glyph glyph-name="tbar" unicode="&#x167;" horiz-adv-x="332" 
d="M221 455l-55 2v-115h113v-45h-113v-176q0 -81 70 -81q26 0 58 5v-43q-38 -7 -61 -7q-55 0 -85 31.5t-30 92.5v178h-92v45h92v115l-55 -2h-50v45h50l55 -2v144h48v-87l-2 -57l57 2h73v-45h-73z" />
    <glyph glyph-name="Utilde" unicode="&#x168;" horiz-adv-x="663" 
d="M193 788q0 128 74 128q29 0 51 -21t39 -41.5t33 -20.5q42 0 42 83h38q0 -128 -78 -128q-27 0 -50 21t-41.5 41.5t-33.5 20.5q-38 0 -38 -83h-36zM333 -10q-123 0 -198 73t-75 198v434h50v-434q0 -103 60.5 -164.5t162.5 -61.5t161 61t59 165v434h50v-434q0 -125 -74 -198
t-196 -73z" />
    <glyph glyph-name="utilde" unicode="&#x169;" 
d="M124 593q0 128 74 128q23 0 42 -13t30 -28.5t24.5 -28.5t26.5 -13q42 0 42 83h38q0 -128 -78 -128q-27 0 -50 20.5t-41.5 41.5t-33.5 21q-38 0 -38 -83h-36zM228 -5q-77 0 -122.5 50t-45.5 149v306h48v-300q0 -89 35.5 -124.5t96.5 -35.5q73 0 126.5 55t53.5 155v250h48
v-500h-48v46l4 57h-13q-59 -108 -183 -108z" />
    <glyph glyph-name="Umacron" unicode="&#x16a;" horiz-adv-x="663" 
d="M196 832v43h272v-43h-272zM333 -10q-123 0 -198 73t-75 198v434h50v-434q0 -103 60.5 -164.5t162.5 -61.5t161 61t59 165v434h50v-434q0 -125 -74 -198t-196 -73z" />
    <glyph glyph-name="umacron" unicode="&#x16b;" 
d="M127 637v43h272v-43h-272zM228 -5q-77 0 -122.5 50t-45.5 149v306h48v-300q0 -89 35.5 -124.5t96.5 -35.5q73 0 126.5 55t53.5 155v250h48v-500h-48v46l4 57h-13q-59 -108 -183 -108z" />
    <glyph glyph-name="Uring" unicode="&#x16e;" horiz-adv-x="663" 
d="M332 777q-33 0 -57 24.5t-24 56.5t24 56.5t57 24.5q32 0 56 -24.5t24 -56.5t-24 -56.5t-56 -24.5zM332 811q19 0 33 14t14 33t-14 33t-33 14q-20 0 -34 -14t-14 -33t14 -33t34 -14zM333 -10q-123 0 -198 73t-75 198v434h50v-434q0 -103 60.5 -164.5t162.5 -61.5t161 61
t59 165v434h50v-434q0 -125 -74 -198t-196 -73z" />
    <glyph glyph-name="uring" unicode="&#x16f;" 
d="M263 582q-33 0 -57 24.5t-24 56.5t24 56.5t57 24.5q32 0 56 -24.5t24 -56.5t-24 -56.5t-56 -24.5zM263 616q19 0 33 14t14 33t-14 33t-33 14q-20 0 -34 -14t-14 -33t14 -33t34 -14zM228 -5q-77 0 -122.5 50t-45.5 149v306h48v-300q0 -89 35.5 -124.5t96.5 -35.5
q73 0 126.5 55t53.5 155v250h48v-500h-48v46l4 57h-13q-59 -108 -183 -108z" />
    <glyph glyph-name="Uhungarumlaut" unicode="&#x170;" horiz-adv-x="663" 
d="M257 777l103 151h53l-115 -151h-41zM358 777l103 151h53l-115 -151h-41zM333 -10q-123 0 -198 73t-75 198v434h50v-434q0 -103 60.5 -164.5t162.5 -61.5t161 61t59 165v434h50v-434q0 -125 -74 -198t-196 -73z" />
    <glyph glyph-name="uhungarumlaut" unicode="&#x171;" 
d="M188 582l103 151h53l-115 -151h-41zM289 582l103 151h53l-115 -151h-41zM228 -5q-77 0 -122.5 50t-45.5 149v306h48v-300q0 -89 35.5 -124.5t96.5 -35.5q73 0 126.5 55t53.5 155v250h48v-500h-48v46l4 57h-13q-59 -108 -183 -108z" />
    <glyph glyph-name="Uogonek" unicode="&#x172;" horiz-adv-x="663" 
d="M553 695h50v-434q0 -99 -46.5 -166t-128.5 -92q-102 -65 -102 -120q0 -52 75 -52q25 0 52 4v-37q-34 -4 -57 -4q-109 0 -109 87q0 61 72 110q-8 -1 -26 -1q-123 0 -198 73t-75 198v434h50v-434q0 -103 60.5 -164.5t162.5 -61.5t161 61t59 165v434z" />
    <glyph glyph-name="uogonek" unicode="&#x173;" 
d="M425 -169q25 0 52 4v-37q-34 -4 -57 -4q-109 0 -109 87q0 75 109 132v33l4 57h-13q-59 -108 -183 -108q-77 0 -122.5 50t-45.5 149v306h48v-300q0 -89 35.5 -124.5t96.5 -35.5q73 0 126.5 55t53.5 155v250h48v-500h-21q-97 -64 -97 -117q0 -52 75 -52z" />
    <glyph glyph-name="Wcircumflex" unicode="&#x174;" horiz-adv-x="1037" 
d="M375 777l121 151h45l120 -151h-53l-83 118h-12l-85 -118h-53zM238 0l-225 695h55l188 -593l7 -49h12l9 49l201 593h67l201 -593l9 -49h12l7 49l188 593h55l-225 -695h-62l-204 583l-8 59h-12l-8 -59l-205 -583h-62z" />
    <glyph glyph-name="wcircumflex" unicode="&#x175;" horiz-adv-x="768" 
d="M240 582l121 151h45l120 -151h-53l-83 118h-12l-85 -118h-53zM177 0l-164 500h54l131 -414l6 -30h9l6 30l138 414h54l138 -414l6 -30h9l6 30l131 414h54l-164 -500h-59l-138 404l-5 37h-11l-5 -37l-137 -404h-59z" />
    <glyph glyph-name="Ycircumflex" unicode="&#x176;" horiz-adv-x="683" 
d="M198 777l121 151h45l120 -151h-53l-83 118h-12l-85 -118h-53zM317 0v280l-309 415h63l224 -304l41 -73h12l41 73l223 304h63l-308 -415v-280h-50z" />
    <glyph glyph-name="ycircumflex" unicode="&#x177;" horiz-adv-x="495" 
d="M104 582l121 151h45l120 -151h-53l-83 118h-12l-85 -118h-53zM91 -241q-12 0 -44 2v42q16 -1 38 -1q38 0 61.5 24.5t48.5 91.5l32 83l-208 499h55l158 -391l13 -48h11l15 48l150 391h54l-241 -601q-33 -83 -63.5 -111.5t-79.5 -28.5z" />
    <glyph glyph-name="Ydieresis" unicode="&#x178;" horiz-adv-x="683" 
d="M217 819v67h66v-67h-66zM400 819v67h66v-67h-66zM317 0v280l-309 415h63l224 -304l41 -73h12l41 73l223 304h63l-308 -415v-280h-50z" />
    <glyph glyph-name="Zacute" unicode="&#x179;" horiz-adv-x="628" 
d="M289 777l106 151h56l-110 -151h-52zM30 0v37l468 578l30 24v11h-492v45h559v-35l-470 -580l-30 -24v-11h503v-45h-568z" />
    <glyph glyph-name="zacute" unicode="&#x17a;" horiz-adv-x="438" 
d="M201 582l106 151h56l-110 -151h-52zM33 0v43l281 366l39 35v11h-314v45h369v-43l-280 -363l-40 -38v-11h324v-45h-379z" />
    <glyph glyph-name="Zdotaccent" unicode="&#x17b;" horiz-adv-x="628" 
d="M281 819v67h66v-67h-66zM30 0v37l468 578l30 24v11h-492v45h559v-35l-470 -580l-30 -24v-11h503v-45h-568z" />
    <glyph glyph-name="zdotaccent" unicode="&#x17c;" horiz-adv-x="438" 
d="M193 624v67h66v-67h-66zM33 0v43l281 366l39 35v11h-314v45h369v-43l-280 -363l-40 -38v-11h324v-45h-379z" />
    <glyph glyph-name="Zcaron" unicode="&#x17d;" horiz-adv-x="628" 
d="M292 777l-121 151h53l84 -118h14l82 118h53l-120 -151h-45zM30 0v37l468 578l30 24v11h-492v45h559v-35l-470 -580l-30 -24v-11h503v-45h-568z" />
    <glyph glyph-name="zcaron" unicode="&#x17e;" horiz-adv-x="438" 
d="M204 582l-121 151h53l84 -118h14l82 118h53l-120 -151h-45zM33 0v43l281 366l39 35v11h-314v45h369v-43l-280 -363l-40 -38v-11h324v-45h-379z" />
    <glyph glyph-name="florin" unicode="&#x192;" horiz-adv-x="538" 
d="M512 652q-82 0 -124.5 -30t-61.5 -119l-22 -105h127v-44h-137l-34 -162q-23 -111 -79 -151.5t-155 -40.5v43q82 0 124.5 30t61.5 119l34 161h-130v44h140l22 106q23 111 79 151.5t155 40.5v-43z" />
    <glyph glyph-name="Ohorn" unicode="&#x1a0;" horiz-adv-x="691" 
d="M567 610q82 -97 82 -264q0 -162 -77.5 -259t-224.5 -97t-226 97t-79 259q0 159 79.5 259t225.5 100q113 0 187 -63q19 2 32.5 9.5t20 16t10 25.5t4 27t0.5 31v8h45q0 -127 -79 -149zM347 35q124 0 187.5 85.5t63.5 225.5q0 138 -64 226t-187 88q-124 0 -189 -88t-65 -226
q0 -140 65 -225.5t189 -85.5z" />
    <glyph glyph-name="ohorn" unicode="&#x1a1;" horiz-adv-x="508" 
d="M480 590q0 -121 -71 -146q61 -71 61 -195q0 -123 -59 -191t-156 -68t-157 68t-60 191q0 124 60 192.5t157 68.5q71 0 120 -36q21 3 34.5 12.5t18.5 28t6 31t1 37.5v7h45zM255 34q75 0 121 56t46 159q0 104 -45.5 160.5t-121.5 56.5t-122.5 -56.5t-46.5 -160.5
q0 -102 46.5 -158.5t122.5 -56.5z" />
    <glyph glyph-name="Uhorn" unicode="&#x1af;" horiz-adv-x="663" 
d="M714 812q0 -70 -23.5 -110.5t-87.5 -43.5v-397q0 -125 -74 -198t-196 -73q-123 0 -198 73t-75 198v434h50v-434q0 -103 60.5 -164.5t162.5 -61.5t161 61t59 165v434h39q22 0 37.5 7t23 15.5t11.5 26t4.5 28.5t0.5 33v7h45z" />
    <glyph glyph-name="uhorn" unicode="&#x1b0;" 
d="M559 617q0 -64 -20 -103t-71 -48v-466h-48v46l4 57h-13q-59 -108 -183 -108q-77 0 -122.5 50t-45.5 149v306h48v-300q0 -89 35.5 -124.5t96.5 -35.5q73 0 126.5 55t53.5 155v250h17q22 0 37.5 7t23 15.5t11.5 26t4.5 28.5t0.5 33v7h45z" />
    <glyph glyph-name="uni01CD" unicode="&#x1cd;" horiz-adv-x="681" 
d="M319 777l-121 151h53l84 -118h14l82 118h53l-120 -151h-45zM9 0l301 695h62l300 -695h-56l-83 193h-385l-83 -193h-56zM167 237l73 2h202l73 -2l-18 43l-140 325l-11 38h-10l-11 -38l-141 -326z" />
    <glyph glyph-name="uni01CE" unicode="&#x1ce;" horiz-adv-x="517" 
d="M255 582l-121 151h53l84 -118h14l82 118h53l-120 -151h-45zM213 -10q-78 0 -123 36.5t-45 95.5q0 25 6.5 46t16 36.5t28 27.5t33 19.5t42 13t44 8t49 3.5t48 1.5t50 0t46.5 -0.5v56q0 61 -35 96.5t-100 35.5q-68 0 -110.5 -36t-50.5 -104l-48 3q10 87 68.5 134.5
t140.5 47.5q85 0 134 -49t49 -130l1 -331h-38l-5 101h-13q-19 -51 -68.5 -81t-119.5 -30zM222 33q86 0 136 50t50 127v28h-35q-44 1 -67 0.5t-61.5 -3.5t-60 -10t-44.5 -19t-33.5 -32t-10.5 -48q0 -42 31.5 -67.5t94.5 -25.5z" />
    <glyph glyph-name="uni01CF" unicode="&#x1cf;" horiz-adv-x="178" 
d="M67 777l-121 151h53l84 -118h14l82 118h53l-120 -151h-45zM64 0v695h50v-695h-50z" />
    <glyph glyph-name="uni01D0" unicode="&#x1d0;" horiz-adv-x="202" 
d="M79 582l-121 151h53l84 -118h14l82 118h53l-120 -151h-45zM77 0v500h48v-500h-48z" />
    <glyph glyph-name="uni01D1" unicode="&#x1d1;" horiz-adv-x="691" 
d="M324 777l-121 151h53l84 -118h14l82 118h53l-120 -151h-45zM347 -10q-147 0 -226 97t-79 259q0 159 79.5 259t225.5 100t224 -99.5t78 -259.5q0 -162 -77.5 -259t-224.5 -97zM347 35q124 0 187.5 85.5t63.5 225.5q0 138 -64 226t-187 88q-124 0 -189 -88t-65 -226
q0 -140 65 -225.5t189 -85.5z" />
    <glyph glyph-name="uni01D2" unicode="&#x1d2;" horiz-adv-x="508" 
d="M232 582l-121 151h53l84 -118h14l82 118h53l-120 -151h-45zM255 -10q-97 0 -157 68t-60 191q0 124 60 192.5t157 68.5t156 -68.5t59 -192.5q0 -123 -59 -191t-156 -68zM255 34q75 0 121 56t46 159q0 104 -45.5 160.5t-121.5 56.5t-122.5 -56.5t-46.5 -160.5
q0 -102 46.5 -158.5t122.5 -56.5z" />
    <glyph glyph-name="uni01D3" unicode="&#x1d3;" horiz-adv-x="663" 
d="M310 777l-121 151h53l84 -118h14l82 118h53l-120 -151h-45zM333 -10q-123 0 -198 73t-75 198v434h50v-434q0 -103 60.5 -164.5t162.5 -61.5t161 61t59 165v434h50v-434q0 -125 -74 -198t-196 -73z" />
    <glyph glyph-name="uni01D4" unicode="&#x1d4;" 
d="M241 582l-121 151h53l84 -118h14l82 118h53l-120 -151h-45zM228 -5q-77 0 -122.5 50t-45.5 149v306h48v-300q0 -89 35.5 -124.5t96.5 -35.5q73 0 126.5 55t53.5 155v250h48v-500h-48v46l4 57h-13q-59 -108 -183 -108z" />
    <glyph glyph-name="Gcaron" unicode="&#x1e6;" horiz-adv-x="687" 
d="M322 777l-121 151h53l84 -118h14l82 118h53l-120 -151h-45zM337 -6q-130 0 -214.5 97.5t-84.5 254.5q0 160 85 258t216 98q120 0 193 -70.5t87 -193.5l-46 -3q-11 105 -72 163.5t-162 58.5q-110 0 -180 -86t-70 -225q0 -135 70.5 -220.5t177.5 -85.5q101 0 163.5 57.5
t72.5 179.5h-220v50h274v-327h-44l-1 129h-13q-28 -62 -87.5 -98.5t-144.5 -36.5z" />
    <glyph glyph-name="gcaron" unicode="&#x1e7;" horiz-adv-x="535" 
d="M230 582l-121 151h53l84 -118h14l82 118h53l-120 -151h-45zM257 -245q-85 0 -144.5 46.5t-71.5 135.5l49 5q7 -70 52.5 -106.5t114.5 -36.5q166 0 166 182v61l1 53h-8q-53 -101 -170 -101q-88 0 -147 67t-59 188q0 120 59.5 188.5t146.5 68.5q114 0 170 -100h8l-1 51v43
h48v-519q0 -111 -56.5 -168.5t-157.5 -57.5zM257 40q74 0 120 54.5t46 154.5q0 101 -45.5 156t-120.5 55q-72 0 -119 -56t-47 -155t47 -154t119 -55z" />
    <glyph glyph-name="Oslashacute" unicode="&#x1fe;" horiz-adv-x="691" 
d="M483 928l-110 -151h-52l106 151h56zM546 632q103 -97 103 -286q0 -162 -77.5 -259t-224.5 -97q-95 0 -166 44l-55 -90h-52l72 117q-104 95 -104 285q0 159 79.5 259t225.5 100q96 0 164 -45l56 91h52zM93 346q0 -159 79 -242l314 515q-58 41 -139 41q-124 0 -189 -88
t-65 -226zM347 35q124 0 187.5 85.5t63.5 225.5q0 159 -78 243l-314 -514q57 -40 141 -40z" />
    <glyph glyph-name="oslashacute" unicode="&#x1ff;" horiz-adv-x="508" 
d="M391 733l-110 -151h-52l106 151h56zM400 454q70 -70 70 -205q0 -123 -59 -191t-156 -68q-69 0 -118 34l-60 -98h-41l73 120q-71 71 -71 203q0 124 60 192.5t157 68.5q67 0 117 -33l58 95h42zM86 249q0 -104 49 -161l213 349q-40 29 -93 29q-76 0 -122.5 -56.5
t-46.5 -160.5zM255 34q75 0 121 56t46 159q0 105 -48 163l-213 -349q40 -29 94 -29z" />
    <glyph glyph-name="uni0218" unicode="&#x218;" horiz-adv-x="627" 
d="M335 -10q-118 0 -197.5 57.5t-99.5 158.5l53 6q16 -81 81.5 -128.5t161.5 -47.5q95 0 150 40.5t55 108.5q0 58 -33.5 89t-112.5 43l-134 20q-195 30 -195 173q0 85 68.5 140t172.5 55q102 0 168 -56.5t81 -167.5l-47 -4q-12 91 -65.5 136.5t-136.5 45.5
q-84 0 -137.5 -41.5t-53.5 -107.5q0 -104 149 -126l132 -20q194 -30 194 -179q0 -87 -69 -141t-185 -54zM247 -263l46 186h44l-52 -186h-38z" />
    <glyph glyph-name="uni0219" unicode="&#x219;" horiz-adv-x="473" 
d="M246 -10q-85 0 -143 40t-73 108l49 5q12 -52 55.5 -80t111.5 -28q67 0 108 27t41 72q0 70 -108 85l-95 12q-147 18 -147 127q0 66 52.5 109t129.5 43q80 0 130 -41.5t59 -115.5l-45 -3q-8 56 -45.5 85.5t-98.5 29.5q-58 0 -95.5 -29.5t-37.5 -76.5q0 -69 102 -82l94 -12
q153 -21 153 -127q0 -66 -54.5 -107t-142.5 -41zM175 -253l46 186h44l-52 -186h-38z" />
    <glyph glyph-name="uni021A" unicode="&#x21a;" horiz-adv-x="616" 
d="M283 0v541l1 108l-86 -1h-185v47h590v-47h-185l-86 1l1 -108v-541h-50zM241 -263l46 186h44l-52 -186h-38z" />
    <glyph glyph-name="uni021B" unicode="&#x21b;" horiz-adv-x="332" 
d="M233 -5q-55 0 -85 31.5t-30 92.5v338l-55 -2h-50v45h50l55 -2v144h48v-87l-2 -57l57 2h73v-45h-73l-55 2v-336q0 -81 70 -81q26 0 58 5v-43q-38 -7 -61 -7zM168 -263l46 186h44l-52 -186h-38z" />
    <glyph glyph-name="uni0228" unicode="&#x228;" horiz-adv-x="571" 
d="M537 649l-424 1l1 -108v-58l-1 -104l377 1v-45l-377 1l1 -104v-82l-1 -108l424 1v-44h-208v-49q44 -1 71 -24.5t27 -56.5q0 -98 -140 -98q-9 0 -20 0.5t-24.5 1.5t-21.5 1v37q42 -3 63 -3q103 0 103 55q0 28 -20 41t-72 13v82h-231v695h473v-46z" />
    <glyph glyph-name="uni0229" unicode="&#x229;" horiz-adv-x="518" 
d="M474 238h-315l-73 1q2 -96 49 -150t129 -54q62 0 103.5 32t56.5 91l46 -5q-19 -75 -69 -117t-124 -46v-39q44 -1 71 -24.5t27 -56.5q0 -98 -140 -98q-9 0 -20 0.5t-24.5 1.5t-21.5 1v37q42 -3 63 -3q103 0 103 55q0 28 -20 41t-72 13v73q-92 7 -148.5 75t-56.5 183
q0 116 60.5 188.5t159.5 72.5q100 0 158 -71t58 -192v-9zM258 465q-71 0 -118 -47.5t-52 -136.5l71 2h194l73 -2q-6 90 -51.5 137t-116.5 47z" />
    <glyph glyph-name="uni0259" unicode="&#x259;" horiz-adv-x="518" 
d="M261 -5q-100 0 -158.5 69.5t-58.5 188.5v9h315l73 -1q-2 91 -47.5 145t-124.5 54q-66 0 -109.5 -34.5t-56.5 -92.5l-46 5q18 76 73.5 121.5t138.5 45.5q98 0 159 -69t61 -185q0 -115 -60 -185.5t-159 -70.5zM261 40q71 0 117.5 45t51.5 132l-71 -1h-194l-71 1
q4 -87 50 -132t117 -45z" />
    <glyph glyph-name="uni0265" unicode="&#x265;" 
d="M468 500v-760h-48v306l4 57h-13q-61 -108 -183 -108q-77 0 -122.5 50t-45.5 149v306h48v-300q0 -89 35.5 -124.5t96.5 -35.5q73 0 126.5 55t53.5 155v250h48z" />
    <glyph glyph-name="uni02BC" unicode="&#x2bc;" horiz-adv-x="112" 
d="M31 448l-6 173v74h44v-74l-6 -173h-32z" />
    <glyph glyph-name="circumflex" unicode="&#x2c6;" horiz-adv-x="286" 
d="M0 582l121 151h45l120 -151h-53l-83 118h-12l-85 -118h-53z" />
    <glyph glyph-name="caron" unicode="&#x2c7;" horiz-adv-x="286" 
d="M121 582l-121 151h53l84 -118h14l82 118h53l-120 -151h-45z" />
    <glyph glyph-name="breve" unicode="&#x2d8;" horiz-adv-x="255" 
d="M128 582q-60 0 -93 39.5t-35 108.5h39q8 -113 89 -113q82 0 88 113h39q-3 -70 -35 -109t-92 -39z" />
    <glyph glyph-name="dotaccent" unicode="&#x2d9;" horiz-adv-x="66" 
d="M0 624v67h66v-67h-66z" />
    <glyph glyph-name="ring" unicode="&#x2da;" horiz-adv-x="161" 
d="M81 582q-33 0 -57 24.5t-24 56.5t24 56.5t57 24.5q32 0 56 -24.5t24 -56.5t-24 -56.5t-56 -24.5zM81 616q19 0 33 14t14 33t-14 33t-33 14q-20 0 -34 -14t-14 -33t14 -33t34 -14z" />
    <glyph glyph-name="ogonek" unicode="&#x2db;" horiz-adv-x="166" 
d="M109 -207q-109 0 -109 87q0 80 120 137l21 -15q-102 -65 -102 -120q0 -52 75 -52q25 0 52 4v-37q-34 -4 -57 -4z" />
    <glyph glyph-name="tilde" unicode="&#x2dc;" horiz-adv-x="277" 
d="M0 593q0 128 74 128q23 0 42 -13t30 -28.5t24.5 -28.5t26.5 -13q42 0 42 83h38q0 -128 -78 -128q-27 0 -50 20.5t-41.5 41.5t-33.5 21q-38 0 -38 -83h-36z" />
    <glyph glyph-name="hungarumlaut" unicode="&#x2dd;" horiz-adv-x="257" 
d="M0 582l103 151h53l-115 -151h-41zM101 582l103 151h53l-115 -151h-41z" />
    <glyph glyph-name="gravecomb" unicode="&#x300;" horiz-adv-x="0" 
d="M-49 582l-102 151h59l92 -151h-49z" />
    <glyph glyph-name="acutecomb" unicode="&#x301;" horiz-adv-x="0" 
d="M-162 582l106 151h56l-110 -151h-52z" />
    <glyph glyph-name="uni0302" unicode="&#x302;" horiz-adv-x="0" 
d="M-286 582l121 151h45l120 -151h-53l-83 118h-12l-85 -118h-53z" />
    <glyph glyph-name="tildecomb" unicode="&#x303;" horiz-adv-x="0" 
d="M-277 593q0 128 74 128q23 0 42 -13t30 -28.5t24.5 -28.5t26.5 -13q42 0 42 83h38q0 -128 -78 -128q-27 0 -50 20.5t-41.5 41.5t-33.5 21q-38 0 -38 -83h-36z" />
    <glyph glyph-name="uni0304" unicode="&#x304;" horiz-adv-x="0" 
d="M-272 637v43h272v-43h-272z" />
    <glyph glyph-name="uni0306" unicode="&#x306;" horiz-adv-x="0" 
d="M-127 582q-60 0 -93 39.5t-35 108.5h39q8 -113 89 -113q82 0 88 113h39q-3 -70 -35 -109t-92 -39z" />
    <glyph glyph-name="uni0307" unicode="&#x307;" horiz-adv-x="0" 
d="M-66 624v67h66v-67h-66z" />
    <glyph glyph-name="uni0308" unicode="&#x308;" horiz-adv-x="0" 
d="M-249 624v67h66v-67h-66zM-66 624v67h66v-67h-66z" />
    <glyph glyph-name="hookabovecomb" unicode="&#x309;" horiz-adv-x="0" 
d="M-56 579q14 39 14 73q0 43 -41 43q-37 0 -82 -15v41q54 15 92 15q33 0 53 -20t20 -52q0 -40 -16 -85h-40z" />
    <glyph glyph-name="uni030A" unicode="&#x30a;" horiz-adv-x="0" 
d="M-80 582q-33 0 -57 24.5t-24 56.5t24 56.5t57 24.5q32 0 56 -24.5t24 -56.5t-24 -56.5t-56 -24.5zM-80 616q19 0 33 14t14 33t-14 33t-33 14q-20 0 -34 -14t-14 -33t14 -33t34 -14z" />
    <glyph glyph-name="uni030B" unicode="&#x30b;" horiz-adv-x="0" 
d="M-257 582l103 151h53l-115 -151h-41zM-156 582l103 151h53l-115 -151h-41z" />
    <glyph glyph-name="uni030C" unicode="&#x30c;" horiz-adv-x="0" 
d="M-165 582l-121 151h53l84 -118h14l82 118h53l-120 -151h-45z" />
    <glyph glyph-name="uni0312" unicode="&#x312;" horiz-adv-x="0" 
d="M-102 576l59 163h43l-51 -163h-51z" />
    <glyph glyph-name="uni031B" unicode="&#x31b;" horiz-adv-x="0" 
d="M-122 447v37q22 0 37.5 7t23 15.5t11.5 26t4.5 28.5t0.5 33v7h45q0 -73 -26 -113.5t-96 -40.5z" />
    <glyph glyph-name="dotbelowcomb" unicode="&#x323;" horiz-adv-x="0" 
d="M-68 -170v68h68v-68h-68z" />
    <glyph glyph-name="uni0326" unicode="&#x326;" horiz-adv-x="0" 
d="M-90 -263l46 186h44l-52 -186h-38z" />
    <glyph glyph-name="uni0327" unicode="&#x327;" horiz-adv-x="0" 
d="M-140 -228q-9 0 -20 0.5t-24.5 1.5t-21.5 1v37q42 -3 63 -3q103 0 103 55q0 28 -20 41t-72 13v105l34 -3v-69q44 -1 71 -24.5t27 -56.5q0 -98 -140 -98z" />
    <glyph glyph-name="uni0328" unicode="&#x328;" horiz-adv-x="0" 
d="M-57 -207q-109 0 -109 87q0 80 120 137l21 -15q-102 -65 -102 -120q0 -52 75 -52q25 0 52 4v-37q-34 -4 -57 -4z" />
    <glyph glyph-name="uni0335" unicode="&#x335;" horiz-adv-x="0" 
d="M-316 275v45h316v-45h-316z" />
    <glyph glyph-name="uni0336" unicode="&#x336;" horiz-adv-x="0" 
d="M-680 519v43h680v-43h-680z" />
    <glyph glyph-name="uni0337" unicode="&#x337;" horiz-adv-x="0" 
d="M-210 271v46l210 97v-46z" />
    <glyph glyph-name="uni0338" unicode="&#x338;" horiz-adv-x="0" 
d="M-546 -57l493 807h52l-493 -807h-52z" />
    <glyph glyph-name="uni0394" unicode="&#x394;" horiz-adv-x="705" 
d="M43 0v52l279 643h62l278 -643v-52h-619zM97 47h511l-237 554l-11 39h-14l-11 -39z" />
    <glyph glyph-name="uni03A9" unicode="&#x3a9;" horiz-adv-x="691" 
d="M649 346q0 -100 -35 -179t-100 -124h132v-43h-240v46q91 20 141.5 103t50.5 197q0 135 -67 223t-184 88t-185.5 -88t-68.5 -223q0 -113 51.5 -196t140.5 -104v-46h-240v43h134q-66 45 -101.5 124.5t-35.5 178.5q0 156 82.5 256t222.5 100q139 0 220.5 -100t81.5 -256z
" />
    <glyph glyph-name="uni03BC" unicode="&#x3bc;" horiz-adv-x="564" 
d="M64 -200v700h48v-300q0 -160 130 -160q70 0 122.5 56.5t52.5 153.5v250h48v-386q0 -43 17 -57.5t63 -13.5v-41q-21 -2 -32 -2q-44 0 -68 27t-23 76h-12q-58 -108 -178 -108q-76 0 -112 51h-8v-246h-48z" />
    <glyph glyph-name="pi" unicode="&#x3c0;" horiz-adv-x="547" 
d="M536 454h-105v-307q0 -37 7 -59t24 -31t31 -11t43 -2v-43q-38 0 -61 4t-46.5 17.5t-34.5 44.5t-11 80v307h-219v-454h-48v454h-107v46h527v-46z" />
    <glyph glyph-name="uni0400" unicode="&#x400;" horiz-adv-x="571" 
d="M289 777l-102 151h59l92 -151h-49zM64 0v695h473v-46l-424 1l1 -108v-58l-1 -104l377 1v-45l-377 1l1 -104v-82l-1 -108l424 1v-44h-473z" />
    <glyph glyph-name="uni0401" unicode="&#x401;" horiz-adv-x="571" 
d="M189 819v67h66v-67h-66zM372 819v67h66v-67h-66zM64 0v695h473v-46l-424 1l1 -108v-58l-1 -104l377 1v-45l-377 1l1 -104v-82l-1 -108l424 1v-44h-473z" />
    <glyph glyph-name="uni0402" unicode="&#x402;" horiz-adv-x="715" 
d="M494 -10q-31 0 -82 6v42q45 -5 75 -5q63 0 90.5 33t27.5 109v74q0 151 -135 151q-113 0 -181 -55v-345h-50v541l1 108l-86 -1h-141v47h532v-47h-171l-86 1l1 -108v-71l-10 -89h13q62 66 178 66q185 0 185 -198v-77q0 -94 -38.5 -138t-122.5 -44z" />
    <glyph glyph-name="uni0403" unicode="&#x403;" horiz-adv-x="506" 
d="M271 777l106 151h56l-110 -151h-52zM64 0v695h429v-45h-283l-97 1l1 -97v-554h-50z" />
    <glyph glyph-name="uni0404" unicode="&#x404;" horiz-adv-x="677" 
d="M351 39q88 0 152 49.5t87 139.5l48 -4q-23 -105 -102 -167.5t-185 -62.5q-141 0 -225 96t-84 256t85 258t224 98q108 0 186 -62t101 -172l-48 -5q-23 93 -87 143.5t-152 50.5q-112 0 -182 -79.5t-76 -209.5l267 1v-45l-267 1q6 -130 75 -208t183 -78z" />
    <glyph glyph-name="uni0405" unicode="&#x405;" horiz-adv-x="627" 
d="M335 -10q-118 0 -197.5 57.5t-99.5 158.5l53 6q16 -81 81.5 -128.5t161.5 -47.5q95 0 150 40.5t55 108.5q0 58 -33.5 89t-112.5 43l-134 20q-195 30 -195 173q0 85 68.5 140t172.5 55q102 0 168 -56.5t81 -167.5l-47 -4q-12 91 -65.5 136.5t-136.5 45.5
q-84 0 -137.5 -41.5t-53.5 -107.5q0 -104 149 -126l132 -20q194 -30 194 -179q0 -87 -69 -141t-185 -54z" />
    <glyph glyph-name="uni0406" unicode="&#x406;" horiz-adv-x="178" 
d="M64 0v695h50v-695h-50z" />
    <glyph glyph-name="uni0407" unicode="&#x407;" horiz-adv-x="178" 
d="M-36 819v67h66v-67h-66zM147 819v67h66v-67h-66zM64 0v695h50v-695h-50z" />
    <glyph glyph-name="uni0408" unicode="&#x408;" horiz-adv-x="362" 
d="M21 -4v47q118 0 174.5 38.5t56.5 142.5v471h50v-481q0 -122 -70.5 -170t-210.5 -48z" />
    <glyph glyph-name="uni0409" unicode="&#x409;" horiz-adv-x="1071" 
d="M824 389q105 0 163 -51t58 -144t-58 -143.5t-163 -50.5h-266v580l1 69l-90 -1h-111l-93 1l-15 -271q-4 -75 -10 -124.5t-21.5 -102t-40 -82.5t-66 -49.5t-99.5 -19.5v44q34 0 61.5 10t46 24.5t32.5 41.5t21.5 51t13.5 63.5t8 68t5 75.5l17 317h393v-225l-1 -81h214z
M824 45q88 0 131 36t43 113t-43 113.5t-131 36.5h-120l-94 1l1 -71v-159l-1 -71l95 1h119z" />
    <glyph glyph-name="uni040A" unicode="&#x40a;" horiz-adv-x="1048" 
d="M801 380q105 0 163 -49.5t58 -140.5q0 -92 -58 -141t-163 -49h-264v265l1 69l-90 -1h-245l-90 1l1 -69v-265h-50v695h50v-249l-1 -69l90 1h245l90 -1l-1 68v250h51v-236l-1 -79h214zM801 44q88 0 131 35.5t43 110.5t-43 110.5t-131 35.5h-120l-94 1l1 -69v-156l-1 -69
l95 1h119z" />
    <glyph glyph-name="uni040B" unicode="&#x40b;" horiz-adv-x="715" 
d="M239 0v541l1 108l-86 -1h-141v47h532v-47h-171l-86 1l1 -108v-71l-10 -93h13q27 29 78 49.5t100 20.5q185 0 185 -198v-249h-50v249q0 151 -135 151q-113 0 -181 -55v-345h-50z" />
    <glyph glyph-name="uni040C" unicode="&#x40c;" horiz-adv-x="617" 
d="M436 928l-110 -151h-52l106 151h56zM608 695l-318 -293l318 -400v-2h-65l-289 369l-140 -130v-239h-50v695h50v-329l-4 -73h12l41 53l376 349h69z" />
    <glyph glyph-name="uni040D" unicode="&#x40d;" horiz-adv-x="659" 
d="M311 777l-102 151h59l92 -151h-49zM64 0v695h50v-538l-7 -102h14l46 85l363 555h65v-695h-50v538l7 102h-14l-31 -64l-377 -576h-66z" />
    <glyph glyph-name="uni040E" unicode="&#x40e;" horiz-adv-x="563" 
d="M285 777q-60 0 -93 39.5t-35 108.5h39q8 -113 89 -113q82 0 88 113h39q-3 -70 -35 -109t-92 -39zM100 -10q-12 0 -44 2v43q16 -1 38 -1q52 0 81.5 23t58.5 84l26 54l-252 500h57l190 -384l24 -66h12l24 67l183 383h57l-275 -564q-38 -79 -78.5 -110t-101.5 -31z" />
    <glyph glyph-name="uni040F" unicode="&#x40f;" horiz-adv-x="651" 
d="M587 695v-695h-239v-145h-45v145h-239v695h50v-580l-1 -69l90 1h245l90 -1l-1 69v580h50z" />
    <glyph glyph-name="uni0410" unicode="&#x410;" horiz-adv-x="681" 
d="M9 0l301 695h62l300 -695h-56l-83 193h-385l-83 -193h-56zM167 237l73 2h202l73 -2l-18 43l-140 325l-11 38h-10l-11 -38l-141 -326z" />
    <glyph glyph-name="uni0411" unicode="&#x411;" horiz-adv-x="592" 
d="M64 0v695h461v-45h-315l-97 1l1 -90v-84l-1 -83l91 1h129q114 0 173.5 -50.5t59.5 -147.5t-59.5 -147t-173.5 -50h-269zM113 44l95 1h125q95 0 140.5 37.5t45.5 114.5q0 78 -45.5 115.5t-140.5 37.5h-126l-94 1l1 -72v-163z" />
    <glyph glyph-name="uni0412" unicode="&#x412;" horiz-adv-x="608" 
d="M64 0v695h261q108 0 169 -44t61 -136q0 -62 -32.5 -101t-82.5 -50v-12q53 -10 89 -53.5t36 -108.5q0 -94 -61.5 -142t-168.5 -48h-271zM113 379l90 1h122q89 0 134.5 31.5t45.5 103.5q0 73 -45.5 104t-134.5 31h-122l-90 1l1 -90v-92zM113 44l90 1h132q180 0 180 145
q0 71 -47 108t-133 37h-132l-90 1l1 -90v-112z" />
    <glyph glyph-name="uni0413" unicode="&#x413;" horiz-adv-x="506" 
d="M64 0v695h429v-45h-283l-97 1l1 -97v-554h-50z" />
    <glyph glyph-name="uni0414" unicode="&#x414;" horiz-adv-x="720" 
d="M26 -145v192h101q58 144 68 331l17 317h373v-527l-1 -121h110v-192h-45v145h-578v-145h-45zM180 46l213 1l143 -1l-1 121v413l1 69l-90 -1h-94l-93 1l-15 -271q-9 -167 -64 -322v-10z" />
    <glyph glyph-name="uni0415" unicode="&#x415;" horiz-adv-x="571" 
d="M64 0v695h473v-46l-424 1l1 -108v-58l-1 -104l377 1v-45l-377 1l1 -104v-82l-1 -108l424 1v-44h-473z" />
    <glyph glyph-name="uni0416" unicode="&#x416;" horiz-adv-x="916" 
d="M694 403l-45 -48v-14l45 -48l213 -291v-2h-64l-231 325l-130 1l1 -101v-225h-50v223l1 103l-130 -1l-231 -325h-64v2l213 291l45 48v14l-45 48l-213 290v2h63l232 -324l130 -1l-1 90v235h50v-233l-1 -92l130 1l232 324h63v-2z" />
    <glyph glyph-name="uni0417" unicode="&#x417;" horiz-adv-x="609" 
d="M314 -5q-106 0 -181.5 53.5t-90.5 149.5l49 5q10 -78 73.5 -121t149.5 -43q93 0 147.5 40t54.5 118q0 70 -50.5 107.5t-130.5 37.5h-26v44h26q67 0 112.5 33t45.5 93q0 69 -45.5 109t-129.5 40q-167 0 -198 -161l-48 4q14 97 80 149t166 52t162 -53t62 -140
q0 -58 -35 -94.5t-82 -45.5v-14q58 -8 99.5 -50t41.5 -111q0 -97 -70.5 -149.5t-181.5 -52.5z" />
    <glyph glyph-name="uni0418" unicode="&#x418;" horiz-adv-x="659" 
d="M64 0v695h50v-538l-7 -102h14l46 85l363 555h65v-695h-50v538l7 102h-14l-31 -64l-377 -576h-66z" />
    <glyph glyph-name="uni0419" unicode="&#x419;" horiz-adv-x="659" 
d="M335 777q-60 0 -93 39.5t-35 108.5h39q8 -113 89 -113q82 0 88 113h39q-3 -70 -35 -109t-92 -39zM64 0v695h50v-538l-7 -102h14l46 85l363 555h65v-695h-50v538l7 102h-14l-31 -64l-377 -576h-66z" />
    <glyph glyph-name="uni041A" unicode="&#x41a;" horiz-adv-x="617" 
d="M608 695l-318 -293l318 -400v-2h-65l-289 369l-140 -130v-239h-50v695h50v-329l-4 -73h12l41 53l376 349h69z" />
    <glyph glyph-name="uni041B" unicode="&#x41b;" horiz-adv-x="672" 
d="M13 0v44q34 0 61.5 10t46 24.5t32.5 41.5t21.5 51t13.5 63.5t8 68t5 75.5l17 317h390v-695h-50v580l1 69l-90 -1h-111l-93 1l-15 -271q-4 -75 -10 -124.5t-21.5 -102t-40 -82.5t-66 -49.5t-99.5 -19.5z" />
    <glyph glyph-name="uni041C" unicode="&#x41c;" horiz-adv-x="846" 
d="M64 0v695h58l273 -577l24 -67h8l24 67l273 577h58v-695h-50v539l5 70h-9l-24 -69l-256 -540h-50l-256 540l-24 69h-9l5 -70v-539h-50z" />
    <glyph glyph-name="uni041D" unicode="&#x41d;" horiz-adv-x="651" 
d="M64 0v695h50v-249l-1 -69l90 1h245l90 -1l-1 68v250h50v-695h-50v265l1 69l-90 -1h-245l-90 1l1 -69v-265h-50z" />
    <glyph glyph-name="uni041E" unicode="&#x41e;" horiz-adv-x="691" 
d="M347 -10q-147 0 -226 97t-79 259q0 159 79.5 259t225.5 100t224 -99.5t78 -259.5q0 -162 -77.5 -259t-224.5 -97zM347 35q124 0 187.5 85.5t63.5 225.5q0 138 -64 226t-187 88q-124 0 -189 -88t-65 -226q0 -140 65 -225.5t189 -85.5z" />
    <glyph glyph-name="uni041F" unicode="&#x41f;" horiz-adv-x="651" 
d="M64 0v695h523v-695h-50v580l1 69l-90 -1h-245l-90 1l1 -69v-580h-50z" />
    <glyph glyph-name="uni0420" unicode="&#x420;" horiz-adv-x="568" 
d="M64 0v695h251q103 0 165 -51.5t62 -154.5t-62 -154t-165 -51h-108l-94 1l1 -88v-197h-50zM113 328l94 1h108q180 0 180 160q0 161 -180 161h-107l-95 1l1 -76v-171z" />
    <glyph glyph-name="uni0421" unicode="&#x421;" horiz-adv-x="680" 
d="M350 -10q-139 0 -223.5 97t-84.5 259q0 161 85.5 260t222.5 99q116 0 193.5 -69.5t88.5 -187.5l-49 -5q-10 99 -73.5 158t-159.5 59q-115 0 -186 -87t-71 -227q0 -141 70 -226t187 -85q101 0 166 59t77 161l48 -4q-13 -121 -92 -191t-199 -70z" />
    <glyph glyph-name="uni0422" unicode="&#x422;" horiz-adv-x="616" 
d="M283 0v541l1 108l-86 -1h-185v47h590v-47h-185l-86 1l1 -108v-541h-50z" />
    <glyph glyph-name="uni0423" unicode="&#x423;" horiz-adv-x="563" 
d="M100 -10q-12 0 -44 2v43q16 -1 38 -1q52 0 81.5 23t58.5 84l26 54l-252 500h57l190 -384l24 -66h12l24 67l183 383h57l-275 -564q-38 -79 -78.5 -110t-101.5 -31z" />
    <glyph glyph-name="uni0424" unicode="&#x424;" horiz-adv-x="822" 
d="M386 -33v38l2 61q-159 3 -252.5 72.5t-93.5 207.5t93.5 209t252.5 74l-2 65v34h50v-34l-2 -65q159 -3 252.5 -74t93.5 -209t-93.5 -207.5t-252.5 -72.5l2 -61v-38h-50zM388 111l-2 74v332l2 67q-137 -3 -216.5 -63t-79.5 -175t79.5 -173.5t216.5 -61.5zM434 111
q137 3 216.5 61.5t79.5 173.5t-79.5 175t-216.5 63l2 -65v-334z" />
    <glyph glyph-name="uni0425" unicode="&#x425;" horiz-adv-x="611" 
d="M9 0l266 348l-263 347h64l179 -242l45 -66h12l47 66l180 242h60l-262 -347l265 -348h-63l-181 242l-46 66h-12l-45 -66l-183 -242h-63z" />
    <glyph glyph-name="uni0426" unicode="&#x426;" horiz-adv-x="712" 
d="M686 47v-192h-45v145h-577v695h50v-580l-1 -69l90 1h235l90 -1l-1 69v580h50v-648h109z" />
    <glyph glyph-name="uni0427" unicode="&#x427;" horiz-adv-x="620" 
d="M506 0v225l10 85h-13q-28 -27 -93.5 -46.5t-131.5 -19.5q-218 0 -218 202v249h50v-249q0 -155 168 -155q140 0 228 59v345h50v-695h-50z" />
    <glyph glyph-name="uni0428" unicode="&#x428;" horiz-adv-x="1024" 
d="M64 0v695h50v-542l-1 -109l86 1h203l86 -1l-1 109v542h50v-542l-1 -109l86 1h196l93 -1l-1 112v539h50v-695h-896z" />
    <glyph glyph-name="uni0429" unicode="&#x429;" horiz-adv-x="995" 
d="M969 47v-192h-45v145h-860v695h50v-542l-1 -109l86 1h153l86 -1l-1 109v542h50v-542l-1 -109l86 1h146l93 -1l-1 112v539h50v-648h109z" />
    <glyph glyph-name="uni042A" unicode="&#x42a;" horiz-adv-x="691" 
d="M434 389q105 0 163 -51t58 -144t-58 -143.5t-163 -50.5h-263v651l-74 -2h-71v46h195v-225l-1 -81h214zM434 45q88 0 131 36t43 113t-43 113.5t-131 36.5h-120l-94 1l1 -71v-159l-1 -71l95 1h119z" />
    <glyph glyph-name="uni042B" unicode="&#x42b;" horiz-adv-x="759" 
d="M64 0v695h50v-225l-1 -81h204q105 0 163 -51t58 -144t-58 -143.5t-163 -50.5h-253zM645 0v695h50v-695h-50zM113 44l95 1h109q88 0 131 36t43 113t-43 113.5t-131 36.5h-110l-94 1l1 -71v-159z" />
    <glyph glyph-name="uni042C" unicode="&#x42c;" horiz-adv-x="574" 
d="M64 0v695h50v-225l-1 -81h214q105 0 163 -51t58 -144t-58 -143.5t-163 -50.5h-263zM113 44l95 1h119q88 0 131 36t43 113t-43 113.5t-131 36.5h-120l-94 1l1 -71v-159z" />
    <glyph glyph-name="uni042D" unicode="&#x42d;" horiz-adv-x="680" 
d="M336 702q137 0 219.5 -98t82.5 -258t-81.5 -256t-220.5 -96q-107 0 -185 62.5t-101 167.5l48 4q23 -90 86 -139.5t152 -49.5q112 0 179 78t72 208l-259 -1v45l259 -1q-6 130 -73.5 209.5t-177.5 79.5q-89 0 -152 -50t-86 -144l-48 5q23 110 100 172t186 62z" />
    <glyph glyph-name="uni042E" unicode="&#x42e;" horiz-adv-x="880" 
d="M562 -10q-126 0 -199.5 90t-78.5 245l-58 -1h-61l-52 1l1 -103v-222h-50v695h50v-205l-1 -123l52 1h60l59 -1q5 153 79 245.5t199 92.5q129 0 202.5 -98.5t73.5 -260.5q0 -165 -73 -260.5t-203 -95.5zM562 35q108 0 166.5 84t58.5 227q0 141 -59 227.5t-166 86.5
q-108 0 -168 -86.5t-60 -227.5q0 -142 59.5 -226.5t168.5 -84.5z" />
    <glyph glyph-name="uni042F" unicode="&#x42f;" horiz-adv-x="575" 
d="M34 0l153 258l31 43v5q-89 11 -137 60t-48 132q0 98 62 147.5t165 49.5h251v-695h-50v194l1 110l-94 -1h-101l-178 -303h-55zM462 347l-1 72v160l1 72l-95 -1h-107q-180 0 -180 -152q0 -150 180 -150h108z" />
    <glyph glyph-name="uni0430" unicode="&#x430;" horiz-adv-x="517" 
d="M213 -10q-78 0 -123 36.5t-45 95.5q0 38 14 66.5t38 44.5t56 26.5t68 13t74.5 4.5t74.5 0h38v56q0 62 -35.5 97.5t-99.5 35.5q-68 0 -111 -36.5t-50 -104.5l-45 3q9 87 66.5 134.5t139.5 47.5q86 0 134.5 -48.5t48.5 -130.5l1 -331h-38l-3 101h-13q-20 -51 -70 -81
t-120 -30zM222 33q86 0 136 53t50 131v21h-35q-28 0 -56.5 0.5t-55.5 -2t-52 -6t-45.5 -12t-36 -20t-24 -30t-8.5 -42.5q0 -42 32 -67.5t95 -25.5z" />
    <glyph glyph-name="uni0431" unicode="&#x431;" horiz-adv-x="514" 
d="M263 -5q-131 0 -187 106q-38 73 -38 194q0 181 83 283q27 34 69.5 58.5t70.5 34t77 22.5q45 12 65.5 25.5t20.5 41.5h49q-1 -39 -23 -61.5t-72 -39.5q-9 -3 -43 -12t-57 -16.5t-57.5 -26.5t-57.5 -43t-43.5 -66t-27.5 -95h13q58 93 179 93q84 0 138 -70t54 -180
q0 -109 -60 -178.5t-153 -69.5zM263 40q72 0 118.5 56.5t46.5 146.5q0 92 -46 148.5t-119 56.5q-76 0 -124 -56.5t-48 -148.5q0 -89 44.5 -146t127.5 -57z" />
    <glyph glyph-name="uni0432" unicode="&#x432;" horiz-adv-x="491" 
d="M64 0v500h214q172 0 172 -135q0 -43 -24 -71.5t-64 -37.5v-12q44 -6 69.5 -34.5t25.5 -74.5q0 -135 -175 -135h-218zM111 269l159 2q76 1 105.5 22.5t29.5 71.5t-30 72t-105 22h-93l-66 1l1 -71v-52zM111 40l66 1h97q75 0 106 22.5t31 71.5q0 50 -30.5 72t-106.5 22h-99
l-64 1l1 -75v-53z" />
    <glyph glyph-name="uni0433" unicode="&#x433;" horiz-adv-x="425" 
d="M64 0v500h341v-45h-216l-78 1l1 -98v-358h-48z" />
    <glyph glyph-name="uni0434" unicode="&#x434;" horiz-adv-x="608" 
d="M26 -145v189h85q36 81 43 200l16 256h320v-456h92v-189h-45v90l1 56l-67 -1h-317l-84 1l1 -54v-92h-45zM161 43l98 1h103l81 -1l-1 102v225l1 87l-87 -1h-56l-84 1l-14 -212q-9 -131 -41 -196v-6z" />
    <glyph glyph-name="uni0435" unicode="&#x435;" horiz-adv-x="518" 
d="M264 -10q-100 0 -163 68.5t-63 190.5q0 116 60.5 188.5t159.5 72.5q100 0 158 -71t58 -192v-9h-315l-73 1q2 -96 49 -150t129 -54q62 0 103.5 32t56.5 91l46 -5q-19 -78 -73 -120.5t-133 -42.5zM88 281l71 2h194l73 -2q-6 90 -51.5 137t-116.5 47t-118 -47.5t-52 -136.5z
" />
    <glyph glyph-name="uni0436" unicode="&#x436;" horiz-adv-x="728" 
d="M652 0l-158 230l-106 1l1 -75v-156h-50v155l1 76l-106 -1l-158 -230h-63l117 166l63 79v10l-63 81l-115 164h63l156 -230l106 -1l-1 86v145h50v-144l-1 -87l106 1l156 230h63l-115 -164l-63 -81v-10l63 -79l117 -166h-63z" />
    <glyph glyph-name="uni0437" unicode="&#x437;" horiz-adv-x="465" 
d="M236 -10q-91 0 -145.5 39t-63.5 113l50 5q14 -112 159 -112q69 0 108 28t39 77t-36 76t-102 27h-20v39h20q58 0 89 23t31 66q0 45 -32 69.5t-91 24.5q-124 0 -143 -109l-48 6q11 69 61.5 108.5t129.5 39.5q78 0 124 -38t46 -101q0 -74 -76 -101v-12q43 -10 69 -40.5
t26 -77.5q0 -68 -52.5 -109t-142.5 -41z" />
    <glyph glyph-name="uni0438" unicode="&#x438;" 
d="M64 0v500h48v-338l-9 -101h14l290 439h61v-500h-48v338l9 101h-14l-290 -439h-61z" />
    <glyph glyph-name="uni0439" unicode="&#x439;" 
d="M265 582q-60 0 -93 39.5t-35 108.5h39q8 -113 89 -113q82 0 88 113h39q-3 -70 -35 -109t-92 -39zM64 0v500h48v-338l-9 -101h14l290 439h61v-500h-48v338l9 101h-14l-290 -439h-61z" />
    <glyph glyph-name="uni043A" unicode="&#x43a;" horiz-adv-x="482" 
d="M468 500v-4l-224 -204l224 -286v-6h-56l-202 261l-98 -89v-172h-48v500h48v-222l-6 -64h10l37 49l256 237h59z" />
    <glyph glyph-name="uni043B" unicode="&#x43b;" horiz-adv-x="536" 
d="M20 -2v48q36 0 60.5 16t38 45.5t19 61.5t7.5 75l11 256h316v-500h-48v385l1 72l-78 -1h-73l-73 1l-2 -71l-6 -141q-10 -247 -173 -247z" />
    <glyph glyph-name="uni043C" unicode="&#x43c;" horiz-adv-x="703" 
d="M64 0v500h60l192 -383l33 -67h6l32 67l192 383h60v-500h-48v340l2 79h-6l-209 -419h-53l-209 419h-6l2 -78v-341h-48z" />
    <glyph glyph-name="uni043D" unicode="&#x43d;" horiz-adv-x="530" 
d="M64 0v500h48v-122l-1 -96l82 1h133l93 -1l-1 96v122h48v-500h-48v148l1 92l-94 -1h-132l-82 1l1 -92v-148h-48z" />
    <glyph glyph-name="uni043E" unicode="&#x43e;" horiz-adv-x="508" 
d="M255 -10q-97 0 -157 68t-60 191q0 124 60 192.5t157 68.5t156 -68.5t59 -192.5q0 -123 -59 -191t-156 -68zM255 34q75 0 121 56t46 159q0 104 -45.5 160.5t-121.5 56.5t-122.5 -56.5t-46.5 -160.5q0 -102 46.5 -158.5t122.5 -56.5z" />
    <glyph glyph-name="uni043F" unicode="&#x43f;" horiz-adv-x="530" 
d="M64 0v500h402v-500h-48v340l1 117l-198 -1l-110 1l1 -117v-340h-48z" />
    <glyph glyph-name="uni0440" unicode="&#x440;" horiz-adv-x="535" 
d="M64 -240v740h48v-43l-3 -51h12q22 43 64.5 71.5t103.5 28.5q87 0 146.5 -68.5t59.5 -188.5q0 -121 -59 -188t-147 -67q-61 0 -104 28.5t-64 72.5h-12l3 -53v-282h-48zM278 40q72 0 119 55t47 154t-47 155t-119 56q-75 0 -120.5 -55t-45.5 -156q0 -100 46 -154.5
t120 -54.5z" />
    <glyph glyph-name="uni0441" unicode="&#x441;" horiz-adv-x="495" 
d="M260 -10q-100 0 -161 70.5t-61 188.5q0 119 60.5 190t159.5 71q83 0 138 -48t68 -139l-48 -5q-11 74 -52.5 110.5t-105.5 36.5q-79 0 -125.5 -58t-46.5 -158q0 -99 47.5 -156.5t126.5 -57.5q65 0 107.5 37t52.5 111l48 -4q-12 -92 -67.5 -140.5t-140.5 -48.5z" />
    <glyph glyph-name="uni0442" unicode="&#x442;" horiz-adv-x="471" 
d="M212 0v387l1 70l-73 -1h-120v44h431v-44h-129l-63 1l1 -70v-387h-48z" />
    <glyph glyph-name="uni0443" unicode="&#x443;" horiz-adv-x="495" 
d="M91 -241q-12 0 -44 2v42q16 -1 38 -1q38 0 61.5 24.5t48.5 91.5l32 83l-208 499h55l158 -391l13 -48h11l15 48l150 391h54l-241 -601q-33 -83 -63.5 -111.5t-79.5 -28.5z" />
    <glyph glyph-name="uni0444" unicode="&#x444;" horiz-adv-x="682" 
d="M317 -240v131l2 98q-137 6 -209 73.5t-72 186.5q0 120 72 188t209 74l-2 73v111h48v-107l-2 -77q137 -5 209 -73t72 -189q0 -120 -72 -187.5t-209 -72.5l2 -101v-128h-48zM363 33q117 5 174.5 60.5t57.5 155.5q0 208 -232 218l2 -97v-236zM319 34l-2 100v237l2 95
q-114 -4 -173 -60.5t-59 -156.5q0 -99 59 -155t173 -60z" />
    <glyph glyph-name="uni0445" unicode="&#x445;" horiz-adv-x="481" 
d="M21 0v3l190 247l-190 247v3h62l116 -161l36 -54h11l36 54l116 161h62v-3l-190 -247l190 -247v-3h-62l-116 160l-36 55h-11l-36 -55l-116 -160h-62z" />
    <glyph glyph-name="uni0446" unicode="&#x446;" horiz-adv-x="593" 
d="M567 44v-189h-45v145h-458v500h48v-394l-1 -63l69 1h162l73 -1h4l-1 62v395h48v-456h101z" />
    <glyph glyph-name="uni0447" unicode="&#x447;" horiz-adv-x="497" 
d="M385 0v159l6 64h-10q-61 -43 -144 -43q-176 0 -176 152v168h48v-174q0 -54 32.5 -78.5t99.5 -24.5q83 0 144 30v247h48v-500h-48z" />
    <glyph glyph-name="uni0448" unicode="&#x448;" horiz-adv-x="765" 
d="M64 0v500h48v-345l-1 -112l93 1h69l87 -1l-1 116v341h48v-341l-1 -116l96 1h73l79 -1l-1 121v336h48v-500h-637z" />
    <glyph glyph-name="uni0449" unicode="&#x449;" horiz-adv-x="828" 
d="M802 44v-189h-45v145h-693v500h48v-345l-1 -112l93 1h69l87 -1l-1 116v341h48v-341l-1 -116l96 1h73l75 -1h4l-1 121v336h48v-456h101z" />
    <glyph glyph-name="uni044A" unicode="&#x44a;" horiz-adv-x="562" 
d="M357 290q81 0 126 -38t45 -107t-45 -107t-126 -38h-208v457l-45 -1h-91v44h184v-123l-2 -88l84 1h78zM349 44q70 0 102.5 24.5t32.5 76.5t-32.5 76.5t-102.5 24.5h-70l-84 1l2 -68v-65l-2 -71l84 1h70z" />
    <glyph glyph-name="uni044B" unicode="&#x44b;" horiz-adv-x="637" 
d="M64 0v500h48v-123l-2 -88l84 1h71q81 0 126 -38t45 -107t-45 -107t-126 -38h-201zM525 0v500h48v-500h-48zM110 43l84 1h63q70 0 102.5 24.5t32.5 76.5t-32.5 76.5t-102.5 24.5h-63l-84 1l2 -68v-65z" />
    <glyph glyph-name="uni044C" unicode="&#x44c;" horiz-adv-x="477" 
d="M64 0v500h48v-123l-2 -88l84 1h78q81 0 126 -38t45 -107t-45 -107t-126 -38h-208zM110 43l84 1h70q70 0 102.5 24.5t32.5 76.5t-32.5 76.5t-102.5 24.5h-70l-84 1l2 -68v-65z" />
    <glyph glyph-name="uni044D" unicode="&#x44d;" horiz-adv-x="504" 
d="M248 510q98 0 158 -71t60 -190q0 -118 -61 -188.5t-159 -70.5q-80 0 -134.5 48t-68.5 131l47 4q30 -138 156 -138q74 0 120.5 52t51.5 143l-90 -2h-120v44h120l89 -2q-4 91 -49.5 143t-119.5 52q-121 0 -157 -138l-48 5q17 82 73 130t132 48z" />
    <glyph glyph-name="uni044E" unicode="&#x44e;" horiz-adv-x="679" 
d="M441 -10q-90 0 -143.5 63t-58.5 176l-46 -1h-36l-46 1l1 -76v-153h-48v500h48v-138l-1 -91l46 1h36l47 -1q5 112 58.5 175.5t142.5 63.5q93 0 146.5 -69t53.5 -192q0 -122 -53.5 -190.5t-146.5 -68.5zM441 34q71 0 111.5 57t40.5 158q0 102 -40.5 159.5t-111.5 57.5
t-112.5 -58t-41.5 -159t41.5 -158t112.5 -57z" />
    <glyph glyph-name="uni044F" unicode="&#x44f;" horiz-adv-x="480" 
d="M30 0l98 152l39 52v5q-132 23 -132 143q0 71 46.5 109.5t135.5 38.5h199v-500h-48v110l1 96l-66 -1h-38l-49 1l-129 -206h-57zM369 248l-1 65v90l1 54l-66 -1h-87q-70 0 -102.5 -25.5t-32.5 -78.5t32.5 -78t102.5 -25h87z" />
    <glyph glyph-name="uni0450" unicode="&#x450;" horiz-adv-x="518" 
d="M235 582l-102 151h59l92 -151h-49zM264 -10q-100 0 -163 68.5t-63 190.5q0 116 60.5 188.5t159.5 72.5q100 0 158 -71t58 -192v-9h-315l-73 1q2 -96 49 -150t129 -54q62 0 103.5 32t56.5 91l46 -5q-19 -78 -73 -120.5t-133 -42.5zM88 281l71 2h194l73 -2q-6 90 -51.5 137
t-116.5 47t-118 -47.5t-52 -136.5z" />
    <glyph glyph-name="uni0451" unicode="&#x451;" horiz-adv-x="518" 
d="M135 624v67h66v-67h-66zM318 624v67h66v-67h-66zM264 -10q-100 0 -163 68.5t-63 190.5q0 116 60.5 188.5t159.5 72.5q100 0 158 -71t58 -192v-9h-315l-73 1q2 -96 49 -150t129 -54q62 0 103.5 32t56.5 91l46 -5q-19 -78 -73 -120.5t-133 -42.5zM88 281l71 2h194l73 -2
q-6 90 -51.5 137t-116.5 47t-118 -47.5t-52 -136.5z" />
    <glyph glyph-name="uni0452" unicode="&#x452;" horiz-adv-x="545" 
d="M317 505q77 0 122.5 -50t45.5 -149v-313q0 -85 -31 -123.5t-100 -38.5q-31 0 -82 6v42q45 -5 75 -5q49 0 69.5 27t20.5 95v304q0 89 -35.5 124.5t-96.5 35.5q-73 0 -126.5 -55t-53.5 -155v-250h-48v601h-77v45h77v114h48v-114h191v-45h-191v-147l-4 -57h13
q62 108 183 108z" />
    <glyph glyph-name="uni0453" unicode="&#x453;" horiz-adv-x="425" 
d="M219 582l106 151h56l-110 -151h-52zM64 0v500h341v-45h-216l-78 1l1 -98v-358h-48z" />
    <glyph glyph-name="uni0454" unicode="&#x454;" horiz-adv-x="506" 
d="M259 35q127 0 157 138l47 -4q-14 -83 -69 -131t-135 -48q-98 0 -159.5 71t-61.5 188q0 118 60.5 189.5t158.5 71.5q77 0 133 -48t73 -130l-48 -5q-36 138 -158 138q-73 0 -119 -52t-51 -143l102 2h109v-44h-110l-101 2q4 -91 51 -143t121 -52z" />
    <glyph glyph-name="uni0455" unicode="&#x455;" horiz-adv-x="473" 
d="M246 -10q-85 0 -143 40t-73 108l49 5q12 -52 55.5 -80t111.5 -28q67 0 108 27t41 72q0 70 -108 85l-95 12q-147 18 -147 127q0 66 52.5 109t129.5 43q80 0 130 -41.5t59 -115.5l-45 -3q-8 56 -45.5 85.5t-98.5 29.5q-58 0 -95.5 -29.5t-37.5 -76.5q0 -69 102 -82l94 -12
q153 -21 153 -127q0 -66 -54.5 -107t-142.5 -41z" />
    <glyph glyph-name="uni0456" unicode="&#x456;" horiz-adv-x="186" 
d="M60 626v66h66v-66h-66zM69 0v500h48v-500h-48z" />
    <glyph glyph-name="uni0457" unicode="&#x457;" horiz-adv-x="202" 
d="M-24 624v67h66v-67h-66zM159 624v67h66v-67h-66zM77 0v500h48v-500h-48z" />
    <glyph glyph-name="uni0458" unicode="&#x458;" horiz-adv-x="231" 
d="M105 626v66h66v-66h-66zM25 -245q-24 0 -65 3v44q41 -3 61 -3q93 0 93 118v583h48v-583q0 -78 -35.5 -120t-101.5 -42z" />
    <glyph glyph-name="uni0459" unicode="&#x459;" horiz-adv-x="837" 
d="M632 290q81 0 126 -38t45 -107t-45 -107t-126 -38h-210v385l1 72l-76 -1h-73l-73 1l-2 -71l-6 -141q-10 -247 -173 -247v48q36 0 60.5 16t38 45.5t19 61.5t7.5 75l11 256h316v-123l-2 -88l84 1h78zM624 44q70 0 102.5 24.5t32.5 76.5t-32.5 76.5t-102.5 24.5h-70l-84 1
l2 -68v-65l-2 -71l84 1h70z" />
    <glyph glyph-name="uni045A" unicode="&#x45a;" horiz-adv-x="833" 
d="M628 286q81 0 126 -37.5t45 -105.5t-45 -105.5t-126 -37.5h-210v148l1 92l-94 -1h-132l-82 1l1 -92v-148h-48v500h48v-122l-1 -96l82 1h133l93 -1l-1 96v122h50v-129l-2 -86l84 1h78zM620 44q70 0 102.5 24t32.5 75q0 99 -135 99h-70l-84 1l2 -67v-64l-2 -69l84 1h70z
" />
    <glyph glyph-name="uni045B" unicode="&#x45b;" horiz-adv-x="556" 
d="M328 505q77 0 122.5 -50t45.5 -149v-306h-48v300q0 89 -35.5 124.5t-96.5 35.5q-73 0 -126.5 -55t-53.5 -155v-250h-48v601h-88v45h88v114h48v-114h180v-45h-180v-147l-4 -57h13q61 108 183 108z" />
    <glyph glyph-name="uni045C" unicode="&#x45c;" horiz-adv-x="482" 
d="M390 733l-110 -151h-52l106 151h56zM468 500v-4l-224 -204l224 -286v-6h-56l-202 261l-98 -89v-172h-48v500h48v-222l-6 -64h10l37 49l256 237h59z" />
    <glyph glyph-name="uni045D" unicode="&#x45d;" 
d="M240 582l-102 151h59l92 -151h-49zM64 0v500h48v-338l-9 -101h14l290 439h61v-500h-48v338l9 101h-14l-290 -439h-61z" />
    <glyph glyph-name="uni045E" unicode="&#x45e;" horiz-adv-x="495" 
d="M248 582q-60 0 -93 39.5t-35 108.5h39q8 -113 89 -113q82 0 88 113h39q-3 -70 -35 -109t-92 -39zM91 -241q-12 0 -44 2v42q16 -1 38 -1q38 0 61.5 24.5t48.5 91.5l32 83l-208 499h55l158 -391l13 -48h11l15 48l150 391h54l-241 -601q-33 -83 -63.5 -111.5t-79.5 -28.5z
" />
    <glyph glyph-name="uni045F" unicode="&#x45f;" horiz-adv-x="535" 
d="M245 -145v74l1 71h-182v500h48v-365l-1 -92l85 1h150l78 -1l-1 91v366h48v-500h-182l1 -70v-75h-45z" />
    <glyph glyph-name="uni0462" unicode="&#x462;" horiz-adv-x="688" 
d="M441 389q105 0 163 -51t58 -144t-58 -143.5t-163 -50.5h-263v525l-99 -2h-53v44h56l96 -2v130h50v-130l96 2h56v-44h-59l-93 2v-55l-1 -81h214zM441 45q88 0 131 36t43 113t-43 113.5t-131 36.5h-120l-94 1l1 -71v-159l-1 -71l95 1h119z" />
    <glyph glyph-name="uni0463" unicode="&#x463;" horiz-adv-x="564" 
d="M359 290q81 0 126 -38t45 -107t-45 -107t-126 -38h-208v457l-56 -1h-82v44h87l51 -1v261h48v-261l70 1h68v-44h-71l-67 1v-80l-2 -88l84 1h78zM351 44q70 0 102.5 24.5t32.5 76.5t-32.5 76.5t-102.5 24.5h-70l-84 1l2 -68v-65l-2 -71l84 1h70z" />
    <glyph glyph-name="uni0472" unicode="&#x472;" horiz-adv-x="691" 
d="M347 705q146 0 224 -99.5t78 -259.5q0 -162 -77.5 -259t-224.5 -97t-226 97t-79 259q0 159 79.5 259t225.5 100zM347 660q-114 0 -178.5 -75.5t-73.5 -197.5q33 25 91 25q52 0 161.5 -41.5t154.5 -41.5q54 0 73 20.5t19 62.5q-14 112 -76.5 180t-170.5 68zM347 35
q115 0 178 74t72 199q-33 -24 -91 -24q-47 0 -162 41.5t-158 41.5q-49 0 -69 -19t-20 -64q13 -114 77 -181.5t173 -67.5z" />
    <glyph glyph-name="uni0473" unicode="&#x473;" horiz-adv-x="508" 
d="M255 -10q-97 0 -157 68t-60 191q0 124 60 192.5t157 68.5t156 -68.5t59 -192.5q0 -123 -59 -191t-156 -68zM366 240q43 0 56 22q-3 98 -48.5 151t-118.5 53q-68 0 -113 -46t-54 -130q21 9 52 9q38 0 117.5 -29.5t108.5 -29.5zM255 34q67 0 111.5 45.5t53.5 129.5
q-21 -9 -51 -9q-35 0 -118 29.5t-111 29.5q-43 0 -54 -21q3 -97 49.5 -150.5t119.5 -53.5z" />
    <glyph glyph-name="uni0474" unicode="&#x474;" horiz-adv-x="725" 
d="M294 0l-285 695h56l244 -601l10 -38h12l10 38l195 485q28 71 68 98.5t112 27.5v-45q-48 0 -77 -19t-47 -63l-236 -578h-62z" />
    <glyph glyph-name="uni0475" unicode="&#x475;" horiz-adv-x="527" 
d="M205 0l-192 500h54l154 -418l6 -31h10l6 31l115 302q29 74 59.5 100t96.5 26v-43q-42 0 -64.5 -19t-40.5 -65l-150 -383h-54z" />
    <glyph glyph-name="uni0490" unicode="&#x490;" horiz-adv-x="506" 
d="M448 796h45v-146h-283l-97 1l1 -97v-554h-50v695h384v101z" />
    <glyph glyph-name="uni0491" unicode="&#x491;" horiz-adv-x="425" 
d="M360 601h45v-146h-216l-78 1l1 -98v-358h-48v500h296v101z" />
    <glyph glyph-name="uni0492" unicode="&#x492;" horiz-adv-x="560" 
d="M547 650h-283l-97 1l1 -97v-186h116v-45h-116v-323h-50v323h-118v45h118v327h429v-45z" />
    <glyph glyph-name="uni0493" unicode="&#x493;" horiz-adv-x="463" 
d="M443 455h-216l-78 1l1 -98v-93h103v-45h-103v-220h-48v220h-102v45h102v235h341v-45z" />
    <glyph glyph-name="uni0496" unicode="&#x496;" horiz-adv-x="916" 
d="M869 54h40v-199h-45v145h-21l-231 325l-130 1l1 -101v-225h-50v223l1 103l-130 -1l-231 -325h-64v2l213 291l45 48v14l-45 48l-213 290v2h63l232 -324l130 -1l-1 90v235h50v-233l-1 -92l130 1l232 324h63v-2l-213 -290l-45 -48v-14l45 -48z" />
    <glyph glyph-name="uni0497" unicode="&#x497;" horiz-adv-x="733" 
d="M675 54h41v-199h-45v145h-21l-158 230l-106 1l1 -75v-156h-50v155l1 76l-106 -1l-158 -230h-63l117 166l63 79v10l-63 81l-115 164h63l156 -230l106 -1l-1 86v145h50v-144l-1 -87l106 1l156 230h63l-115 -164l-63 -81v-10l63 -79z" />
    <glyph glyph-name="uni049A" unicode="&#x49a;" horiz-adv-x="617" 
d="M567 54h43v-199h-45v145h-22l-289 369l-140 -130v-239h-50v695h50v-329l-4 -73h12l41 53l376 349h69l-318 -293z" />
    <glyph glyph-name="uni049B" unicode="&#x49b;" horiz-adv-x="489" 
d="M420 54h45v-199h-45v145h-18l-202 261l-98 -89v-172h-48v500h48v-222l-6 -64h10l37 49l256 237h59v-4l-224 -204z" />
    <glyph glyph-name="uni04A2" unicode="&#x4a2;" horiz-adv-x="695" 
d="M587 54h44v-199h-45v145h-49v265l1 69l-90 -1h-245l-90 1l1 -69v-265h-50v695h50v-249l-1 -69l90 1h245l90 -1l-1 68v250h50v-641z" />
    <glyph glyph-name="uni04A3" unicode="&#x4a3;" horiz-adv-x="530" 
d="M466 54h37v-199h-45v145h-40v148l1 92l-94 -1h-132l-82 1l1 -92v-148h-48v500h48v-122l-1 -96l82 1h133l93 -1l-1 96v122h48v-446z" />
    <glyph glyph-name="uni04AE" unicode="&#x4ae;" horiz-adv-x="603" 
d="M277 0v280l-269 415h60l187 -291l41 -77h12l41 77l186 291h60l-268 -415v-280h-50z" />
    <glyph glyph-name="uni04AF" unicode="&#x4af;" horiz-adv-x="464" 
d="M451 500l-196 -510v-230h-45v227l-197 513h54l154 -418l5 -33h12l5 33l154 418h54z" />
    <glyph glyph-name="uni04B0" unicode="&#x4b0;" horiz-adv-x="603" 
d="M339 299l100 1h54v-46h-54l-112 2v-256h-50v256l-113 -2h-51v46h52l100 -1l-257 396h60l187 -291l41 -77h12l41 77l186 291h60z" />
    <glyph glyph-name="uni04B1" unicode="&#x4b1;" horiz-adv-x="463" 
d="M256 -2l105 2h61v-46h-60l-109 2v-196h-45v196l-101 -2h-65v46h65l97 -2l-193 502h54l154 -418l5 -33h12l5 33l154 418h54z" />
    <glyph glyph-name="uni04B2" unicode="&#x4b2;" horiz-adv-x="611" 
d="M561 54h41v-199h-45v145h-18l-181 242l-46 66h-12l-45 -66l-183 -242h-63l266 348l-263 347h64l179 -242l45 -66h12l47 66l180 242h60l-262 -347z" />
    <glyph glyph-name="uni04B3" unicode="&#x4b3;" horiz-adv-x="488" 
d="M418 54h40v-199h-45v145h-18l-116 160l-36 55h-11l-36 -55l-116 -160h-62v3l190 247l-190 247v3h62l116 -161l36 -54h11l36 54l116 161h62v-3l-190 -247z" />
    <glyph glyph-name="uni04B6" unicode="&#x4b6;" horiz-adv-x="664" 
d="M556 54h44v-199h-45v145h-49v225l10 85h-13q-28 -27 -93.5 -46.5t-131.5 -19.5q-218 0 -218 202v249h50v-249q0 -155 168 -155q140 0 228 59v345h50v-641z" />
    <glyph glyph-name="uni04B7" unicode="&#x4b7;" horiz-adv-x="497" 
d="M433 54h37v-199h-45v145h-40v159l6 64h-10q-61 -43 -144 -43q-176 0 -176 152v168h48v-174q0 -54 32.5 -78.5t99.5 -24.5q83 0 144 30v247h48v-446z" />
    <glyph glyph-name="uni04BA" unicode="&#x4ba;" horiz-adv-x="581" 
d="M64 0v695h50v-225l-10 -88h13q30 31 83.5 48t104.5 17q44 0 78 -7.5t67.5 -27.5t52 -61.5t18.5 -101.5v-249h-50v249q0 47 -14.5 79t-40.5 46.5t-52 20t-59 5.5q-120 0 -191 -55v-345h-50z" />
    <glyph glyph-name="uni04BB" unicode="&#x4bb;" 
d="M64 0v760h48v-306l-4 -57h13q61 108 183 108q77 0 122.5 -50t45.5 -149v-306h-48v300q0 89 -35.5 124.5t-96.5 35.5q-73 0 -126.5 -55t-53.5 -155v-250h-48z" />
    <glyph glyph-name="uni04C0" unicode="&#x4c0;" horiz-adv-x="178" 
d="M64 0v695h50v-695h-50z" />
    <glyph glyph-name="uni04C1" unicode="&#x4c1;" horiz-adv-x="916" 
d="M458 777q-60 0 -93 39.5t-35 108.5h39q8 -113 89 -113q82 0 88 113h39q-3 -70 -35 -109t-92 -39zM694 403l-45 -48v-14l45 -48l213 -291v-2h-64l-231 325l-130 1l1 -101v-225h-50v223l1 103l-130 -1l-231 -325h-64v2l213 291l45 48v14l-45 48l-213 290v2h63l232 -324
l130 -1l-1 90v235h50v-233l-1 -92l130 1l232 324h63v-2z" />
    <glyph glyph-name="uni04C2" unicode="&#x4c2;" horiz-adv-x="728" 
d="M365 582q-60 0 -93 39.5t-35 108.5h39q8 -113 89 -113q82 0 88 113h39q-3 -70 -35 -109t-92 -39zM652 0l-158 230l-106 1l1 -75v-156h-50v155l1 76l-106 -1l-158 -230h-63l117 166l63 79v10l-63 81l-115 164h63l156 -230l106 -1l-1 86v145h50v-144l-1 -87l106 1l156 230
h63l-115 -164l-63 -81v-10l63 -79l117 -166h-63z" />
    <glyph glyph-name="uni04CF" unicode="&#x4cf;" horiz-adv-x="176" 
d="M64 0v760h48v-760h-48z" />
    <glyph glyph-name="uni04D0" unicode="&#x4d0;" horiz-adv-x="681" 
d="M341 777q-60 0 -93 39.5t-35 108.5h39q8 -113 89 -113q82 0 88 113h39q-3 -70 -35 -109t-92 -39zM9 0l301 695h62l300 -695h-56l-83 193h-385l-83 -193h-56zM167 237l73 2h202l73 -2l-18 43l-140 325l-11 38h-10l-11 -38l-141 -326z" />
    <glyph glyph-name="uni04D1" unicode="&#x4d1;" horiz-adv-x="517" 
d="M277 582q-60 0 -93 39.5t-35 108.5h39q8 -113 89 -113q82 0 88 113h39q-3 -70 -35 -109t-92 -39zM213 -10q-78 0 -123 36.5t-45 95.5q0 38 14 66.5t38 44.5t56 26.5t68 13t74.5 4.5t74.5 0h38v56q0 62 -35.5 97.5t-99.5 35.5q-68 0 -111 -36.5t-50 -104.5l-45 3
q9 87 66.5 134.5t139.5 47.5q86 0 134.5 -48.5t48.5 -130.5l1 -331h-38l-3 101h-13q-20 -51 -70 -81t-120 -30zM222 33q86 0 136 53t50 131v21h-35q-28 0 -56.5 0.5t-55.5 -2t-52 -6t-45.5 -12t-36 -20t-24 -30t-8.5 -42.5q0 -42 32 -67.5t95 -25.5z" />
    <glyph glyph-name="uni04D2" unicode="&#x4d2;" horiz-adv-x="681" 
d="M216 819v67h66v-67h-66zM399 819v67h66v-67h-66zM9 0l301 695h62l300 -695h-56l-83 193h-385l-83 -193h-56zM167 237l73 2h202l73 -2l-18 43l-140 325l-11 38h-10l-11 -38l-141 -326z" />
    <glyph glyph-name="uni04D3" unicode="&#x4d3;" horiz-adv-x="517" 
d="M152 624v67h66v-67h-66zM335 624v67h66v-67h-66zM213 -10q-78 0 -123 36.5t-45 95.5q0 38 14 66.5t38 44.5t56 26.5t68 13t74.5 4.5t74.5 0h38v56q0 62 -35.5 97.5t-99.5 35.5q-68 0 -111 -36.5t-50 -104.5l-45 3q9 87 66.5 134.5t139.5 47.5q86 0 134.5 -48.5
t48.5 -130.5l1 -331h-38l-3 101h-13q-20 -51 -70 -81t-120 -30zM222 33q86 0 136 53t50 131v21h-35q-28 0 -56.5 0.5t-55.5 -2t-52 -6t-45.5 -12t-36 -20t-24 -30t-8.5 -42.5q0 -42 32 -67.5t95 -25.5z" />
    <glyph glyph-name="uni04D4" unicode="&#x4d4;" horiz-adv-x="993" 
d="M9 0l455 695h495v-46l-414 2l1 -109v-58l-1 -105l377 2v-45l-377 2l1 -105v-82l-1 -109l414 2v-44h-463v218h-281l-145 -218h-61zM245 263h251v387h-10z" />
    <glyph glyph-name="uni04D5" unicode="&#x4d5;" horiz-adv-x="876" 
d="M525 238l-70 1l1 -25q8 -80 54 -126.5t117 -46.5q63 0 102.5 34t52.5 92l46 -5q-18 -77 -70 -122t-131 -45q-64 0 -115 32.5t-79 92.5q-19 -52 -78 -88.5t-136 -36.5q-81 0 -127.5 35t-46.5 90q0 45 27 75t67 43t87 23t87 16t67 20.5t27 37.5v13q0 37 -38.5 74.5
t-101.5 37.5q-134 0 -160 -145l-48 3q14 90 70.5 138.5t137.5 48.5q63 0 108 -29t66 -74q55 103 180 103q102 0 156.5 -69t54.5 -189v-9h-307zM621 459q-72 0 -114 -46t-51 -130l69 1h186l69 -1q-8 85 -48 130.5t-111 45.5zM407 218v54q-28 -20 -85 -33.5t-104.5 -20.5
t-84.5 -31t-37 -66q0 -40 32.5 -61.5t90.5 -21.5q86 0 137 48.5t51 131.5z" />
    <glyph glyph-name="uni04D6" unicode="&#x4d6;" horiz-adv-x="571" 
d="M314 777q-60 0 -93 39.5t-35 108.5h39q8 -113 89 -113q82 0 88 113h39q-3 -70 -35 -109t-92 -39zM64 0v695h473v-46l-424 1l1 -108v-58l-1 -104l377 1v-45l-377 1l1 -104v-82l-1 -108l424 1v-44h-473z" />
    <glyph glyph-name="uni04D7" unicode="&#x4d7;" horiz-adv-x="518" 
d="M260 582q-60 0 -93 39.5t-35 108.5h39q8 -113 89 -113q82 0 88 113h39q-3 -70 -35 -109t-92 -39zM264 -10q-100 0 -163 68.5t-63 190.5q0 116 60.5 188.5t159.5 72.5q100 0 158 -71t58 -192v-9h-315l-73 1q2 -96 49 -150t129 -54q62 0 103.5 32t56.5 91l46 -5
q-19 -78 -73 -120.5t-133 -42.5zM88 281l71 2h194l73 -2q-6 90 -51.5 137t-116.5 47t-118 -47.5t-52 -136.5z" />
    <glyph glyph-name="uni04D8" unicode="&#x4d8;" horiz-adv-x="690" 
d="M343 705q147 0 226 -97t79 -259q0 -159 -79.5 -259t-225.5 -100q-142 0 -221.5 95.5t-79.5 260.5v22h454l101 -2q-4 133 -69 213.5t-185 80.5q-102 0 -163.5 -59t-79.5 -161l-51 5q21 121 96 190.5t198 69.5zM343 35q118 0 182.5 80.5t70.5 209.5l-102 -2h-296l-104 2
q11 -137 73 -213.5t176 -76.5z" />
    <glyph glyph-name="uni04D9" unicode="&#x4d9;" horiz-adv-x="518" 
d="M261 -5q-100 0 -158.5 69.5t-58.5 188.5v9h315l73 -1q-2 91 -47.5 145t-124.5 54q-66 0 -109.5 -34.5t-56.5 -92.5l-46 5q18 76 73.5 121.5t138.5 45.5q98 0 159 -69t61 -185q0 -115 -60 -185.5t-159 -70.5zM261 40q71 0 117.5 45t51.5 132l-71 -1h-194l-71 1
q4 -87 50 -132t117 -45z" />
    <glyph glyph-name="uni04DC" unicode="&#x4dc;" horiz-adv-x="916" 
d="M399 886v-67h-66v67h66zM582 886v-67h-66v67h66zM694 403l-45 -48v-14l45 -48l213 -291v-2h-64l-231 325l-130 1l1 -101v-225h-50v223l1 103l-130 -1l-231 -325h-64v2l213 291l45 48v14l-45 48l-213 290v2h63l232 -324l130 -1l-1 90v235h50v-233l-1 -92l130 1l232 324h63
v-2z" />
    <glyph glyph-name="uni04DD" unicode="&#x4dd;" horiz-adv-x="728" 
d="M306 691v-67h-66v67h66zM489 691v-67h-66v67h66zM652 0l-158 230l-106 1l1 -75v-156h-50v155l1 76l-106 -1l-158 -230h-63l117 166l63 79v10l-63 81l-115 164h63l156 -230l106 -1l-1 86v145h50v-144l-1 -87l106 1l156 230h63l-115 -164l-63 -81v-10l63 -79l117 -166h-63z
" />
    <glyph glyph-name="uni04DE" unicode="&#x4de;" horiz-adv-x="609" 
d="M193 819v67h66v-67h-66zM376 819v67h66v-67h-66zM314 -5q-106 0 -181.5 53.5t-90.5 149.5l49 5q10 -78 73.5 -121t149.5 -43q93 0 147.5 40t54.5 118q0 70 -50.5 107.5t-130.5 37.5h-26v44h26q67 0 112.5 33t45.5 93q0 69 -45.5 109t-129.5 40q-167 0 -198 -161l-48 4
q14 97 80 149t166 52t162 -53t62 -140q0 -58 -35 -94.5t-82 -45.5v-14q58 -8 99.5 -50t41.5 -111q0 -97 -70.5 -149.5t-181.5 -52.5z" />
    <glyph glyph-name="uni04DF" unicode="&#x4df;" horiz-adv-x="465" 
d="M117 624v67h66v-67h-66zM300 624v67h66v-67h-66zM236 -10q-91 0 -145.5 39t-63.5 113l50 5q14 -112 159 -112q69 0 108 28t39 77t-36 76t-102 27h-20v39h20q58 0 89 23t31 66q0 45 -32 69.5t-91 24.5q-124 0 -143 -109l-48 6q11 69 61.5 108.5t129.5 39.5q78 0 124 -38
t46 -101q0 -74 -76 -101v-12q43 -10 69 -40.5t26 -77.5q0 -68 -52.5 -109t-142.5 -41z" />
    <glyph glyph-name="uni04E2" unicode="&#x4e2;" horiz-adv-x="659" 
d="M199 832v43h272v-43h-272zM64 0v695h50v-538l-7 -102h14l46 85l363 555h65v-695h-50v538l7 102h-14l-31 -64l-377 -576h-66z" />
    <glyph glyph-name="uni04E3" unicode="&#x4e3;" 
d="M129 637v43h272v-43h-272zM64 0v500h48v-338l-9 -101h14l290 439h61v-500h-48v338l9 101h-14l-290 -439h-61z" />
    <glyph glyph-name="uni04E4" unicode="&#x4e4;" horiz-adv-x="659" 
d="M210 819v67h66v-67h-66zM393 819v67h66v-67h-66zM64 0v695h50v-538l-7 -102h14l46 85l363 555h65v-695h-50v538l7 102h-14l-31 -64l-377 -576h-66z" />
    <glyph glyph-name="uni04E5" unicode="&#x4e5;" 
d="M140 624v67h66v-67h-66zM323 624v67h66v-67h-66zM64 0v500h48v-338l-9 -101h14l290 439h61v-500h-48v338l9 101h-14l-290 -439h-61z" />
    <glyph glyph-name="uni04E6" unicode="&#x4e6;" horiz-adv-x="691" 
d="M221 819v67h66v-67h-66zM404 819v67h66v-67h-66zM347 -10q-147 0 -226 97t-79 259q0 159 79.5 259t225.5 100t224 -99.5t78 -259.5q0 -162 -77.5 -259t-224.5 -97zM347 35q124 0 187.5 85.5t63.5 225.5q0 138 -64 226t-187 88q-124 0 -189 -88t-65 -226q0 -140 65 -225.5
t189 -85.5z" />
    <glyph glyph-name="uni04E7" unicode="&#x4e7;" horiz-adv-x="508" 
d="M129 624v67h66v-67h-66zM312 624v67h66v-67h-66zM255 -10q-97 0 -157 68t-60 191q0 124 60 192.5t157 68.5t156 -68.5t59 -192.5q0 -123 -59 -191t-156 -68zM255 34q75 0 121 56t46 159q0 104 -45.5 160.5t-121.5 56.5t-122.5 -56.5t-46.5 -160.5q0 -102 46.5 -158.5
t122.5 -56.5z" />
    <glyph glyph-name="uni04E8" unicode="&#x4e8;" horiz-adv-x="691" 
d="M347 705q146 0 224 -99.5t78 -259.5q0 -162 -77.5 -259t-224.5 -97t-226 97t-79 259q0 159 79.5 259t225.5 100zM347 660q-119 0 -183.5 -81t-70.5 -210l405 1l100 -1q-6 129 -69.5 210t-181.5 81zM347 35q120 0 183 80t68 212l-100 -1l-405 1q5 -132 69.5 -212
t184.5 -80z" />
    <glyph glyph-name="uni04E9" unicode="&#x4e9;" horiz-adv-x="508" 
d="M255 510q97 0 156 -68.5t59 -192.5q0 -123 -59 -191t-156 -68t-157 68t-60 191q0 124 60 192.5t157 68.5zM255 466q-72 0 -118 -50.5t-50 -144.5l74 1h207l53 -1q-4 94 -49 144.5t-117 50.5zM255 34q71 0 116.5 51t50.5 144l-54 -1h-208l-74 1q5 -93 51 -144t118 -51z
" />
    <glyph glyph-name="uni04EA" unicode="&#x4ea;" horiz-adv-x="691" 
d="M287 886v-67h-66v67h66zM470 886v-67h-66v67h66zM347 705q146 0 224 -99.5t78 -259.5q0 -162 -77.5 -259t-224.5 -97t-226 97t-79 259q0 159 79.5 259t225.5 100zM347 660q-119 0 -183.5 -81t-70.5 -210l405 1l100 -1q-6 129 -69.5 210t-181.5 81zM347 35q120 0 183 80
t68 212l-100 -1l-405 1q5 -132 69.5 -212t184.5 -80z" />
    <glyph glyph-name="uni04EB" unicode="&#x4eb;" horiz-adv-x="508" 
d="M195 691v-67h-66v67h66zM378 691v-67h-66v67h66zM255 510q97 0 156 -68.5t59 -192.5q0 -123 -59 -191t-156 -68t-157 68t-60 191q0 124 60 192.5t157 68.5zM255 466q-72 0 -118 -50.5t-50 -144.5l74 1h207l53 -1q-4 94 -49 144.5t-117 50.5zM255 34q71 0 116.5 51
t50.5 144l-54 -1h-208l-74 1q5 -93 51 -144t118 -51z" />
    <glyph glyph-name="uni04EC" unicode="&#x4ec;" horiz-adv-x="680" 
d="M282 886v-67h-66v67h66zM465 886v-67h-66v67h66zM336 702q137 0 219.5 -98t82.5 -258t-81.5 -256t-220.5 -96q-107 0 -185 62.5t-101 167.5l48 4q23 -90 86 -139.5t152 -49.5q112 0 179 78t72 208l-259 -1v45l259 -1q-6 130 -73.5 209.5t-177.5 79.5q-89 0 -152 -50
t-86 -144l-48 5q23 110 100 172t186 62z" />
    <glyph glyph-name="uni04ED" unicode="&#x4ed;" horiz-adv-x="504" 
d="M192 691v-67h-66v67h66zM375 691v-67h-66v67h66zM248 510q98 0 158 -71t60 -190q0 -118 -61 -188.5t-159 -70.5q-80 0 -134.5 48t-68.5 131l47 4q30 -138 156 -138q74 0 120.5 52t51.5 143l-90 -2h-120v44h120l89 -2q-4 91 -49.5 143t-119.5 52q-121 0 -157 -138l-48 5
q17 82 73 130t132 48z" />
    <glyph glyph-name="uni04EE" unicode="&#x4ee;" horiz-adv-x="563" 
d="M149 832v43h272v-43h-272zM100 -10q-12 0 -44 2v43q16 -1 38 -1q52 0 81.5 23t58.5 84l26 54l-252 500h57l190 -384l24 -66h12l24 67l183 383h57l-275 -564q-38 -79 -78.5 -110t-101.5 -31z" />
    <glyph glyph-name="uni04EF" unicode="&#x4ef;" horiz-adv-x="495" 
d="M112 637v43h272v-43h-272zM91 -241q-12 0 -44 2v42q16 -1 38 -1q38 0 61.5 24.5t48.5 91.5l32 83l-208 499h55l158 -391l13 -48h11l15 48l150 391h54l-241 -601q-33 -83 -63.5 -111.5t-79.5 -28.5z" />
    <glyph glyph-name="uni04F0" unicode="&#x4f0;" horiz-adv-x="563" 
d="M160 819v67h66v-67h-66zM343 819v67h66v-67h-66zM100 -10q-12 0 -44 2v43q16 -1 38 -1q52 0 81.5 23t58.5 84l26 54l-252 500h57l190 -384l24 -66h12l24 67l183 383h57l-275 -564q-38 -79 -78.5 -110t-101.5 -31z" />
    <glyph glyph-name="uni04F1" unicode="&#x4f1;" horiz-adv-x="495" 
d="M123 624v67h66v-67h-66zM306 624v67h66v-67h-66zM91 -241q-12 0 -44 2v42q16 -1 38 -1q38 0 61.5 24.5t48.5 91.5l32 83l-208 499h55l158 -391l13 -48h11l15 48l150 391h54l-241 -601q-33 -83 -63.5 -111.5t-79.5 -28.5z" />
    <glyph glyph-name="uni04F2" unicode="&#x4f2;" horiz-adv-x="563" 
d="M210 777l103 151h53l-115 -151h-41zM311 777l103 151h53l-115 -151h-41zM100 -10q-12 0 -44 2v43q16 -1 38 -1q52 0 81.5 23t58.5 84l26 54l-252 500h57l190 -384l24 -66h12l24 67l183 383h57l-275 -564q-38 -79 -78.5 -110t-101.5 -31z" />
    <glyph glyph-name="uni04F3" unicode="&#x4f3;" horiz-adv-x="495" 
d="M173 582l103 151h53l-115 -151h-41zM274 582l103 151h53l-115 -151h-41zM91 -241q-12 0 -44 2v42q16 -1 38 -1q38 0 61.5 24.5t48.5 91.5l32 83l-208 499h55l158 -391l13 -48h11l15 48l150 391h54l-241 -601q-33 -83 -63.5 -111.5t-79.5 -28.5z" />
    <glyph glyph-name="uni1E36" unicode="&#x1e36;" horiz-adv-x="553" 
d="M64 0v695h50v-554l-1 -97l97 1h313v-45h-459zM263 -170v68h68v-68h-68z" />
    <glyph glyph-name="uni1E37" unicode="&#x1e37;" horiz-adv-x="274" 
d="M180 -5q-55 0 -85 31.5t-30 92.5v641h48v-641q0 -81 70 -81q22 0 54 5v-41q-38 -7 -57 -7zM132 -170v68h68v-68h-68z" />
    <glyph glyph-name="uni1E3E" unicode="&#x1e3e;" horiz-adv-x="846" 
d="M398 777l106 151h56l-110 -151h-52zM64 0v695h58l273 -577l24 -67h8l24 67l273 577h58v-695h-50v539l5 70h-9l-24 -69l-256 -540h-50l-256 540l-24 69h-9l5 -70v-539h-50z" />
    <glyph glyph-name="uni1E3F" unicode="&#x1e3f;" horiz-adv-x="820" 
d="M385 582l106 151h56l-110 -151h-52zM64 0v500h48v-49l-4 -54h14q15 51 56.5 79.5t88.5 28.5q62 0 100.5 -28.5t48.5 -79.5h15q17 54 58.5 81t96.5 27q79 0 126.5 -49t47.5 -148v-308h-48v291q0 90 -37 129.5t-96 39.5q-62 0 -102.5 -45t-40.5 -144v-271h-48v291
q0 169 -135 169q-58 0 -99.5 -55.5t-41.5 -154.5v-250h-48z" />
    <glyph glyph-name="uni1E46" unicode="&#x1e46;" horiz-adv-x="659" 
d="M64 0v695h65l363 -555l45 -85h14l-6 102v538h50v-695h-66l-377 576l-30 64h-14l6 -102v-538h-50zM296 -170v68h68v-68h-68z" />
    <glyph glyph-name="uni1E47" unicode="&#x1e47;" 
d="M64 0v500h48v-46l-4 -57h13q61 108 183 108q77 0 122.5 -50t45.5 -149v-306h-48v300q0 89 -35.5 124.5t-96.5 35.5q-73 0 -126.5 -55t-53.5 -155v-250h-48zM237 -170v68h68v-68h-68z" />
    <glyph glyph-name="uni1E62" unicode="&#x1e62;" horiz-adv-x="627" 
d="M335 -10q-118 0 -197.5 57.5t-99.5 158.5l53 6q16 -81 81.5 -128.5t161.5 -47.5q95 0 150 40.5t55 108.5q0 58 -33.5 89t-112.5 43l-134 20q-195 30 -195 173q0 85 68.5 140t172.5 55q102 0 168 -56.5t81 -167.5l-47 -4q-12 91 -65.5 136.5t-136.5 45.5
q-84 0 -137.5 -41.5t-53.5 -107.5q0 -104 149 -126l132 -20q194 -30 194 -179q0 -87 -69 -141t-185 -54zM280 -170v68h68v-68h-68z" />
    <glyph glyph-name="uni1E63" unicode="&#x1e63;" horiz-adv-x="473" 
d="M246 -10q-85 0 -143 40t-73 108l49 5q12 -52 55.5 -80t111.5 -28q67 0 108 27t41 72q0 70 -108 85l-95 12q-147 18 -147 127q0 66 52.5 109t129.5 43q80 0 130 -41.5t59 -115.5l-45 -3q-8 56 -45.5 85.5t-98.5 29.5q-58 0 -95.5 -29.5t-37.5 -76.5q0 -69 102 -82l94 -12
q153 -21 153 -127q0 -66 -54.5 -107t-142.5 -41zM208 -160v68h68v-68h-68z" />
    <glyph glyph-name="uni1E6C" unicode="&#x1e6c;" horiz-adv-x="616" 
d="M283 0v541l1 108l-86 -1h-185v47h590v-47h-185l-86 1l1 -108v-541h-50zM274 -170v68h68v-68h-68z" />
    <glyph glyph-name="uni1E6D" unicode="&#x1e6d;" horiz-adv-x="332" 
d="M233 -5q-55 0 -85 31.5t-30 92.5v338l-55 -2h-50v45h50l55 -2v144h48v-87l-2 -57l57 2h73v-45h-73l-55 2v-336q0 -81 70 -81q26 0 58 5v-43q-38 -7 -61 -7zM201 -170v68h68v-68h-68z" />
    <glyph glyph-name="Wgrave" unicode="&#x1e80;" horiz-adv-x="1037" 
d="M494 777l-102 151h59l92 -151h-49zM238 0l-225 695h55l188 -593l7 -49h12l9 49l201 593h67l201 -593l9 -49h12l7 49l188 593h55l-225 -695h-62l-204 583l-8 59h-12l-8 -59l-205 -583h-62z" />
    <glyph glyph-name="wgrave" unicode="&#x1e81;" horiz-adv-x="768" 
d="M359 582l-102 151h59l92 -151h-49zM177 0l-164 500h54l131 -414l6 -30h9l6 30l138 414h54l138 -414l6 -30h9l6 30l131 414h54l-164 -500h-59l-138 404l-5 37h-11l-5 -37l-137 -404h-59z" />
    <glyph glyph-name="Wacute" unicode="&#x1e82;" horiz-adv-x="1037" 
d="M494 777l106 151h56l-110 -151h-52zM238 0l-225 695h55l188 -593l7 -49h12l9 49l201 593h67l201 -593l9 -49h12l7 49l188 593h55l-225 -695h-62l-204 583l-8 59h-12l-8 -59l-205 -583h-62z" />
    <glyph glyph-name="wacute" unicode="&#x1e83;" horiz-adv-x="768" 
d="M359 582l106 151h56l-110 -151h-52zM177 0l-164 500h54l131 -414l6 -30h9l6 30l138 414h54l138 -414l6 -30h9l6 30l131 414h54l-164 -500h-59l-138 404l-5 37h-11l-5 -37l-137 -404h-59z" />
    <glyph glyph-name="Wdieresis" unicode="&#x1e84;" horiz-adv-x="1037" 
d="M394 819v67h66v-67h-66zM577 819v67h66v-67h-66zM238 0l-225 695h55l188 -593l7 -49h12l9 49l201 593h67l201 -593l9 -49h12l7 49l188 593h55l-225 -695h-62l-204 583l-8 59h-12l-8 -59l-205 -583h-62z" />
    <glyph glyph-name="wdieresis" unicode="&#x1e85;" horiz-adv-x="768" 
d="M259 624v67h66v-67h-66zM442 624v67h66v-67h-66zM177 0l-164 500h54l131 -414l6 -30h9l6 30l138 414h54l138 -414l6 -30h9l6 30l131 414h54l-164 -500h-59l-138 404l-5 37h-11l-5 -37l-137 -404h-59z" />
    <glyph glyph-name="uni1E92" unicode="&#x1e92;" horiz-adv-x="628" 
d="M30 0v37l468 578l30 24v11h-492v45h559v-35l-470 -580l-30 -24v-11h503v-45h-568zM280 -170v68h68v-68h-68z" />
    <glyph glyph-name="uni1E93" unicode="&#x1e93;" horiz-adv-x="438" 
d="M33 0v43l281 366l39 35v11h-314v45h369v-43l-280 -363l-40 -38v-11h324v-45h-379zM192 -170v68h68v-68h-68z" />
    <glyph glyph-name="uni1E9E" unicode="&#x1e9e;" horiz-adv-x="636" 
d="M356 -5q-70 0 -161 9v50q91 -11 161 -11q200 0 200 144q0 73 -58 108.5t-181 35.5v44l155 216v13q-41 26 -76 36t-85 10q-93 0 -147 -53t-54 -154v-443h-50v442q0 120 68.5 186.5t182.5 66.5q124 0 215 -80l-110 -172l-57 -68v-11q120 2 183.5 -43.5t63.5 -133.5
q0 -192 -250 -192z" />
    <glyph glyph-name="uni1EA0" unicode="&#x1ea0;" horiz-adv-x="681" 
d="M9 0l301 695h62l300 -695h-56l-83 193h-385l-83 -193h-56zM167 237l73 2h202l73 -2l-18 43l-140 325l-11 38h-10l-11 -38l-141 -326zM307 -170v68h68v-68h-68z" />
    <glyph glyph-name="uni1EA1" unicode="&#x1ea1;" horiz-adv-x="517" 
d="M213 -10q-78 0 -123 36.5t-45 95.5q0 25 6.5 46t16 36.5t28 27.5t33 19.5t42 13t44 8t49 3.5t48 1.5t50 0t46.5 -0.5v56q0 61 -35 96.5t-100 35.5q-68 0 -110.5 -36t-50.5 -104l-48 3q10 87 68.5 134.5t140.5 47.5q85 0 134 -49t49 -130l1 -331h-38l-5 101h-13
q-19 -51 -68.5 -81t-119.5 -30zM222 33q86 0 136 50t50 127v28h-35q-44 1 -67 0.5t-61.5 -3.5t-60 -10t-44.5 -19t-33.5 -32t-10.5 -48q0 -42 31.5 -67.5t94.5 -25.5zM235 -170v68h68v-68h-68z" />
    <glyph glyph-name="uni1EA2" unicode="&#x1ea2;" horiz-adv-x="681" 
d="M337 774q14 39 14 73q0 43 -41 43q-37 0 -82 -15v41q54 15 92 15q33 0 53 -20t20 -52q0 -40 -16 -85h-40zM9 0l301 695h62l300 -695h-56l-83 193h-385l-83 -193h-56zM167 237l73 2h202l73 -2l-18 43l-140 325l-11 38h-10l-11 -38l-141 -326z" />
    <glyph glyph-name="uni1EA3" unicode="&#x1ea3;" horiz-adv-x="517" 
d="M273 579q14 39 14 73q0 43 -41 43q-37 0 -82 -15v41q54 15 92 15q33 0 53 -20t20 -52q0 -40 -16 -85h-40zM213 -10q-78 0 -123 36.5t-45 95.5q0 25 6.5 46t16 36.5t28 27.5t33 19.5t42 13t44 8t49 3.5t48 1.5t50 0t46.5 -0.5v56q0 61 -35 96.5t-100 35.5
q-68 0 -110.5 -36t-50.5 -104l-48 3q10 87 68.5 134.5t140.5 47.5q85 0 134 -49t49 -130l1 -331h-38l-5 101h-13q-19 -51 -68.5 -81t-119.5 -30zM222 33q86 0 136 50t50 127v28h-35q-44 1 -67 0.5t-61.5 -3.5t-60 -10t-44.5 -19t-33.5 -32t-10.5 -48q0 -42 31.5 -67.5
t94.5 -25.5z" />
    <glyph glyph-name="uni1EA4" unicode="&#x1ea4;" horiz-adv-x="681" 
d="M419 894l85 136h45l-88 -136h-42zM197 777l121 151h45l120 -151h-53l-83 118h-12l-85 -118h-53zM9 0l301 695h62l300 -695h-56l-83 193h-385l-83 -193h-56zM167 237l73 2h202l73 -2l-18 43l-140 325l-11 38h-10l-11 -38l-141 -326z" />
    <glyph glyph-name="uni1EA5" unicode="&#x1ea5;" horiz-adv-x="517" 
d="M355 699l85 136h45l-88 -136h-42zM133 582l121 151h45l120 -151h-53l-83 118h-12l-85 -118h-53zM213 -10q-78 0 -123 36.5t-45 95.5q0 25 6.5 46t16 36.5t28 27.5t33 19.5t42 13t44 8t49 3.5t48 1.5t50 0t46.5 -0.5v56q0 61 -35 96.5t-100 35.5q-68 0 -110.5 -36
t-50.5 -104l-48 3q10 87 68.5 134.5t140.5 47.5q85 0 134 -49t49 -130l1 -331h-38l-5 101h-13q-19 -51 -68.5 -81t-119.5 -30zM222 33q86 0 136 50t50 127v28h-35q-44 1 -67 0.5t-61.5 -3.5t-60 -10t-44.5 -19t-33.5 -32t-10.5 -48q0 -42 31.5 -67.5t94.5 -25.5z" />
    <glyph glyph-name="uni1EA6" unicode="&#x1ea6;" horiz-adv-x="681" 
d="M214 894l-82 136h47l74 -136h-39zM197 777l121 151h45l120 -151h-53l-83 118h-12l-85 -118h-53zM9 0l301 695h62l300 -695h-56l-83 193h-385l-83 -193h-56zM167 237l73 2h202l73 -2l-18 43l-140 325l-11 38h-10l-11 -38l-141 -326z" />
    <glyph glyph-name="uni1EA7" unicode="&#x1ea7;" horiz-adv-x="517" 
d="M150 699l-82 136h47l74 -136h-39zM133 582l121 151h45l120 -151h-53l-83 118h-12l-85 -118h-53zM213 -10q-78 0 -123 36.5t-45 95.5q0 25 6.5 46t16 36.5t28 27.5t33 19.5t42 13t44 8t49 3.5t48 1.5t50 0t46.5 -0.5v56q0 61 -35 96.5t-100 35.5q-68 0 -110.5 -36
t-50.5 -104l-48 3q10 87 68.5 134.5t140.5 47.5q85 0 134 -49t49 -130l1 -331h-38l-5 101h-13q-19 -51 -68.5 -81t-119.5 -30zM222 33q86 0 136 50t50 127v28h-35q-44 1 -67 0.5t-61.5 -3.5t-60 -10t-44.5 -19t-33.5 -32t-10.5 -48q0 -42 31.5 -67.5t94.5 -25.5z" />
    <glyph glyph-name="uni1EA8" unicode="&#x1ea8;" horiz-adv-x="681" 
d="M447 907q14 39 14 73q0 43 -41 43q-37 0 -82 -15v41q54 15 92 15q33 0 53 -20t20 -52q0 -40 -16 -85h-40zM197 777l121 151h45l120 -151h-53l-83 118h-12l-85 -118h-53zM9 0l301 695h62l300 -695h-56l-83 193h-385l-83 -193h-56zM167 237l73 2h202l73 -2l-18 43l-140 325
l-11 38h-10l-11 -38l-141 -326z" />
    <glyph glyph-name="uni1EA9" unicode="&#x1ea9;" horiz-adv-x="517" 
d="M383 712q14 39 14 73q0 43 -41 43q-37 0 -82 -15v41q54 15 92 15q33 0 53 -20t20 -52q0 -40 -16 -85h-40zM133 582l121 151h45l120 -151h-53l-83 118h-12l-85 -118h-53zM213 -10q-78 0 -123 36.5t-45 95.5q0 25 6.5 46t16 36.5t28 27.5t33 19.5t42 13t44 8t49 3.5t48 1.5
t50 0t46.5 -0.5v56q0 61 -35 96.5t-100 35.5q-68 0 -110.5 -36t-50.5 -104l-48 3q10 87 68.5 134.5t140.5 47.5q85 0 134 -49t49 -130l1 -331h-38l-5 101h-13q-19 -51 -68.5 -81t-119.5 -30zM222 33q86 0 136 50t50 127v28h-35q-44 1 -67 0.5t-61.5 -3.5t-60 -10t-44.5 -19
t-33.5 -32t-10.5 -48q0 -42 31.5 -67.5t94.5 -25.5z" />
    <glyph glyph-name="uni1EAA" unicode="&#x1eaa;" horiz-adv-x="681" 
d="M216 971q0 115 67 115q26 0 45.5 -19t35 -37.5t29.5 -18.5q38 0 38 75h34q0 -115 -70 -115q-24 0 -45 18.5t-37.5 37t-29.5 18.5q-35 0 -35 -74h-32zM197 777l121 151h45l120 -151h-53l-83 118h-12l-85 -118h-53zM9 0l301 695h62l300 -695h-56l-83 193h-385l-83 -193h-56
zM167 237l73 2h202l73 -2l-18 43l-140 325l-11 38h-10l-11 -38l-141 -326z" />
    <glyph glyph-name="uni1EAB" unicode="&#x1eab;" horiz-adv-x="517" 
d="M152 776q0 115 67 115q20 0 37 -11.5t27 -26t22 -26t24 -11.5q38 0 38 75h34q0 -115 -70 -115q-24 0 -45 18.5t-37.5 37t-29.5 18.5q-35 0 -35 -74h-32zM133 582l121 151h45l120 -151h-53l-83 118h-12l-85 -118h-53zM213 -10q-78 0 -123 36.5t-45 95.5q0 25 6.5 46
t16 36.5t28 27.5t33 19.5t42 13t44 8t49 3.5t48 1.5t50 0t46.5 -0.5v56q0 61 -35 96.5t-100 35.5q-68 0 -110.5 -36t-50.5 -104l-48 3q10 87 68.5 134.5t140.5 47.5q85 0 134 -49t49 -130l1 -331h-38l-5 101h-13q-19 -51 -68.5 -81t-119.5 -30zM222 33q86 0 136 50t50 127
v28h-35q-44 1 -67 0.5t-61.5 -3.5t-60 -10t-44.5 -19t-33.5 -32t-10.5 -48q0 -42 31.5 -67.5t94.5 -25.5z" />
    <glyph glyph-name="uni1EAC" unicode="&#x1eac;" horiz-adv-x="681" 
d="M197 777l121 151h45l120 -151h-53l-83 118h-12l-85 -118h-53zM9 0l301 695h62l300 -695h-56l-83 193h-385l-83 -193h-56zM167 237l73 2h202l73 -2l-18 43l-140 325l-11 38h-10l-11 -38l-141 -326zM307 -170v68h68v-68h-68z" />
    <glyph glyph-name="uni1EAD" unicode="&#x1ead;" horiz-adv-x="517" 
d="M133 582l121 151h45l120 -151h-53l-83 118h-12l-85 -118h-53zM213 -10q-78 0 -123 36.5t-45 95.5q0 25 6.5 46t16 36.5t28 27.5t33 19.5t42 13t44 8t49 3.5t48 1.5t50 0t46.5 -0.5v56q0 61 -35 96.5t-100 35.5q-68 0 -110.5 -36t-50.5 -104l-48 3q10 87 68.5 134.5
t140.5 47.5q85 0 134 -49t49 -130l1 -331h-38l-5 101h-13q-19 -51 -68.5 -81t-119.5 -30zM222 33q86 0 136 50t50 127v28h-35q-44 1 -67 0.5t-61.5 -3.5t-60 -10t-44.5 -19t-33.5 -32t-10.5 -48q0 -42 31.5 -67.5t94.5 -25.5zM235 -170v68h68v-68h-68z" />
    <glyph glyph-name="uni1EAE" unicode="&#x1eae;" horiz-adv-x="681" 
d="M318 937l106 151h56l-110 -151h-52zM341 777q-60 0 -93 39.5t-35 108.5h39q8 -113 89 -113q82 0 88 113h39q-3 -70 -35 -109t-92 -39zM9 0l301 695h62l300 -695h-56l-83 193h-385l-83 -193h-56zM167 237l73 2h202l73 -2l-18 43l-140 325l-11 38h-10l-11 -38l-141 -326z
" />
    <glyph glyph-name="uni1EAF" unicode="&#x1eaf;" horiz-adv-x="517" 
d="M254 742l106 151h56l-110 -151h-52zM277 582q-60 0 -93 39.5t-35 108.5h39q8 -113 89 -113q82 0 88 113h39q-3 -70 -35 -109t-92 -39zM213 -10q-78 0 -123 36.5t-45 95.5q0 25 6.5 46t16 36.5t28 27.5t33 19.5t42 13t44 8t49 3.5t48 1.5t50 0t46.5 -0.5v56q0 61 -35 96.5
t-100 35.5q-68 0 -110.5 -36t-50.5 -104l-48 3q10 87 68.5 134.5t140.5 47.5q85 0 134 -49t49 -130l1 -331h-38l-5 101h-13q-19 -51 -68.5 -81t-119.5 -30zM222 33q86 0 136 50t50 127v28h-35q-44 1 -67 0.5t-61.5 -3.5t-60 -10t-44.5 -19t-33.5 -32t-10.5 -48
q0 -42 31.5 -67.5t94.5 -25.5z" />
    <glyph glyph-name="uni1EB0" unicode="&#x1eb0;" horiz-adv-x="681" 
d="M316 937l-102 151h59l92 -151h-49zM341 777q-60 0 -93 39.5t-35 108.5h39q8 -113 89 -113q82 0 88 113h39q-3 -70 -35 -109t-92 -39zM9 0l301 695h62l300 -695h-56l-83 193h-385l-83 -193h-56zM167 237l73 2h202l73 -2l-18 43l-140 325l-11 38h-10l-11 -38l-141 -326z
" />
    <glyph glyph-name="uni1EB1" unicode="&#x1eb1;" horiz-adv-x="517" 
d="M252 742l-102 151h59l92 -151h-49zM277 582q-60 0 -93 39.5t-35 108.5h39q8 -113 89 -113q82 0 88 113h39q-3 -70 -35 -109t-92 -39zM213 -10q-78 0 -123 36.5t-45 95.5q0 25 6.5 46t16 36.5t28 27.5t33 19.5t42 13t44 8t49 3.5t48 1.5t50 0t46.5 -0.5v56q0 61 -35 96.5
t-100 35.5q-68 0 -110.5 -36t-50.5 -104l-48 3q10 87 68.5 134.5t140.5 47.5q85 0 134 -49t49 -130l1 -331h-38l-5 101h-13q-19 -51 -68.5 -81t-119.5 -30zM222 33q86 0 136 50t50 127v28h-35q-44 1 -67 0.5t-61.5 -3.5t-60 -10t-44.5 -19t-33.5 -32t-10.5 -48
q0 -42 31.5 -67.5t94.5 -25.5z" />
    <glyph glyph-name="uni1EB2" unicode="&#x1eb2;" horiz-adv-x="681" 
d="M332 934q14 39 14 73q0 43 -41 43q-37 0 -82 -15v41q54 15 92 15q33 0 53 -20t20 -52q0 -40 -16 -85h-40zM341 777q-60 0 -93 39.5t-35 108.5h39q8 -113 89 -113q82 0 88 113h39q-3 -70 -35 -109t-92 -39zM9 0l301 695h62l300 -695h-56l-83 193h-385l-83 -193h-56z
M167 237l73 2h202l73 -2l-18 43l-140 325l-11 38h-10l-11 -38l-141 -326z" />
    <glyph glyph-name="uni1EB3" unicode="&#x1eb3;" horiz-adv-x="517" 
d="M268 739q14 39 14 73q0 43 -41 43q-37 0 -82 -15v41q54 15 92 15q33 0 53 -20t20 -52q0 -40 -16 -85h-40zM277 582q-60 0 -93 39.5t-35 108.5h39q8 -113 89 -113q82 0 88 113h39q-3 -70 -35 -109t-92 -39zM213 -10q-78 0 -123 36.5t-45 95.5q0 25 6.5 46t16 36.5t28 27.5
t33 19.5t42 13t44 8t49 3.5t48 1.5t50 0t46.5 -0.5v56q0 61 -35 96.5t-100 35.5q-68 0 -110.5 -36t-50.5 -104l-48 3q10 87 68.5 134.5t140.5 47.5q85 0 134 -49t49 -130l1 -331h-38l-5 101h-13q-19 -51 -68.5 -81t-119.5 -30zM222 33q86 0 136 50t50 127v28h-35
q-44 1 -67 0.5t-61.5 -3.5t-60 -10t-44.5 -19t-33.5 -32t-10.5 -48q0 -42 31.5 -67.5t94.5 -25.5z" />
    <glyph glyph-name="uni1EB4" unicode="&#x1eb4;" horiz-adv-x="681" 
d="M216 966q0 115 67 115q20 0 37 -11.5t27 -26t22 -26t24 -11.5q38 0 38 75h34q0 -115 -70 -115q-24 0 -45 18.5t-37.5 37t-29.5 18.5q-35 0 -35 -74h-32zM341 777q-60 0 -93 39.5t-35 108.5h39q8 -113 89 -113q82 0 88 113h39q-3 -70 -35 -109t-92 -39zM9 0l301 695h62
l300 -695h-56l-83 193h-385l-83 -193h-56zM167 237l73 2h202l73 -2l-18 43l-140 325l-11 38h-10l-11 -38l-141 -326z" />
    <glyph glyph-name="uni1EB5" unicode="&#x1eb5;" horiz-adv-x="517" 
d="M152 771q0 115 67 115q26 0 45.5 -19t35 -37.5t29.5 -18.5q38 0 38 75h34q0 -115 -70 -115q-24 0 -45 18.5t-37.5 37t-29.5 18.5q-35 0 -35 -74h-32zM277 582q-60 0 -93 39.5t-35 108.5h39q8 -113 89 -113q82 0 88 113h39q-3 -70 -35 -109t-92 -39zM213 -10
q-78 0 -123 36.5t-45 95.5q0 25 6.5 46t16 36.5t28 27.5t33 19.5t42 13t44 8t49 3.5t48 1.5t50 0t46.5 -0.5v56q0 61 -35 96.5t-100 35.5q-68 0 -110.5 -36t-50.5 -104l-48 3q10 87 68.5 134.5t140.5 47.5q85 0 134 -49t49 -130l1 -331h-38l-5 101h-13q-19 -51 -68.5 -81
t-119.5 -30zM222 33q86 0 136 50t50 127v28h-35q-44 1 -67 0.5t-61.5 -3.5t-60 -10t-44.5 -19t-33.5 -32t-10.5 -48q0 -42 31.5 -67.5t94.5 -25.5z" />
    <glyph glyph-name="uni1EB6" unicode="&#x1eb6;" horiz-adv-x="681" 
d="M341 777q-60 0 -93 39.5t-35 108.5h39q8 -113 89 -113q82 0 88 113h39q-3 -70 -35 -109t-92 -39zM9 0l301 695h62l300 -695h-56l-83 193h-385l-83 -193h-56zM167 237l73 2h202l73 -2l-18 43l-140 325l-11 38h-10l-11 -38l-141 -326zM307 -170v68h68v-68h-68z" />
    <glyph glyph-name="uni1EB7" unicode="&#x1eb7;" horiz-adv-x="517" 
d="M277 582q-60 0 -93 39.5t-35 108.5h39q8 -113 89 -113q82 0 88 113h39q-3 -70 -35 -109t-92 -39zM213 -10q-78 0 -123 36.5t-45 95.5q0 25 6.5 46t16 36.5t28 27.5t33 19.5t42 13t44 8t49 3.5t48 1.5t50 0t46.5 -0.5v56q0 61 -35 96.5t-100 35.5q-68 0 -110.5 -36
t-50.5 -104l-48 3q10 87 68.5 134.5t140.5 47.5q85 0 134 -49t49 -130l1 -331h-38l-5 101h-13q-19 -51 -68.5 -81t-119.5 -30zM222 33q86 0 136 50t50 127v28h-35q-44 1 -67 0.5t-61.5 -3.5t-60 -10t-44.5 -19t-33.5 -32t-10.5 -48q0 -42 31.5 -67.5t94.5 -25.5zM235 -170
v68h68v-68h-68z" />
    <glyph glyph-name="uni1EB8" unicode="&#x1eb8;" horiz-adv-x="571" 
d="M64 0v695h473v-46l-424 1l1 -108v-58l-1 -104l377 1v-45l-377 1l1 -104v-82l-1 -108l424 1v-44h-473zM278 -170v68h68v-68h-68z" />
    <glyph glyph-name="uni1EB9" unicode="&#x1eb9;" horiz-adv-x="518" 
d="M264 -10q-100 0 -163 68.5t-63 190.5q0 116 60.5 188.5t159.5 72.5q100 0 158 -71t58 -192v-9h-315l-73 1q2 -96 49 -150t129 -54q62 0 103.5 32t56.5 91l46 -5q-19 -78 -73 -120.5t-133 -42.5zM88 281l71 2h194l73 -2q-6 90 -51.5 137t-116.5 47t-118 -47.5t-52 -136.5z
M226 -170v68h68v-68h-68z" />
    <glyph glyph-name="uni1EBA" unicode="&#x1eba;" horiz-adv-x="571" 
d="M310 774q14 39 14 73q0 43 -41 43q-37 0 -82 -15v41q54 15 92 15q33 0 53 -20t20 -52q0 -40 -16 -85h-40zM64 0v695h473v-46l-424 1l1 -108v-58l-1 -104l377 1v-45l-377 1l1 -104v-82l-1 -108l424 1v-44h-473z" />
    <glyph glyph-name="uni1EBB" unicode="&#x1ebb;" horiz-adv-x="518" 
d="M256 579q14 39 14 73q0 43 -41 43q-37 0 -82 -15v41q54 15 92 15q33 0 53 -20t20 -52q0 -40 -16 -85h-40zM264 -10q-100 0 -163 68.5t-63 190.5q0 116 60.5 188.5t159.5 72.5q100 0 158 -71t58 -192v-9h-315l-73 1q2 -96 49 -150t129 -54q62 0 103.5 32t56.5 91l46 -5
q-19 -78 -73 -120.5t-133 -42.5zM88 281l71 2h194l73 -2q-6 90 -51.5 137t-116.5 47t-118 -47.5t-52 -136.5z" />
    <glyph glyph-name="uni1EBC" unicode="&#x1ebc;" horiz-adv-x="571" 
d="M175 788q0 128 74 128q29 0 51 -21t39 -41.5t33 -20.5q42 0 42 83h38q0 -128 -78 -128q-27 0 -50 21t-41.5 41.5t-33.5 20.5q-38 0 -38 -83h-36zM64 0v695h473v-46l-424 1l1 -108v-58l-1 -104l377 1v-45l-377 1l1 -104v-82l-1 -108l424 1v-44h-473z" />
    <glyph glyph-name="uni1EBD" unicode="&#x1ebd;" horiz-adv-x="518" 
d="M121 593q0 128 74 128q23 0 42 -13t30 -28.5t24.5 -28.5t26.5 -13q42 0 42 83h38q0 -128 -78 -128q-27 0 -50 20.5t-41.5 41.5t-33.5 21q-38 0 -38 -83h-36zM264 -10q-100 0 -163 68.5t-63 190.5q0 116 60.5 188.5t159.5 72.5q100 0 158 -71t58 -192v-9h-315l-73 1
q2 -96 49 -150t129 -54q62 0 103.5 32t56.5 91l46 -5q-19 -78 -73 -120.5t-133 -42.5zM88 281l71 2h194l73 -2q-6 90 -51.5 137t-116.5 47t-118 -47.5t-52 -136.5z" />
    <glyph glyph-name="uni1EBE" unicode="&#x1ebe;" horiz-adv-x="571" 
d="M392 894l85 136h45l-88 -136h-42zM170 777l121 151h45l120 -151h-53l-83 118h-12l-85 -118h-53zM64 0v695h473v-46l-424 1l1 -108v-58l-1 -104l377 1v-45l-377 1l1 -104v-82l-1 -108l424 1v-44h-473z" />
    <glyph glyph-name="uni1EBF" unicode="&#x1ebf;" horiz-adv-x="518" 
d="M338 699l85 136h45l-88 -136h-42zM116 582l121 151h45l120 -151h-53l-83 118h-12l-85 -118h-53zM264 -10q-100 0 -163 68.5t-63 190.5q0 116 60.5 188.5t159.5 72.5q100 0 158 -71t58 -192v-9h-315l-73 1q2 -96 49 -150t129 -54q62 0 103.5 32t56.5 91l46 -5
q-19 -78 -73 -120.5t-133 -42.5zM88 281l71 2h194l73 -2q-6 90 -51.5 137t-116.5 47t-118 -47.5t-52 -136.5z" />
    <glyph glyph-name="uni1EC0" unicode="&#x1ec0;" horiz-adv-x="571" 
d="M187 894l-82 136h47l74 -136h-39zM170 777l121 151h45l120 -151h-53l-83 118h-12l-85 -118h-53zM64 0v695h473v-46l-424 1l1 -108v-58l-1 -104l377 1v-45l-377 1l1 -104v-82l-1 -108l424 1v-44h-473z" />
    <glyph glyph-name="uni1EC1" unicode="&#x1ec1;" horiz-adv-x="518" 
d="M133 699l-82 136h47l74 -136h-39zM116 582l121 151h45l120 -151h-53l-83 118h-12l-85 -118h-53zM264 -10q-100 0 -163 68.5t-63 190.5q0 116 60.5 188.5t159.5 72.5q100 0 158 -71t58 -192v-9h-315l-73 1q2 -96 49 -150t129 -54q62 0 103.5 32t56.5 91l46 -5
q-19 -78 -73 -120.5t-133 -42.5zM88 281l71 2h194l73 -2q-6 90 -51.5 137t-116.5 47t-118 -47.5t-52 -136.5z" />
    <glyph glyph-name="uni1EC2" unicode="&#x1ec2;" horiz-adv-x="571" 
d="M420 907q14 39 14 73q0 43 -41 43q-37 0 -82 -15v41q54 15 92 15q33 0 53 -20t20 -52q0 -40 -16 -85h-40zM170 777l121 151h45l120 -151h-53l-83 118h-12l-85 -118h-53zM64 0v695h473v-46l-424 1l1 -108v-58l-1 -104l377 1v-45l-377 1l1 -104v-82l-1 -108l424 1v-44h-473
z" />
    <glyph glyph-name="uni1EC3" unicode="&#x1ec3;" horiz-adv-x="518" 
d="M366 712q14 39 14 73q0 43 -41 43q-37 0 -82 -15v41q54 15 92 15q33 0 53 -20t20 -52q0 -40 -16 -85h-40zM116 582l121 151h45l120 -151h-53l-83 118h-12l-85 -118h-53zM264 -10q-100 0 -163 68.5t-63 190.5q0 116 60.5 188.5t159.5 72.5q100 0 158 -71t58 -192v-9h-315
l-73 1q2 -96 49 -150t129 -54q62 0 103.5 32t56.5 91l46 -5q-19 -78 -73 -120.5t-133 -42.5zM88 281l71 2h194l73 -2q-6 90 -51.5 137t-116.5 47t-118 -47.5t-52 -136.5z" />
    <glyph glyph-name="uni1EC4" unicode="&#x1ec4;" horiz-adv-x="571" 
d="M189 971q0 115 67 115q26 0 45.5 -19t35 -37.5t29.5 -18.5q38 0 38 75h34q0 -115 -70 -115q-24 0 -45 18.5t-37.5 37t-29.5 18.5q-35 0 -35 -74h-32zM170 777l121 151h45l120 -151h-53l-83 118h-12l-85 -118h-53zM64 0v695h473v-46l-424 1l1 -108v-58l-1 -104l377 1v-45
l-377 1l1 -104v-82l-1 -108l424 1v-44h-473z" />
    <glyph glyph-name="uni1EC5" unicode="&#x1ec5;" horiz-adv-x="518" 
d="M135 776q0 115 67 115q20 0 37 -11.5t27 -26t22 -26t24 -11.5q38 0 38 75h34q0 -115 -70 -115q-24 0 -45 18.5t-37.5 37t-29.5 18.5q-35 0 -35 -74h-32zM116 582l121 151h45l120 -151h-53l-83 118h-12l-85 -118h-53zM264 -10q-100 0 -163 68.5t-63 190.5
q0 116 60.5 188.5t159.5 72.5q100 0 158 -71t58 -192v-9h-315l-73 1q2 -96 49 -150t129 -54q62 0 103.5 32t56.5 91l46 -5q-19 -78 -73 -120.5t-133 -42.5zM88 281l71 2h194l73 -2q-6 90 -51.5 137t-116.5 47t-118 -47.5t-52 -136.5z" />
    <glyph glyph-name="uni1EC6" unicode="&#x1ec6;" horiz-adv-x="571" 
d="M170 777l121 151h45l120 -151h-53l-83 118h-12l-85 -118h-53zM64 0v695h473v-46l-424 1l1 -108v-58l-1 -104l377 1v-45l-377 1l1 -104v-82l-1 -108l424 1v-44h-473zM278 -170v68h68v-68h-68z" />
    <glyph glyph-name="uni1EC7" unicode="&#x1ec7;" horiz-adv-x="518" 
d="M116 582l121 151h45l120 -151h-53l-83 118h-12l-85 -118h-53zM264 -10q-100 0 -163 68.5t-63 190.5q0 116 60.5 188.5t159.5 72.5q100 0 158 -71t58 -192v-9h-315l-73 1q2 -96 49 -150t129 -54q62 0 103.5 32t56.5 91l46 -5q-19 -78 -73 -120.5t-133 -42.5zM88 281l71 2
h194l73 -2q-6 90 -51.5 137t-116.5 47t-118 -47.5t-52 -136.5zM226 -170v68h68v-68h-68z" />
    <glyph glyph-name="uni1EC8" unicode="&#x1ec8;" horiz-adv-x="178" 
d="M85 774q14 39 14 73q0 43 -41 43q-37 0 -82 -15v41q54 15 92 15q33 0 53 -20t20 -52q0 -40 -16 -85h-40zM64 0v695h50v-695h-50z" />
    <glyph glyph-name="uni1EC9" unicode="&#x1ec9;" horiz-adv-x="202" 
d="M97 579q14 39 14 73q0 43 -41 43q-37 0 -82 -15v41q54 15 92 15q33 0 53 -20t20 -52q0 -40 -16 -85h-40zM77 0v500h48v-500h-48z" />
    <glyph glyph-name="uni1ECA" unicode="&#x1eca;" horiz-adv-x="178" 
d="M64 0v695h50v-695h-50zM55 -170v68h68v-68h-68z" />
    <glyph glyph-name="uni1ECB" unicode="&#x1ecb;" horiz-adv-x="186" 
d="M60 626v66h66v-66h-66zM69 0v500h48v-500h-48zM69 -170v68h68v-68h-68z" />
    <glyph glyph-name="uni1ECC" unicode="&#x1ecc;" horiz-adv-x="691" 
d="M347 -10q-147 0 -226 97t-79 259q0 159 79.5 259t225.5 100t224 -99.5t78 -259.5q0 -162 -77.5 -259t-224.5 -97zM347 35q124 0 187.5 85.5t63.5 225.5q0 138 -64 226t-187 88q-124 0 -189 -88t-65 -226q0 -140 65 -225.5t189 -85.5zM312 -170v68h68v-68h-68z" />
    <glyph glyph-name="uni1ECD" unicode="&#x1ecd;" horiz-adv-x="508" 
d="M255 -10q-97 0 -157 68t-60 191q0 124 60 192.5t157 68.5t156 -68.5t59 -192.5q0 -123 -59 -191t-156 -68zM255 34q75 0 121 56t46 159q0 104 -45.5 160.5t-121.5 56.5t-122.5 -56.5t-46.5 -160.5q0 -102 46.5 -158.5t122.5 -56.5zM220 -170v68h68v-68h-68z" />
    <glyph glyph-name="uni1ECE" unicode="&#x1ece;" horiz-adv-x="691" 
d="M342 774q14 39 14 73q0 43 -41 43q-37 0 -82 -15v41q54 15 92 15q33 0 53 -20t20 -52q0 -40 -16 -85h-40zM347 -10q-147 0 -226 97t-79 259q0 159 79.5 259t225.5 100t224 -99.5t78 -259.5q0 -162 -77.5 -259t-224.5 -97zM347 35q124 0 187.5 85.5t63.5 225.5
q0 138 -64 226t-187 88q-124 0 -189 -88t-65 -226q0 -140 65 -225.5t189 -85.5z" />
    <glyph glyph-name="uni1ECF" unicode="&#x1ecf;" horiz-adv-x="508" 
d="M250 579q14 39 14 73q0 43 -41 43q-37 0 -82 -15v41q54 15 92 15q33 0 53 -20t20 -52q0 -40 -16 -85h-40zM255 -10q-97 0 -157 68t-60 191q0 124 60 192.5t157 68.5t156 -68.5t59 -192.5q0 -123 -59 -191t-156 -68zM255 34q75 0 121 56t46 159q0 104 -45.5 160.5
t-121.5 56.5t-122.5 -56.5t-46.5 -160.5q0 -102 46.5 -158.5t122.5 -56.5z" />
    <glyph glyph-name="uni1ED0" unicode="&#x1ed0;" horiz-adv-x="691" 
d="M424 894l85 136h45l-88 -136h-42zM202 777l121 151h45l120 -151h-53l-83 118h-12l-85 -118h-53zM347 -10q-147 0 -226 97t-79 259q0 159 79.5 259t225.5 100t224 -99.5t78 -259.5q0 -162 -77.5 -259t-224.5 -97zM347 35q124 0 187.5 85.5t63.5 225.5q0 138 -64 226
t-187 88q-124 0 -189 -88t-65 -226q0 -140 65 -225.5t189 -85.5z" />
    <glyph glyph-name="uni1ED1" unicode="&#x1ed1;" horiz-adv-x="508" 
d="M332 699l85 136h45l-88 -136h-42zM110 582l121 151h45l120 -151h-53l-83 118h-12l-85 -118h-53zM255 -10q-97 0 -157 68t-60 191q0 124 60 192.5t157 68.5t156 -68.5t59 -192.5q0 -123 -59 -191t-156 -68zM255 34q75 0 121 56t46 159q0 104 -45.5 160.5t-121.5 56.5
t-122.5 -56.5t-46.5 -160.5q0 -102 46.5 -158.5t122.5 -56.5z" />
    <glyph glyph-name="uni1ED2" unicode="&#x1ed2;" horiz-adv-x="691" 
d="M219 894l-82 136h47l74 -136h-39zM202 777l121 151h45l120 -151h-53l-83 118h-12l-85 -118h-53zM347 -10q-147 0 -226 97t-79 259q0 159 79.5 259t225.5 100t224 -99.5t78 -259.5q0 -162 -77.5 -259t-224.5 -97zM347 35q124 0 187.5 85.5t63.5 225.5q0 138 -64 226
t-187 88q-124 0 -189 -88t-65 -226q0 -140 65 -225.5t189 -85.5z" />
    <glyph glyph-name="uni1ED3" unicode="&#x1ed3;" horiz-adv-x="508" 
d="M127 699l-82 136h47l74 -136h-39zM110 582l121 151h45l120 -151h-53l-83 118h-12l-85 -118h-53zM255 -10q-97 0 -157 68t-60 191q0 124 60 192.5t157 68.5t156 -68.5t59 -192.5q0 -123 -59 -191t-156 -68zM255 34q75 0 121 56t46 159q0 104 -45.5 160.5t-121.5 56.5
t-122.5 -56.5t-46.5 -160.5q0 -102 46.5 -158.5t122.5 -56.5z" />
    <glyph glyph-name="uni1ED4" unicode="&#x1ed4;" horiz-adv-x="691" 
d="M452 907q14 39 14 73q0 43 -41 43q-37 0 -82 -15v41q54 15 92 15q33 0 53 -20t20 -52q0 -40 -16 -85h-40zM202 777l121 151h45l120 -151h-53l-83 118h-12l-85 -118h-53zM347 -10q-147 0 -226 97t-79 259q0 159 79.5 259t225.5 100t224 -99.5t78 -259.5q0 -162 -77.5 -259
t-224.5 -97zM347 35q124 0 187.5 85.5t63.5 225.5q0 138 -64 226t-187 88q-124 0 -189 -88t-65 -226q0 -140 65 -225.5t189 -85.5z" />
    <glyph glyph-name="uni1ED5" unicode="&#x1ed5;" horiz-adv-x="508" 
d="M360 712q14 39 14 73q0 43 -41 43q-37 0 -82 -15v41q54 15 92 15q33 0 53 -20t20 -52q0 -40 -16 -85h-40zM110 582l121 151h45l120 -151h-53l-83 118h-12l-85 -118h-53zM255 -10q-97 0 -157 68t-60 191q0 124 60 192.5t157 68.5t156 -68.5t59 -192.5q0 -123 -59 -191
t-156 -68zM255 34q75 0 121 56t46 159q0 104 -45.5 160.5t-121.5 56.5t-122.5 -56.5t-46.5 -160.5q0 -102 46.5 -158.5t122.5 -56.5z" />
    <glyph glyph-name="uni1ED6" unicode="&#x1ed6;" horiz-adv-x="691" 
d="M221 971q0 115 67 115q26 0 45.5 -19t35 -37.5t29.5 -18.5q38 0 38 75h34q0 -115 -70 -115q-24 0 -45 18.5t-37.5 37t-29.5 18.5q-35 0 -35 -74h-32zM202 777l121 151h45l120 -151h-53l-83 118h-12l-85 -118h-53zM347 -10q-147 0 -226 97t-79 259q0 159 79.5 259
t225.5 100t224 -99.5t78 -259.5q0 -162 -77.5 -259t-224.5 -97zM347 35q124 0 187.5 85.5t63.5 225.5q0 138 -64 226t-187 88q-124 0 -189 -88t-65 -226q0 -140 65 -225.5t189 -85.5z" />
    <glyph glyph-name="uni1ED7" unicode="&#x1ed7;" horiz-adv-x="508" 
d="M129 776q0 115 67 115q20 0 37 -11.5t27 -26t22 -26t24 -11.5q38 0 38 75h34q0 -115 -70 -115q-24 0 -45 18.5t-37.5 37t-29.5 18.5q-35 0 -35 -74h-32zM110 582l121 151h45l120 -151h-53l-83 118h-12l-85 -118h-53zM255 -10q-97 0 -157 68t-60 191q0 124 60 192.5
t157 68.5t156 -68.5t59 -192.5q0 -123 -59 -191t-156 -68zM255 34q75 0 121 56t46 159q0 104 -45.5 160.5t-121.5 56.5t-122.5 -56.5t-46.5 -160.5q0 -102 46.5 -158.5t122.5 -56.5z" />
    <glyph glyph-name="uni1ED8" unicode="&#x1ed8;" horiz-adv-x="691" 
d="M202 777l121 151h45l120 -151h-53l-83 118h-12l-85 -118h-53zM347 -10q-147 0 -226 97t-79 259q0 159 79.5 259t225.5 100t224 -99.5t78 -259.5q0 -162 -77.5 -259t-224.5 -97zM347 35q124 0 187.5 85.5t63.5 225.5q0 138 -64 226t-187 88q-124 0 -189 -88t-65 -226
q0 -140 65 -225.5t189 -85.5zM312 -170v68h68v-68h-68z" />
    <glyph glyph-name="uni1ED9" unicode="&#x1ed9;" horiz-adv-x="508" 
d="M110 582l121 151h45l120 -151h-53l-83 118h-12l-85 -118h-53zM255 -10q-97 0 -157 68t-60 191q0 124 60 192.5t157 68.5t156 -68.5t59 -192.5q0 -123 -59 -191t-156 -68zM255 34q75 0 121 56t46 159q0 104 -45.5 160.5t-121.5 56.5t-122.5 -56.5t-46.5 -160.5
q0 -102 46.5 -158.5t122.5 -56.5zM220 -170v68h68v-68h-68z" />
    <glyph glyph-name="uni1EDA" unicode="&#x1eda;" horiz-adv-x="691" 
d="M483 928l-110 -151h-52l106 151h56zM567 610q82 -97 82 -264q0 -162 -77.5 -259t-224.5 -97t-226 97t-79 259q0 159 79.5 259t225.5 100q113 0 187 -63q19 2 32.5 9.5t20 16t10 25.5t4 27t0.5 31v8h45q0 -127 -79 -149zM347 35q124 0 187.5 85.5t63.5 225.5
q0 138 -64 226t-187 88q-124 0 -189 -88t-65 -226q0 -140 65 -225.5t189 -85.5z" />
    <glyph glyph-name="uni1EDB" unicode="&#x1edb;" horiz-adv-x="508" 
d="M391 733l-110 -151h-52l106 151h56zM480 590q0 -121 -71 -146q61 -71 61 -195q0 -123 -59 -191t-156 -68t-157 68t-60 191q0 124 60 192.5t157 68.5q71 0 120 -36q21 3 34.5 12.5t18.5 28t6 31t1 37.5v7h45zM255 34q75 0 121 56t46 159q0 104 -45.5 160.5t-121.5 56.5
t-122.5 -56.5t-46.5 -160.5q0 -102 46.5 -158.5t122.5 -56.5z" />
    <glyph glyph-name="uni1EDC" unicode="&#x1edc;" horiz-adv-x="691" 
d="M370 777h-49l-102 151h59zM567 610q82 -97 82 -264q0 -162 -77.5 -259t-224.5 -97t-226 97t-79 259q0 159 79.5 259t225.5 100q113 0 187 -63q19 2 32.5 9.5t20 16t10 25.5t4 27t0.5 31v8h45q0 -127 -79 -149zM347 35q124 0 187.5 85.5t63.5 225.5q0 138 -64 226t-187 88
q-124 0 -189 -88t-65 -226q0 -140 65 -225.5t189 -85.5z" />
    <glyph glyph-name="uni1EDD" unicode="&#x1edd;" horiz-adv-x="508" 
d="M278 582h-49l-102 151h59zM480 590q0 -121 -71 -146q61 -71 61 -195q0 -123 -59 -191t-156 -68t-157 68t-60 191q0 124 60 192.5t157 68.5q71 0 120 -36q21 3 34.5 12.5t18.5 28t6 31t1 37.5v7h45zM255 34q75 0 121 56t46 159q0 104 -45.5 160.5t-121.5 56.5
t-122.5 -56.5t-46.5 -160.5q0 -102 46.5 -158.5t122.5 -56.5z" />
    <glyph glyph-name="uni1EDE" unicode="&#x1ede;" horiz-adv-x="691" 
d="M356 847q0 43 -41 43q-37 0 -82 -15v41q54 15 92 15q33 0 53 -20t20 -52q0 -40 -16 -85h-40q14 39 14 73zM567 610q82 -97 82 -264q0 -162 -77.5 -259t-224.5 -97t-226 97t-79 259q0 159 79.5 259t225.5 100q113 0 187 -63q19 2 32.5 9.5t20 16t10 25.5t4 27t0.5 31v8h45
q0 -127 -79 -149zM347 35q124 0 187.5 85.5t63.5 225.5q0 138 -64 226t-187 88q-124 0 -189 -88t-65 -226q0 -140 65 -225.5t189 -85.5z" />
    <glyph glyph-name="uni1EDF" unicode="&#x1edf;" horiz-adv-x="508" 
d="M264 652q0 43 -41 43q-37 0 -82 -15v41q54 15 92 15q33 0 53 -20t20 -52q0 -40 -16 -85h-40q14 39 14 73zM480 590q0 -121 -71 -146q61 -71 61 -195q0 -123 -59 -191t-156 -68t-157 68t-60 191q0 124 60 192.5t157 68.5q71 0 120 -36q21 3 34.5 12.5t18.5 28t6 31t1 37.5
v7h45zM255 34q75 0 121 56t46 159q0 104 -45.5 160.5t-121.5 56.5t-122.5 -56.5t-46.5 -160.5q0 -102 46.5 -158.5t122.5 -56.5z" />
    <glyph glyph-name="uni1EE0" unicode="&#x1ee0;" horiz-adv-x="691" 
d="M281 871q-38 0 -38 -83h-36q0 128 74 128q29 0 51 -21t39 -41.5t33 -20.5q42 0 42 83h38q0 -128 -78 -128q-27 0 -50 21t-41.5 41.5t-33.5 20.5zM567 610q82 -97 82 -264q0 -162 -77.5 -259t-224.5 -97t-226 97t-79 259q0 159 79.5 259t225.5 100q113 0 187 -63
q19 2 32.5 9.5t20 16t10 25.5t4 27t0.5 31v8h45q0 -127 -79 -149zM347 35q124 0 187.5 85.5t63.5 225.5q0 138 -64 226t-187 88q-124 0 -189 -88t-65 -226q0 -140 65 -225.5t189 -85.5z" />
    <glyph glyph-name="uni1EE1" unicode="&#x1ee1;" horiz-adv-x="508" 
d="M189 676q-38 0 -38 -83h-36q0 128 74 128q23 0 42 -13t30 -28.5t24.5 -28.5t26.5 -13q42 0 42 83h38q0 -128 -78 -128q-27 0 -50 20.5t-41.5 41.5t-33.5 21zM480 590q0 -121 -71 -146q61 -71 61 -195q0 -123 -59 -191t-156 -68t-157 68t-60 191q0 124 60 192.5t157 68.5
q71 0 120 -36q21 3 34.5 12.5t18.5 28t6 31t1 37.5v7h45zM255 34q75 0 121 56t46 159q0 104 -45.5 160.5t-121.5 56.5t-122.5 -56.5t-46.5 -160.5q0 -102 46.5 -158.5t122.5 -56.5z" />
    <glyph glyph-name="uni1EE2" unicode="&#x1ee2;" horiz-adv-x="691" 
d="M567 610q82 -97 82 -264q0 -162 -77.5 -259t-224.5 -97t-226 97t-79 259q0 159 79.5 259t225.5 100q113 0 187 -63q19 2 32.5 9.5t20 16t10 25.5t4 27t0.5 31v8h45q0 -127 -79 -149zM347 35q124 0 187.5 85.5t63.5 225.5q0 138 -64 226t-187 88q-124 0 -189 -88t-65 -226
q0 -140 65 -225.5t189 -85.5zM312 -170v68h68v-68h-68z" />
    <glyph glyph-name="uni1EE3" unicode="&#x1ee3;" horiz-adv-x="508" 
d="M480 590q0 -121 -71 -146q61 -71 61 -195q0 -123 -59 -191t-156 -68t-157 68t-60 191q0 124 60 192.5t157 68.5q71 0 120 -36q21 3 34.5 12.5t18.5 28t6 31t1 37.5v7h45zM255 34q75 0 121 56t46 159q0 104 -45.5 160.5t-121.5 56.5t-122.5 -56.5t-46.5 -160.5
q0 -102 46.5 -158.5t122.5 -56.5zM220 -170v68h68v-68h-68z" />
    <glyph glyph-name="uni1EE4" unicode="&#x1ee4;" horiz-adv-x="663" 
d="M333 -10q-123 0 -198 73t-75 198v434h50v-434q0 -103 60.5 -164.5t162.5 -61.5t161 61t59 165v434h50v-434q0 -125 -74 -198t-196 -73zM298 -170v68h68v-68h-68z" />
    <glyph glyph-name="uni1EE5" unicode="&#x1ee5;" 
d="M228 -5q-77 0 -122.5 50t-45.5 149v306h48v-300q0 -89 35.5 -124.5t96.5 -35.5q73 0 126.5 55t53.5 155v250h48v-500h-48v46l4 57h-13q-59 -108 -183 -108zM231 -170v68h68v-68h-68z" />
    <glyph glyph-name="uni1EE6" unicode="&#x1ee6;" horiz-adv-x="663" 
d="M328 774q14 39 14 73q0 43 -41 43q-37 0 -82 -15v41q54 15 92 15q33 0 53 -20t20 -52q0 -40 -16 -85h-40zM333 -10q-123 0 -198 73t-75 198v434h50v-434q0 -103 60.5 -164.5t162.5 -61.5t161 61t59 165v434h50v-434q0 -125 -74 -198t-196 -73z" />
    <glyph glyph-name="uni1EE7" unicode="&#x1ee7;" 
d="M259 579q14 39 14 73q0 43 -41 43q-37 0 -82 -15v41q54 15 92 15q33 0 53 -20t20 -52q0 -40 -16 -85h-40zM228 -5q-77 0 -122.5 50t-45.5 149v306h48v-300q0 -89 35.5 -124.5t96.5 -35.5q73 0 126.5 55t53.5 155v250h48v-500h-48v46l4 57h-13q-59 -108 -183 -108z" />
    <glyph glyph-name="uni1EE8" unicode="&#x1ee8;" horiz-adv-x="663" 
d="M469 928l-110 -151h-52l106 151h56zM714 812q0 -70 -23.5 -110.5t-87.5 -43.5v-397q0 -125 -74 -198t-196 -73q-123 0 -198 73t-75 198v434h50v-434q0 -103 60.5 -164.5t162.5 -61.5t161 61t59 165v434h39q22 0 37.5 7t23 15.5t11.5 26t4.5 28.5t0.5 33v7h45z" />
    <glyph glyph-name="uni1EE9" unicode="&#x1ee9;" 
d="M400 733l-110 -151h-52l106 151h56zM559 617q0 -64 -20 -103t-71 -48v-466h-48v46l4 57h-13q-59 -108 -183 -108q-77 0 -122.5 50t-45.5 149v306h48v-300q0 -89 35.5 -124.5t96.5 -35.5q73 0 126.5 55t53.5 155v250h17q22 0 37.5 7t23 15.5t11.5 26t4.5 28.5t0.5 33v7h45
z" />
    <glyph glyph-name="uni1EEA" unicode="&#x1eea;" horiz-adv-x="663" 
d="M356 777h-49l-102 151h59zM714 812q0 -70 -23.5 -110.5t-87.5 -43.5v-397q0 -125 -74 -198t-196 -73q-123 0 -198 73t-75 198v434h50v-434q0 -103 60.5 -164.5t162.5 -61.5t161 61t59 165v434h39q22 0 37.5 7t23 15.5t11.5 26t4.5 28.5t0.5 33v7h45z" />
    <glyph glyph-name="uni1EEB" unicode="&#x1eeb;" 
d="M287 582h-49l-102 151h59zM559 617q0 -64 -20 -103t-71 -48v-466h-48v46l4 57h-13q-59 -108 -183 -108q-77 0 -122.5 50t-45.5 149v306h48v-300q0 -89 35.5 -124.5t96.5 -35.5q73 0 126.5 55t53.5 155v250h17q22 0 37.5 7t23 15.5t11.5 26t4.5 28.5t0.5 33v7h45z" />
    <glyph glyph-name="uni1EEC" unicode="&#x1eec;" horiz-adv-x="663" 
d="M342 847q0 43 -41 43q-37 0 -82 -15v41q54 15 92 15q33 0 53 -20t20 -52q0 -40 -16 -85h-40q14 39 14 73zM714 812q0 -70 -23.5 -110.5t-87.5 -43.5v-397q0 -125 -74 -198t-196 -73q-123 0 -198 73t-75 198v434h50v-434q0 -103 60.5 -164.5t162.5 -61.5t161 61t59 165
v434h39q22 0 37.5 7t23 15.5t11.5 26t4.5 28.5t0.5 33v7h45z" />
    <glyph glyph-name="uni1EED" unicode="&#x1eed;" 
d="M273 652q0 43 -41 43q-37 0 -82 -15v41q54 15 92 15q33 0 53 -20t20 -52q0 -40 -16 -85h-40q14 39 14 73zM559 617q0 -64 -20 -103t-71 -48v-466h-48v46l4 57h-13q-59 -108 -183 -108q-77 0 -122.5 50t-45.5 149v306h48v-300q0 -89 35.5 -124.5t96.5 -35.5q73 0 126.5 55
t53.5 155v250h17q22 0 37.5 7t23 15.5t11.5 26t4.5 28.5t0.5 33v7h45z" />
    <glyph glyph-name="uni1EEE" unicode="&#x1eee;" horiz-adv-x="663" 
d="M267 871q-38 0 -38 -83h-36q0 128 74 128q29 0 51 -21t39 -41.5t33 -20.5q42 0 42 83h38q0 -128 -78 -128q-27 0 -50 21t-41.5 41.5t-33.5 20.5zM714 812q0 -70 -23.5 -110.5t-87.5 -43.5v-397q0 -125 -74 -198t-196 -73q-123 0 -198 73t-75 198v434h50v-434
q0 -103 60.5 -164.5t162.5 -61.5t161 61t59 165v434h39q22 0 37.5 7t23 15.5t11.5 26t4.5 28.5t0.5 33v7h45z" />
    <glyph glyph-name="uni1EEF" unicode="&#x1eef;" 
d="M198 676q-38 0 -38 -83h-36q0 128 74 128q23 0 42 -13t30 -28.5t24.5 -28.5t26.5 -13q42 0 42 83h38q0 -128 -78 -128q-27 0 -50 20.5t-41.5 41.5t-33.5 21zM559 617q0 -64 -20 -103t-71 -48v-466h-48v46l4 57h-13q-59 -108 -183 -108q-77 0 -122.5 50t-45.5 149v306h48
v-300q0 -89 35.5 -124.5t96.5 -35.5q73 0 126.5 55t53.5 155v250h17q22 0 37.5 7t23 15.5t11.5 26t4.5 28.5t0.5 33v7h45z" />
    <glyph glyph-name="uni1EF0" unicode="&#x1ef0;" horiz-adv-x="663" 
d="M714 812q0 -70 -23.5 -110.5t-87.5 -43.5v-397q0 -125 -74 -198t-196 -73q-123 0 -198 73t-75 198v434h50v-434q0 -103 60.5 -164.5t162.5 -61.5t161 61t59 165v434h39q22 0 37.5 7t23 15.5t11.5 26t4.5 28.5t0.5 33v7h45zM298 -170v68h68v-68h-68z" />
    <glyph glyph-name="uni1EF1" unicode="&#x1ef1;" 
d="M559 617q0 -64 -20 -103t-71 -48v-466h-48v46l4 57h-13q-59 -108 -183 -108q-77 0 -122.5 50t-45.5 149v306h48v-300q0 -89 35.5 -124.5t96.5 -35.5q73 0 126.5 55t53.5 155v250h17q22 0 37.5 7t23 15.5t11.5 26t4.5 28.5t0.5 33v7h45zM231 -170v68h68v-68h-68z" />
    <glyph glyph-name="Ygrave" unicode="&#x1ef2;" horiz-adv-x="683" 
d="M317 777l-102 151h59l92 -151h-49zM317 0v280l-309 415h63l224 -304l41 -73h12l41 73l223 304h63l-308 -415v-280h-50z" />
    <glyph glyph-name="ygrave" unicode="&#x1ef3;" horiz-adv-x="495" 
d="M223 582l-102 151h59l92 -151h-49zM91 -241q-12 0 -44 2v42q16 -1 38 -1q38 0 61.5 24.5t48.5 91.5l32 83l-208 499h55l158 -391l13 -48h11l15 48l150 391h54l-241 -601q-33 -83 -63.5 -111.5t-79.5 -28.5z" />
    <glyph glyph-name="uni1EF4" unicode="&#x1ef4;" horiz-adv-x="683" 
d="M317 0v280l-309 415h63l224 -304l41 -73h12l41 73l223 304h63l-308 -415v-280h-50zM308 -170v68h68v-68h-68z" />
    <glyph glyph-name="uni1EF5" unicode="&#x1ef5;" horiz-adv-x="495" 
d="M91 -241q-12 0 -44 2v42q16 -1 38 -1q38 0 61.5 24.5t48.5 91.5l32 83l-208 499h55l158 -391l13 -48h11l15 48l150 391h54l-241 -601q-33 -83 -63.5 -111.5t-79.5 -28.5zM209 -345v68h68v-68h-68z" />
    <glyph glyph-name="uni1EF6" unicode="&#x1ef6;" horiz-adv-x="683" 
d="M338 774q14 39 14 73q0 43 -41 43q-37 0 -82 -15v41q54 15 92 15q33 0 53 -20t20 -52q0 -40 -16 -85h-40zM317 0v280l-309 415h63l224 -304l41 -73h12l41 73l223 304h63l-308 -415v-280h-50z" />
    <glyph glyph-name="uni1EF7" unicode="&#x1ef7;" horiz-adv-x="495" 
d="M244 579q14 39 14 73q0 43 -41 43q-37 0 -82 -15v41q54 15 92 15q33 0 53 -20t20 -52q0 -40 -16 -85h-40zM91 -241q-12 0 -44 2v42q16 -1 38 -1q38 0 61.5 24.5t48.5 91.5l32 83l-208 499h55l158 -391l13 -48h11l15 48l150 391h54l-241 -601q-33 -83 -63.5 -111.5
t-79.5 -28.5z" />
    <glyph glyph-name="uni1EF8" unicode="&#x1ef8;" horiz-adv-x="683" 
d="M203 788q0 128 74 128q29 0 51 -21t39 -41.5t33 -20.5q42 0 42 83h38q0 -128 -78 -128q-27 0 -50 21t-41.5 41.5t-33.5 20.5q-38 0 -38 -83h-36zM317 0v280l-309 415h63l224 -304l41 -73h12l41 73l223 304h63l-308 -415v-280h-50z" />
    <glyph glyph-name="uni1EF9" unicode="&#x1ef9;" horiz-adv-x="495" 
d="M109 593q0 128 74 128q23 0 42 -13t30 -28.5t24.5 -28.5t26.5 -13q42 0 42 83h38q0 -128 -78 -128q-27 0 -50 20.5t-41.5 41.5t-33.5 21q-38 0 -38 -83h-36zM91 -241q-12 0 -44 2v42q16 -1 38 -1q38 0 61.5 24.5t48.5 91.5l32 83l-208 499h55l158 -391l13 -48h11l15 48
l150 391h54l-241 -601q-33 -83 -63.5 -111.5t-79.5 -28.5z" />
    <glyph glyph-name="endash" unicode="&#x2013;" horiz-adv-x="607" 
d="M68 245v43h471v-43h-471z" />
    <glyph glyph-name="emdash" unicode="&#x2014;" horiz-adv-x="797" 
d="M68 245v43h661v-43h-661z" />
    <glyph glyph-name="quoteleft" unicode="&#x2018;" horiz-adv-x="194" 
d="M60 566v64q0 33 14 50.5t37 17.5q14 0 23 -3v-33q-8 4 -16 4q-13 0 -18.5 -7.5t-5.5 -28.5h30v-64h-64z" />
    <glyph glyph-name="quoteright" unicode="&#x2019;" horiz-adv-x="194" 
d="M83 566q-14 0 -23 3v33q8 -4 16 -4q13 0 18.5 7.5t5.5 28.5h-30v64h64v-64q0 -33 -14 -50.5t-37 -17.5z" />
    <glyph glyph-name="quotesinglbase" unicode="&#x201a;" horiz-adv-x="194" 
d="M83 -75q-14 0 -23 3v33q8 -4 16 -4q13 0 18.5 7.5t5.5 28.5h-30v64h64v-64q0 -33 -14 -50.5t-37 -17.5z" />
    <glyph glyph-name="quotedblleft" unicode="&#x201c;" horiz-adv-x="317" 
d="M60 566v64q0 33 14 50.5t37 17.5q14 0 23 -3v-33q-8 4 -16 4q-13 0 -18.5 -7.5t-5.5 -28.5h30v-64h-64zM183 566v64q0 33 14 50.5t37 17.5q14 0 23 -3v-33q-8 4 -16 4q-13 0 -18.5 -7.5t-5.5 -28.5h30v-64h-64z" />
    <glyph glyph-name="quotedblright" unicode="&#x201d;" horiz-adv-x="317" 
d="M83 566q-14 0 -23 3v33q8 -4 16 -4q13 0 18.5 7.5t5.5 28.5h-30v64h64v-64q0 -33 -14 -50.5t-37 -17.5zM206 566q-14 0 -23 3v33q8 -4 16 -4q13 0 18.5 7.5t5.5 28.5h-30v64h64v-64q0 -33 -14 -50.5t-37 -17.5z" />
    <glyph glyph-name="quotedblbase" unicode="&#x201e;" horiz-adv-x="317" 
d="M83 -75q-14 0 -23 3v33q8 -4 16 -4q13 0 18.5 7.5t5.5 28.5h-30v64h64v-64q0 -33 -14 -50.5t-37 -17.5zM206 -75q-14 0 -23 3v33q8 -4 16 -4q13 0 18.5 7.5t5.5 28.5h-30v64h64v-64q0 -33 -14 -50.5t-37 -17.5z" />
    <glyph glyph-name="dagger" unicode="&#x2020;" horiz-adv-x="469" 
d="M209 284v171l1 109l-94 -1h-48v50h49l93 -1l-1 87v46h50v-44l-1 -89l84 1h59v-50h-59l-84 1l1 -109v-171h-50z" />
    <glyph glyph-name="daggerdbl" unicode="&#x2021;" horiz-adv-x="469" 
d="M209 284v133l-92 -1h-49v50h48l93 -1v99l-93 -1h-48v50h49l92 -1v133h50v-133l83 1h59v-50h-59l-83 1v-99l83 1h59v-50h-59l-83 1v-133h-50z" />
    <glyph glyph-name="bullet" unicode="&#x2022;" horiz-adv-x="210" 
d="M105 202q-23 0 -38.5 16t-15.5 38t15.5 38t38.5 16q22 0 38 -16t16 -38t-16 -38t-38 -16z" />
    <glyph glyph-name="ellipsis" unicode="&#x2026;" horiz-adv-x="530" 
d="M69 -7v64h64v-64h-64zM233 -7v64h64v-64h-64zM397 -7v64h64v-64h-64z" />
    <glyph glyph-name="perthousand" unicode="&#x2030;" horiz-adv-x="1197" 
d="M212 331q-73 0 -115 52.5t-42 133.5t42 133.5t115 52.5t114 -52t41 -134t-41 -134t-114 -52zM191 0l395 695h53l-395 -695h-53zM213 376q53 0 80.5 39.5t27.5 101.5t-27.5 101.5t-80.5 39.5q-55 0 -83.5 -39.5t-28.5 -101.5t28.5 -101.5t83.5 -39.5zM619 -8
q-73 0 -115 52.5t-42 133.5t42 133.5t115 52.5t114 -52t41 -134t-41 -134t-114 -52zM987 -8q-73 0 -115 52.5t-42 133.5t42 133.5t115 52.5t114 -52t41 -134t-41 -134t-114 -52zM620 37q53 0 80.5 39.5t27.5 101.5t-27.5 101.5t-80.5 39.5q-55 0 -83.5 -39.5t-28.5 -101.5
t28.5 -101.5t83.5 -39.5zM988 37q53 0 80.5 39.5t27.5 101.5t-27.5 101.5t-80.5 39.5q-55 0 -83.5 -39.5t-28.5 -101.5t28.5 -101.5t83.5 -39.5z" />
    <glyph glyph-name="guilsinglleft" unicode="&#x2039;" horiz-adv-x="337" 
d="M231 46l-184 202v4l184 202h59l-192 -202v-4l192 -202h-59z" />
    <glyph glyph-name="guilsinglright" unicode="&#x203a;" horiz-adv-x="337" 
d="M47 46l192 202v4l-192 202h59l184 -202v-4l-184 -202h-59z" />
    <glyph glyph-name="fraction" unicode="&#x2044;" horiz-adv-x="185" 
d="M-153 -30l450 755h41l-450 -755h-41z" />
    <glyph glyph-name="uni2070" unicode="&#x2070;" horiz-adv-x="394" 
d="M198 376q-69 0 -109.5 54.5t-40.5 147.5t40.5 147.5t109.5 54.5t108.5 -53t39.5 -149q0 -94 -40 -148t-108 -54zM199 408q53 0 83.5 45.5t30.5 124.5t-30.5 124.5t-83.5 45.5q-54 0 -86 -45.5t-32 -124.5t32 -124.5t86 -45.5z" />
    <glyph glyph-name="uni2074" unicode="&#x2074;" horiz-adv-x="384" 
d="M263 379v104h-223v28l214 264h41v-262h66v-30h-66v-104h-32zM80 512l45 1h138v172l2 57h-6l-30 -43l-119 -148l-30 -34v-5z" />
    <glyph glyph-name="uni2075" unicode="&#x2075;" horiz-adv-x="371" 
d="M194 376q-53 0 -94.5 30t-50.5 92l32 3q9 -48 39 -71.5t74 -23.5q47 0 77 27.5t30 73.5q0 48 -28 76t-74 28q-56 0 -103 -42l-33 15l33 191h217v-30h-190l-6 -38l-9 -53l-12 -51l3 -2q49 38 104 38q60 0 95 -37t35 -96q0 -58 -40 -94t-99 -36z" />
    <glyph glyph-name="uni2076" unicode="&#x2076;" horiz-adv-x="373" 
d="M194 376q-57 0 -101 42.5t-44 139.5q0 108 48 164t111 56q97 0 119 -113l-31 -3q-17 86 -88 86q-55 0 -90 -48t-41 -129l4 -1q38 69 119 69q59 0 95.5 -37.5t36.5 -95.5q0 -59 -39.5 -94.5t-98.5 -35.5zM194 406q47 0 76.5 27.5t29.5 72.5q0 48 -28 76t-72 28
q-51 0 -81 -26.5t-30 -68.5q0 -47 30.5 -78t74.5 -31z" />
    <glyph glyph-name="uni2077" unicode="&#x2077;" horiz-adv-x="335" 
d="M136 379q5 118 35 198t105 167l-1 4l-47 -3h-196v30h272l9 -31q-77 -83 -108 -162.5t-36 -202.5h-33z" />
    <glyph glyph-name="uni2078" unicode="&#x2078;" horiz-adv-x="382" 
d="M191 376q-62 0 -104 31t-42 81q0 41 24.5 65.5t56.5 32.5v4q-24 7 -45.5 29.5t-21.5 56.5q0 45 37 73.5t95 28.5t95 -28.5t37 -73.5q0 -34 -21 -56.5t-45 -29.5v-4q31 -8 55.5 -33t24.5 -65q0 -50 -42 -81t-104 -31zM191 602q45 0 72 19t27 55q0 30 -26 51t-73 21
t-73.5 -21t-26.5 -51q0 -36 27.5 -55t72.5 -19zM191 406q52 0 82.5 24.5t30.5 57.5q0 40 -30 62t-83 22q-52 0 -82.5 -22.5t-30.5 -61.5q0 -33 30.5 -57.5t82.5 -24.5z" />
    <glyph glyph-name="uni2079" unicode="&#x2079;" horiz-adv-x="369" 
d="M178 376q-50 0 -87 27t-50 78l33 6q22 -80 104 -80q58 0 85 43t31 140h-5q-28 -74 -114 -74q-56 0 -92 36.5t-36 93.5q0 59 36 95.5t96 36.5t100.5 -39.5t40.5 -136.5q0 -226 -142 -226zM180 547q47 0 75 27.5t28 73.5q0 45 -29 72.5t-73 27.5q-45 0 -74 -27t-29 -73
t28 -73.5t74 -27.5z" />
    <glyph glyph-name="uni2080" unicode="&#x2080;" horiz-adv-x="394" 
d="M198 -203q-69 0 -109.5 54.5t-40.5 147.5t40.5 147.5t109.5 54.5t108.5 -53t39.5 -149q0 -94 -40 -148t-108 -54zM199 -171q53 0 83.5 45.5t30.5 124.5t-30.5 124.5t-83.5 45.5q-54 0 -86 -45.5t-32 -124.5t32 -124.5t86 -45.5z" />
    <glyph glyph-name="uni2081" unicode="&#x2081;" horiz-adv-x="330" 
d="M45 -200v28h64l55 -1v267h-3q-27 -44 -120 -44v28q129 0 129 118h26v-307l-1 -62l51 1h46v-28h-247z" />
    <glyph glyph-name="uni2082" unicode="&#x2082;" horiz-adv-x="367" 
d="M41 -200v26l129 97q31 23 42.5 32.5t33.5 31.5t31 43.5t9 46.5q0 43 -24.5 67.5t-70.5 24.5q-47 0 -77 -27.5t-36 -76.5l-31 3q6 59 47 95t98 36q58 0 92 -33.5t34 -87.5q0 -53 -33.5 -93.5t-96.5 -87.5l-92 -68v-2l52 1h170v-28h-277z" />
    <glyph glyph-name="uni2083" unicode="&#x2083;" horiz-adv-x="364" 
d="M182 -203q-57 0 -99 31t-51 85l32 3q6 -42 39.5 -65.5t78.5 -23.5q48 0 78 22t30 63q0 39 -29.5 60t-72.5 21h-15v30h15q88 0 88 71q0 32 -24 53.5t-66 21.5q-89 0 -107 -85l-30 3q8 51 46 81.5t91 30.5t87.5 -31t34.5 -74q0 -36 -20.5 -56.5t-48.5 -27.5v-4
q35 -6 59.5 -29t24.5 -65q0 -53 -41 -84t-100 -31z" />
    <glyph glyph-name="uni2084" unicode="&#x2084;" horiz-adv-x="384" 
d="M263 -200v104h-223v28l214 264h41v-262h66v-30h-66v-104h-32zM80 -67l45 1h138v172l2 57h-6l-30 -43l-119 -148l-30 -34v-5z" />
    <glyph glyph-name="uni2085" unicode="&#x2085;" horiz-adv-x="371" 
d="M194 -203q-53 0 -94.5 30t-50.5 92l32 3q9 -48 39 -71.5t74 -23.5q47 0 77 27.5t30 73.5q0 48 -28 76t-74 28q-56 0 -103 -42l-33 15l33 191h217v-30h-190l-6 -38l-9 -53l-12 -51l3 -2q49 38 104 38q60 0 95 -37t35 -96q0 -58 -40 -94t-99 -36z" />
    <glyph glyph-name="uni2086" unicode="&#x2086;" horiz-adv-x="373" 
d="M194 -203q-57 0 -101 42.5t-44 139.5q0 108 48 164t111 56q97 0 119 -113l-31 -3q-17 86 -88 86q-55 0 -90 -48t-41 -129l4 -1q38 69 119 69q59 0 95.5 -37.5t36.5 -95.5q0 -59 -39.5 -94.5t-98.5 -35.5zM194 -173q47 0 76.5 27.5t29.5 72.5q0 48 -28 76t-72 28
q-51 0 -81 -26.5t-30 -68.5q0 -47 30.5 -78t74.5 -31z" />
    <glyph glyph-name="uni2087" unicode="&#x2087;" horiz-adv-x="335" 
d="M136 -200q5 118 35 198t105 167l-1 4l-47 -3h-196v30h272l9 -31q-77 -83 -108 -162.5t-36 -202.5h-33z" />
    <glyph glyph-name="uni2088" unicode="&#x2088;" horiz-adv-x="382" 
d="M191 -203q-62 0 -104 31t-42 81q0 41 24.5 65.5t56.5 32.5v4q-24 7 -45.5 29.5t-21.5 56.5q0 45 37 73.5t95 28.5t95 -28.5t37 -73.5q0 -34 -21 -56.5t-45 -29.5v-4q31 -8 55.5 -32.5t24.5 -65.5q0 -50 -42 -81t-104 -31zM191 23q45 0 72 19t27 55q0 30 -26 51t-73 21
t-73.5 -21t-26.5 -51q0 -36 27.5 -55t72.5 -19zM191 -173q52 0 82.5 24.5t30.5 57.5q0 40 -30 62t-83 22q-52 0 -82.5 -22.5t-30.5 -61.5q0 -33 30.5 -57.5t82.5 -24.5z" />
    <glyph glyph-name="uni2089" unicode="&#x2089;" horiz-adv-x="369" 
d="M178 -203q-50 0 -87 27t-50 78l33 6q22 -80 104 -80q58 0 85 43t31 140h-5q-28 -74 -114 -74q-56 0 -92 36.5t-36 93.5q0 59 36 95.5t96 36.5t100.5 -39.5t40.5 -136.5q0 -226 -142 -226zM180 -32q47 0 75 27.5t28 73.5q0 45 -29 72.5t-73 27.5q-45 0 -74 -27t-29 -73
t28 -73.5t74 -27.5z" />
    <glyph glyph-name="uni20A9" unicode="&#x20a9;" horiz-adv-x="1149" 
d="M1115 398v-43h-145l-115 -355h-62l-124 355h-188l-125 -355h-62l-115 355h-145v43h131l-96 297h58l93 -297h220l101 297h67l101 -297h220l93 297h58l-96 -297h131zM496 398h158l-65 185l-10 59h-8l-10 -59zM340 102l86 253h-193l79 -253l9 -49h8zM837 102l79 253h-193
l86 -253l11 -49h8z" />
    <glyph glyph-name="Euro" unicode="&#x20ac;" horiz-adv-x="785" 
d="M698 255l48 -4q-21 -120 -96.5 -188.5t-194.5 -68.5q-123 0 -204 76t-99 205h-109v43h105q-1 9 -1 28t1 29h-105v43h109q19 130 101 207t202 77q114 0 189.5 -68t92.5 -186l-49 -5q-17 99 -78 156.5t-155 57.5q-98 0 -166 -65t-85 -174h304v-43h-309q-1 -9 -1 -29
q0 -19 1 -28h309v-43h-305q17 -108 84.5 -172t167.5 -64q99 0 161.5 57.5t81.5 158.5z" />
    <glyph glyph-name="uni20BD" unicode="&#x20bd;" horiz-adv-x="672" 
d="M168 0v185h-125v43h125v57h-125v43h125v367h251q103 0 165 -51.5t62 -154.5t-62 -154t-165 -51h-201v-56h270v-43h-270v-185h-50zM217 328l94 1h108q180 0 180 160q0 161 -180 161h-107l-95 1l1 -76v-171z" />
    <glyph glyph-name="uni20BF" unicode="&#x20bf;" horiz-adv-x="624" 
d="M560 190q0 -87 -53.5 -135t-143.5 -54v-81h-44v80h-96v-80h-44v80h-115v695h115v80h44v-80h96v80h44v-82q87 -7 137 -51t50 -127q0 -131 -135 -153v-8q70 -10 107.5 -52t37.5 -112zM113 651l1 -90v-92l-1 -90l90 1h122q89 0 134.5 31.5t45.5 103.5q0 73 -45.5 104
t-134.5 31h-122zM335 45q180 0 180 145q0 71 -47 108t-133 37h-132l-90 1l1 -90v-112l-1 -90l90 1h132z" />
    <glyph glyph-name="uni2116" unicode="&#x2116;" horiz-adv-x="1177" 
d="M928 279q-84 0 -135.5 59t-51.5 154q0 94 51.5 154t135.5 60q83 0 134 -59.5t51 -154.5t-50.5 -154t-134.5 -59zM64 0v695h65l383 -557l48 -83h9l-4 102v538h50v-695h-66l-397 576l-33 64h-9l4 -102v-538h-50zM928 327q62 0 99.5 45.5t37.5 119.5t-37.5 120t-99.5 46
q-63 0 -101 -46t-38 -120q0 -73 38 -119t101 -46zM741 172v43h372v-43h-372z" />
    <glyph glyph-name="trademark" unicode="&#x2122;" horiz-adv-x="855" 
d="M194 326v345h-144v25h314v-25h-144v-345h-26zM417 326v370h31l145 -307l13 -36h4l13 36l145 307h31v-370h-27v287l3 37h-5l-12 -37l-137 -287h-26l-136 287l-13 37h-5l3 -37v-287h-27z" />
    <glyph glyph-name="oneeighth" unicode="&#x215b;" horiz-adv-x="942" 
d="M230 -30l450 755h41l-450 -755h-41zM45 299v28h64l55 -1v267h-3q-27 -44 -120 -44v28q129 0 129 118h26v-307l-1 -62l51 1h46v-28h-247zM751 -4q-62 0 -104 31t-42 81q0 41 24.5 65.5t56.5 32.5v4q-24 7 -45.5 29.5t-21.5 56.5q0 45 37 73.5t95 28.5t95 -28.5t37 -73.5
q0 -34 -21 -56.5t-45 -29.5v-4q31 -8 55.5 -33t24.5 -65q0 -50 -42 -81t-104 -31zM751 222q45 0 72 19t27 55q0 30 -26 51t-73 21t-73.5 -21t-26.5 -51q0 -36 27.5 -55t72.5 -19zM751 26q52 0 82.5 24.5t30.5 57.5q0 40 -30 62t-83 22q-52 0 -82.5 -22.5t-30.5 -61.5
q0 -33 30.5 -57.5t82.5 -24.5z" />
    <glyph glyph-name="threeeighths" unicode="&#x215c;" horiz-adv-x="923" 
d="M211 -30l450 755h41l-450 -755h-41zM182 296q-57 0 -99 31t-51 85l32 3q6 -42 39.5 -65.5t78.5 -23.5q48 0 78 22t30 63q0 39 -29.5 60t-72.5 21h-15v30h15q88 0 88 71q0 32 -24 53.5t-66 21.5q-89 0 -107 -85l-30 3q8 51 46 81.5t91 30.5t87.5 -31t34.5 -74
q0 -36 -20.5 -56.5t-48.5 -27.5v-4q35 -6 59.5 -29t24.5 -65q0 -53 -41 -84t-100 -31zM732 -4q-62 0 -104 31t-42 81q0 41 24.5 65.5t56.5 32.5v4q-24 7 -45.5 29.5t-21.5 56.5q0 45 37 73.5t95 28.5t95 -28.5t37 -73.5q0 -34 -21 -56.5t-45 -29.5v-4q31 -8 55.5 -33
t24.5 -65q0 -50 -42 -81t-104 -31zM732 222q45 0 72 19t27 55q0 30 -26 51t-73 21t-73.5 -21t-26.5 -51q0 -36 27.5 -55t72.5 -19zM732 26q52 0 82.5 24.5t30.5 57.5q0 40 -30 62t-83 22q-52 0 -82.5 -22.5t-30.5 -61.5q0 -33 30.5 -57.5t82.5 -24.5z" />
    <glyph glyph-name="fiveeighths" unicode="&#x215d;" horiz-adv-x="930" 
d="M218 -30l450 755h41l-450 -755h-41zM194 296q-53 0 -94.5 30t-50.5 92l32 3q9 -48 39 -71.5t74 -23.5q47 0 77 27.5t30 73.5q0 48 -28 76t-74 28q-56 0 -103 -42l-33 15l33 191h217v-30h-190l-6 -38l-9 -53l-12 -51l3 -2q49 38 104 38q60 0 95 -37t35 -96q0 -58 -40 -94
t-99 -36zM739 -4q-62 0 -104 31t-42 81q0 41 24.5 65.5t56.5 32.5v4q-24 7 -45.5 29.5t-21.5 56.5q0 45 37 73.5t95 28.5t95 -28.5t37 -73.5q0 -34 -21 -56.5t-45 -29.5v-4q31 -8 55.5 -33t24.5 -65q0 -50 -42 -81t-104 -31zM739 222q45 0 72 19t27 55q0 30 -26 51t-73 21
t-73.5 -21t-26.5 -51q0 -36 27.5 -55t72.5 -19zM739 26q52 0 82.5 24.5t30.5 57.5q0 40 -30 62t-83 22q-52 0 -82.5 -22.5t-30.5 -61.5q0 -33 30.5 -57.5t82.5 -24.5z" />
    <glyph glyph-name="seveneighths" unicode="&#x215e;" horiz-adv-x="891" 
d="M179 -30l450 755h41l-450 -755h-41zM136 299q5 118 35 198t105 167l-1 4l-47 -3h-196v30h272l9 -31q-77 -83 -108 -162.5t-36 -202.5h-33zM700 -4q-62 0 -104 31t-42 81q0 41 24.5 65.5t56.5 32.5v4q-24 7 -45.5 29.5t-21.5 56.5q0 45 37 73.5t95 28.5t95 -28.5t37 -73.5
q0 -34 -21 -56.5t-45 -29.5v-4q31 -8 55.5 -33t24.5 -65q0 -50 -42 -81t-104 -31zM700 222q45 0 72 19t27 55q0 30 -26 51t-73 21t-73.5 -21t-26.5 -51q0 -36 27.5 -55t72.5 -19zM700 26q52 0 82.5 24.5t30.5 57.5q0 40 -30 62t-83 22q-52 0 -82.5 -22.5t-30.5 -61.5
q0 -33 30.5 -57.5t82.5 -24.5z" />
    <glyph glyph-name="arrowleft" unicode="&#x2190;" horiz-adv-x="728" 
d="M411 167l-343 182v31l343 183v-41l-279 -141h528v-33h-528l279 -140v-41z" />
    <glyph glyph-name="arrowup" unicode="&#x2191;" 
d="M249 69v518l-140 -269h-41l182 343h31l183 -343h-41l-141 269v-518h-33z" />
    <glyph glyph-name="arrowright" unicode="&#x2192;" horiz-adv-x="728" 
d="M317 167v41l279 141h-528v33h528l-279 140v41l343 -182v-31z" />
    <glyph glyph-name="arrowdown" unicode="&#x2193;" 
d="M251 69l-183 343h41l141 -279v528h33v-528l140 279h41l-182 -343h-31z" />
    <glyph glyph-name="arrowboth" unicode="&#x2194;" horiz-adv-x="1028" 
d="M381 167l-313 182v31l313 183v-41l-249 -141h764l-249 141v41l313 -183v-31l-313 -182v41l249 140h-764l249 -140v-41z" />
    <glyph glyph-name="arrowupdn" unicode="&#x2195;" 
d="M250 -42l-182 313l41 1l140 -249v684l-140 -249l-41 -1l182 314h31l183 -313l-41 -1l-141 250v-684l141 249h41l-183 -313z" />
    <glyph glyph-name="uni2196" unicode="&#x2196;" horiz-adv-x="580" 
d="M486 145l-373 373l88 -286l-32 -26l-101 358l24 20l386 -127l-32 -26l-308 108l374 -373z" />
    <glyph glyph-name="uni2197" unicode="&#x2197;" horiz-adv-x="577" 
d="M91 144l-23 24l373 373l-296 -98l-29 29l371 114l22 -22l-113 -372l-29 29l97 297z" />
    <glyph glyph-name="uni2198" unicode="&#x2198;" horiz-adv-x="578" 
d="M488 145l-372 113l29 29l297 -97l-374 373l24 23l373 -373l-98 296l29 29l114 -371z" />
    <glyph glyph-name="uni2199" unicode="&#x2199;" horiz-adv-x="577" 
d="M90 144l-22 22l113 372l29 -29l-97 -297l373 374l23 -24l-373 -373l296 98l29 -29z" />
    <glyph glyph-name="partialdiff" unicode="&#x2202;" horiz-adv-x="512" 
d="M256 -5q-101 0 -163.5 67t-62.5 176q0 107 62.5 176t160.5 69q107 0 157 -83h9q-12 95 -73.5 188t-164.5 172h67q118 -105 172 -213t54 -265q0 -141 -56 -214t-162 -73zM256 40q76 0 123 54t47 144q0 91 -47 145.5t-126 54.5t-127 -55t-48 -145q0 -89 49 -143.5
t129 -54.5z" />
    <glyph glyph-name="emptyset" unicode="&#x2205;" horiz-adv-x="683" 
d="M656 597l-86 -86q69 -82 69 -194q0 -125 -84 -211t-212 -86q-112 0 -193 67l-85 -86l-38 37l86 87q-67 79 -67 192q0 125 84 210.5t213 85.5q109 0 190 -65l85 86zM99 317q0 -88 52 -154l344 347q-66 50 -152 50q-106 0 -175 -70.5t-69 -172.5zM586 317q0 90 -53 155
l-345 -347q65 -52 155 -52q106 0 174.5 70.5t68.5 173.5z" />
    <glyph glyph-name="product" unicode="&#x220f;" horiz-adv-x="626" 
d="M153 -54v572l1 133l-111 -1v45h540v-45l-111 1l1 -131v-574h-52v576l1 129l-90 -1h-45l-83 1l1 -131v-574h-52z" />
    <glyph glyph-name="summation" unicode="&#x2211;" horiz-adv-x="505" 
d="M64 -172v43l237 394l-237 386v44h402v-47h-335v-10l217 -354v-39l-217 -361v-8h340v-48h-407z" />
    <glyph glyph-name="minus" unicode="&#x2212;" horiz-adv-x="539" 
d="M47 295v46h445v-46h-445z" />
    <glyph glyph-name="radical" unicode="&#x221a;" horiz-adv-x="600" 
d="M642 695v-49h-194l-207 -886h-62l-158 523h52l108 -357l23 -100h7l18 101l179 768h234z" />
    <glyph glyph-name="infinity" unicode="&#x221e;" horiz-adv-x="731" 
d="M535 494q76 0 123 -46t47 -118t-47 -117.5t-123 -45.5q-57 0 -101.5 31.5t-67.5 85.5q-24 -54 -68.5 -85.5t-101.5 -31.5q-75 0 -122.5 45.5t-47.5 117.5t47.5 118t122.5 46q58 0 101.5 -32.5t68.5 -87.5q24 54 68 87t101 33zM196 203q108 0 149 131q-25 64 -64.5 94.5
t-84.5 30.5q-50 0 -88 -36t-38 -93t37.5 -92t88.5 -35zM535 203q51 0 89 35t38 92t-38 93t-89 36q-45 0 -84.5 -30.5t-64.5 -94.5q41 -131 149 -131z" />
    <glyph glyph-name="integral" unicode="&#x222b;" horiz-adv-x="444" 
d="M104 -172q-26 0 -67 6v43q32 -6 67 -6q94 0 94 109v628q0 152 142 152q26 0 67 -6v-43q-32 6 -67 6q-94 0 -94 -109v-628q0 -152 -142 -152z" />
    <glyph glyph-name="approxequal" unicode="&#x2248;" horiz-adv-x="520" 
d="M26 349q0 59 34 93.5t92 34.5q34 0 64 -13.5t48.5 -29t45.5 -29t56 -13.5q34 0 57 21.5t23 63.5h46q0 -59 -34 -93.5t-92 -34.5q-34 0 -64 13.5t-48.5 29t-45.5 29t-56 13.5q-34 0 -57 -21.5t-23 -63.5h-46zM26 159q0 59 34 93.5t92 34.5q34 0 64 -13.5t49 -29t46 -29
t55 -13.5q34 0 57 21.5t23 63.5h46q0 -59 -34 -93.5t-92 -34.5q-34 0 -64 13.5t-49 29t-46 29t-55 13.5q-34 0 -57 -21.5t-23 -63.5h-46z" />
    <glyph glyph-name="notequal" unicode="&#x2260;" horiz-adv-x="569" 
d="M522 395h-165l-93 -154h258v-46h-286l-69 -115h-51l69 115h-138v46h166l92 154h-258v46h286l69 115h52l-69 -115h137v-46z" />
    <glyph glyph-name="lessequal" unicode="&#x2264;" horiz-adv-x="544" 
d="M497 211l-450 110v54l450 110v-50l-269 -64l-120 -19v-8l120 -19l269 -64v-50zM47 125v46h450v-46h-450z" />
    <glyph glyph-name="greaterequal" unicode="&#x2265;" horiz-adv-x="544" 
d="M47 211v50l269 64l120 19v8l-120 19l-269 64v50l450 -110v-54zM47 125v46h450v-46h-450z" />
    <glyph glyph-name="lozenge" unicode="&#x25ca;" horiz-adv-x="508" 
d="M220 0l-152 348l152 347h68l152 -347l-152 -348h-68zM249 64h10l30 75l92 209l-92 208l-30 75h-10l-30 -75l-93 -208l93 -209z" />
    <glyph glyph-name="heart" unicode="&#x2665;" horiz-adv-x="722" 
d="M361 55q-48 45 -70 66.5t-65.5 66t-66 74.5t-49 69.5t-38 76t-11.5 71.5q2 70 43 113.5t108 43.5q46 0 86 -29t59 -85h9q45 114 152 114q63 0 103 -44.5t40 -109.5q0 -49 -26 -105t-75 -115t-93 -104.5t-106 -102.5z" />
    <glyph glyph-name="fi" unicode="&#xfb01;" horiz-adv-x="507" 
d="M438 500v-500h-48v455h-175l-52 2v-457h-48v457l-51 -2h-51v45h51l52 -2l-1 100q0 162 149 162h66v-43q-27 1 -59 1q-57 0 -82.5 -28t-25.5 -92l-1 -100l52 2h224zM381 692h66v-66h-66v66z" />
    <glyph glyph-name="i.loclTRK" horiz-adv-x="202" 
d="M68 624v67h66v-67h-66zM77 0v500h48v-500h-48z" />
    <glyph glyph-name="f.ss01" horiz-adv-x="370" 
d="M125 0v457l-51 -2h-61v45h61l52 -2l-1 100q0 82 38 122t121 40q32 0 66 -5v-43q-32 6 -66 6q-59 0 -85 -28t-26 -92l-1 -100l52 2h111v-45h-110l-52 2v-457h-48z" />
    <glyph glyph-name="l.ss01" horiz-adv-x="311" 
d="M207 -5q-142 0 -142 152v613h48v-613q0 -109 94 -109q35 0 67 6v-43q-41 -6 -67 -6z" />
    <glyph glyph-name="t.ss01" horiz-adv-x="386" 
d="M275 -1q-76 0 -113 45.5t-37 126.5v286l-55 -2h-57v45h57l57 -2l-2 57v98l45 19h3v-117l-2 -57l57 2h112v-45h-112l-55 2v-283q0 -132 108 -132q31 0 67 5v-43q-45 -5 -73 -5z" />
    <glyph glyph-name="j.ss02" horiz-adv-x="186" 
d="M60 626v66h66v-66h-66zM69 -240v740h48v-740h-48z" />
    <glyph glyph-name="l.ss02" horiz-adv-x="176" 
d="M64 0v760h48v-760h-48z" />
    <glyph glyph-name="a.ss03" horiz-adv-x="535" 
d="M248 -6q-88 0 -148 67t-60 188q0 120 60 188.5t148 68.5q117 0 165 -102h14l-4 53v43h48v-500h-48v42l4 53h-14q-48 -101 -165 -101zM257 40q73 0 119.5 56.5t46.5 152.5q0 98 -45.5 154.5t-120.5 56.5q-72 0 -119 -56t-47 -155t47 -154t119 -55z" />
    <glyph glyph-name="t_t" horiz-adv-x="603" 
d="M230 -5q-55 0 -85 31.5t-30 92.5v338l-55 -2h-47v45h47l56 -2l-1 52v103l45 19h3v-117l-2 -57l57 2h120l56 -2l-1 55v100l45 19h3v-117l-2 -57l57 2h69v-45h-69l-55 2v-336q0 -81 70 -81q21 0 54 5v-43q-38 -7 -57 -7q-55 0 -85 31.5t-30 92.5v338l-55 -2h-120l-55 2
v-336q0 -81 70 -81q21 0 54 5v-43q-38 -7 -57 -7z" />
    <glyph glyph-name="uni0414.loclBGR" horiz-adv-x="797" 
d="M26 -145v192h91l251 648h62l250 -648h91v-192h-45v145h-655v-145h-45zM171 46l89 1h292l74 -1l-27 67l-184 486l-10 40h-12l-10 -40l-186 -489z" />
    <glyph glyph-name="uni041B.loclBGR" horiz-adv-x="633" 
d="M9 0l277 695h62l276 -695h-56l-235 599l-10 40h-12l-10 -40l-236 -599h-56z" />
    <glyph glyph-name="uni0424.loclBGR" horiz-adv-x="822" 
d="M386 -65v30l2 35q-160 4 -253 90t-93 256t93.5 257.5t252.5 91.5l-2 33v32h50v-30l-2 -35q159 -4 252.5 -91.5t93.5 -257.5t-93 -256t-253 -90l2 -33v-32h-50zM388 45l-2 68v488l2 49q-141 -4 -218.5 -81.5t-77.5 -222.5t77.5 -221t218.5 -80zM434 45q141 4 218.5 80
t77.5 221t-77.5 222.5t-218.5 81.5l2 -47v-488z" />
    <glyph glyph-name="uni0414.ss01" horiz-adv-x="797" 
d="M680 47h91v-192h-45v145h-655v-145h-45v192h91l251 648h62zM173 47h451l-209 552l-10 40h-12l-10 -40z" />
    <glyph glyph-name="uni041B.ss01" horiz-adv-x="633" 
d="M9 0l277 695h62l276 -695h-56l-235 599l-10 40h-12l-10 -40l-236 -599h-56z" />
    <glyph glyph-name="uni0432.loclBGR" horiz-adv-x="501" 
d="M263 -5q-199 0 -199 204v308q0 88 49.5 138t138.5 50q80 0 124 -41t44 -116q0 -116 -128 -174v-9q80 -1 127.5 -46.5t47.5 -130.5q0 -87 -53.5 -135t-150.5 -48zM112 340q43 10 75.5 20.5t70 27.5t61.5 37t40.5 49.5t16.5 64.5q0 112 -124 112q-140 0 -140 -148v-163z
M263 39q156 0 156 139q0 73 -37 109t-118 36q-78 0 -152 -30v-92q0 -84 35 -123t116 -39z" />
    <glyph glyph-name="uni0433.loclBGR" horiz-adv-x="473" 
d="M229 -10q-89 0 -144 41t-55 107q0 106 153 127l79 11q102 15 102 83q0 51 -37 78.5t-96 27.5q-54 0 -92.5 -30t-51.5 -85l-46 4q13 71 65.5 113.5t124.5 42.5q79 0 130.5 -41t51.5 -111q0 -108 -147 -128l-80 -11q-108 -15 -108 -85q0 -45 41.5 -72t109.5 -27
q139 0 165 108l49 -5q-16 -70 -73 -109t-141 -39z" />
    <glyph glyph-name="uni0434.loclBGR" horiz-adv-x="535" 
d="M257 -245q-85 0 -144.5 46.5t-71.5 135.5l49 5q7 -70 52.5 -106.5t114.5 -36.5q166 0 166 182v61l1 53h-8q-53 -101 -170 -101q-88 0 -147 67t-59 188q0 120 59.5 188.5t146.5 68.5q114 0 170 -100h8l-1 51v43h48v-519q0 -111 -56.5 -168.5t-157.5 -57.5zM257 40
q74 0 120 54.5t46 154.5q0 101 -45.5 156t-120.5 55q-72 0 -119 -56t-47 -155t47 -154t119 -55z" />
    <glyph glyph-name="uni0436.loclBGR" horiz-adv-x="728" 
d="M652 0l-158 230l-106 1l1 -75v-156h-50v155l1 76l-106 -1l-158 -230h-63l117 166l63 81v6l-63 83l-115 164h63l156 -230l106 -1l-1 86v405h50v-404l-1 -87l106 1l156 230h63l-115 -164l-63 -83v-6l63 -81l117 -166h-63z" />
    <glyph glyph-name="uni0437.loclBGR" horiz-adv-x="465" 
d="M236 -10q-91 0 -145.5 39t-63.5 113l50 5q14 -112 159 -112q69 0 108 28t39 77t-36 76t-102 27h-20v39h20q58 0 89 23t31 66q0 45 -32 69.5t-91 24.5q-124 0 -143 -109l-48 6q11 69 61.5 108.5t129.5 39.5q78 0 124 -38t46 -101q0 -74 -76 -101v-12q43 -10 69 -40.5
t26 -77.5q0 -68 -52.5 -109t-142.5 -41z" />
    <glyph glyph-name="uni0438.loclBGR" 
d="M228 -5q-77 0 -122.5 50t-45.5 149v306h48v-300q0 -89 35.5 -124.5t96.5 -35.5q73 0 126.5 55t53.5 155v250h48v-500h-48v46l4 57h-13q-59 -108 -183 -108z" />
    </font>
</defs>
</svg>
