<?xml version="1.0" standalone="no"?>
<!DOCTYPE svg PUBLIC "-//W3C//DTD SVG 1.1//EN" "http://www.w3.org/Graphics/SVG/1.1/DTD/svg11.dtd" >
<svg xmlns="http://www.w3.org/2000/svg" xmlns:xlink="http://www.w3.org/1999/xlink" version="1.1">
<metadata>
Created by FontForge 20201107 at Fri Feb 28 09:31:30 2020
 By 
Copyright (c) 2020 by Eugene Tantsurin. All rights reserved.
</metadata>
<defs>
<font id="ResistSansText-Medium" horiz-adv-x="575" >
  <font-face 
    font-family="Resist Sans Text Medium"
    font-weight="400"
    font-stretch="normal"
    units-per-em="1000"
    panose-1="0 0 6 0 0 0 0 0 0 0"
    ascent="756"
    descent="-244"
    x-height="500"
    cap-height="695"
    bbox="-738 -405 1271 1126"
    underline-thickness="50"
    underline-position="-150"
    unicode-range="U+0020-FB02"
  />
<missing-glyph horiz-adv-x="500" 
d="M410 760v-1000h-317v1000h317zM333 693h-165v-33h65v-37h-66v-33h166v33h-66v37h66v33zM267 564h-100v-104h166v34h-66v70zM233 530v-36h-33v36h33zM333 433h-166v-33h66v-37h-66v-33h100v70h66v33zM333 373h-33v-66h-133v-34h166v100zM333 251h-100v-56h34v23h33v-47
h-100v80h-33v-113h166v113zM333 78h-166v-113h166v113zM300 45v-47h-100v47h100zM333 -58h-166v-33h70l-70 -47v-33h166v33h-102l70 47h32v33z" />
    <glyph glyph-name="fl" unicode="fl" horiz-adv-x="754" 
d="M673 111q13 0 49 3v-113q-45 -6 -73 -6q-80 0 -124 48t-44 138v464h-118q-116 0 -116 -97l-1 -50l59 2h102v-109h-99l-61 2v-393h-129v393l-58 -2h-50v109h50l59 -2l-1 50q0 96 57 154t164 58h142h2h125v-573q0 -76 65 -76z" />
    <glyph glyph-name="f_f" unicode="ff" horiz-adv-x="699" 
d="M114 0v393l-58 -2h-46v109h46l60 -2l-1 48v38q0 83 47.5 130t133.5 47q36 0 72 -5v-114q-24 2 -49 2q-77 0 -77 -81v-26l-1 -39l66 2h54l74 -2l-1 46v40q0 83 47.5 130t133.5 47q35 0 71 -5v-114q-23 2 -49 2q-76 0 -76 -81v-26l-1 -39l66 2h60v-109h-57l-67 2v-393h-130
v393l-71 -2h-51l-67 2v-393h-129z" />
    <glyph glyph-name="f_i" unicode="fi" horiz-adv-x="638" 
d="M585 500v-500h-127v391h-150l-61 2v-393h-129v393l-58 -2h-50v109h50l59 -2l-1 50q0 97 52.5 154.5t155.5 57.5h89v-115h-64q-104 0 -104 -97l-1 -50l59 2h280zM451 742h139v-130h-139v130z" />
    <glyph glyph-name=".notdef" horiz-adv-x="500" 
d="M410 760v-1000h-317v1000h317zM333 693h-165v-33h65v-37h-66v-33h166v33h-66v37h66v33zM267 564h-100v-104h166v34h-66v70zM233 530v-36h-33v36h33zM333 433h-166v-33h66v-37h-66v-33h100v70h66v33zM333 373h-33v-66h-133v-34h166v100zM333 251h-100v-56h34v23h33v-47
h-100v80h-33v-113h166v113zM333 78h-166v-113h166v113zM300 45v-47h-100v47h100zM333 -58h-166v-33h70l-70 -47v-33h166v33h-102l70 47h32v33z" />
    <glyph glyph-name=".null" horiz-adv-x="0" 
 />
    <glyph glyph-name="nonmarkingreturn" horiz-adv-x="333" 
 />
    <glyph glyph-name="space" unicode=" " horiz-adv-x="267" 
 />
    <glyph glyph-name="exclam" unicode="!" horiz-adv-x="237" 
d="M60 207l-8 305v183h134l-1 -183l-7 -305h-118zM48 -8v142h141v-142h-141z" />
    <glyph glyph-name="quotedbl" unicode="&#x22;" horiz-adv-x="398" 
d="M66 425l-7 183v87h118v-87l-7 -183h-104zM228 426l-7 182v87h118v-87l-7 -182h-104z" />
    <glyph glyph-name="numbersign" unicode="#" horiz-adv-x="894" 
d="M827 323h-158l-32 -141h158l-25 -109h-157l-39 -173h-114l39 173h-165l-39 -173h-114l39 173h-179l24 109h179l32 141h-178l24 109h179l41 183h114l-41 -183h165l41 183h114l-41 -183h158zM523 182l32 141h-165l-32 -141h165z" />
    <glyph glyph-name="dollar" unicode="$" horiz-adv-x="655" 
d="M620 201q0 -86 -64 -142t-174 -65v-73h-87v73q-104 11 -173.5 68t-86.5 155l131 12q18 -105 129 -127v199l-26 4q-96 14 -149 63t-53 127q0 87 63 143.5t165 65.5v70h87v-73q95 -13 152 -71.5t65 -159.5l-119 -10q-14 108 -98 133v-191l41 -6q93 -14 145 -63t52 -132z
M290 416l5 -1v183q-47 -8 -74 -34.5t-27 -68.5q0 -64 96 -79zM382 101q52 7 81.5 34t29.5 65t-24.5 58.5t-80.5 28.5l-6 1v-187z" />
    <glyph glyph-name="percent" unicode="%" horiz-adv-x="933" 
d="M213 331q-76 0 -121.5 52t-45.5 133t45.5 134t121.5 53q77 0 121.5 -52.5t44.5 -134.5t-44.5 -133.5t-121.5 -51.5zM207 0l395 695h127l-395 -695h-127zM213 426q31 0 46.5 25.5t15.5 64.5t-15.5 65.5t-46.5 26.5t-46.5 -26.5t-15.5 -65.5t15.5 -64.5t46.5 -25.5zM720 -8
q-76 0 -121 52t-45 133t45 134t121 53q77 0 122 -52.5t45 -134.5q0 -81 -45 -133t-122 -52zM721 87q30 0 46 26t16 64t-16 65t-46 27q-31 0 -47 -26.5t-16 -65.5q0 -38 16 -64t47 -26z" />
    <glyph glyph-name="ampersand" unicode="&#x26;" horiz-adv-x="756" 
d="M311 -10q-113 0 -181 55t-68 146q0 109 133 183q-88 86 -88 164q0 74 56.5 122.5t142.5 48.5q89 0 143 -48t54 -126q0 -102 -123 -184v-4l137 -138h4q34 46 46 114l126 -11q-23 -124 -86 -190v-4l115 -119h-163l-45 44h-5q-79 -53 -198 -53zM303 426h3q71 56 71 105
q0 32 -20.5 51.5t-49.5 19.5q-30 0 -50.5 -19t-20.5 -52q0 -45 67 -105zM323 106q61 0 103 29l-156 158q-39 -24 -57 -44.5t-18 -46.5q0 -42 36 -69t92 -27z" />
    <glyph glyph-name="quotesingle" unicode="'" horiz-adv-x="237" 
d="M66 426l-7 182v87h118v-87l-7 -182h-104z" />
    <glyph glyph-name="parenleft" unicode="(" horiz-adv-x="273" 
d="M148 -95q-119 184 -119 435q0 252 119 434h105q-109 -214 -109 -434q0 -221 109 -435h-105z" />
    <glyph glyph-name="parenright" unicode=")" horiz-adv-x="273" 
d="M20 -95q109 214 109 435q0 220 -109 434h104q120 -184 120 -434t-120 -435h-104z" />
    <glyph glyph-name="asterisk" unicode="*" horiz-adv-x="313" 
d="M120 502l-56 32l21 37l39 42l-54 -14h-44v65l43 1l53 -12l-37 36l-23 40l56 33l22 -37l16 -51l14 49l23 39l55 -32l-21 -37l-37 -41l54 13l44 -1v-64l-44 -1l-50 12l36 -36l22 -38l-58 -34l-21 36l-15 53l-15 -51z" />
    <glyph glyph-name="plus" unicode="+" horiz-adv-x="572" 
d="M230 73v99l2 92l-190 -1v112h88l101 -3l-2 91v100h113v-97l-3 -94l93 3h98v-112h-95l-95 1l3 -90v-101h-113z" />
    <glyph glyph-name="comma" unicode="," horiz-adv-x="252" 
d="M32 -134l34 261h136l-54 -261h-116z" />
    <glyph glyph-name="hyphen" unicode="-" horiz-adv-x="492" 
d="M51 211v111h390v-111h-390z" />
    <glyph glyph-name="period" unicode="." horiz-adv-x="237" 
d="M48 -8v135h141v-135h-141z" />
    <glyph glyph-name="slash" unicode="/" horiz-adv-x="345" 
d="M9 -150l213 895h114l-213 -895h-114z" />
    <glyph glyph-name="zero" unicode="0" horiz-adv-x="669" 
d="M336 -5q-134 0 -212 91t-78 261t78 263t212 93t211 -93t77 -263t-77 -261t-211 -91zM335 110q76 0 117 61.5t41 176.5t-41 177.5t-117 62.5t-118 -63t-42 -177t42 -176t118 -62z" />
    <glyph glyph-name="one" unicode="1" horiz-adv-x="582" 
d="M58 0v109h86l111 -3l-2 114v154l9 102h-12q-16 -33 -69 -50t-123 -17v109q100 2 153.5 44t60.5 133h111v-474l-3 -115l95 3h67v-109h-484z" />
    <glyph glyph-name="two" unicode="2" horiz-adv-x="633" 
d="M38 0v109l254 161q83 52 122 95.5t39 97.5q0 56 -34.5 89.5t-91.5 33.5q-58 0 -99 -37t-48 -102l-127 10q9 107 86 175t189 68q118 0 186.5 -64.5t68.5 -172.5q0 -149 -202 -267l-132 -79v-11l100 4h232v-110h-543z" />
    <glyph glyph-name="three" unicode="3" horiz-adv-x="633" 
d="M328 -5q-49 0 -95.5 12t-90 36.5t-73.5 68.5t-39 103l132 12q10 -60 56.5 -91.5t106.5 -31.5q67 0 105.5 29t38.5 76q0 48 -38 72t-105 24h-31v110h31q121 0 121 82q0 40 -32 67t-84 27q-57 0 -93 -30t-46 -85l-129 10q16 101 87 157.5t181 56.5t177.5 -57t67.5 -140
q0 -54 -31.5 -88t-76.5 -45v-14q55 -9 92 -48.5t37 -104.5q0 -90 -74.5 -149t-194.5 -59z" />
    <glyph glyph-name="four" unicode="4" horiz-adv-x="667" 
d="M414 0v90l3 75l-101 -3h-279v101l341 432h165v-321l-3 -105l104 1v-108l-102 3l1 -72v-93h-129zM180 267l72 3h73l92 -1l-3 103v133l3 68h-9l-39 -63l-137 -176l-52 -56v-11z" />
    <glyph glyph-name="five" unicode="5" horiz-adv-x="629" 
d="M330 -5q-110 0 -189.5 57.5t-93.5 165.5l129 13q10 -60 52.5 -93t101.5 -33q64 0 101.5 33t37.5 92t-38.5 92t-98.5 33q-83 0 -149 -63l-116 58l54 345h429v-116h-253l-79 1l-7 -51l-11 -64l-17 -67l10 -5q68 60 176 60q94 0 161.5 -58.5t67.5 -166.5q0 -107 -74.5 -170
t-193.5 -63z" />
    <glyph glyph-name="six" unicode="6" horiz-adv-x="637" 
d="M330 -5q-127 0 -205 79t-78 243q0 104 25.5 181t69.5 119.5t94 62.5t107 20q36 0 71 -10t70.5 -31.5t62.5 -64.5t38 -101l-122 -10q-11 57 -46.5 82t-79.5 25q-66 0 -114 -52t-58 -160l11 -4q54 79 169 79t179.5 -63t64.5 -165q0 -98 -72 -164t-187 -66zM324 104
q64 0 101.5 35.5t37.5 90.5t-37 89.5t-101 34.5t-103.5 -34.5t-39.5 -89.5t38.5 -90.5t103.5 -35.5z" />
    <glyph glyph-name="seven" unicode="7" horiz-adv-x="617" 
d="M212 0q2 194 66 323.5t188 247.5l-5 14l-100 -6h-328v116h522l37 -132q-136 -122 -191.5 -243t-58.5 -320h-130z" />
    <glyph glyph-name="eight" unicode="8" horiz-adv-x="634" 
d="M317 -5q-132 0 -205 57.5t-73 143.5q0 66 37 107.5t87 54.5v13q-37 10 -67.5 46t-30.5 91q0 84 68.5 138t183.5 54t183.5 -54t68.5 -138q0 -55 -30.5 -91t-67.5 -46v-13q49 -13 86.5 -54.5t37.5 -107.5q0 -86 -73 -143.5t-205 -57.5zM317 408q60 0 91.5 25.5t31.5 68.5
q0 39 -31 65.5t-92 26.5q-60 0 -91.5 -27t-31.5 -65q0 -43 32 -68.5t91 -25.5zM317 101q72 0 110.5 30t38.5 75q0 47 -38.5 75.5t-110.5 28.5t-110.5 -28.5t-38.5 -75.5q0 -45 38.5 -75t110.5 -30z" />
    <glyph glyph-name="nine" unicode="9" horiz-adv-x="638" 
d="M311 -5q-57 0 -107 18t-92.5 66t-56.5 122l121 10q12 -57 50 -82.5t85 -25.5q69 0 111.5 51t48.5 156l-10 4q-57 -73 -165 -73q-114 0 -181 62.5t-67 161.5q0 103 74 169t193 66q125 0 201 -80t76 -249q0 -102 -23.5 -177.5t-64.5 -117.5t-89 -61.5t-104 -19.5zM313 340
q65 0 104 35t39 90q0 56 -38.5 91t-102.5 35q-65 0 -102 -35t-37 -91q0 -55 37.5 -90t99.5 -35z" />
    <glyph glyph-name="colon" unicode=":" horiz-adv-x="232" 
d="M48 364v136h136v-136h-136zM48 -5v136h136v-136h-136z" />
    <glyph glyph-name="semicolon" unicode=";" horiz-adv-x="255" 
d="M69 364v136h136v-136h-136zM35 -134l34 268h136l-54 -268h-116z" />
    <glyph glyph-name="less" unicode="&#x3c;" horiz-adv-x="545" 
d="M503 124l-461 125v140l461 125v-105l-243 -61l-106 -25v-8l106 -25l243 -62v-104z" />
    <glyph glyph-name="equal" unicode="=" horiz-adv-x="602" 
d="M42 365v112h518v-112h-518zM42 161v112h518v-112h-518z" />
    <glyph glyph-name="greater" unicode="&#x3e;" horiz-adv-x="545" 
d="M42 124v104l244 62l105 25v8l-106 25l-243 61v105l461 -125v-140z" />
    <glyph glyph-name="question" unicode="?" horiz-adv-x="588" 
d="M236 190q0 43 18 76.5t44 56t52.5 44t44.5 51t18 65.5q0 41 -30.5 69.5t-80.5 28.5q-52 0 -88 -33.5t-42 -98.5l-131 10q8 111 80.5 176t179.5 65q110 0 175.5 -60t65.5 -152q0 -50 -18.5 -89t-45 -63.5t-53.5 -45.5t-46.5 -46t-21.5 -54h-121zM226 -8v135h141v-135h-141
z" />
    <glyph glyph-name="at" unicode="@" horiz-adv-x="968" 
d="M484 -151q-202 0 -321.5 120t-119.5 310q0 180 124.5 304.5t315.5 124.5q200 0 321 -119.5t121 -305.5q0 -105 -49.5 -169t-135.5 -64q-66 0 -107.5 32t-44.5 74h-13q-14 -32 -46.5 -51.5t-77.5 -19.5q-75 0 -124.5 53t-49.5 141q0 86 50 140.5t124 54.5q46 0 77.5 -18.5
t43.5 -47.5h10l-5 46v16h110v-223q0 -94 58 -94q66 0 66 126q0 144 -88.5 233t-238.5 89q-140 0 -233.5 -93t-93.5 -229q0 -142 91.5 -233.5t235.5 -91.5q86 0 132 10l-4 -103q-46 -12 -128 -12zM483 176q43 0 68.5 27.5t25.5 75.5q0 47 -25.5 75.5t-68.5 28.5
q-42 0 -68.5 -28t-26.5 -76q0 -47 26.5 -75t68.5 -28z" />
    <glyph glyph-name="A" unicode="A" horiz-adv-x="725" 
d="M4 0l287 695h143l288 -695h-143l-62 163l-114 -2h-81l-114 2l-61 -163h-143zM247 269l75 2h81l75 -2l-21 53l-71 175l-18 71h-11l-18 -71l-71 -175z" />
    <glyph glyph-name="B" unicode="B" horiz-adv-x="653" 
d="M53 0v695h313q243 0 243 -184q0 -57 -31 -95t-79 -49v-12q56 -13 89 -55.5t33 -103.5q0 -96 -65 -146t-187 -50h-316zM181 410l74 2h118q114 0 114 87q0 90 -114 90h-118l-74 2l1 -53v-68zM181 104l73 2h118q123 0 123 100q0 97 -123 97h-118l-73 2l1 -62v-74z" />
    <glyph glyph-name="C" unicode="C" horiz-adv-x="687" 
d="M349 -9q-147 0 -234 96.5t-87 259.5q0 162 87 260t232 98q132 0 212.5 -72.5t91.5 -201.5l-131 -10q-8 82 -54 126t-119 44q-86 0 -137 -66t-51 -177q0 -113 51.5 -178t138.5 -65q76 0 123.5 44.5t57.5 127.5l128 -11q-12 -130 -94.5 -202.5t-214.5 -72.5z" />
    <glyph glyph-name="D" unicode="D" horiz-adv-x="690" 
d="M53 0v695h276q156 0 244.5 -91.5t88.5 -257.5t-88 -256t-245 -90h-276zM181 115l100 2h48q94 0 147.5 58.5t53.5 171.5t-53.5 172t-147.5 59h-48l-100 2l3 -125v-215z" />
    <glyph glyph-name="E" unicode="E" horiz-adv-x="617" 
d="M53 0v695h532v-114h-304l-100 1l3 -66v-43l-3 -59l100 1h251v-113h-251l-100 1l3 -59v-65l-3 -66l100 2h304v-115h-532z" />
    <glyph glyph-name="F" unicode="F" horiz-adv-x="595" 
d="M53 0v695h527v-114h-299l-100 1l3 -66v-51l-3 -57l100 1h261v-113h-261l-100 1l3 -60v-237h-131z" />
    <glyph glyph-name="G" unicode="G" horiz-adv-x="724" 
d="M341 -8q-141 0 -227.5 96.5t-86.5 258.5q0 159 90 258t237 99q134 0 214.5 -73.5t94.5 -203.5l-125 -9q-9 81 -57 127t-126 46q-90 0 -145 -68t-55 -176q0 -109 53.5 -176.5t138.5 -67.5q75 0 123 35.5t62 104.5h-181v103h325v-346h-99l-3 110h-22q-23 -52 -77 -85
t-134 -33z" />
    <glyph glyph-name="H" unicode="H" horiz-adv-x="694" 
d="M53 0v695h131v-189l-3 -98l98 3h136l98 -3l-3 98v189h132v-695h-132v218l3 82l-99 -3h-135l-98 3l3 -83v-217h-131z" />
    <glyph glyph-name="I" unicode="I" horiz-adv-x="236" 
d="M53 0v695h131v-695h-131z" />
    <glyph glyph-name="J" unicode="J" horiz-adv-x="423" 
d="M12 -5v119q125 0 179 36.5t54 134.5v410h130v-441q0 -77 -28 -130t-81 -80t-113.5 -38t-140.5 -11z" />
    <glyph glyph-name="K" unicode="K" horiz-adv-x="701" 
d="M53 0v695h131v-216l-7 -101h14l60 74l267 243h180l-321 -286l316 -409h-166l-247 323l-96 -87v-236h-131z" />
    <glyph glyph-name="L" unicode="L" horiz-adv-x="573" 
d="M53 0v695h131v-452l-3 -131l131 3h243v-115h-502z" />
    <glyph glyph-name="M" unicode="M" horiz-adv-x="883" 
d="M53 0v695h154l203 -487l26 -92h12l25 92l203 487h155v-695h-130v383l6 92h-12l-25 -94l-162 -381h-133l-162 381l-25 94h-11l5 -92v-383h-129z" />
    <glyph glyph-name="N" unicode="N" horiz-adv-x="711" 
d="M53 0v695h167l247 -419l52 -108h16l-6 109v418h130v-695h-168l-263 444l-36 83h-16l6 -109v-418h-129z" />
    <glyph glyph-name="O" unicode="O" horiz-adv-x="708" 
d="M356 -10q-157 0 -242.5 97t-85.5 260q0 161 86 259.5t242 98.5q155 0 240 -98.5t85 -259.5q0 -163 -84.5 -260t-240.5 -97zM356 103q94 0 143 67t49 178q0 108 -49.5 175.5t-142.5 67.5q-95 0 -145.5 -67.5t-50.5 -175.5q0 -111 50.5 -178t145.5 -67z" />
    <glyph glyph-name="P" unicode="P" horiz-adv-x="623" 
d="M53 0v695h296q120 0 188.5 -55.5t68.5 -165.5t-68 -165t-189 -55h-74l-94 2l3 -85v-171h-131zM182 365l93 2h87q58 0 88.5 29t30.5 78q0 48 -31 78t-88 30h-87l-93 1l2 -99v-19z" />
    <glyph glyph-name="Q" unicode="Q" horiz-adv-x="699" 
d="M602 -9l70 -77l-97 -63l-58 63l-72 94q-43 -13 -97 -13q-151 0 -235.5 96t-84.5 256q0 162 84.5 260t235.5 98t234.5 -98t83.5 -260q0 -199 -126 -294zM160 348q0 -109 49 -174t139 -65t138 64.5t48 174.5q0 111 -48 177t-138 66t-139 -66t-49 -177z" />
    <glyph glyph-name="R" unicode="R" horiz-adv-x="659" 
d="M53 0v695h321q105 0 171.5 -50.5t66.5 -149.5q0 -79 -53 -126.5t-141 -48.5v-13q64 -6 103.5 -36.5t61.5 -96.5l56 -174h-133l-49 156q-34 114 -139 114h-48l-88 1l2 -87v-184h-131zM182 377l96 2h75q135 0 135 103t-135 103h-75l-96 2l2 -77v-53z" />
    <glyph glyph-name="S" unicode="S" horiz-adv-x="653" 
d="M341 -10q-124 0 -206.5 59t-100.5 169l131 12q12 -60 59.5 -93.5t117.5 -33.5t109.5 26t39.5 70q0 39 -25.5 59t-87.5 29l-123 18q-98 14 -151 63t-53 127q0 92 74.5 151t190.5 59q118 0 192 -59t80 -177l-124 -9q-7 66 -46 99.5t-102 33.5q-60 0 -98 -27.5t-38 -70.5
q0 -66 97 -81l136 -20q207 -29 207 -195q0 -95 -76 -152t-203 -57z" />
    <glyph glyph-name="T" unicode="T" horiz-adv-x="640" 
d="M254 0v448l3 135l-111 -3h-134v115h616v-115h-135l-110 3l2 -135v-448h-131z" />
    <glyph glyph-name="U" unicode="U" horiz-adv-x="705" 
d="M355 -10q-141 0 -224 77t-83 220v408h131v-407q0 -90 47 -135.5t129 -45.5q79 0 125 45.5t46 135.5v407h132v-408q0 -143 -82 -220t-221 -77z" />
    <glyph glyph-name="V" unicode="V" horiz-adv-x="706" 
d="M276 0l-269 695h141l178 -487l22 -82h11l22 82l178 487h141l-269 -695h-155z" />
    <glyph glyph-name="W" unicode="W" horiz-adv-x="1061" 
d="M211 0l-203 695h136l131 -467l13 -76h12l18 76l146 467h133l146 -467l18 -76h12l13 76l131 467h136l-204 -695h-155l-139 419l-19 88h-12l-18 -88l-139 -419h-156z" />
    <glyph glyph-name="X" unicode="X" horiz-adv-x="716" 
d="M9 0l268 348l-266 347h164l109 -147l68 -109h13l66 107l109 149h166l-266 -348l267 -347h-164l-113 152l-65 105h-13l-64 -104l-114 -153h-165z" />
    <glyph glyph-name="Y" unicode="Y" horiz-adv-x="738" 
d="M304 0v251l-296 444h157l152 -236l47 -96h13l45 96l150 236h158l-295 -444v-251h-131z" />
    <glyph glyph-name="Z" unicode="Z" horiz-adv-x="619" 
d="M19 0v107l363 418l58 41v14h-415v115h574v-105l-365 -420l-58 -41v-14h426v-115h-583z" />
    <glyph glyph-name="bracketleft" unicode="[" horiz-adv-x="294" 
d="M274 651h-124v-637h124v-99h-245v835h245v-99z" />
    <glyph glyph-name="backslash" unicode="\" horiz-adv-x="318" 
d="M222 -150l-213 895h114l213 -895h-114z" />
    <glyph glyph-name="bracketright" unicode="]" horiz-adv-x="294" 
d="M265 750v-835h-245v99h124v637h-124v99h245z" />
    <glyph glyph-name="asciicircum" unicode="^" horiz-adv-x="468" 
d="M46 416l118 279h139l119 -279h-116l-60 129l-9 51h-8l-9 -52l-58 -128h-116z" />
    <glyph glyph-name="underscore" unicode="_" horiz-adv-x="687" 
d="M51 -119v111h585v-111h-585z" />
    <glyph glyph-name="grave" unicode="`" horiz-adv-x="195" 
d="M96 594l-96 156h111l84 -156h-99z" />
    <glyph glyph-name="a" unicode="a" horiz-adv-x="555" 
d="M210 -10q-77 0 -123.5 37.5t-46.5 102.5q0 32 11.5 57.5t27 42t45 27.5t52 16.5t62.5 8.5t62 3.5t65 0.5h3h3h4v38q0 37 -22.5 60t-63.5 23q-44 0 -72 -25t-32 -69l-122 7q7 89 70.5 139.5t155.5 50.5q96 0 155 -51t59 -148v-311h-97l-12 83h-11q-41 -93 -173 -93z
M245 85q58 0 94 31t36 81v14q-32 0 -50.5 -0.5t-47 -2.5t-45 -6.5t-33.5 -12t-24.5 -19.5t-7.5 -29q0 -26 20.5 -41t57.5 -15z" />
    <glyph glyph-name="b" unicode="b" horiz-adv-x="578" 
d="M343 -6q-100 0 -156 94h-14l8 -66v-22h-128v760h128v-286l-8 -62h14q51 94 156 94q90 0 148.5 -69.5t58.5 -186.5q0 -115 -59 -185.5t-148 -70.5zM301 100q53 0 85.5 41t32.5 109t-32.5 109t-85.5 41q-55 0 -87 -41t-32 -109t32.5 -109t86.5 -41z" />
    <glyph glyph-name="c" unicode="c" horiz-adv-x="526" 
d="M272 -10q-115 0 -180.5 73t-65.5 187t65.5 187t179.5 73q99 0 160.5 -53.5t69.5 -145.5l-119 -10q-7 51 -37 77.5t-75 26.5q-57 0 -88.5 -41.5t-31.5 -113.5q0 -69 32.5 -111.5t88.5 -42.5q99 0 113 104l120 -10q-8 -92 -70.5 -146t-161.5 -54z" />
    <glyph glyph-name="d" unicode="d" horiz-adv-x="578" 
d="M240 -6q-93 0 -152 69t-59 186q0 115 59.5 186t151.5 71q53 0 92 -27t59 -67h14l-8 66v282h129v-760h-129v25l8 59h-14q-19 -39 -58 -64.5t-93 -25.5zM277 100q54 0 86.5 41t32.5 108q0 68 -32.5 109.5t-86.5 41.5q-53 0 -85.5 -41t-32.5 -110q0 -68 32.5 -108.5
t85.5 -40.5z" />
    <glyph glyph-name="e" unicode="e" horiz-adv-x="538" 
d="M275 -10q-110 0 -179 71t-69 188t65.5 189t177.5 72q107 0 171.5 -71.5t64.5 -184.5q0 -31 -2 -44h-288l-66 2q6 -59 40.5 -90.5t84.5 -31.5q41 0 71.5 18.5t40.5 53.5l115 -12q-22 -78 -83 -119t-144 -41zM150 295l69 2h100l68 -2q-6 56 -38.5 86t-78.5 30
q-47 0 -80 -29.5t-40 -86.5z" />
    <glyph glyph-name="f" unicode="f" horiz-adv-x="380" 
d="M114 0v393l-58 -2h-46v109h46l59 -2v86q0 83 47.5 130t133.5 47q36 0 72 -5v-114q-24 2 -49 2q-77 0 -77 -81v-26l-1 -39l66 2h61v-109h-58l-67 2v-393h-129z" />
    <glyph glyph-name="g" unicode="g" horiz-adv-x="582" 
d="M274 -245q-94 0 -162 49.5t-83 143.5l113 13q10 -47 45 -73.5t87 -26.5q60 0 93.5 34.5t33.5 99.5v30l8 59h-13q-17 -40 -56 -65t-96 -25q-93 0 -152 69t-59 186q0 115 59.5 186t151.5 71q99 0 152 -94h13l-8 66v22h129v-493q0 -119 -70 -185.5t-186 -66.5zM281 100
q54 0 86.5 40.5t32.5 108.5q0 69 -32 110t-87 41q-53 0 -85 -41t-32 -110q0 -68 32 -108.5t85 -40.5z" />
    <glyph glyph-name="h" unicode="h" 
d="M53 0v760h129v-284l-9 -64h14q60 94 169 94q81 0 126 -52t45 -149v-305h-128v278q0 117 -98 117q-53 0 -86 -39.5t-33 -114.5v-241h-129z" />
    <glyph glyph-name="i" unicode="i" horiz-adv-x="234" 
d="M48 604v138h138v-138h-138zM53 0v500h129v-500h-129z" />
    <glyph glyph-name="j" unicode="j" horiz-adv-x="348" 
d="M162 604v138h139v-138h-139zM94 -245q-40 0 -88 4v115q44 -4 67 -4q39 0 67 28t28 95v507h128v-504q0 -114 -52.5 -177.5t-149.5 -63.5z" />
    <glyph glyph-name="k" unicode="k" horiz-adv-x="568" 
d="M53 0v760h129v-345l-11 -108h13l197 193h169l-211 -196l223 -300v-4h-160l-156 221l-64 -62v-159h-129z" />
    <glyph glyph-name="l" unicode="l" horiz-adv-x="326" 
d="M221 -5q-80 0 -124 48t-44 138v579h127v-573q0 -76 65 -76q15 0 49 3v-113q-44 -6 -73 -6z" />
    <glyph glyph-name="m" unicode="m" horiz-adv-x="852" 
d="M53 0v500h129v-23l-10 -67h15q33 95 135 95q101 0 137 -95h15q44 95 154 95q76 0 126 -51t50 -167v-287h-129v280q0 115 -85 115q-39 0 -68 -28.5t-29 -99.5v-267h-129v280q0 115 -86 115q-38 0 -67 -31.5t-29 -102.5v-261h-129z" />
    <glyph glyph-name="n" unicode="n" 
d="M53 0v500h129v-24l-9 -64h14q60 94 169 94q81 0 126 -52t45 -149v-305h-128v278q0 117 -98 117q-53 0 -86 -39.5t-33 -114.5v-241h-129z" />
    <glyph glyph-name="o" unicode="o" horiz-adv-x="540" 
d="M271 -10q-112 0 -178.5 72t-66.5 187q0 116 66.5 188.5t178.5 72.5t177.5 -72.5t65.5 -188.5q0 -115 -65.5 -187t-177.5 -72zM271 96q55 0 85.5 41t30.5 113t-30.5 113t-85.5 41q-56 0 -87.5 -41.5t-31.5 -112.5t31.5 -112.5t87.5 -41.5z" />
    <glyph glyph-name="p" unicode="p" horiz-adv-x="578" 
d="M53 -240v740h128v-26l-8 -62h14q22 42 62 68t94 26q89 0 147 -69.5t58 -186.5q0 -115 -58 -185.5t-147 -70.5q-54 0 -94 26.5t-62 67.5h-14l8 -66v-262h-128zM301 100q53 0 85.5 41t32.5 109t-32.5 109t-85.5 41q-55 0 -87 -41t-32 -109t32.5 -109t86.5 -41z" />
    <glyph glyph-name="q" unicode="q" horiz-adv-x="578" 
d="M397 -240v262l8 62h-14q-19 -39 -58 -64.5t-93 -25.5q-93 0 -152 70t-59 186q0 117 60 186.5t153 69.5q99 0 149 -94h14l-8 62v26h129v-740h-129zM277 100q54 0 86.5 41t32.5 109t-32 109t-87 41q-53 0 -85.5 -41t-32.5 -109t32.5 -109t85.5 -41z" />
    <glyph glyph-name="r" unicode="r" horiz-adv-x="415" 
d="M53 0v500h129v-26l-8 -63h14q15 41 56.5 68.5t109.5 27.5q17 0 33 -2v-119q-33 3 -54 3q-151 0 -151 -173v-216h-129z" />
    <glyph glyph-name="s" unicode="s" horiz-adv-x="499" 
d="M258 -10q-99 0 -158 44t-72 113l121 12q18 -70 109 -70q44 0 69.5 16.5t25.5 42.5q0 44 -63 52l-95 10q-161 18 -161 135q0 69 58 117t150 48q94 0 147.5 -46t59.5 -118l-112 -8q-4 33 -28 53t-67 20q-42 0 -65 -18.5t-23 -44.5q0 -40 56 -47l99 -11q166 -18 166 -138
q0 -69 -57 -115.5t-160 -46.5z" />
    <glyph glyph-name="t" unicode="t" horiz-adv-x="401" 
d="M292 -5q-86 0 -131.5 48t-45.5 138v214l-55 -4h-47v109h47l58 -3l-3 47v105h126v-105l-2 -47l50 3h77v-109h-77l-48 4v-207q0 -76 75 -76q27 0 50 3v-114q-44 -6 -74 -6z" />
    <glyph glyph-name="u" unicode="u" 
d="M222 -6q-82 0 -128 54.5t-46 156.5v295h128v-268q0 -127 98 -127q53 0 86 39.5t33 114.5v241h130v-500h-130v24l9 64h-15q-54 -94 -165 -94z" />
    <glyph glyph-name="v" unicode="v" horiz-adv-x="527" 
d="M186 0l-182 500h139l103 -316l13 -62h11l13 63l101 315h139l-182 -500h-155z" />
    <glyph glyph-name="w" unicode="w" horiz-adv-x="826" 
d="M155 0l-151 500h138l82 -320l8 -54h11l10 54l97 320h126l98 -320l10 -54h11l6 54l82 320h139l-151 -500h-155l-85 271l-10 59h-14l-10 -59l-87 -271h-155z" />
    <glyph glyph-name="x" unicode="x" horiz-adv-x="541" 
d="M10 0v3l182 247l-182 247v3h156l73 -114l27 -56h9l29 55l71 115h157v-3l-182 -247l182 -247v-3h-157l-74 121l-26 52h-9l-25 -52l-75 -121h-156z" />
    <glyph glyph-name="y" unicode="y" horiz-adv-x="552" 
d="M121 -240q-53 0 -91 3v115q27 -3 67 -3q43 0 66.5 16t39.5 53l18 43l-212 513h144l102 -285l20 -87h13l20 87l94 285h141l-214 -563q-37 -98 -85.5 -137.5t-122.5 -39.5z" />
    <glyph glyph-name="z" unicode="z" horiz-adv-x="498" 
d="M22 0v93l247 268l33 20v12h-274v107h436v-94l-245 -265l-33 -21v-12h282v-108h-446z" />
    <glyph glyph-name="braceleft" unicode="{" horiz-adv-x="370" 
d="M286 -91q-78 0 -126 45.5t-48 122.5v104q0 54 -15.5 78t-67.5 24v99q52 0 67.5 24t15.5 78v104q0 76 49 122t125 46q39 0 64 -4v-96q-61 0 -89 -15t-28 -60v-96q0 -60 -20.5 -98t-59.5 -45v-16q39 -9 59.5 -47.5t20.5 -98.5v-96q0 -43 29 -59t88 -16v-96q-24 -4 -64 -4z
" />
    <glyph glyph-name="bar" unicode="|" horiz-adv-x="235" 
d="M53 -166v891h131v-891h-131z" />
    <glyph glyph-name="braceright" unicode="}" horiz-adv-x="370" 
d="M84 -91q-40 0 -64 4v96q59 0 88 16t29 59v96q0 60 20.5 98.5t59.5 47.5v16q-39 7 -59.5 45t-20.5 98v96q0 45 -28 60t-89 15v96q25 4 64 4q76 0 125 -46t49 -122v-104q0 -54 15.5 -78t67.5 -24v-99q-52 0 -67.5 -24t-15.5 -78v-104q0 -77 -48 -122.5t-126 -45.5z" />
    <glyph glyph-name="asciitilde" unicode="~" horiz-adv-x="596" 
d="M32 156q0 88 44.5 131.5t112.5 43.5q51 0 112 -33.5t94 -33.5q65 0 65 74h105q0 -87 -45.5 -131t-112.5 -44q-50 0 -113.5 33.5t-92.5 33.5q-31 0 -47.5 -19.5t-16.5 -54.5h-105z" />
    <glyph glyph-name="uni00A0" unicode="&#xa0;" horiz-adv-x="267" 
 />
    <glyph glyph-name="exclamdown" unicode="&#xa1;" horiz-adv-x="237" 
d="M48 358v142h141v-142h-141zM48 -203l1 183l7 285h125l8 -285v-183h-141z" />
    <glyph glyph-name="cent" unicode="&#xa2;" horiz-adv-x="525" 
d="M503 283q-10 -79 -60.5 -130.5t-131.5 -61.5v-95h-85v95q-93 15 -146 84.5t-53 167.5q0 99 52.5 169t146.5 84v97h85v-97q80 -11 129.5 -62.5t58.5 -129.5l-114 -10q-15 69 -74 92v-285q59 20 76 91zM143 343q0 -51 22.5 -88.5t60.5 -52.5v285q-39 -14 -61 -52t-22 -92z
" />
    <glyph glyph-name="sterling" unicode="&#xa3;" horiz-adv-x="637" 
d="M166 120v-5h426v-115h-554v115q80 86 91 138h-89v104h75q-1 2 -6.5 15.5t-7 18t-5.5 16t-5.5 18.5t-4 17.5t-3.5 20.5t-1 20q0 86 64 151.5t190 65.5q124 0 188.5 -67t72.5 -171l-123 -17q-17 141 -138 141q-61 0 -92 -32.5t-31 -80.5q0 -15 3 -32.5t5.5 -25.5t10 -31.5
t8.5 -26.5h230v-104h-216q-12 -78 -88 -133z" />
    <glyph glyph-name="currency" unicode="&#xa4;" horiz-adv-x="593" 
d="M102 77l-80 79l78 77q-29 52 -29.5 113.5t29.5 114.5l-78 78l79 79l78 -77q52 30 113.5 30.5t116.5 -30.5l77 77l78 -79l-77 -78q31 -53 31 -114t-31 -113l77 -78l-79 -79l-77 78q-52 -30 -114 -30t-114 29zM221 276q28 -29 70.5 -29t72.5 30q29 30 29 71t-30 71
q-29 29 -70 29t-72 -29q-29 -29 -29 -71t29 -72z" />
    <glyph glyph-name="yen" unicode="&#xa5;" horiz-adv-x="739" 
d="M730 695l-247 -373h152v-78h-199v-34h199v-78h-199v-132h-131v132h-198v78h198v34h-198v78h151l-249 373h156l155 -241l48 -83h6l46 83l153 241h157z" />
    <glyph glyph-name="brokenbar" unicode="&#xa6;" horiz-adv-x="235" 
d="M53 364v361h131v-361h-131zM53 -166v361h131v-361h-131z" />
    <glyph glyph-name="section" unicode="&#xa7;" horiz-adv-x="518" 
d="M267 -23q-97 0 -155 48t-65 124l111 8q4 -35 32.5 -56.5t76.5 -21.5q42 0 66 16t24 41q0 21 -15 32.5t-50 16.5l-90 13q-71 9 -118 44.5t-47 95.5q0 75 69 114v10q-65 27 -65 101q0 69 56.5 114.5t151.5 45.5q94 0 151 -48.5t62 -123.5l-112 -8q-4 36 -30 57t-71 21
q-41 0 -64 -16.5t-23 -40.5q0 -21 14.5 -32t49.5 -17l91 -13q72 -9 118.5 -43t46.5 -97q0 -40 -19.5 -70t-48.5 -44v-10q63 -29 63 -101q0 -71 -57.5 -115.5t-152.5 -44.5zM312 285q48 28 48 65q0 48 -79 56l-78 9q-45 -28 -45 -65q0 -47 79 -56z" />
    <glyph glyph-name="dieresis" unicode="&#xa8;" horiz-adv-x="310" 
d="M0 612v121h122v-121h-122zM188 612v121h122v-121h-122z" />
    <glyph glyph-name="copyright" unicode="&#xa9;" horiz-adv-x="809" 
d="M404 -35q-163 0 -271.5 110.5t-108.5 269.5t108.5 269.5t271.5 110.5t271.5 -110.5t108.5 -269.5t-108.5 -269.5t-271.5 -110.5zM404 55q125 0 205 84t80 206t-80 206t-205 84q-126 0 -205 -83.5t-79 -206.5t79 -206.5t205 -83.5zM408 138q-86 0 -137 56t-51 151
q0 97 50.5 154t135.5 57q75 0 121.5 -42.5t56.5 -118.5l-79 -6q-7 47 -33 72.5t-66 25.5q-49 0 -78 -38t-29 -103q0 -64 29.5 -101.5t79.5 -37.5q41 0 68 25.5t34 71.5l78 -6q-10 -75 -57.5 -117.5t-122.5 -42.5z" />
    <glyph glyph-name="ordfeminine" unicode="&#xaa;" horiz-adv-x="540" 
d="M189 236q-70 0 -111 33t-41 89q0 46 30.5 75.5t73.5 41.5t86 19t73.5 15.5t30.5 22.5v11q0 24 -20.5 43t-56.5 19q-41 0 -67 -25t-29 -69l-111 8q7 88 66 135.5t141 47.5q92 0 144 -50t52 -139l1 -120q0 -36 16 -45t51 -8v-97q-19 -2 -39 -2q-45 0 -72.5 25.5t-33.5 65.5
h-4q-14 -40 -63 -68t-117 -28zM214 324q52 0 84.5 30.5t32.5 79.5v17q-16 -10 -48 -17.5t-58.5 -12t-47 -18.5t-20.5 -36q0 -43 57 -43z" />
    <glyph glyph-name="guillemotleft" unicode="&#xab;" horiz-adv-x="605" 
d="M225 46l-188 201v6l188 201h129l-191 -201v-6l191 -201h-129zM439 46l-188 201v6l188 201h129l-191 -201v-6l191 -201h-129z" />
    <glyph glyph-name="logicalnot" unicode="&#xac;" horiz-adv-x="509" 
d="M348 85v170h-303v108h420v-278h-117z" />
    <glyph glyph-name="uni00AD" unicode="&#xad;" horiz-adv-x="492" 
d="M44 211v111h389v-111h-389z" />
    <glyph glyph-name="registered" unicode="&#xae;" horiz-adv-x="806" 
d="M403 -35q-163 0 -271.5 110.5t-108.5 269.5t108.5 269.5t271.5 110.5t271.5 -110.5t108.5 -269.5t-108.5 -269.5t-271.5 -110.5zM403 55q125 0 204.5 84t79.5 206t-79.5 206t-204.5 84q-126 0 -205.5 -83.5t-79.5 -206.5t79.5 -206.5t205.5 -83.5zM246 139v417h172
q156 0 156 -116q0 -50 -29.5 -74.5t-75.5 -27.5v-5q51 -10 72 -60q12 -30 38 -134h-87q-6 38 -11 60t-15 50t-27.5 41.5t-41.5 13.5h-23l-43 1l1 -66v-100h-86zM333 377l49 1h38q30 0 47 13.5t17 37.5q0 51 -64 51h-38l-49 2v-105z" />
    <glyph glyph-name="macron" unicode="&#xaf;" horiz-adv-x="302" 
d="M0 624v97h302v-97h-302z" />
    <glyph glyph-name="degree" unicode="&#xb0;" horiz-adv-x="363" 
d="M181 428q-58 0 -99 42t-41 99q0 59 40.5 99.5t99.5 40.5t100 -41t41 -99q0 -57 -41.5 -99t-99.5 -42zM181 514q23 0 39 16t16 39t-16 39t-39 16t-38.5 -16t-15.5 -39t16 -39t38 -16z" />
    <glyph glyph-name="plusminus" unicode="&#xb1;" horiz-adv-x="572" 
d="M342 419h188v-112h-187v-149h-113v149h-188v112h187v149h113v-149zM42 16v112h488v-112h-488z" />
    <glyph glyph-name="uni00B2" unicode="&#xb2;" horiz-adv-x="375" 
d="M30 379v66l144 89q90 54 90 108q0 28 -18.5 46t-50.5 18q-33 0 -55.5 -19.5t-26.5 -52.5l-75 5q6 61 50 100t108 39q67 0 105.5 -36.5t38.5 -98.5q0 -48 -29.5 -84t-82.5 -68l-69 -43v-2l57 2h124v-69h-310z" />
    <glyph glyph-name="uni00B3" unicode="&#xb3;" horiz-adv-x="373" 
d="M189 376q-60 0 -108.5 30.5t-59.5 94.5l76 8q6 -31 32 -48.5t60 -17.5q37 0 58.5 15.5t21.5 39.5q0 54 -80 54h-17v64h17q68 0 68 47q0 19 -18 33.5t-47 14.5q-66 0 -79 -62l-74 7q9 56 50.5 89t103.5 33t101.5 -33t39.5 -78q0 -60 -64 -79v-4q32 -8 53.5 -30t21.5 -59
q0 -52 -43.5 -85.5t-112.5 -33.5z" />
    <glyph glyph-name="acute" unicode="&#xb4;" horiz-adv-x="214" 
d="M0 594l104 156h110l-113 -156h-101z" />
    <glyph glyph-name="uni00B5" unicode="&#xb5;" horiz-adv-x="624" 
d="M52 -204v704h122v-266q0 -69 29.5 -99t74.5 -30q53 0 89 40.5t36 117.5v237h130v-334q0 -41 18 -52.5t54 -10.5v-100q-29 -3 -50 -3q-87 0 -106 84h-13q-44 -90 -148 -90q-72 0 -104 44h-10v-242h-122z" />
    <glyph glyph-name="paragraph" unicode="&#xb6;" horiz-adv-x="673" 
d="M276 695h356v-861h-132v752l-92 -1v-751h-132v406q-96 0 -165.5 67t-69.5 161q0 93 69.5 160t165.5 67z" />
    <glyph glyph-name="periodcentered" unicode="&#xb7;" horiz-adv-x="237" 
d="M48 260v142h141v-142h-141z" />
    <glyph glyph-name="cedilla" unicode="&#xb8;" horiz-adv-x="237" 
d="M90 -227q-38 0 -90 5v63q33 -3 78 -3q75 0 75 35q0 39 -87 41v109l72 -7v-58q100 -11 100 -89q0 -45 -37.5 -70.5t-110.5 -25.5z" />
    <glyph glyph-name="uni00B9" unicode="&#xb9;" horiz-adv-x="334" 
d="M29 379v70h48l65 -1l-1 69v60l3 67h-3q-24 -34 -117 -34v63q120 3 127 102h66v-258l-2 -69l68 1h22v-70h-276z" />
    <glyph glyph-name="ordmasculine" unicode="&#xba;" horiz-adv-x="493" 
d="M247 239q-101 0 -161 64t-60 165q0 102 60 167t161 65t160.5 -65t59.5 -167t-59 -165.5t-161 -63.5zM247 338q49 0 75.5 35.5t26.5 95.5t-27 96t-75 36q-49 0 -76.5 -36t-27.5 -96q0 -59 27.5 -95t76.5 -36z" />
    <glyph glyph-name="guillemotright" unicode="&#xbb;" horiz-adv-x="605" 
d="M37 46l191 201v6l-191 201h129l188 -201v-6l-188 -201h-129zM251 46l190 201v6l-190 201h129l188 -201v-6l-188 -201h-129z" />
    <glyph glyph-name="onequarter" unicode="&#xbc;" horiz-adv-x="979" 
d="M238 -30l450 755h90l-450 -755h-90zM29 299v70h48l65 -1l-1 69v60l3 67h-3q-24 -34 -117 -34v63q120 3 127 102h66v-258l-2 -69l68 1h22v-70h-276zM823 -1v47l1 43l-57 -2h-159v62l194 246h99v-183l-2 -60l59 1v-66l-58 2l1 -41v-49h-78zM696 151l42 2h34l52 -1l-1 56v70
l2 42h-6l-24 -35l-72 -95l-27 -33v-6z" />
    <glyph glyph-name="onehalf" unicode="&#xbd;" horiz-adv-x="1000" 
d="M238 -30l450 755h90l-450 -755h-90zM29 299v70h48l65 -1l-1 69v60l3 67h-3q-24 -34 -117 -34v63q120 3 127 102h66v-258l-2 -69l68 1h22v-70h-276zM655 -1v66l144 89q90 54 90 108q0 28 -18.5 46t-50.5 18q-33 0 -55.5 -19.5t-26.5 -52.5l-75 5q6 61 50 100t108 39
q67 0 105.5 -36.5t38.5 -98.5q0 -48 -29.5 -84t-82.5 -68l-69 -43v-2l57 2h124v-69h-310z" />
    <glyph glyph-name="threequarters" unicode="&#xbe;" horiz-adv-x="960" 
d="M220 -30l450 755h90l-450 -755h-90zM189 296q-60 0 -108.5 30.5t-59.5 94.5l76 8q6 -31 32 -48.5t60 -17.5q37 0 58.5 15.5t21.5 39.5q0 54 -80 54h-17v64h17q68 0 68 47q0 19 -18 33.5t-47 14.5q-66 0 -79 -62l-74 7q9 56 50.5 89t103.5 33t101.5 -33t39.5 -78
q0 -60 -64 -79v-4q32 -8 53.5 -30t21.5 -59q0 -52 -43.5 -85.5t-112.5 -33.5zM804 -1v47l1 43l-57 -2h-159v62l194 246h99v-183l-2 -60l59 1v-66l-58 2l1 -41v-49h-78zM677 151l42 2h34l52 -1l-1 56v70l2 42h-6l-24 -35l-72 -95l-27 -33v-6z" />
    <glyph glyph-name="questiondown" unicode="&#xbf;" horiz-adv-x="620" 
d="M239 365v135h140v-135h-140zM303 -208q-114 0 -184.5 63.5t-70.5 162.5q0 50 20.5 88.5t49.5 61.5t58.5 42t50.5 42t22 50h120q0 -43 -19.5 -77t-47.5 -56t-56 -42.5t-47.5 -47.5t-19.5 -61q0 -46 34 -76.5t90 -30.5q58 0 97 34t49 100l131 -9q-10 -113 -86.5 -178.5
t-190.5 -65.5z" />
    <glyph glyph-name="Agrave" unicode="&#xc0;" horiz-adv-x="725" 
d="M315 789l-96 156h111l84 -156h-99zM4 0l287 695h143l288 -695h-143l-62 163l-114 -2h-81l-114 2l-61 -163h-143zM247 269l75 2h81l75 -2l-21 53l-71 175l-18 71h-11l-18 -71l-71 -175z" />
    <glyph glyph-name="Aacute" unicode="&#xc1;" horiz-adv-x="725" 
d="M312 789l104 156h110l-113 -156h-101zM4 0l287 695h143l288 -695h-143l-62 163l-114 -2h-81l-114 2l-61 -163h-143zM247 269l75 2h81l75 -2l-21 53l-71 175l-18 71h-11l-18 -71l-71 -175z" />
    <glyph glyph-name="Acircumflex" unicode="&#xc2;" horiz-adv-x="725" 
d="M196 792l110 151h113l110 -151h-107l-51 92h-16l-51 -92h-108zM4 0l287 695h143l288 -695h-143l-62 163l-114 -2h-81l-114 2l-61 -163h-143zM247 269l75 2h81l75 -2l-21 53l-71 175l-18 71h-11l-18 -71l-71 -175z" />
    <glyph glyph-name="Atilde" unicode="&#xc3;" horiz-adv-x="725" 
d="M207 786q0 81 24.5 121.5t68.5 40.5q23 0 42 -12.5t29.5 -28t23 -28t22.5 -12.5q35 0 35 81h66q0 -79 -26.5 -120.5t-68.5 -41.5q-24 0 -43 11t-29 25t-22 25t-23 11q-31 0 -31 -72h-68zM4 0l287 695h143l288 -695h-143l-62 163l-114 -2h-81l-114 2l-61 -163h-143z
M247 269l75 2h81l75 -2l-21 53l-71 175l-18 71h-11l-18 -71l-71 -175z" />
    <glyph glyph-name="Adieresis" unicode="&#xc4;" horiz-adv-x="725" 
d="M208 807v121h122v-121h-122zM396 807v121h122v-121h-122zM4 0l287 695h143l288 -695h-143l-62 163l-114 -2h-81l-114 2l-61 -163h-143zM247 269l75 2h81l75 -2l-21 53l-71 175l-18 71h-11l-18 -71l-71 -175z" />
    <glyph glyph-name="Aring" unicode="&#xc5;" horiz-adv-x="725" 
d="M363 776q-38 0 -65 27.5t-27 65.5t27 65t65 27t65 -27t27 -65t-27 -65.5t-65 -27.5zM363 833q15 0 26 10.5t11 25.5t-11 25.5t-26 10.5t-26 -10.5t-11 -25.5t11 -25.5t26 -10.5zM4 0l287 695h143l288 -695h-143l-62 163l-114 -2h-81l-114 2l-61 -163h-143zM247 269l75 2
h81l75 -2l-21 53l-71 175l-18 71h-11l-18 -71l-71 -175z" />
    <glyph glyph-name="AE" unicode="&#xc6;" horiz-adv-x="1050" 
d="M4 0l433 695h582v-114h-298l-87 2l2 -67v-43l-2 -60l88 2h245v-113h-245l-88 2l2 -60v-65l-2 -67l88 3h297v-115h-514v158h-261l-94 -158h-146zM305 267h200v313h-15z" />
    <glyph glyph-name="Ccedilla" unicode="&#xc7;" horiz-adv-x="687" 
d="M658 266q-11 -121 -83.5 -192.5t-189.5 -81.5v-34q100 -11 100 -89q0 -45 -37.5 -70.5t-110.5 -25.5q-38 0 -90 5v63q33 -3 78 -3q75 0 75 35q0 39 -87 41v79q-132 12 -208.5 107t-76.5 247q0 162 87 260t232 98q132 0 212.5 -72.5t91.5 -201.5l-131 -10q-8 82 -54 126
t-119 44q-86 0 -137 -66t-51 -177q0 -113 51.5 -178t138.5 -65q76 0 123.5 44.5t57.5 127.5z" />
    <glyph glyph-name="Egrave" unicode="&#xc8;" horiz-adv-x="617" 
d="M287 789l-96 156h111l84 -156h-99zM53 0v695h532v-114h-304l-100 1l3 -66v-43l-3 -59l100 1h251v-113h-251l-100 1l3 -59v-65l-3 -66l100 2h304v-115h-532z" />
    <glyph glyph-name="Eacute" unicode="&#xc9;" horiz-adv-x="617" 
d="M284 789l104 156h110l-113 -156h-101zM53 0v695h532v-114h-304l-100 1l3 -66v-43l-3 -59l100 1h251v-113h-251l-100 1l3 -59v-65l-3 -66l100 2h304v-115h-532z" />
    <glyph glyph-name="Ecircumflex" unicode="&#xca;" horiz-adv-x="617" 
d="M168 792l110 151h113l110 -151h-107l-51 92h-16l-51 -92h-108zM53 0v695h532v-114h-304l-100 1l3 -66v-43l-3 -59l100 1h251v-113h-251l-100 1l3 -59v-65l-3 -66l100 2h304v-115h-532z" />
    <glyph glyph-name="Edieresis" unicode="&#xcb;" horiz-adv-x="617" 
d="M180 807v121h122v-121h-122zM368 807v121h122v-121h-122zM53 0v695h532v-114h-304l-100 1l3 -66v-43l-3 -59l100 1h251v-113h-251l-100 1l3 -59v-65l-3 -66l100 2h304v-115h-532z" />
    <glyph glyph-name="Igrave" unicode="&#xcc;" horiz-adv-x="236" 
d="M69 789l-96 156h111l84 -156h-99zM53 0v695h131v-695h-131z" />
    <glyph glyph-name="Iacute" unicode="&#xcd;" horiz-adv-x="236" 
d="M67 789l104 156h110l-113 -156h-101zM53 0v695h131v-695h-131z" />
    <glyph glyph-name="Icircumflex" unicode="&#xce;" horiz-adv-x="236" 
d="M-49 792l110 151h113l110 -151h-107l-51 92h-16l-51 -92h-108zM53 0v695h131v-695h-131z" />
    <glyph glyph-name="Idieresis" unicode="&#xcf;" horiz-adv-x="236" 
d="M-37 807v121h122v-121h-122zM151 807v121h122v-121h-122zM53 0v695h131v-695h-131z" />
    <glyph glyph-name="Eth" unicode="&#xd0;" horiz-adv-x="713" 
d="M351 695q156 0 245 -91.5t89 -257.5t-88.5 -256t-245.5 -90h-276v303h-75v90h75v302h276zM351 117q95 0 148.5 58.5t53.5 171.5t-53.5 172t-148.5 59h-47l-100 2l2 -125v-62h192v-90h-192v-63l-2 -125l100 2h47z" />
    <glyph glyph-name="Ntilde" unicode="&#xd1;" horiz-adv-x="711" 
d="M200 786q0 81 24.5 121.5t68.5 40.5q23 0 42 -12.5t29.5 -28t23 -28t22.5 -12.5q35 0 35 81h66q0 -79 -26.5 -120.5t-68.5 -41.5q-24 0 -43 11t-29 25t-22 25t-23 11q-31 0 -31 -72h-68zM53 0v695h167l247 -419l52 -108h16l-6 109v418h130v-695h-168l-263 444l-36 83h-16
l6 -109v-418h-129z" />
    <glyph glyph-name="Ograve" unicode="&#xd2;" horiz-adv-x="708" 
d="M306 789l-96 156h111l84 -156h-99zM356 -10q-157 0 -242.5 97t-85.5 260q0 161 86 259.5t242 98.5q155 0 240 -98.5t85 -259.5q0 -163 -84.5 -260t-240.5 -97zM356 103q94 0 143 67t49 178q0 108 -49.5 175.5t-142.5 67.5q-95 0 -145.5 -67.5t-50.5 -175.5
q0 -111 50.5 -178t145.5 -67z" />
    <glyph glyph-name="Oacute" unicode="&#xd3;" horiz-adv-x="708" 
d="M303 789l104 156h110l-113 -156h-101zM356 -10q-157 0 -242.5 97t-85.5 260q0 161 86 259.5t242 98.5q155 0 240 -98.5t85 -259.5q0 -163 -84.5 -260t-240.5 -97zM356 103q94 0 143 67t49 178q0 108 -49.5 175.5t-142.5 67.5q-95 0 -145.5 -67.5t-50.5 -175.5
q0 -111 50.5 -178t145.5 -67z" />
    <glyph glyph-name="Ocircumflex" unicode="&#xd4;" horiz-adv-x="708" 
d="M187 792l110 151h113l110 -151h-107l-51 92h-16l-51 -92h-108zM356 -10q-157 0 -242.5 97t-85.5 260q0 161 86 259.5t242 98.5q155 0 240 -98.5t85 -259.5q0 -163 -84.5 -260t-240.5 -97zM356 103q94 0 143 67t49 178q0 108 -49.5 175.5t-142.5 67.5q-95 0 -145.5 -67.5
t-50.5 -175.5q0 -111 50.5 -178t145.5 -67z" />
    <glyph glyph-name="Otilde" unicode="&#xd5;" horiz-adv-x="708" 
d="M198 786q0 81 24.5 121.5t68.5 40.5q23 0 42 -12.5t29.5 -28t23 -28t22.5 -12.5q35 0 35 81h66q0 -79 -26.5 -120.5t-68.5 -41.5q-24 0 -43 11t-29 25t-22 25t-23 11q-31 0 -31 -72h-68zM356 -10q-157 0 -242.5 97t-85.5 260q0 161 86 259.5t242 98.5q155 0 240 -98.5
t85 -259.5q0 -163 -84.5 -260t-240.5 -97zM356 103q94 0 143 67t49 178q0 108 -49.5 175.5t-142.5 67.5q-95 0 -145.5 -67.5t-50.5 -175.5q0 -111 50.5 -178t145.5 -67z" />
    <glyph glyph-name="Odieresis" unicode="&#xd6;" horiz-adv-x="708" 
d="M199 807v121h122v-121h-122zM387 807v121h122v-121h-122zM356 -10q-157 0 -242.5 97t-85.5 260q0 161 86 259.5t242 98.5q155 0 240 -98.5t85 -259.5q0 -163 -84.5 -260t-240.5 -97zM356 103q94 0 143 67t49 178q0 108 -49.5 175.5t-142.5 67.5q-95 0 -145.5 -67.5
t-50.5 -175.5q0 -111 50.5 -178t145.5 -67z" />
    <glyph glyph-name="multiply" unicode="&#xd7;" horiz-adv-x="509" 
d="M121 105l-79 79l71 71l66 63l-77 74l-59 59l78 79l63 -62l70 -72l62 64l71 72l80 -80l-69 -68l-67 -65l66 -64l70 -70l-80 -78l-66 66l-66 69l-63 -66z" />
    <glyph glyph-name="Oslash" unicode="&#xd8;" horiz-adv-x="708" 
d="M583 621q98 -96 98 -274q0 -163 -84.5 -260t-240.5 -97q-80 0 -143 26l-44 -72h-120l79 128q-100 97 -100 275q0 161 86 259.5t242 98.5q77 0 142 -27l45 73h119zM160 348q0 -96 38 -160l237 387q-37 16 -79 16q-95 0 -145.5 -67.5t-50.5 -175.5zM356 103q94 0 143 67
t49 178q0 95 -37 156l-235 -385q33 -16 80 -16z" />
    <glyph glyph-name="Ugrave" unicode="&#xd9;" horiz-adv-x="705" 
d="M304 789l-96 156h111l84 -156h-99zM355 -10q-141 0 -224 77t-83 220v408h131v-407q0 -90 47 -135.5t129 -45.5q79 0 125 45.5t46 135.5v407h132v-408q0 -143 -82 -220t-221 -77z" />
    <glyph glyph-name="Uacute" unicode="&#xda;" horiz-adv-x="705" 
d="M301 789l104 156h110l-113 -156h-101zM355 -10q-141 0 -224 77t-83 220v408h131v-407q0 -90 47 -135.5t129 -45.5q79 0 125 45.5t46 135.5v407h132v-408q0 -143 -82 -220t-221 -77z" />
    <glyph glyph-name="Ucircumflex" unicode="&#xdb;" horiz-adv-x="705" 
d="M185 792l110 151h113l110 -151h-107l-51 92h-16l-51 -92h-108zM355 -10q-141 0 -224 77t-83 220v408h131v-407q0 -90 47 -135.5t129 -45.5q79 0 125 45.5t46 135.5v407h132v-408q0 -143 -82 -220t-221 -77z" />
    <glyph glyph-name="Udieresis" unicode="&#xdc;" horiz-adv-x="705" 
d="M197 807v121h122v-121h-122zM385 807v121h122v-121h-122zM355 -10q-141 0 -224 77t-83 220v408h131v-407q0 -90 47 -135.5t129 -45.5q79 0 125 45.5t46 135.5v407h132v-408q0 -143 -82 -220t-221 -77z" />
    <glyph glyph-name="Yacute" unicode="&#xdd;" horiz-adv-x="738" 
d="M318 789l104 156h110l-113 -156h-101zM304 0v251l-296 444h157l152 -236l47 -96h13l45 96l150 236h158l-295 -444v-251h-131z" />
    <glyph glyph-name="Thorn" unicode="&#xde;" horiz-adv-x="623" 
d="M53 0v695h131v-79l-3 -50l94 3h85q114 0 180 -56t66 -165t-65.5 -164.5t-180.5 -55.5h-85l-94 1l3 -84v-45h-131zM181 238l94 3h88q58 0 88 29t30 78q0 48 -30.5 77.5t-87.5 29.5h-88l-94 2l3 -86v-46z" />
    <glyph glyph-name="germandbls" unicode="&#xdf;" horiz-adv-x="651" 
d="M53 0v500q0 86 42 146.5t105 87t139 26.5q117 0 191.5 -56.5t74.5 -160.5q0 -56 -32.5 -95t-83.5 -46v-15q65 -10 101.5 -56t36.5 -109q0 -222 -284 -222h-102v113h125q63 0 98 27.5t35 81.5q0 51 -34 81.5t-102 30.5h-53v114h53q64 0 92.5 22.5t28.5 72.5q0 51 -41 76.5
t-104 25.5q-74 0 -114.5 -39t-40.5 -115v-491h-131z" />
    <glyph glyph-name="agrave" unicode="&#xe0;" horiz-adv-x="555" 
d="M245 594l-96 156h111l84 -156h-99zM210 -10q-77 0 -123.5 37.5t-46.5 102.5q0 32 11.5 57.5t27 42t45 27.5t52 16.5t62.5 8.5t62 3.5t65 0.5h3h3h4v38q0 37 -22.5 60t-63.5 23q-44 0 -72 -25t-32 -69l-122 7q7 89 70.5 139.5t155.5 50.5q96 0 155 -51t59 -148v-311h-97
l-12 83h-11q-41 -93 -173 -93zM245 85q58 0 94 31t36 81v14q-32 0 -50.5 -0.5t-47 -2.5t-45 -6.5t-33.5 -12t-24.5 -19.5t-7.5 -29q0 -26 20.5 -41t57.5 -15z" />
    <glyph glyph-name="aacute" unicode="&#xe1;" horiz-adv-x="555" 
d="M242 594l104 156h110l-113 -156h-101zM210 -10q-77 0 -123.5 37.5t-46.5 102.5q0 32 11.5 57.5t27 42t45 27.5t52 16.5t62.5 8.5t62 3.5t65 0.5h3h3h4v38q0 37 -22.5 60t-63.5 23q-44 0 -72 -25t-32 -69l-122 7q7 89 70.5 139.5t155.5 50.5q96 0 155 -51t59 -148v-311
h-97l-12 83h-11q-41 -93 -173 -93zM245 85q58 0 94 31t36 81v14q-32 0 -50.5 -0.5t-47 -2.5t-45 -6.5t-33.5 -12t-24.5 -19.5t-7.5 -29q0 -26 20.5 -41t57.5 -15z" />
    <glyph glyph-name="acircumflex" unicode="&#xe2;" horiz-adv-x="555" 
d="M126 597l110 151h113l110 -151h-107l-51 92h-16l-51 -92h-108zM210 -10q-77 0 -123.5 37.5t-46.5 102.5q0 32 11.5 57.5t27 42t45 27.5t52 16.5t62.5 8.5t62 3.5t65 0.5h3h3h4v38q0 37 -22.5 60t-63.5 23q-44 0 -72 -25t-32 -69l-122 7q7 89 70.5 139.5t155.5 50.5
q96 0 155 -51t59 -148v-311h-97l-12 83h-11q-41 -93 -173 -93zM245 85q58 0 94 31t36 81v14q-32 0 -50.5 -0.5t-47 -2.5t-45 -6.5t-33.5 -12t-24.5 -19.5t-7.5 -29q0 -26 20.5 -41t57.5 -15z" />
    <glyph glyph-name="atilde" unicode="&#xe3;" horiz-adv-x="555" 
d="M137 591q0 81 24.5 121.5t68.5 40.5q23 0 42 -12.5t29.5 -28t23 -28t22.5 -12.5q35 0 35 81h66q0 -79 -26.5 -120.5t-68.5 -41.5q-24 0 -43 11.5t-29 24.5t-22 24.5t-23 11.5q-31 0 -31 -72h-68zM210 -10q-77 0 -123.5 37.5t-46.5 102.5q0 32 11.5 57.5t27 42t45 27.5
t52 16.5t62.5 8.5t62 3.5t65 0.5h3h3h4v38q0 37 -22.5 60t-63.5 23q-44 0 -72 -25t-32 -69l-122 7q7 89 70.5 139.5t155.5 50.5q96 0 155 -51t59 -148v-311h-97l-12 83h-11q-41 -93 -173 -93zM245 85q58 0 94 31t36 81v14q-32 0 -50.5 -0.5t-47 -2.5t-45 -6.5t-33.5 -12
t-24.5 -19.5t-7.5 -29q0 -26 20.5 -41t57.5 -15z" />
    <glyph glyph-name="adieresis" unicode="&#xe4;" horiz-adv-x="555" 
d="M138 612v121h122v-121h-122zM326 612v121h122v-121h-122zM210 -10q-77 0 -123.5 37.5t-46.5 102.5q0 32 11.5 57.5t27 42t45 27.5t52 16.5t62.5 8.5t62 3.5t65 0.5h3h3h4v38q0 37 -22.5 60t-63.5 23q-44 0 -72 -25t-32 -69l-122 7q7 89 70.5 139.5t155.5 50.5
q96 0 155 -51t59 -148v-311h-97l-12 83h-11q-41 -93 -173 -93zM245 85q58 0 94 31t36 81v14q-32 0 -50.5 -0.5t-47 -2.5t-45 -6.5t-33.5 -12t-24.5 -19.5t-7.5 -29q0 -26 20.5 -41t57.5 -15z" />
    <glyph glyph-name="aring" unicode="&#xe5;" horiz-adv-x="555" 
d="M292 581q-38 0 -65 27.5t-27 65.5t27 65t65 27t65 -27t27 -65t-27 -65.5t-65 -27.5zM292 638q15 0 26 10.5t11 25.5t-11 25.5t-26 10.5t-26 -10.5t-11 -25.5t11 -25.5t26 -10.5zM210 -10q-77 0 -123.5 37.5t-46.5 102.5q0 32 11.5 57.5t27 42t45 27.5t52 16.5t62.5 8.5
t62 3.5t65 0.5h3h3h4v38q0 37 -22.5 60t-63.5 23q-44 0 -72 -25t-32 -69l-122 7q7 89 70.5 139.5t155.5 50.5q96 0 155 -51t59 -148v-311h-97l-12 83h-11q-41 -93 -173 -93zM245 85q58 0 94 31t36 81v14q-32 0 -50.5 -0.5t-47 -2.5t-45 -6.5t-33.5 -12t-24.5 -19.5t-7.5 -29
q0 -26 20.5 -41t57.5 -15z" />
    <glyph glyph-name="ae" unicode="&#xe6;" horiz-adv-x="875" 
d="M843 215h-278l-66 2q7 -56 41 -86.5t81 -30.5q88 0 112 75l110 -12q-23 -85 -81 -126.5t-141 -41.5q-116 0 -188 89q-32 -43 -85.5 -66t-117.5 -23q-95 0 -144.5 37t-49.5 96q0 42 25 71.5t62.5 43t81 23.5t81 15t62.5 15.5t25 27.5v8q0 24 -26.5 47t-69.5 23
q-46 0 -76.5 -25.5t-38.5 -75.5l-117 6q10 96 74 147t154 51q108 0 165 -77q64 77 175 77q107 0 170 -71t63 -180q0 -20 -3 -39zM613 400q-42 0 -72.5 -26.5t-40.5 -77.5l65 2h90l70 -2q-10 50 -40 77t-72 27zM373 208v38q-17 -16 -54 -27.5t-68.5 -17.5t-56.5 -22t-25 -41
q0 -48 74 -48q56 0 93 32.5t37 85.5z" />
    <glyph glyph-name="ccedilla" unicode="&#xe7;" horiz-adv-x="526" 
d="M504 190q-7 -82 -57.5 -134t-133.5 -63v-25q100 -11 100 -89q0 -45 -37.5 -70.5t-110.5 -25.5q-38 0 -90 5v63q33 -3 78 -3q75 0 75 35q0 39 -87 41v68q-101 10 -158 81t-57 177q0 114 65.5 187t179.5 73q99 0 160.5 -53.5t69.5 -145.5l-119 -10q-7 51 -37 77.5t-75 26.5
q-57 0 -88.5 -41.5t-31.5 -113.5q0 -69 32.5 -111.5t88.5 -42.5q99 0 113 104z" />
    <glyph glyph-name="egrave" unicode="&#xe8;" horiz-adv-x="538" 
d="M218 594l-96 156h111l84 -156h-99zM275 -10q-110 0 -179 71t-69 188t65.5 189t177.5 72q107 0 171.5 -71.5t64.5 -184.5q0 -31 -2 -44h-288l-66 2q6 -59 40.5 -90.5t84.5 -31.5q41 0 71.5 18.5t40.5 53.5l115 -12q-22 -78 -83 -119t-144 -41zM150 295l69 2h100l68 -2
q-6 56 -38.5 86t-78.5 30q-47 0 -80 -29.5t-40 -86.5z" />
    <glyph glyph-name="eacute" unicode="&#xe9;" horiz-adv-x="538" 
d="M215 594l104 156h110l-113 -156h-101zM275 -10q-110 0 -179 71t-69 188t65.5 189t177.5 72q107 0 171.5 -71.5t64.5 -184.5q0 -31 -2 -44h-288l-66 2q6 -59 40.5 -90.5t84.5 -31.5q41 0 71.5 18.5t40.5 53.5l115 -12q-22 -78 -83 -119t-144 -41zM150 295l69 2h100l68 -2
q-6 56 -38.5 86t-78.5 30q-47 0 -80 -29.5t-40 -86.5z" />
    <glyph glyph-name="ecircumflex" unicode="&#xea;" horiz-adv-x="538" 
d="M99 597l110 151h113l110 -151h-107l-51 92h-16l-51 -92h-108zM275 -10q-110 0 -179 71t-69 188t65.5 189t177.5 72q107 0 171.5 -71.5t64.5 -184.5q0 -31 -2 -44h-288l-66 2q6 -59 40.5 -90.5t84.5 -31.5q41 0 71.5 18.5t40.5 53.5l115 -12q-22 -78 -83 -119t-144 -41z
M150 295l69 2h100l68 -2q-6 56 -38.5 86t-78.5 30q-47 0 -80 -29.5t-40 -86.5z" />
    <glyph glyph-name="edieresis" unicode="&#xeb;" horiz-adv-x="538" 
d="M111 612v121h122v-121h-122zM299 612v121h122v-121h-122zM275 -10q-110 0 -179 71t-69 188t65.5 189t177.5 72q107 0 171.5 -71.5t64.5 -184.5q0 -31 -2 -44h-288l-66 2q6 -59 40.5 -90.5t84.5 -31.5q41 0 71.5 18.5t40.5 53.5l115 -12q-22 -78 -83 -119t-144 -41z
M150 295l69 2h100l68 -2q-6 56 -38.5 86t-78.5 30q-47 0 -80 -29.5t-40 -86.5z" />
    <glyph glyph-name="igrave" unicode="&#xec;" horiz-adv-x="274" 
d="M89 594l-96 156h111l84 -156h-99zM73 0v500h128v-500h-128z" />
    <glyph glyph-name="iacute" unicode="&#xed;" horiz-adv-x="274" 
d="M86 594l104 156h110l-113 -156h-101zM73 0v500h128v-500h-128z" />
    <glyph glyph-name="icircumflex" unicode="&#xee;" horiz-adv-x="274" 
d="M-30 597l110 151h113l110 -151h-107l-51 92h-16l-51 -92h-108zM73 0v500h128v-500h-128z" />
    <glyph glyph-name="idieresis" unicode="&#xef;" horiz-adv-x="274" 
d="M-18 612v121h122v-121h-122zM170 612v121h122v-121h-122zM73 0v500h128v-500h-128z" />
    <glyph glyph-name="eth" unicode="&#xf0;" horiz-adv-x="540" 
d="M218 717q59 -12 109 -39t93.5 -72t68.5 -116.5t25 -163.5q0 -163 -67 -247t-178 -84q-110 0 -175.5 69t-65.5 174q0 108 60.5 176.5t157.5 68.5q45 0 80.5 -20t49.5 -50h14q-7 82 -66.5 135t-154.5 61l-32 -68h-95l32 69q-33 0 -68 -4v117q51 4 113 4h9l27 58h95z
M269 110q56 0 86 35.5t30 93.5t-30.5 93.5t-85.5 35.5q-56 0 -87.5 -35.5t-31.5 -93.5t31.5 -93.5t87.5 -35.5z" />
    <glyph glyph-name="ntilde" unicode="&#xf1;" 
d="M149 591q0 81 24.5 121.5t68.5 40.5q23 0 42 -12.5t29.5 -28t23 -28t22.5 -12.5q35 0 35 81h66q0 -79 -26.5 -120.5t-68.5 -41.5q-24 0 -43 11.5t-29 24.5t-22 24.5t-23 11.5q-31 0 -31 -72h-68zM53 0v500h129v-24l-9 -64h14q60 94 169 94q81 0 126 -52t45 -149v-305
h-128v278q0 117 -98 117q-53 0 -86 -39.5t-33 -114.5v-241h-129z" />
    <glyph glyph-name="ograve" unicode="&#xf2;" horiz-adv-x="540" 
d="M222 594l-96 156h111l84 -156h-99zM271 -10q-112 0 -178.5 72t-66.5 187q0 116 66.5 188.5t178.5 72.5t177.5 -72.5t65.5 -188.5q0 -115 -65.5 -187t-177.5 -72zM271 96q55 0 85.5 41t30.5 113t-30.5 113t-85.5 41q-56 0 -87.5 -41.5t-31.5 -112.5t31.5 -112.5
t87.5 -41.5z" />
    <glyph glyph-name="oacute" unicode="&#xf3;" horiz-adv-x="540" 
d="M219 594l104 156h110l-113 -156h-101zM271 -10q-112 0 -178.5 72t-66.5 187q0 116 66.5 188.5t178.5 72.5t177.5 -72.5t65.5 -188.5q0 -115 -65.5 -187t-177.5 -72zM271 96q55 0 85.5 41t30.5 113t-30.5 113t-85.5 41q-56 0 -87.5 -41.5t-31.5 -112.5t31.5 -112.5
t87.5 -41.5z" />
    <glyph glyph-name="ocircumflex" unicode="&#xf4;" horiz-adv-x="540" 
d="M103 597l110 151h113l110 -151h-107l-51 92h-16l-51 -92h-108zM271 -10q-112 0 -178.5 72t-66.5 187q0 116 66.5 188.5t178.5 72.5t177.5 -72.5t65.5 -188.5q0 -115 -65.5 -187t-177.5 -72zM271 96q55 0 85.5 41t30.5 113t-30.5 113t-85.5 41q-56 0 -87.5 -41.5
t-31.5 -112.5t31.5 -112.5t87.5 -41.5z" />
    <glyph glyph-name="otilde" unicode="&#xf5;" horiz-adv-x="540" 
d="M114 591q0 81 24.5 121.5t68.5 40.5q23 0 42 -12.5t29.5 -28t23 -28t22.5 -12.5q35 0 35 81h66q0 -79 -26.5 -120.5t-68.5 -41.5q-24 0 -43 11.5t-29 24.5t-22 24.5t-23 11.5q-31 0 -31 -72h-68zM271 -10q-112 0 -178.5 72t-66.5 187q0 116 66.5 188.5t178.5 72.5
t177.5 -72.5t65.5 -188.5q0 -115 -65.5 -187t-177.5 -72zM271 96q55 0 85.5 41t30.5 113t-30.5 113t-85.5 41q-56 0 -87.5 -41.5t-31.5 -112.5t31.5 -112.5t87.5 -41.5z" />
    <glyph glyph-name="odieresis" unicode="&#xf6;" horiz-adv-x="540" 
d="M115 612v121h122v-121h-122zM303 612v121h122v-121h-122zM271 -10q-112 0 -178.5 72t-66.5 187q0 116 66.5 188.5t178.5 72.5t177.5 -72.5t65.5 -188.5q0 -115 -65.5 -187t-177.5 -72zM271 96q55 0 85.5 41t30.5 113t-30.5 113t-85.5 41q-56 0 -87.5 -41.5t-31.5 -112.5
t31.5 -112.5t87.5 -41.5z" />
    <glyph glyph-name="divide" unicode="&#xf7;" horiz-adv-x="572" 
d="M219 445v141h133v-141h-133zM42 263v112h488v-112h-488zM219 50v143h133v-143h-133z" />
    <glyph glyph-name="oslash" unicode="&#xf8;" horiz-adv-x="540" 
d="M438 448q76 -73 76 -199q0 -115 -65.5 -187t-177.5 -72q-57 0 -101 19l-50 -83h-96l77 127q-75 72 -75 196q0 116 66.5 188.5t178.5 72.5q55 0 99 -18l49 80h95zM152 250q0 -51 17 -87l143 234q-17 7 -41 7q-56 0 -87.5 -41.5t-31.5 -112.5zM271 96q55 0 85.5 41
t30.5 113q0 53 -16 88l-143 -234q21 -8 43 -8z" />
    <glyph glyph-name="ugrave" unicode="&#xf9;" 
d="M236 594l-96 156h111l84 -156h-99zM222 -6q-82 0 -128 54.5t-46 156.5v295h128v-268q0 -127 98 -127q53 0 86 39.5t33 114.5v241h130v-500h-130v24l9 64h-15q-54 -94 -165 -94z" />
    <glyph glyph-name="uacute" unicode="&#xfa;" 
d="M233 594l104 156h110l-113 -156h-101zM222 -6q-82 0 -128 54.5t-46 156.5v295h128v-268q0 -127 98 -127q53 0 86 39.5t33 114.5v241h130v-500h-130v24l9 64h-15q-54 -94 -165 -94z" />
    <glyph glyph-name="ucircumflex" unicode="&#xfb;" 
d="M117 597l110 151h113l110 -151h-107l-51 92h-16l-51 -92h-108zM222 -6q-82 0 -128 54.5t-46 156.5v295h128v-268q0 -127 98 -127q53 0 86 39.5t33 114.5v241h130v-500h-130v24l9 64h-15q-54 -94 -165 -94z" />
    <glyph glyph-name="udieresis" unicode="&#xfc;" 
d="M129 612v121h122v-121h-122zM317 612v121h122v-121h-122zM222 -6q-82 0 -128 54.5t-46 156.5v295h128v-268q0 -127 98 -127q53 0 86 39.5t33 114.5v241h130v-500h-130v24l9 64h-15q-54 -94 -165 -94z" />
    <glyph glyph-name="yacute" unicode="&#xfd;" horiz-adv-x="552" 
d="M229 594l104 156h110l-113 -156h-101zM121 -240q-53 0 -91 3v115q27 -3 67 -3q43 0 66.5 16t39.5 53l18 43l-212 513h144l102 -285l20 -87h13l20 87l94 285h141l-214 -563q-37 -98 -85.5 -137.5t-122.5 -39.5z" />
    <glyph glyph-name="thorn" unicode="&#xfe;" horiz-adv-x="580" 
d="M53 -240v1000h128v-282l-9 -68h16q17 41 56 68.5t95 27.5q92 0 151.5 -71t59.5 -186q0 -117 -59 -186t-152 -69q-57 0 -96.5 26t-54.5 67h-16l9 -62v-265h-128zM301 97q53 0 85.5 41t32.5 111q0 71 -32.5 112.5t-85.5 41.5q-55 0 -87 -41.5t-32 -112.5q0 -70 32.5 -111
t86.5 -41z" />
    <glyph glyph-name="ydieresis" unicode="&#xff;" horiz-adv-x="552" 
d="M124 612v121h122v-121h-122zM312 612v121h122v-121h-122zM121 -240q-53 0 -91 3v115q27 -3 67 -3q43 0 66.5 16t39.5 53l18 43l-212 513h144l102 -285l20 -87h13l20 87l94 285h141l-214 -563q-37 -98 -85.5 -137.5t-122.5 -39.5z" />
    <glyph glyph-name="Amacron" unicode="&#x100;" horiz-adv-x="725" 
d="M212 819v97h302v-97h-302zM4 0l287 695h143l288 -695h-143l-62 163l-114 -2h-81l-114 2l-61 -163h-143zM247 269l75 2h81l75 -2l-21 53l-71 175l-18 71h-11l-18 -71l-71 -175z" />
    <glyph glyph-name="amacron" unicode="&#x101;" horiz-adv-x="555" 
d="M142 624v97h302v-97h-302zM210 -10q-77 0 -123.5 37.5t-46.5 102.5q0 32 11.5 57.5t27 42t45 27.5t52 16.5t62.5 8.5t62 3.5t65 0.5h3h3h4v38q0 37 -22.5 60t-63.5 23q-44 0 -72 -25t-32 -69l-122 7q7 89 70.5 139.5t155.5 50.5q96 0 155 -51t59 -148v-311h-97l-12 83
h-11q-41 -93 -173 -93zM245 85q58 0 94 31t36 81v14q-32 0 -50.5 -0.5t-47 -2.5t-45 -6.5t-33.5 -12t-24.5 -19.5t-7.5 -29q0 -26 20.5 -41t57.5 -15z" />
    <glyph glyph-name="Abreve" unicode="&#x102;" horiz-adv-x="725" 
d="M363 781q-146 0 -147 161h71q1 -50 19 -70t57 -20q40 0 57.5 20t18.5 70h72q-3 -161 -148 -161zM4 0l287 695h143l288 -695h-143l-62 163l-114 -2h-81l-114 2l-61 -163h-143zM247 269l75 2h81l75 -2l-21 53l-71 175l-18 71h-11l-18 -71l-71 -175z" />
    <glyph glyph-name="abreve" unicode="&#x103;" horiz-adv-x="555" 
d="M293 586q-146 0 -147 161h71q1 -50 19 -70t57 -20q40 0 57.5 20t18.5 70h72q-3 -161 -148 -161zM210 -10q-77 0 -123.5 37.5t-46.5 102.5q0 32 11.5 57.5t27 42t45 27.5t52 16.5t62.5 8.5t62 3.5t65 0.5h3h3h4v38q0 37 -22.5 60t-63.5 23q-44 0 -72 -25t-32 -69l-122 7
q7 89 70.5 139.5t155.5 50.5q96 0 155 -51t59 -148v-311h-97l-12 83h-11q-41 -93 -173 -93zM245 85q58 0 94 31t36 81v14q-32 0 -50.5 -0.5t-47 -2.5t-45 -6.5t-33.5 -12t-24.5 -19.5t-7.5 -29q0 -26 20.5 -41t57.5 -15z" />
    <glyph glyph-name="Aogonek" unicode="&#x104;" horiz-adv-x="725" 
d="M569 -116q0 -41 57 -41q32 0 67 8v-74q-46 -10 -86 -10q-58 0 -90.5 28.5t-32.5 79.5q0 71 93 130l-60 158l-114 -2h-81l-114 2l-61 -163h-143l287 695h143l288 -695h-55q-55 -40 -76.5 -65t-21.5 -51zM403 271l75 -2l-21 53l-71 175l-18 71h-11l-18 -71l-71 -175
l-21 -53l75 2h81z" />
    <glyph glyph-name="aogonek" unicode="&#x105;" horiz-adv-x="555" 
d="M449 -152q32 0 67 8v-74q-46 -10 -86 -10q-58 0 -90.5 28.5t-32.5 79.5q0 73 97 132l-10 71h-11q-41 -93 -173 -93q-77 0 -123.5 37.5t-46.5 102.5q0 32 11.5 57.5t27 42t45 27.5t52 16.5t62.5 8.5t62 3.5t65 0.5h3h3h4v38q0 37 -22.5 60t-63.5 23q-44 0 -72 -25t-32 -69
l-122 7q7 89 70.5 139.5t155.5 50.5q96 0 155 -51t59 -148v-311h-20q-51 -38 -71 -62t-20 -49q0 -41 57 -41zM375 197v14q-32 0 -50.5 -0.5t-47 -2.5t-45 -6.5t-33.5 -12t-24.5 -19.5t-7.5 -29q0 -26 20.5 -41t57.5 -15q58 0 94 31t36 81z" />
    <glyph glyph-name="Cacute" unicode="&#x106;" horiz-adv-x="687" 
d="M295 789l104 156h110l-113 -156h-101zM349 -9q-147 0 -234 96.5t-87 259.5q0 162 87 260t232 98q132 0 212.5 -72.5t91.5 -201.5l-131 -10q-8 82 -54 126t-119 44q-86 0 -137 -66t-51 -177q0 -113 51.5 -178t138.5 -65q76 0 123.5 44.5t57.5 127.5l128 -11
q-12 -130 -94.5 -202.5t-214.5 -72.5z" />
    <glyph glyph-name="cacute" unicode="&#x107;" horiz-adv-x="526" 
d="M209 594l104 156h110l-113 -156h-101zM272 -10q-115 0 -180.5 73t-65.5 187t65.5 187t179.5 73q99 0 160.5 -53.5t69.5 -145.5l-119 -10q-7 51 -37 77.5t-75 26.5q-57 0 -88.5 -41.5t-31.5 -113.5q0 -69 32.5 -111.5t88.5 -42.5q99 0 113 104l120 -10q-8 -92 -70.5 -146
t-161.5 -54z" />
    <glyph glyph-name="Cdotaccent" unicode="&#x10a;" horiz-adv-x="687" 
d="M278 800v136h136v-136h-136zM349 -9q-147 0 -234 96.5t-87 259.5q0 162 87 260t232 98q132 0 212.5 -72.5t91.5 -201.5l-131 -10q-8 82 -54 126t-119 44q-86 0 -137 -66t-51 -177q0 -113 51.5 -178t138.5 -65q76 0 123.5 44.5t57.5 127.5l128 -11q-12 -130 -94.5 -202.5
t-214.5 -72.5z" />
    <glyph glyph-name="cdotaccent" unicode="&#x10b;" horiz-adv-x="526" 
d="M192 605v136h136v-136h-136zM272 -10q-115 0 -180.5 73t-65.5 187t65.5 187t179.5 73q99 0 160.5 -53.5t69.5 -145.5l-119 -10q-7 51 -37 77.5t-75 26.5q-57 0 -88.5 -41.5t-31.5 -113.5q0 -69 32.5 -111.5t88.5 -42.5q99 0 113 104l120 -10q-8 -92 -70.5 -146
t-161.5 -54z" />
    <glyph glyph-name="Ccaron" unicode="&#x10c;" horiz-adv-x="687" 
d="M289 792l-110 151h108l51 -92h16l51 92h107l-110 -151h-113zM349 -9q-147 0 -234 96.5t-87 259.5q0 162 87 260t232 98q132 0 212.5 -72.5t91.5 -201.5l-131 -10q-8 82 -54 126t-119 44q-86 0 -137 -66t-51 -177q0 -113 51.5 -178t138.5 -65q76 0 123.5 44.5t57.5 127.5
l128 -11q-12 -130 -94.5 -202.5t-214.5 -72.5z" />
    <glyph glyph-name="ccaron" unicode="&#x10d;" horiz-adv-x="526" 
d="M204 597l-110 151h108l51 -92h16l51 92h107l-110 -151h-113zM272 -10q-115 0 -180.5 73t-65.5 187t65.5 187t179.5 73q99 0 160.5 -53.5t69.5 -145.5l-119 -10q-7 51 -37 77.5t-75 26.5q-57 0 -88.5 -41.5t-31.5 -113.5q0 -69 32.5 -111.5t88.5 -42.5q99 0 113 104
l120 -10q-8 -92 -70.5 -146t-161.5 -54z" />
    <glyph glyph-name="Dcaron" unicode="&#x10e;" horiz-adv-x="690" 
d="M262 792l-110 151h108l51 -92h16l51 92h107l-110 -151h-113zM53 0v695h276q156 0 244.5 -91.5t88.5 -257.5t-88 -256t-245 -90h-276zM181 115l100 2h48q94 0 147.5 58.5t53.5 171.5t-53.5 172t-147.5 59h-48l-100 2l3 -125v-215z" />
    <glyph glyph-name="dcaron" unicode="&#x10f;" horiz-adv-x="698" 
d="M236 -6q-93 0 -152.5 69t-59.5 186q0 116 59.5 186.5t152.5 70.5q53 0 91.5 -27t58.5 -67h15l-8 66v282h128v-760h-128v25l8 59h-15q-18 -39 -57 -64.5t-93 -25.5zM580 572l7 188h102l-19 -188h-90zM273 100q54 0 86 41t32 108q0 68 -32 109.5t-86 41.5q-53 0 -85.5 -41
t-32.5 -110t32 -109t86 -40z" />
    <glyph glyph-name="Dcroat" unicode="&#x110;" horiz-adv-x="713" 
d="M351 695q156 0 245 -91.5t89 -257.5t-88.5 -256t-245.5 -90h-276v303h-75v90h75v302h276zM351 117q95 0 148.5 58.5t53.5 171.5t-53.5 172t-148.5 59h-47l-100 2l2 -125v-62h192v-90h-192v-63l-2 -125l100 2h47z" />
    <glyph glyph-name="dcroat" unicode="&#x111;" horiz-adv-x="578" 
d="M607 659v-90h-81v-569h-129v25l8 59h-14q-19 -39 -58 -64.5t-93 -25.5q-93 0 -152 69t-59 186q0 115 59.5 186t151.5 71q53 0 92 -27t59 -67h14l-8 66v91h-188v90h188v101h129v-101h81zM277 100q54 0 86.5 41t32.5 108q0 68 -32.5 109.5t-86.5 41.5q-53 0 -85.5 -41
t-32.5 -110q0 -68 32.5 -108.5t85.5 -40.5z" />
    <glyph glyph-name="Emacron" unicode="&#x112;" horiz-adv-x="617" 
d="M184 819v97h302v-97h-302zM53 0v695h532v-114h-304l-100 1l3 -66v-43l-3 -59l100 1h251v-113h-251l-100 1l3 -59v-65l-3 -66l100 2h304v-115h-532z" />
    <glyph glyph-name="emacron" unicode="&#x113;" horiz-adv-x="538" 
d="M115 624v97h302v-97h-302zM275 -10q-110 0 -179 71t-69 188t65.5 189t177.5 72q107 0 171.5 -71.5t64.5 -184.5q0 -31 -2 -44h-288l-66 2q6 -59 40.5 -90.5t84.5 -31.5q41 0 71.5 18.5t40.5 53.5l115 -12q-22 -78 -83 -119t-144 -41zM150 295l69 2h100l68 -2
q-6 56 -38.5 86t-78.5 30q-47 0 -80 -29.5t-40 -86.5z" />
    <glyph glyph-name="Edotaccent" unicode="&#x116;" horiz-adv-x="617" 
d="M267 800v136h136v-136h-136zM53 0v695h532v-114h-304l-100 1l3 -66v-43l-3 -59l100 1h251v-113h-251l-100 1l3 -59v-65l-3 -66l100 2h304v-115h-532z" />
    <glyph glyph-name="edotaccent" unicode="&#x117;" horiz-adv-x="538" 
d="M198 605v136h136v-136h-136zM275 -10q-110 0 -179 71t-69 188t65.5 189t177.5 72q107 0 171.5 -71.5t64.5 -184.5q0 -31 -2 -44h-288l-66 2q6 -59 40.5 -90.5t84.5 -31.5q41 0 71.5 18.5t40.5 53.5l115 -12q-22 -78 -83 -119t-144 -41zM150 295l69 2h100l68 -2
q-6 56 -38.5 86t-78.5 30q-47 0 -80 -29.5t-40 -86.5z" />
    <glyph glyph-name="Eogonek" unicode="&#x118;" horiz-adv-x="617" 
d="M537 -161q32 0 67 8v-74q-46 -10 -86 -10q-58 0 -90.5 28.5t-32.5 79.5q0 72 92 129h-434v695h532v-114h-304l-100 1l3 -66v-43l-3 -59l100 1h251v-113h-251l-100 1l3 -59v-65l-3 -66l100 2h304v-115h-2q-59 -43 -81 -68t-22 -52q0 -41 57 -41z" />
    <glyph glyph-name="eogonek" unicode="&#x119;" horiz-adv-x="538" 
d="M504 210h-288l-66 2q6 -59 40.5 -90.5t84.5 -31.5q41 0 71.5 18.5t40.5 53.5l115 -12q-30 -110 -138 -146q-49 -37 -68.5 -61t-19.5 -48q0 -41 57 -41q32 0 67 8v-74q-46 -10 -86 -10q-58 0 -90.5 28.5t-32.5 79.5q0 57 59 105q-100 8 -161.5 78t-61.5 180
q0 117 65.5 189t177.5 72q107 0 171.5 -71.5t64.5 -184.5q0 -31 -2 -44zM270 411q-47 0 -80 -29.5t-40 -86.5l69 2h100l68 -2q-6 56 -38.5 86t-78.5 30z" />
    <glyph glyph-name="Ecaron" unicode="&#x11a;" horiz-adv-x="617" 
d="M278 792l-110 151h108l51 -92h16l51 92h107l-110 -151h-113zM53 0v695h532v-114h-304l-100 1l3 -66v-43l-3 -59l100 1h251v-113h-251l-100 1l3 -59v-65l-3 -66l100 2h304v-115h-532z" />
    <glyph glyph-name="ecaron" unicode="&#x11b;" horiz-adv-x="538" 
d="M209 597l-110 151h108l51 -92h16l51 92h107l-110 -151h-113zM275 -10q-110 0 -179 71t-69 188t65.5 189t177.5 72q107 0 171.5 -71.5t64.5 -184.5q0 -31 -2 -44h-288l-66 2q6 -59 40.5 -90.5t84.5 -31.5q41 0 71.5 18.5t40.5 53.5l115 -12q-22 -78 -83 -119t-144 -41z
M150 295l69 2h100l68 -2q-6 56 -38.5 86t-78.5 30q-47 0 -80 -29.5t-40 -86.5z" />
    <glyph glyph-name="Gbreve" unicode="&#x11e;" horiz-adv-x="724" 
d="M356 781q-146 0 -147 161h71q1 -50 19 -70t57 -20q40 0 57.5 20t18.5 70h72q-3 -161 -148 -161zM341 -8q-141 0 -227.5 96.5t-86.5 258.5q0 159 90 258t237 99q134 0 214.5 -73.5t94.5 -203.5l-125 -9q-9 81 -57 127t-126 46q-90 0 -145 -68t-55 -176q0 -109 53.5 -176.5
t138.5 -67.5q75 0 123 35.5t62 104.5h-181v103h325v-346h-99l-3 110h-22q-23 -52 -77 -85t-134 -33z" />
    <glyph glyph-name="gbreve" unicode="&#x11f;" horiz-adv-x="582" 
d="M260 586q-146 0 -147 161h71q1 -50 19 -70t57 -20q40 0 57.5 20t18.5 70h72q-3 -161 -148 -161zM274 -245q-94 0 -162 49.5t-83 143.5l113 13q10 -47 45 -73.5t87 -26.5q60 0 93.5 34.5t33.5 99.5v30l8 59h-13q-17 -40 -56 -65t-96 -25q-93 0 -152 69t-59 186
q0 115 59.5 186t151.5 71q99 0 152 -94h13l-8 66v22h129v-493q0 -119 -70 -185.5t-186 -66.5zM281 100q54 0 86.5 40.5t32.5 108.5q0 69 -32 110t-87 41q-53 0 -85 -41t-32 -110q0 -68 32 -108.5t85 -40.5z" />
    <glyph glyph-name="Gdotaccent" unicode="&#x120;" horiz-adv-x="724" 
d="M288 800v136h136v-136h-136zM341 -8q-141 0 -227.5 96.5t-86.5 258.5q0 159 90 258t237 99q134 0 214.5 -73.5t94.5 -203.5l-125 -9q-9 81 -57 127t-126 46q-90 0 -145 -68t-55 -176q0 -109 53.5 -176.5t138.5 -67.5q75 0 123 35.5t62 104.5h-181v103h325v-346h-99
l-3 110h-22q-23 -52 -77 -85t-134 -33z" />
    <glyph glyph-name="gdotaccent" unicode="&#x121;" horiz-adv-x="582" 
d="M192 605v136h136v-136h-136zM274 -245q-94 0 -162 49.5t-83 143.5l113 13q10 -47 45 -73.5t87 -26.5q60 0 93.5 34.5t33.5 99.5v30l8 59h-13q-17 -40 -56 -65t-96 -25q-93 0 -152 69t-59 186q0 115 59.5 186t151.5 71q99 0 152 -94h13l-8 66v22h129v-493
q0 -119 -70 -185.5t-186 -66.5zM281 100q54 0 86.5 40.5t32.5 108.5q0 69 -32 110t-87 41q-53 0 -85 -41t-32 -110q0 -68 32 -108.5t85 -40.5z" />
    <glyph glyph-name="uni0122" unicode="&#x122;" horiz-adv-x="724" 
d="M341 -8q-141 0 -227.5 96.5t-86.5 258.5q0 159 90 258t237 99q134 0 214.5 -73.5t94.5 -203.5l-125 -9q-9 81 -57 127t-126 46q-90 0 -145 -68t-55 -176q0 -109 53.5 -176.5t138.5 -67.5q75 0 123 35.5t62 104.5h-181v103h325v-346h-99l-3 110h-22q-23 -52 -77 -85
t-134 -33zM266 -278l50 201h88l-58 -201h-80z" />
    <glyph glyph-name="uni0123" unicode="&#x123;" horiz-adv-x="582" 
d="M211 585l59 175h79l-51 -175h-87zM274 -245q-94 0 -162 49.5t-83 143.5l113 13q10 -47 45 -73.5t87 -26.5q60 0 93.5 34.5t33.5 99.5v30l8 59h-13q-17 -40 -56 -65t-96 -25q-93 0 -152 69t-59 186q0 115 59.5 186t151.5 71q99 0 152 -94h13l-8 66v22h129v-493
q0 -119 -70 -185.5t-186 -66.5zM281 100q54 0 86.5 40.5t32.5 108.5q0 69 -32 110t-87 41q-53 0 -85 -41t-32 -110q0 -68 32 -108.5t85 -40.5z" />
    <glyph glyph-name="Hbar" unicode="&#x126;" horiz-adv-x="694" 
d="M717 588v-86h-75v-502h-132v218l3 82l-99 -3h-135l-98 3l3 -83v-217h-131v502h-74v86h74v107h131v-107h326v107h132v-107h75zM513 408l-3 94h-326l-3 -94l98 3h136z" />
    <glyph glyph-name="hbar" unicode="&#x127;" 
d="M356 506q81 0 126 -52t45 -149v-305h-128v278q0 117 -98 117q-53 0 -86 -39.5t-33 -114.5v-241h-129v569h-83v90h83v101h129v-101h186v-90h-186v-93l-9 -64h14q60 94 169 94z" />
    <glyph glyph-name="Itilde" unicode="&#x128;" horiz-adv-x="236" 
d="M-39 786q0 81 24.5 121.5t68.5 40.5q23 0 42 -12.5t29.5 -28t23 -28t22.5 -12.5q35 0 35 81h66q0 -79 -26.5 -120.5t-68.5 -41.5q-24 0 -43 11t-29 25t-22 25t-23 11q-31 0 -31 -72h-68zM53 0v695h131v-695h-131z" />
    <glyph glyph-name="itilde" unicode="&#x129;" horiz-adv-x="274" 
d="M-19 591q0 81 24.5 121.5t68.5 40.5q23 0 42 -12.5t29.5 -28t23 -28t22.5 -12.5q35 0 35 81h66q0 -79 -26.5 -120.5t-68.5 -41.5q-24 0 -43 11.5t-29 24.5t-22 24.5t-23 11.5q-31 0 -31 -72h-68zM73 0v500h128v-500h-128z" />
    <glyph glyph-name="Imacron" unicode="&#x12a;" horiz-adv-x="236" 
d="M-33 819v97h302v-97h-302zM53 0v695h131v-695h-131z" />
    <glyph glyph-name="imacron" unicode="&#x12b;" horiz-adv-x="274" 
d="M-14 624v97h302v-97h-302zM73 0v500h128v-500h-128z" />
    <glyph glyph-name="Iogonek" unicode="&#x12e;" horiz-adv-x="236" 
d="M148 0q-56 -41 -77.5 -66t-21.5 -51q0 -41 57 -41q32 0 67 8v-74q-46 -10 -86 -10q-58 0 -90.5 28.5t-32.5 79.5q0 70 89 127v694h131v-695h-36z" />
    <glyph glyph-name="iogonek" unicode="&#x12f;" horiz-adv-x="274" 
d="M69 741h136v-136h-136v136zM73 1v499h128v-500h-33q-56 -41 -77.5 -66t-21.5 -51q0 -41 57 -41q32 0 67 8v-74q-46 -10 -86 -10q-58 0 -90.5 28.5t-32.5 79.5q0 70 89 127z" />
    <glyph glyph-name="Idotaccent" unicode="&#x130;" horiz-adv-x="236" 
d="M50 800v136h136v-136h-136zM53 0v695h131v-695h-131z" />
    <glyph glyph-name="dotlessi" unicode="&#x131;" horiz-adv-x="274" 
d="M73 0v500h128v-500h-128z" />
    <glyph glyph-name="uni0136" unicode="&#x136;" horiz-adv-x="701" 
d="M53 0v695h131v-216l-7 -101h14l60 74l267 243h180l-321 -286l316 -409h-166l-247 323l-96 -87v-236h-131zM257 -278l50 201h88l-58 -201h-80z" />
    <glyph glyph-name="uni0137" unicode="&#x137;" horiz-adv-x="568" 
d="M53 0v760h129v-345l-11 -108h13l197 193h169l-211 -196l223 -300v-4h-160l-156 221l-64 -62v-159h-129zM191 -278l50 201h88l-58 -201h-80z" />
    <glyph glyph-name="Lacute" unicode="&#x139;" horiz-adv-x="573" 
d="M67 789l104 156h110l-113 -156h-101zM53 0v695h131v-452l-3 -131l131 3h243v-115h-502z" />
    <glyph glyph-name="lacute" unicode="&#x13a;" horiz-adv-x="326" 
d="M71 854l104 156h110l-113 -156h-101zM221 -5q-80 0 -124 48t-44 138v579h127v-573q0 -76 65 -76q15 0 49 3v-113q-44 -6 -73 -6z" />
    <glyph glyph-name="uni013B" unicode="&#x13b;" horiz-adv-x="573" 
d="M53 0v695h131v-452l-3 -131l131 3h243v-115h-502zM221 -278l50 201h88l-58 -201h-80z" />
    <glyph glyph-name="uni013C" unicode="&#x13c;" horiz-adv-x="326" 
d="M221 -5q-80 0 -124 48t-44 138v579h127v-573q0 -76 65 -76q15 0 49 3v-113q-44 -6 -73 -6zM115 -278l50 201h88l-58 -201h-80z" />
    <glyph glyph-name="Lcaron" unicode="&#x13d;" horiz-adv-x="573" 
d="M61 792l-110 151h108l51 -92h16l51 92h107l-110 -151h-113zM53 0v695h131v-452l-3 -131l131 3h243v-115h-502z" />
    <glyph glyph-name="lcaron" unicode="&#x13e;" horiz-adv-x="326" 
d="M65 857l-110 151h108l51 -92h16l51 92h107l-110 -151h-113zM221 -5q-80 0 -124 48t-44 138v579h127v-573q0 -76 65 -76q15 0 49 3v-113q-44 -6 -73 -6z" />
    <glyph glyph-name="Lslash" unicode="&#x141;" horiz-adv-x="573" 
d="M312 115h243v-115h-502v268l-68 -31v108l68 31v319h131v-259l69 32v-108l-69 -32v-85l-3 -131z" />
    <glyph glyph-name="lslash" unicode="&#x142;" horiz-adv-x="326" 
d="M245 111q15 0 49 3v-113q-44 -6 -73 -6q-80 0 -124 48t-44 138v115l-56 -27v108l56 27v356h127v-296l79 37v-108l-79 -37v-169q0 -76 65 -76z" />
    <glyph glyph-name="Nacute" unicode="&#x143;" horiz-adv-x="711" 
d="M305 789l104 156h110l-113 -156h-101zM53 0v695h167l247 -419l52 -108h16l-6 109v418h130v-695h-168l-263 444l-36 83h-16l6 -109v-418h-129z" />
    <glyph glyph-name="nacute" unicode="&#x144;" 
d="M255 594l104 156h110l-113 -156h-101zM53 0v500h129v-24l-9 -64h14q60 94 169 94q81 0 126 -52t45 -149v-305h-128v278q0 117 -98 117q-53 0 -86 -39.5t-33 -114.5v-241h-129z" />
    <glyph glyph-name="uni0145" unicode="&#x145;" horiz-adv-x="711" 
d="M53 0v695h167l247 -419l52 -108h16l-6 109v418h130v-695h-168l-263 444l-36 83h-16l6 -109v-418h-129zM266 -278l50 201h88l-58 -201h-80z" />
    <glyph glyph-name="uni0146" unicode="&#x146;" 
d="M53 0v500h129v-24l-9 -64h14q60 94 169 94q81 0 126 -52t45 -149v-305h-128v278q0 117 -98 117q-53 0 -86 -39.5t-33 -114.5v-241h-129zM207 -278l50 201h88l-58 -201h-80z" />
    <glyph glyph-name="Ncaron" unicode="&#x147;" horiz-adv-x="711" 
d="M299 792l-110 151h108l51 -92h16l51 92h107l-110 -151h-113zM53 0v695h167l247 -419l52 -108h16l-6 109v418h130v-695h-168l-263 444l-36 83h-16l6 -109v-418h-129z" />
    <glyph glyph-name="ncaron" unicode="&#x148;" 
d="M249 597l-110 151h108l51 -92h16l51 92h107l-110 -151h-113zM53 0v500h129v-24l-9 -64h14q60 94 169 94q81 0 126 -52t45 -149v-305h-128v278q0 117 -98 117q-53 0 -86 -39.5t-33 -114.5v-241h-129z" />
    <glyph glyph-name="Eng" unicode="&#x14a;" horiz-adv-x="731" 
d="M548 695h131v-739q0 -193 -210 -193q-45 0 -105 6v117q72 -4 73 -4q105 0 112 61l-319 511l-37 73h-15l6 -102v-425h-131v695h165l267 -429l54 -112h16l-7 116v425z" />
    <glyph glyph-name="eng" unicode="&#x14b;" 
d="M316 -198q-23 0 -93 5v111q26 -2 62 -2q114 0 114 109v253q0 117 -98 117q-53 0 -86 -39.5t-33 -114.5v-241h-129v500h129v-24l-9 -64h14q57 94 167 94q82 0 127.5 -52t45.5 -149v-280q0 -107 -56.5 -165t-154.5 -58z" />
    <glyph glyph-name="Omacron" unicode="&#x14c;" horiz-adv-x="708" 
d="M203 819v97h302v-97h-302zM356 -10q-157 0 -242.5 97t-85.5 260q0 161 86 259.5t242 98.5q155 0 240 -98.5t85 -259.5q0 -163 -84.5 -260t-240.5 -97zM356 103q94 0 143 67t49 178q0 108 -49.5 175.5t-142.5 67.5q-95 0 -145.5 -67.5t-50.5 -175.5q0 -111 50.5 -178
t145.5 -67z" />
    <glyph glyph-name="omacron" unicode="&#x14d;" horiz-adv-x="540" 
d="M119 624v97h302v-97h-302zM271 -10q-112 0 -178.5 72t-66.5 187q0 116 66.5 188.5t178.5 72.5t177.5 -72.5t65.5 -188.5q0 -115 -65.5 -187t-177.5 -72zM271 96q55 0 85.5 41t30.5 113t-30.5 113t-85.5 41q-56 0 -87.5 -41.5t-31.5 -112.5t31.5 -112.5t87.5 -41.5z" />
    <glyph glyph-name="Ohungarumlaut" unicode="&#x150;" horiz-adv-x="708" 
d="M229 792l103 151h106l-115 -151h-94zM374 792l103 151h107l-115 -151h-95zM356 -10q-157 0 -242.5 97t-85.5 260q0 161 86 259.5t242 98.5q155 0 240 -98.5t85 -259.5q0 -163 -84.5 -260t-240.5 -97zM356 103q94 0 143 67t49 178q0 108 -49.5 175.5t-142.5 67.5
q-95 0 -145.5 -67.5t-50.5 -175.5q0 -111 50.5 -178t145.5 -67z" />
    <glyph glyph-name="ohungarumlaut" unicode="&#x151;" horiz-adv-x="540" 
d="M145 597l103 151h106l-115 -151h-94zM290 597l103 151h107l-115 -151h-95zM271 -10q-112 0 -178.5 72t-66.5 187q0 116 66.5 188.5t178.5 72.5t177.5 -72.5t65.5 -188.5q0 -115 -65.5 -187t-177.5 -72zM271 96q55 0 85.5 41t30.5 113t-30.5 113t-85.5 41
q-56 0 -87.5 -41.5t-31.5 -112.5t31.5 -112.5t87.5 -41.5z" />
    <glyph glyph-name="OE" unicode="&#x152;" horiz-adv-x="1073" 
d="M341 -5q-142 0 -227.5 97t-85.5 255q0 159 85.5 257.5t227.5 98.5q117 0 182 -84h11v76h507v-114h-279l-99 2l2 -67v-43l-2 -60l99 2h223v-113h-223l-99 2l2 -60v-65l-2 -67l103 3h275v-115h-507v78h-11q-62 -83 -182 -83zM348 109q90 0 138 64.5t48 174.5t-48.5 175.5
t-137.5 65.5q-90 0 -139 -65.5t-49 -175.5q0 -109 49 -174t139 -65z" />
    <glyph glyph-name="oe" unicode="&#x153;" horiz-adv-x="923" 
d="M891 215h-295l-66 2q7 -57 42.5 -87t87.5 -30q95 0 120 75l111 -11q-23 -85 -84 -127t-149 -42q-125 0 -195 88q-66 -89 -192 -89q-113 0 -179 72t-66 183t66 184t179 73q123 0 190 -88q69 87 191 87q111 0 176.5 -71t65.5 -180q0 -20 -3 -39zM652 400q-46 0 -78.5 -27
t-42.5 -77l65 2h105l70 -2q-10 50 -41.5 77t-77.5 27zM271 102q56 0 86.5 41.5t30.5 106.5q0 66 -30.5 107t-86.5 41t-88 -41t-32 -107q0 -65 32 -106.5t88 -41.5z" />
    <glyph glyph-name="Racute" unicode="&#x154;" horiz-adv-x="659" 
d="M258 789l104 156h110l-113 -156h-101zM53 0v695h321q105 0 171.5 -50.5t66.5 -149.5q0 -79 -53 -126.5t-141 -48.5v-13q64 -6 103.5 -36.5t61.5 -96.5l56 -174h-133l-49 156q-34 114 -139 114h-48l-88 1l2 -87v-184h-131zM182 377l96 2h75q135 0 135 103t-135 103h-75
l-96 2l2 -77v-53z" />
    <glyph glyph-name="racute" unicode="&#x155;" horiz-adv-x="415" 
d="M186 594l104 156h110l-113 -156h-101zM53 0v500h129v-26l-8 -63h14q15 41 56.5 68.5t109.5 27.5q17 0 33 -2v-119q-33 3 -54 3q-151 0 -151 -173v-216h-129z" />
    <glyph glyph-name="uni0156" unicode="&#x156;" horiz-adv-x="659" 
d="M53 0v695h321q105 0 171.5 -50.5t66.5 -149.5q0 -79 -53 -126.5t-141 -48.5v-13q64 -6 103.5 -36.5t61.5 -96.5l56 -174h-133l-49 156q-34 114 -139 114h-48l-88 1l2 -87v-184h-131zM182 377l96 2h75q135 0 135 103t-135 103h-75l-96 2l2 -77v-53zM245 -278l50 201h88
l-58 -201h-80z" />
    <glyph glyph-name="uni0157" unicode="&#x157;" horiz-adv-x="415" 
d="M53 0v500h129v-26l-8 -63h14q15 41 56.5 68.5t109.5 27.5q17 0 33 -2v-119q-33 3 -54 3q-151 0 -151 -173v-216h-129zM28 -278l50 201h88l-58 -201h-80z" />
    <glyph glyph-name="Rcaron" unicode="&#x158;" horiz-adv-x="659" 
d="M252 792l-110 151h108l51 -92h16l51 92h107l-110 -151h-113zM53 0v695h321q105 0 171.5 -50.5t66.5 -149.5q0 -79 -53 -126.5t-141 -48.5v-13q64 -6 103.5 -36.5t61.5 -96.5l56 -174h-133l-49 156q-34 114 -139 114h-48l-88 1l2 -87v-184h-131zM182 377l96 2h75
q135 0 135 103t-135 103h-75l-96 2l2 -77v-53z" />
    <glyph glyph-name="rcaron" unicode="&#x159;" horiz-adv-x="415" 
d="M180 597l-110 151h108l51 -92h16l51 92h107l-110 -151h-113zM53 0v500h129v-26l-8 -63h14q15 41 56.5 68.5t109.5 27.5q17 0 33 -2v-119q-33 3 -54 3q-151 0 -151 -173v-216h-129z" />
    <glyph glyph-name="Sacute" unicode="&#x15a;" horiz-adv-x="653" 
d="M274 789l104 156h110l-113 -156h-101zM341 -10q-124 0 -206.5 59t-100.5 169l131 12q12 -60 59.5 -93.5t117.5 -33.5t109.5 26t39.5 70q0 39 -25.5 59t-87.5 29l-123 18q-98 14 -151 63t-53 127q0 92 74.5 151t190.5 59q118 0 192 -59t80 -177l-124 -9q-7 66 -46 99.5
t-102 33.5q-60 0 -98 -27.5t-38 -70.5q0 -66 97 -81l136 -20q207 -29 207 -195q0 -95 -76 -152t-203 -57z" />
    <glyph glyph-name="sacute" unicode="&#x15b;" horiz-adv-x="499" 
d="M196 594l104 156h110l-113 -156h-101zM258 -10q-99 0 -158 44t-72 113l121 12q18 -70 109 -70q44 0 69.5 16.5t25.5 42.5q0 44 -63 52l-95 10q-161 18 -161 135q0 69 58 117t150 48q94 0 147.5 -46t59.5 -118l-112 -8q-4 33 -28 53t-67 20q-42 0 -65 -18.5t-23 -44.5
q0 -40 56 -47l99 -11q166 -18 166 -138q0 -69 -57 -115.5t-160 -46.5z" />
    <glyph glyph-name="Scedilla" unicode="&#x15e;" horiz-adv-x="653" 
d="M620 199q0 -86 -62.5 -141t-170.5 -66v-34q100 -11 100 -89q0 -45 -37.5 -70.5t-110.5 -25.5q-38 0 -90 5v63q33 -3 78 -3q75 0 75 35q0 39 -87 41v77q-114 6 -189 64.5t-92 162.5l131 12q12 -60 59.5 -93.5t117.5 -33.5t109.5 26t39.5 70q0 39 -25.5 59t-87.5 29
l-123 18q-98 14 -151 63t-53 127q0 92 74.5 151t190.5 59q118 0 192 -59t80 -177l-124 -9q-7 66 -46 99.5t-102 33.5q-60 0 -98 -27.5t-38 -70.5q0 -66 97 -81l136 -20q207 -29 207 -195z" />
    <glyph glyph-name="scedilla" unicode="&#x15f;" horiz-adv-x="499" 
d="M475 152q0 -61 -45 -105.5t-128 -53.5v-25q100 -11 100 -89q0 -45 -37.5 -70.5t-110.5 -25.5q-38 0 -90 5v63q33 -3 78 -3q75 0 75 35q0 39 -87 41v67q-87 6 -138.5 49t-63.5 107l121 12q18 -70 109 -70q44 0 69.5 16.5t25.5 42.5q0 44 -63 52l-95 10q-161 18 -161 135
q0 69 58 117t150 48q94 0 147.5 -46t59.5 -118l-112 -8q-4 33 -28 53t-67 20q-42 0 -65 -18.5t-23 -44.5q0 -40 56 -47l99 -11q166 -18 166 -138z" />
    <glyph glyph-name="Scaron" unicode="&#x160;" horiz-adv-x="653" 
d="M268 792l-110 151h108l51 -92h16l51 92h107l-110 -151h-113zM341 -10q-124 0 -206.5 59t-100.5 169l131 12q12 -60 59.5 -93.5t117.5 -33.5t109.5 26t39.5 70q0 39 -25.5 59t-87.5 29l-123 18q-98 14 -151 63t-53 127q0 92 74.5 151t190.5 59q118 0 192 -59t80 -177
l-124 -9q-7 66 -46 99.5t-102 33.5q-60 0 -98 -27.5t-38 -70.5q0 -66 97 -81l136 -20q207 -29 207 -195q0 -95 -76 -152t-203 -57z" />
    <glyph glyph-name="scaron" unicode="&#x161;" horiz-adv-x="499" 
d="M190 597l-110 151h108l51 -92h16l51 92h107l-110 -151h-113zM258 -10q-99 0 -158 44t-72 113l121 12q18 -70 109 -70q44 0 69.5 16.5t25.5 42.5q0 44 -63 52l-95 10q-161 18 -161 135q0 69 58 117t150 48q94 0 147.5 -46t59.5 -118l-112 -8q-4 33 -28 53t-67 20
q-42 0 -65 -18.5t-23 -44.5q0 -40 56 -47l99 -11q166 -18 166 -138q0 -69 -57 -115.5t-160 -46.5z" />
    <glyph glyph-name="uni0162" unicode="&#x162;" horiz-adv-x="640" 
d="M12 695h616v-115h-135l-110 3l2 -135v-448h-27v-42q100 -11 100 -89q0 -45 -37.5 -70.5t-110.5 -25.5q-38 0 -90 5v63q33 -3 78 -3q75 0 75 35q0 39 -87 41v86h-32v448l3 135l-111 -3h-134v115z" />
    <glyph glyph-name="uni0163" unicode="&#x163;" horiz-adv-x="401" 
d="M324 -42q100 -11 100 -89q0 -45 -37.5 -70.5t-110.5 -25.5q-38 0 -90 5v63q33 -3 78 -3q75 0 75 35q0 39 -87 41v84q-137 22 -137 183v214l-55 -4h-47v109h47l58 -3l-3 47v105h126v-105l-2 -47l50 3h77v-109h-77l-48 4v-207q0 -76 75 -76q27 0 50 3v-114q-37 -5 -42 -5
v-38z" />
    <glyph glyph-name="Tcaron" unicode="&#x164;" horiz-adv-x="640" 
d="M263 792l-110 151h108l51 -92h16l51 92h107l-110 -151h-113zM254 0v448l3 135l-111 -3h-134v115h616v-115h-135l-110 3l2 -135v-448h-131z" />
    <glyph glyph-name="tcaron" unicode="&#x165;" horiz-adv-x="401" 
d="M121 746l-110 151h108l51 -92h16l51 92h107l-110 -151h-113zM292 -5q-86 0 -131.5 48t-45.5 138v214l-55 -4h-47v109h47l58 -3l-3 47v105h126v-105l-2 -47l50 3h77v-109h-77l-48 4v-207q0 -76 75 -76q27 0 50 3v-114q-44 -6 -74 -6z" />
    <glyph glyph-name="Tbar" unicode="&#x166;" horiz-adv-x="640" 
d="M628 580h-135l-110 3l2 -135v-55h134v-90h-134v-303h-131v303h-133v90h133v55l3 135l-111 -3h-134v115h616v-115z" />
    <glyph glyph-name="tbar" unicode="&#x167;" horiz-adv-x="401" 
d="M289 391l-48 4v-56h103v-90h-103v-61q0 -76 75 -76q27 0 50 3v-114q-44 -6 -74 -6q-86 0 -131.5 48t-45.5 138v68h-89v90h89v56l-55 -4h-47v109h47l58 -3l-3 47v105h126v-105l-2 -47l50 3h77v-109h-77z" />
    <glyph glyph-name="Utilde" unicode="&#x168;" horiz-adv-x="705" 
d="M196 786q0 81 24.5 121.5t68.5 40.5q23 0 42 -12.5t29.5 -28t23 -28t22.5 -12.5q35 0 35 81h66q0 -79 -26.5 -120.5t-68.5 -41.5q-24 0 -43 11t-29 25t-22 25t-23 11q-31 0 -31 -72h-68zM355 -10q-141 0 -224 77t-83 220v408h131v-407q0 -90 47 -135.5t129 -45.5
q79 0 125 45.5t46 135.5v407h132v-408q0 -143 -82 -220t-221 -77z" />
    <glyph glyph-name="utilde" unicode="&#x169;" 
d="M128 591q0 81 24.5 121.5t68.5 40.5q23 0 42 -12.5t29.5 -28t23 -28t22.5 -12.5q35 0 35 81h66q0 -79 -26.5 -120.5t-68.5 -41.5q-24 0 -43 11.5t-29 24.5t-22 24.5t-23 11.5q-31 0 -31 -72h-68zM222 -6q-82 0 -128 54.5t-46 156.5v295h128v-268q0 -127 98 -127
q53 0 86 39.5t33 114.5v241h130v-500h-130v24l9 64h-15q-54 -94 -165 -94z" />
    <glyph glyph-name="Umacron" unicode="&#x16a;" horiz-adv-x="705" 
d="M201 819v97h302v-97h-302zM355 -10q-141 0 -224 77t-83 220v408h131v-407q0 -90 47 -135.5t129 -45.5q79 0 125 45.5t46 135.5v407h132v-408q0 -143 -82 -220t-221 -77z" />
    <glyph glyph-name="umacron" unicode="&#x16b;" 
d="M133 624v97h302v-97h-302zM222 -6q-82 0 -128 54.5t-46 156.5v295h128v-268q0 -127 98 -127q53 0 86 39.5t33 114.5v241h130v-500h-130v24l9 64h-15q-54 -94 -165 -94z" />
    <glyph glyph-name="Uring" unicode="&#x16e;" horiz-adv-x="705" 
d="M352 776q-38 0 -65 27.5t-27 65.5t27 65t65 27t65 -27t27 -65t-27 -65.5t-65 -27.5zM352 833q15 0 26 10.5t11 25.5t-11 25.5t-26 10.5t-26 -10.5t-11 -25.5t11 -25.5t26 -10.5zM355 -10q-141 0 -224 77t-83 220v408h131v-407q0 -90 47 -135.5t129 -45.5q79 0 125 45.5
t46 135.5v407h132v-408q0 -143 -82 -220t-221 -77z" />
    <glyph glyph-name="uring" unicode="&#x16f;" 
d="M283 581q-38 0 -65 27.5t-27 65.5t27 65t65 27t65 -27t27 -65t-27 -65.5t-65 -27.5zM283 638q15 0 26 10.5t11 25.5t-11 25.5t-26 10.5t-26 -10.5t-11 -25.5t11 -25.5t26 -10.5zM222 -6q-82 0 -128 54.5t-46 156.5v295h128v-268q0 -127 98 -127q53 0 86 39.5t33 114.5
v241h130v-500h-130v24l9 64h-15q-54 -94 -165 -94z" />
    <glyph glyph-name="Uhungarumlaut" unicode="&#x170;" horiz-adv-x="705" 
d="M228 792l103 151h106l-115 -151h-94zM373 792l103 151h107l-115 -151h-95zM355 -10q-141 0 -224 77t-83 220v408h131v-407q0 -90 47 -135.5t129 -45.5q79 0 125 45.5t46 135.5v407h132v-408q0 -143 -82 -220t-221 -77z" />
    <glyph glyph-name="uhungarumlaut" unicode="&#x171;" 
d="M159 597l103 151h106l-115 -151h-94zM304 597l103 151h107l-115 -151h-95zM222 -6q-82 0 -128 54.5t-46 156.5v295h128v-268q0 -127 98 -127q53 0 86 39.5t33 114.5v241h130v-500h-130v24l9 64h-15q-54 -94 -165 -94z" />
    <glyph glyph-name="Uogonek" unicode="&#x172;" horiz-adv-x="705" 
d="M526 695h132v-408q0 -116 -55 -189t-152 -97q-45 -34 -62.5 -56.5t-17.5 -46.5q0 -41 57 -41q32 0 67 8v-74q-46 -10 -86 -10q-58 0 -90.5 28.5t-32.5 79.5q0 53 54 101q-135 5 -213.5 81.5t-78.5 215.5v408h131v-407q0 -90 47 -135.5t129 -45.5q79 0 125 45.5t46 135.5
v407z" />
    <glyph glyph-name="uogonek" unicode="&#x173;" 
d="M484 0q-56 -41 -77.5 -66t-21.5 -51q0 -41 57 -41q32 0 67 8v-74q-46 -10 -86 -10q-58 0 -90.5 28.5t-32.5 79.5q0 71 93 130v20l9 64h-15q-54 -94 -165 -94q-82 0 -128 54.5t-46 156.5v295h128v-268q0 -127 98 -127q53 0 86 39.5t33 114.5v241h130v-500h-39z" />
    <glyph glyph-name="Wcircumflex" unicode="&#x174;" horiz-adv-x="1061" 
d="M364 792l110 151h113l110 -151h-107l-51 92h-16l-51 -92h-108zM211 0l-203 695h136l131 -467l13 -76h12l18 76l146 467h133l146 -467l18 -76h12l13 76l131 467h136l-204 -695h-155l-139 419l-19 88h-12l-18 -88l-139 -419h-156z" />
    <glyph glyph-name="wcircumflex" unicode="&#x175;" horiz-adv-x="826" 
d="M247 597l110 151h113l110 -151h-107l-51 92h-16l-51 -92h-108zM155 0l-151 500h138l82 -320l8 -54h11l10 54l97 320h126l98 -320l10 -54h11l6 54l82 320h139l-151 -500h-155l-85 271l-10 59h-14l-10 -59l-87 -271h-155z" />
    <glyph glyph-name="Ycircumflex" unicode="&#x176;" horiz-adv-x="738" 
d="M202 792l110 151h113l110 -151h-107l-51 92h-16l-51 -92h-108zM304 0v251l-296 444h157l152 -236l47 -96h13l45 96l150 236h158l-295 -444v-251h-131z" />
    <glyph glyph-name="ycircumflex" unicode="&#x177;" horiz-adv-x="552" 
d="M113 597l110 151h113l110 -151h-107l-51 92h-16l-51 -92h-108zM121 -240q-53 0 -91 3v115q27 -3 67 -3q43 0 66.5 16t39.5 53l18 43l-212 513h144l102 -285l20 -87h13l20 87l94 285h141l-214 -563q-37 -98 -85.5 -137.5t-122.5 -39.5z" />
    <glyph glyph-name="Ydieresis" unicode="&#x178;" horiz-adv-x="738" 
d="M213 807v121h122v-121h-122zM401 807v121h122v-121h-122zM304 0v251l-296 444h157l152 -236l47 -96h13l45 96l150 236h158l-295 -444v-251h-131z" />
    <glyph glyph-name="Zacute" unicode="&#x179;" horiz-adv-x="619" 
d="M263 789l104 156h110l-113 -156h-101zM19 0v107l363 418l58 41v14h-415v115h574v-105l-365 -420l-58 -41v-14h426v-115h-583z" />
    <glyph glyph-name="zacute" unicode="&#x17a;" horiz-adv-x="498" 
d="M199 594l104 156h110l-113 -156h-101zM22 0v93l247 268l33 20v12h-274v107h436v-94l-245 -265l-33 -21v-12h282v-108h-446z" />
    <glyph glyph-name="Zdotaccent" unicode="&#x17b;" horiz-adv-x="619" 
d="M246 800v136h136v-136h-136zM19 0v107l363 418l58 41v14h-415v115h574v-105l-365 -420l-58 -41v-14h426v-115h-583z" />
    <glyph glyph-name="zdotaccent" unicode="&#x17c;" horiz-adv-x="498" 
d="M182 605v136h136v-136h-136zM22 0v93l247 268l33 20v12h-274v107h436v-94l-245 -265l-33 -21v-12h282v-108h-446z" />
    <glyph glyph-name="Zcaron" unicode="&#x17d;" horiz-adv-x="619" 
d="M257 792l-110 151h108l51 -92h16l51 92h107l-110 -151h-113zM19 0v107l363 418l58 41v14h-415v115h574v-105l-365 -420l-58 -41v-14h426v-115h-583z" />
    <glyph glyph-name="zcaron" unicode="&#x17e;" horiz-adv-x="498" 
d="M193 597l-110 151h108l51 -92h16l51 92h107l-110 -151h-113zM22 0v93l247 268l33 20v12h-274v107h436v-94l-245 -265l-33 -21v-12h282v-108h-446z" />
    <glyph glyph-name="florin" unicode="&#x192;" horiz-adv-x="582" 
d="M562 584q-30 0 -48.5 -1t-43.5 -7.5t-40 -18.5t-28.5 -34.5t-20.5 -55.5l-8 -38l122 1v-107l-145 -1l-18 -87q-16 -74 -43.5 -121.5t-70 -72t-88 -33t-110.5 -8.5v111q38 0 60.5 2.5t50 13t44.5 36t26 65.5l19 94l-123 -1v107l145 1l7 32q15 74 43 121.5t70.5 71.5
t88 32.5t111.5 8.5v-111z" />
    <glyph glyph-name="Ohorn" unicode="&#x1a0;" horiz-adv-x="708" 
d="M601 601q80 -95 80 -254q0 -163 -84.5 -260t-240.5 -97q-157 0 -242.5 97t-85.5 260q0 161 86 259.5t242 98.5q103 0 180 -47q12 5 20 14.5t10.5 24t3.5 24.5t0 27t-1 20h94q0 -39 -2.5 -64t-17 -56.5t-42.5 -46.5zM356 103q94 0 143 67t49 178q0 108 -49.5 175.5
t-142.5 67.5q-95 0 -145.5 -67.5t-50.5 -175.5q0 -111 50.5 -178t145.5 -67z" />
    <glyph glyph-name="ohorn" unicode="&#x1a1;" horiz-adv-x="540" 
d="M527 596q0 -30 -1.5 -49.5t-7.5 -46t-21 -45.5t-39 -29q56 -70 56 -177q0 -115 -65.5 -187t-177.5 -72t-178.5 72t-66.5 187q0 116 66.5 188.5t178.5 72.5q65 0 119 -27q16 3 25.5 12t13 25t5 25.5t0.5 29.5t-1 21h94zM271 96q55 0 85.5 41t30.5 113t-30.5 113t-85.5 41
q-56 0 -87.5 -41.5t-31.5 -112.5t31.5 -112.5t87.5 -41.5z" />
    <glyph glyph-name="Uhorn" unicode="&#x1af;" horiz-adv-x="705" 
d="M766 810q0 -28 -1 -45.5t-6.5 -44t-16.5 -42.5t-32.5 -30t-51.5 -17v-344q0 -143 -82 -220t-221 -77q-141 0 -224 77t-83 220v408h131v-407q0 -90 47 -135.5t129 -45.5q79 0 125 45.5t46 135.5v407h84q18 0 31 6.5t19.5 15t9.5 23.5t3 24.5t-0.5 26t-0.5 19.5h94z" />
    <glyph glyph-name="uhorn" unicode="&#x1b0;" 
d="M625 615q0 -34 -2 -56t-11 -52t-31.5 -48t-57.5 -23v-436h-130v24l9 64h-15q-54 -94 -165 -94q-82 0 -128 54.5t-46 156.5v295h128v-268q0 -127 98 -127q53 0 86 39.5t33 114.5v241h76q18 0 31 6.5t19.5 15t9.5 23.5t3 24.5t-0.5 26t-0.5 19.5h94z" />
    <glyph glyph-name="uni01CD" unicode="&#x1cd;" horiz-adv-x="725" 
d="M307 792l-110 151h108l51 -92h16l51 92h107l-110 -151h-113zM4 0l287 695h143l288 -695h-143l-62 163l-114 -2h-81l-114 2l-61 -163h-143zM247 269l75 2h81l75 -2l-21 53l-71 175l-18 71h-11l-18 -71l-71 -175z" />
    <glyph glyph-name="uni01CE" unicode="&#x1ce;" horiz-adv-x="555" 
d="M236 597l-110 151h108l51 -92h16l51 92h107l-110 -151h-113zM210 -10q-77 0 -123.5 37.5t-46.5 102.5q0 32 11.5 57.5t27 42t45 27.5t52 16.5t62.5 8.5t62 3.5t65 0.5h3h3h4v38q0 37 -22.5 60t-63.5 23q-44 0 -72 -25t-32 -69l-122 7q7 89 70.5 139.5t155.5 50.5
q96 0 155 -51t59 -148v-311h-97l-12 83h-11q-41 -93 -173 -93zM245 85q58 0 94 31t36 81v14q-32 0 -50.5 -0.5t-47 -2.5t-45 -6.5t-33.5 -12t-24.5 -19.5t-7.5 -29q0 -26 20.5 -41t57.5 -15z" />
    <glyph glyph-name="uni01CF" unicode="&#x1cf;" horiz-adv-x="236" 
d="M61 792l-110 151h108l51 -92h16l51 92h107l-110 -151h-113zM53 0v695h131v-695h-131z" />
    <glyph glyph-name="uni01D0" unicode="&#x1d0;" horiz-adv-x="274" 
d="M80 597l-110 151h108l51 -92h16l51 92h107l-110 -151h-113zM73 0v500h128v-500h-128z" />
    <glyph glyph-name="uni01D1" unicode="&#x1d1;" horiz-adv-x="708" 
d="M297 792l-110 151h108l51 -92h16l51 92h107l-110 -151h-113zM356 -10q-157 0 -242.5 97t-85.5 260q0 161 86 259.5t242 98.5q155 0 240 -98.5t85 -259.5q0 -163 -84.5 -260t-240.5 -97zM356 103q94 0 143 67t49 178q0 108 -49.5 175.5t-142.5 67.5q-95 0 -145.5 -67.5
t-50.5 -175.5q0 -111 50.5 -178t145.5 -67z" />
    <glyph glyph-name="uni01D2" unicode="&#x1d2;" horiz-adv-x="540" 
d="M213 597l-110 151h108l51 -92h16l51 92h107l-110 -151h-113zM271 -10q-112 0 -178.5 72t-66.5 187q0 116 66.5 188.5t178.5 72.5t177.5 -72.5t65.5 -188.5q0 -115 -65.5 -187t-177.5 -72zM271 96q55 0 85.5 41t30.5 113t-30.5 113t-85.5 41q-56 0 -87.5 -41.5
t-31.5 -112.5t31.5 -112.5t87.5 -41.5z" />
    <glyph glyph-name="uni01D3" unicode="&#x1d3;" horiz-adv-x="705" 
d="M295 792l-110 151h108l51 -92h16l51 92h107l-110 -151h-113zM355 -10q-141 0 -224 77t-83 220v408h131v-407q0 -90 47 -135.5t129 -45.5q79 0 125 45.5t46 135.5v407h132v-408q0 -143 -82 -220t-221 -77z" />
    <glyph glyph-name="uni01D4" unicode="&#x1d4;" 
d="M227 597l-110 151h108l51 -92h16l51 92h107l-110 -151h-113zM222 -6q-82 0 -128 54.5t-46 156.5v295h128v-268q0 -127 98 -127q53 0 86 39.5t33 114.5v241h130v-500h-130v24l9 64h-15q-54 -94 -165 -94z" />
    <glyph glyph-name="Gcaron" unicode="&#x1e6;" horiz-adv-x="724" 
d="M300 792l-110 151h108l51 -92h16l51 92h107l-110 -151h-113zM341 -8q-141 0 -227.5 96.5t-86.5 258.5q0 159 90 258t237 99q134 0 214.5 -73.5t94.5 -203.5l-125 -9q-9 81 -57 127t-126 46q-90 0 -145 -68t-55 -176q0 -109 53.5 -176.5t138.5 -67.5q75 0 123 35.5
t62 104.5h-181v103h325v-346h-99l-3 110h-22q-23 -52 -77 -85t-134 -33z" />
    <glyph glyph-name="gcaron" unicode="&#x1e7;" horiz-adv-x="582" 
d="M203 597l-110 151h108l51 -92h16l51 92h107l-110 -151h-113zM274 -245q-94 0 -162 49.5t-83 143.5l113 13q10 -47 45 -73.5t87 -26.5q60 0 93.5 34.5t33.5 99.5v30l8 59h-13q-17 -40 -56 -65t-96 -25q-93 0 -152 69t-59 186q0 115 59.5 186t151.5 71q99 0 152 -94h13
l-8 66v22h129v-493q0 -119 -70 -185.5t-186 -66.5zM281 100q54 0 86.5 40.5t32.5 108.5q0 69 -32 110t-87 41q-53 0 -85 -41t-32 -110q0 -68 32 -108.5t85 -40.5z" />
    <glyph glyph-name="Oslashacute" unicode="&#x1fe;" horiz-adv-x="708" 
d="M517 945l-113 -156h-101l104 156h110zM583 621q98 -96 98 -274q0 -163 -84.5 -260t-240.5 -97q-80 0 -143 26l-44 -72h-120l79 128q-100 97 -100 275q0 161 86 259.5t242 98.5q77 0 142 -27l45 73h119zM160 348q0 -96 38 -160l237 387q-37 16 -79 16q-95 0 -145.5 -67.5
t-50.5 -175.5zM356 103q94 0 143 67t49 178q0 95 -37 156l-235 -385q33 -16 80 -16z" />
    <glyph glyph-name="oslashacute" unicode="&#x1ff;" horiz-adv-x="540" 
d="M433 750l-113 -156h-101l104 156h110zM438 448q76 -73 76 -199q0 -115 -65.5 -187t-177.5 -72q-57 0 -101 19l-50 -83h-96l77 127q-75 72 -75 196q0 116 66.5 188.5t178.5 72.5q55 0 99 -18l49 80h95zM152 250q0 -51 17 -87l143 234q-17 7 -41 7q-56 0 -87.5 -41.5
t-31.5 -112.5zM271 96q55 0 85.5 41t30.5 113q0 53 -16 88l-143 -234q21 -8 43 -8z" />
    <glyph glyph-name="uni0218" unicode="&#x218;" horiz-adv-x="653" 
d="M341 -10q-124 0 -206.5 59t-100.5 169l131 12q12 -60 59.5 -93.5t117.5 -33.5t109.5 26t39.5 70q0 39 -25.5 59t-87.5 29l-123 18q-98 14 -151 63t-53 127q0 92 74.5 151t190.5 59q118 0 192 -59t80 -177l-124 -9q-7 66 -46 99.5t-102 33.5q-60 0 -98 -27.5t-38 -70.5
q0 -66 97 -81l136 -20q207 -29 207 -195q0 -95 -76 -152t-203 -57zM258 -278l50 201h88l-58 -201h-80z" />
    <glyph glyph-name="uni0219" unicode="&#x219;" horiz-adv-x="499" 
d="M258 -10q-99 0 -158 44t-72 113l121 12q18 -70 109 -70q44 0 69.5 16.5t25.5 42.5q0 44 -63 52l-95 10q-161 18 -161 135q0 69 58 117t150 48q94 0 147.5 -46t59.5 -118l-112 -8q-4 33 -28 53t-67 20q-42 0 -65 -18.5t-23 -44.5q0 -40 56 -47l99 -11q166 -18 166 -138
q0 -69 -57 -115.5t-160 -46.5zM174 -268l50 201h88l-58 -201h-80z" />
    <glyph glyph-name="uni021A" unicode="&#x21a;" horiz-adv-x="640" 
d="M254 0v448l3 135l-111 -3h-134v115h616v-115h-135l-110 3l2 -135v-448h-131zM230 -278l50 201h88l-58 -201h-80z" />
    <glyph glyph-name="uni021B" unicode="&#x21b;" horiz-adv-x="401" 
d="M292 -5q-86 0 -131.5 48t-45.5 138v214l-55 -4h-47v109h47l58 -3l-3 47v105h126v-105l-2 -47l50 3h77v-109h-77l-48 4v-207q0 -76 75 -76q27 0 50 3v-114q-44 -6 -74 -6zM196 -278l50 201h88l-58 -201h-80z" />
    <glyph glyph-name="uni0228" unicode="&#x228;" horiz-adv-x="617" 
d="M585 581h-304l-100 1l3 -66v-43l-3 -59l100 1h251v-113h-251l-100 1l3 -59v-65l-3 -66l100 2h304v-115h-225v-42q100 -11 100 -89q0 -45 -37.5 -70.5t-110.5 -25.5q-38 0 -90 5v63q33 -3 78 -3q75 0 75 35q0 39 -87 41v86h-235v695h532v-114z" />
    <glyph glyph-name="uni0229" unicode="&#x229;" horiz-adv-x="538" 
d="M504 210h-288l-66 2q6 -59 40.5 -90.5t84.5 -31.5q41 0 71.5 18.5t40.5 53.5l115 -12q-20 -71 -72.5 -111.5t-125.5 -47.5v-33q100 -11 100 -89q0 -45 -37.5 -70.5t-110.5 -25.5q-38 0 -90 5v63q33 -3 78 -3q75 0 75 35q0 39 -87 41v79q-93 14 -149 82.5t-56 173.5
q0 117 65.5 189t177.5 72q107 0 171.5 -71.5t64.5 -184.5q0 -31 -2 -44zM270 411q-47 0 -80 -29.5t-40 -86.5l69 2h100l68 -2q-6 56 -38.5 86t-78.5 30z" />
    <glyph glyph-name="uni0259" unicode="&#x259;" horiz-adv-x="529" 
d="M264 -5q-107 0 -171 69t-64 175q0 26 2 40h283l67 -1q-6 61 -40.5 93t-81.5 32q-40 0 -71 -21t-43 -58l-115 11q23 83 85 126.5t144 43.5q109 0 177 -70t68 -184q0 -115 -65.5 -185.5t-174.5 -70.5zM264 97q44 0 76.5 26.5t37.5 73.5l-67 -2h-94l-66 2q4 -47 36.5 -73.5
t76.5 -26.5z" />
    <glyph glyph-name="uni0265" unicode="&#x265;" 
d="M523 500v-760h-130v284l9 64h-14q-60 -94 -169 -94q-81 0 -126 52t-45 149v305h128v-278q0 -117 98 -117q53 0 86 39.5t33 114.5v241h130z" />
    <glyph glyph-name="uni02BC" unicode="&#x2bc;" horiz-adv-x="174" 
d="M26 426l-7 182v87h118v-87l-7 -182h-104z" />
    <glyph glyph-name="circumflex" unicode="&#x2c6;" horiz-adv-x="334" 
d="M0 597l110 151h113l110 -151h-107l-51 92h-16l-51 -92h-108z" />
    <glyph glyph-name="caron" unicode="&#x2c7;" horiz-adv-x="334" 
d="M110 597l-110 151h108l51 -92h16l51 92h107l-110 -151h-113z" />
    <glyph glyph-name="breve" unicode="&#x2d8;" horiz-adv-x="294" 
d="M147 586q-146 0 -147 161h71q1 -50 19 -70t57 -20q40 0 57.5 20t18.5 70h72q-3 -161 -148 -161z" />
    <glyph glyph-name="dotaccent" unicode="&#x2d9;" horiz-adv-x="136" 
d="M0 605v136h136v-136h-136z" />
    <glyph glyph-name="ring" unicode="&#x2da;" horiz-adv-x="184" 
d="M92 581q-38 0 -65 27.5t-27 65.5t27 65t65 27t65 -27t27 -65t-27 -65.5t-65 -27.5zM92 638q15 0 26 10.5t11 25.5t-11 25.5t-26 10.5t-26 -10.5t-11 -25.5t11 -25.5t26 -10.5z" />
    <glyph glyph-name="ogonek" unicode="&#x2db;" horiz-adv-x="209" 
d="M123 -224q-58 0 -90.5 28.5t-32.5 79.5q0 87 134 152l54 -23q-59 -43 -81 -68t-22 -52q0 -41 57 -41q32 0 67 8v-74q-46 -10 -86 -10z" />
    <glyph glyph-name="tilde" unicode="&#x2dc;" horiz-adv-x="312" 
d="M0 591q0 81 24.5 121.5t68.5 40.5q23 0 42 -12.5t29.5 -28t23 -28t22.5 -12.5q35 0 35 81h66q0 -79 -26.5 -120.5t-68.5 -41.5q-24 0 -43 11.5t-29 24.5t-22 24.5t-23 11.5q-31 0 -31 -72h-68z" />
    <glyph glyph-name="hungarumlaut" unicode="&#x2dd;" horiz-adv-x="354" 
d="M0 597l103 151h106l-115 -151h-94zM145 597l103 151h107l-115 -151h-95z" />
    <glyph glyph-name="gravecomb" unicode="&#x300;" horiz-adv-x="0" 
d="M-99 594l-96 156h111l84 -156h-99z" />
    <glyph glyph-name="acutecomb" unicode="&#x301;" horiz-adv-x="0" 
d="M-214 594l104 156h110l-113 -156h-101z" />
    <glyph glyph-name="uni0302" unicode="&#x302;" horiz-adv-x="0" 
d="M-334 597l110 151h113l110 -151h-107l-51 92h-16l-51 -92h-108z" />
    <glyph glyph-name="tildecomb" unicode="&#x303;" horiz-adv-x="0" 
d="M-312 591q0 81 24.5 121.5t68.5 40.5q23 0 42 -12.5t29.5 -28t23 -28t22.5 -12.5q35 0 35 81h66q0 -79 -26.5 -120.5t-68.5 -41.5q-24 0 -43 11.5t-29 24.5t-22 24.5t-23 11.5q-31 0 -31 -72h-68z" />
    <glyph glyph-name="uni0304" unicode="&#x304;" horiz-adv-x="0" 
d="M-302 624v97h302v-97h-302z" />
    <glyph glyph-name="uni0306" unicode="&#x306;" horiz-adv-x="0" 
d="M-147 586q-146 0 -147 161h71q1 -50 19 -70t57 -20q40 0 57.5 20t18.5 70h72q-3 -161 -148 -161z" />
    <glyph glyph-name="uni0307" unicode="&#x307;" horiz-adv-x="0" 
d="M-136 605v136h136v-136h-136z" />
    <glyph glyph-name="uni0308" unicode="&#x308;" horiz-adv-x="0" 
d="M-310 612v121h122v-121h-122zM-122 612v121h122v-121h-122z" />
    <glyph glyph-name="hookabovecomb" unicode="&#x309;" horiz-adv-x="0" 
d="M-94 588q8 27 8 49q0 37 -35 37q-29 0 -71 -13v80q45 16 92 16t73.5 -27t26.5 -68q0 -39 -13 -74h-81z" />
    <glyph glyph-name="uni030A" unicode="&#x30a;" horiz-adv-x="0" 
d="M-92 581q-38 0 -65 27.5t-27 65.5t27 65t65 27t65 -27t27 -65t-27 -65.5t-65 -27.5zM-92 638q15 0 26 10.5t11 25.5t-11 25.5t-26 10.5t-26 -10.5t-11 -25.5t11 -25.5t26 -10.5z" />
    <glyph glyph-name="uni030B" unicode="&#x30b;" horiz-adv-x="0" 
d="M-354 597l103 151h106l-115 -151h-94zM-209 597l103 151h107l-115 -151h-95z" />
    <glyph glyph-name="uni030C" unicode="&#x30c;" horiz-adv-x="0" 
d="M-224 597l-110 151h108l51 -92h16l51 92h107l-110 -151h-113z" />
    <glyph glyph-name="uni0312" unicode="&#x312;" horiz-adv-x="0" 
d="M-138 585l59 175h79l-51 -175h-87z" />
    <glyph glyph-name="uni031B" unicode="&#x31b;" horiz-adv-x="0" 
d="M-156 439v64q18 0 31 6.5t19.5 15t9.5 23.5t3 24.5t-0.5 26t-0.5 19.5h94q0 -32 -1.5 -51.5t-9.5 -49t-23.5 -46t-46.5 -27t-75 -5.5z" />
    <glyph glyph-name="dotbelowcomb" unicode="&#x323;" horiz-adv-x="0" 
d="M-128 -207v121h128v-121h-128z" />
    <glyph glyph-name="uni0326" unicode="&#x326;" horiz-adv-x="0" 
d="M-138 -278l50 201h88l-58 -201h-80z" />
    <glyph glyph-name="uni0327" unicode="&#x327;" horiz-adv-x="0" 
d="M-147 -227q-38 0 -90 5v63q33 -3 78 -3q75 0 75 35q0 39 -87 41v109l72 -7v-58q100 -11 100 -89q0 -45 -37.5 -70.5t-110.5 -25.5z" />
    <glyph glyph-name="uni0328" unicode="&#x328;" horiz-adv-x="0" 
d="M-86 -224q-58 0 -90.5 28.5t-32.5 79.5q0 87 134 152l54 -23q-59 -43 -81 -68t-22 -52q0 -41 57 -41q32 0 67 8v-74q-46 -10 -86 -10z" />
    <glyph glyph-name="uni0335" unicode="&#x335;" horiz-adv-x="0" 
d="M-398 260v90h398v-90h-398z" />
    <glyph glyph-name="uni0336" unicode="&#x336;" horiz-adv-x="0" 
d="M-738 490v101h738v-101h-738z" />
    <glyph glyph-name="uni0337" unicode="&#x337;" horiz-adv-x="0" 
d="M-268 241v108l268 123v-108z" />
    <glyph glyph-name="uni0338" unicode="&#x338;" horiz-adv-x="0" 
d="M-613 -57l494 807h119l-493 -807h-120z" />
    <glyph glyph-name="uni0394" unicode="&#x394;" horiz-adv-x="708" 
d="M31 0v116l251 579h144l251 -579v-116h-646zM169 115h370l-159 383l-18 66h-17l-16 -66z" />
    <glyph glyph-name="uni03A9" unicode="&#x3a9;" horiz-adv-x="695" 
d="M667 355q0 -161 -101 -247h97v-108h-260v122q65 17 98.5 78.5t33.5 154.5q0 107 -48.5 172t-137.5 65t-138.5 -65.5t-49.5 -171.5q0 -91 33 -153t95 -80v-122h-260v108h101q-102 87 -102 247q0 155 85.5 251.5t235.5 96.5t234 -96t84 -252z" />
    <glyph glyph-name="uni03BC" unicode="&#x3bc;" horiz-adv-x="624" 
d="M52 -204v704h122v-266q0 -69 29.5 -99t74.5 -30q53 0 89 40.5t36 117.5v237h130v-334q0 -41 18 -52.5t54 -10.5v-100q-29 -3 -50 -3q-87 0 -106 84h-13q-44 -90 -148 -90q-72 0 -104 44h-10v-242h-122z" />
    <glyph glyph-name="pi" unicode="&#x3c0;" horiz-adv-x="630" 
d="M526 229q0 -72 21 -92t67 -20v-117q-42 0 -71.5 4.5t-59 18t-47 37.5t-28.5 64.5t-11 96.5v172h-167v-393h-126v393h-89v107h599l1 -107h-89v-164z" />
    <glyph glyph-name="uni0400" unicode="&#x400;" horiz-adv-x="617" 
d="M287 789l-96 156h111l84 -156h-99zM53 0v695h532v-114h-304l-100 1l3 -66v-43l-3 -59l100 1h251v-113h-251l-100 1l3 -59v-65l-3 -66l100 2h304v-115h-532z" />
    <glyph glyph-name="uni0401" unicode="&#x401;" horiz-adv-x="617" 
d="M180 807v121h122v-121h-122zM368 807v121h122v-121h-122zM53 0v695h532v-114h-304l-100 1l3 -66v-43l-3 -59l100 1h251v-113h-251l-100 1l3 -59v-65l-3 -66l100 2h304v-115h-532z" />
    <glyph glyph-name="uni0402" unicode="&#x402;" horiz-adv-x="798" 
d="M531 -10q-41 0 -92 5v101q38 -3 62 -3q121 0 121 108v36q0 68 -30 93.5t-84 25.5q-80 0 -135 -37v-319h-131v434l2 149l-110 -3h-122v115h600v-115h-131l-111 3l1 -59v-43l-9 -76h15q50 59 164 59q88 0 149 -50.5t61 -155.5v-57q0 -105 -56.5 -158t-163.5 -53z" />
    <glyph glyph-name="uni0403" unicode="&#x403;" horiz-adv-x="543" 
d="M269 789l104 156h110l-113 -156h-101zM53 0v695h479v-115h-220l-131 3l3 -131v-452h-131z" />
    <glyph glyph-name="uni0404" unicode="&#x404;" horiz-adv-x="699" 
d="M359 109q67 0 113.5 37.5t65.5 107.5l132 -11q-21 -112 -106.5 -180t-202.5 -68q-150 0 -241.5 95.5t-91.5 256.5t91.5 258.5t239.5 97.5q119 0 204.5 -68t106.5 -182l-132 -11q-19 71 -66.5 109t-114.5 38q-80 0 -132.5 -51t-62.5 -144l90 2h145v-96h-145l-91 3
q11 -93 64 -143.5t134 -50.5z" />
    <glyph glyph-name="uni0405" unicode="&#x405;" horiz-adv-x="653" 
d="M341 -10q-124 0 -206.5 59t-100.5 169l131 12q12 -60 59.5 -93.5t117.5 -33.5t109.5 26t39.5 70q0 39 -25.5 59t-87.5 29l-123 18q-98 14 -151 63t-53 127q0 92 74.5 151t190.5 59q118 0 192 -59t80 -177l-124 -9q-7 66 -46 99.5t-102 33.5q-60 0 -98 -27.5t-38 -70.5
q0 -66 97 -81l136 -20q207 -29 207 -195q0 -95 -76 -152t-203 -57z" />
    <glyph glyph-name="uni0406" unicode="&#x406;" horiz-adv-x="236" 
d="M53 0v695h131v-695h-131z" />
    <glyph glyph-name="uni0407" unicode="&#x407;" horiz-adv-x="236" 
d="M-37 807v121h122v-121h-122zM151 807v121h122v-121h-122zM53 0v695h131v-695h-131z" />
    <glyph glyph-name="uni0408" unicode="&#x408;" horiz-adv-x="423" 
d="M12 -5v119q125 0 179 36.5t54 134.5v410h130v-441q0 -77 -28 -130t-81 -80t-113.5 -38t-140.5 -11z" />
    <glyph glyph-name="uni0409" unicode="&#x409;" horiz-adv-x="1106" 
d="M848 427q115 0 178.5 -55.5t63.5 -157.5q0 -103 -64 -158.5t-178 -55.5h-317v502l2 81l-73 -3h-57l-80 3l-13 -230q-4 -79 -19.5 -138.5t-47.5 -111t-90.5 -79t-140.5 -27.5v121q84 0 122.5 62t44.5 181l17 334h470v-191l-2 -79l93 2h91zM848 110q116 0 116 104
q0 103 -116 103h-91l-93 2l2 -70v-70l-2 -71l93 2h91z" />
    <glyph glyph-name="uni040A" unicode="&#x40a;" horiz-adv-x="1084" 
d="M826 414q114 0 177.5 -54t63.5 -153q0 -100 -63.5 -153.5t-177.5 -53.5h-316v218l2 55v27l-98 -3h-135l-98 3l3 -83v-217h-131v695h131v-189l-3 -98l98 3h136l97 -3v33l-2 65v189h133v-207l-1 -76l93 2h91zM826 109q116 0 116 98q0 97 -116 97h-91l-93 1l1 -64v-67
l-1 -66l92 1h92z" />
    <glyph glyph-name="uni040B" unicode="&#x40b;" horiz-adv-x="798" 
d="M242 0v434l2 149l-110 -3h-122v115h600v-115h-131l-111 3l1 -59v-43l-9 -77h15q25 27 69 43.5t95 16.5q89 0 149.5 -53t60.5 -168v-243h-129v222q0 78 -29.5 106t-84.5 28q-80 0 -135 -37v-319h-131z" />
    <glyph glyph-name="uni040C" unicode="&#x40c;" horiz-adv-x="676" 
d="M488 945l-113 -156h-101l104 156h110zM673 695l-309 -289l308 -403v-3h-160l-241 318l-89 -83v-235h-129v695h129v-216l-8 -110h13l64 90l242 236h180z" />
    <glyph glyph-name="uni040D" unicode="&#x40d;" horiz-adv-x="711" 
d="M307 789l-95 156h111l84 -156h-100zM53 0v695h129v-418l-8 -116h15l56 115l248 419h166v-695h-130v418l9 116h-16l-39 -90l-265 -444h-165z" />
    <glyph glyph-name="uni040E" unicode="&#x40e;" horiz-adv-x="631" 
d="M315 781q-146 0 -147 161h71q1 -50 19 -70t57 -20q40 0 57.5 20t18.5 70h72q-3 -161 -148 -161zM146 -10q-53 0 -91 3v110q52 -4 77 -3q36 2 60 18.5t43 53.5l18 33l-245 490h147l134 -288l23 -78h13l24 79l127 287h147l-253 -527q-45 -96 -95 -137t-129 -41z" />
    <glyph glyph-name="uni040F" unicode="&#x40f;" horiz-adv-x="694" 
d="M642 695v-695h-234v-164h-122v164h-233v695h131v-500l-3 -83l98 3h135l99 -3l-3 81v502h132z" />
    <glyph glyph-name="uni0410" unicode="&#x410;" horiz-adv-x="725" 
d="M4 0l287 695h143l288 -695h-143l-62 163l-114 -2h-81l-114 2l-61 -163h-143zM247 269l75 2h81l75 -2l-21 53l-71 175l-18 71h-11l-18 -71l-71 -175z" />
    <glyph glyph-name="uni0411" unicode="&#x411;" horiz-adv-x="632" 
d="M53 0v695h507v-115h-248l-131 3l3 -56v-50l-2 -56l92 3h104q110 0 174 -55.5t64 -156.5q0 -102 -64 -157t-174 -55h-325zM182 108l93 2h93q122 0 122 102t-122 102h-93l-93 2l2 -69v-70z" />
    <glyph glyph-name="uni0412" unicode="&#x412;" horiz-adv-x="653" 
d="M53 0v695h313q243 0 243 -184q0 -57 -31 -95t-79 -49v-12q56 -13 89 -55.5t33 -103.5q0 -96 -65 -146t-187 -50h-316zM181 410l74 2h118q114 0 114 87q0 90 -114 90h-118l-74 2l1 -53v-68zM181 104l73 2h118q123 0 123 100q0 97 -123 97h-118l-73 2l1 -62v-74z" />
    <glyph glyph-name="uni0413" unicode="&#x413;" horiz-adv-x="543" 
d="M53 0v695h479v-115h-220l-131 3l3 -131v-452h-131z" />
    <glyph glyph-name="uni0414" unicode="&#x414;" horiz-adv-x="787" 
d="M20 -164v279h111q43 102 50 275l16 305h460v-435l-2 -145h112v-279h-114v164h-520v-164h-113zM266 113l97 2h65l99 -2l-1 147v242l2 81l-70 -3h-52l-83 3l-11 -201q-9 -155 -46 -258v-11z" />
    <glyph glyph-name="uni0415" unicode="&#x415;" horiz-adv-x="617" 
d="M53 0v695h532v-114h-304l-100 1l3 -66v-43l-3 -59l100 1h251v-113h-251l-100 1l3 -59v-65l-3 -66l100 2h304v-115h-532z" />
    <glyph glyph-name="uni0416" unicode="&#x416;" horiz-adv-x="1017" 
d="M818 412l-53 -57v-14l52 -56l196 -282v-3h-156l-195 293l-91 1l2 -93v-201h-129v201l1 93l-90 -1l-196 -293h-156v3l197 282l52 56v14l-54 57l-195 280v3h156l196 -292l90 -1l-1 104v189h129v-189l-2 -104l91 1l196 292h155v-3z" />
    <glyph glyph-name="uni0417" unicode="&#x417;" horiz-adv-x="641" 
d="M333 -5q-73 0 -134.5 20t-110 71.5t-58.5 130.5l132 12q8 -62 55.5 -93.5t115.5 -31.5q70 0 108.5 27.5t38.5 77.5q0 48 -37 72.5t-103 24.5h-31v107h31q118 0 118 84q0 46 -33 73.5t-93 27.5q-124 0 -144 -122l-130 11q11 103 84 160.5t190 57.5q116 0 185.5 -53.5
t69.5 -140.5q0 -107 -116 -142v-14q65 -10 102 -49t37 -103q0 -91 -74 -149.5t-203 -58.5z" />
    <glyph glyph-name="uni0418" unicode="&#x418;" horiz-adv-x="711" 
d="M53 0v695h129v-418l-8 -116h15l56 115l248 419h166v-695h-130v418l9 116h-16l-39 -90l-265 -444h-165z" />
    <glyph glyph-name="uni0419" unicode="&#x419;" horiz-adv-x="711" 
d="M364 781q-146 0 -147 161h71q1 -50 19 -70t57 -20q40 0 57.5 20t18.5 70h72q-3 -161 -148 -161zM53 0v695h129v-418l-8 -116h15l56 115l248 419h166v-695h-130v418l9 116h-16l-39 -90l-265 -444h-165z" />
    <glyph glyph-name="uni041A" unicode="&#x41a;" horiz-adv-x="676" 
d="M673 695l-309 -289l308 -403v-3h-160l-241 318l-89 -83v-235h-129v695h129v-216l-8 -110h13l64 90l242 236h180z" />
    <glyph glyph-name="uni041B" unicode="&#x41b;" horiz-adv-x="714" 
d="M12 -3v121q84 0 122.5 62t44.5 181l17 334h466v-695h-131v502l2 81l-73 -3h-57l-80 3l-13 -230q-4 -79 -19.5 -138.5t-47.5 -111t-90.5 -79t-140.5 -27.5z" />
    <glyph glyph-name="uni041C" unicode="&#x41c;" horiz-adv-x="883" 
d="M53 0v695h154l203 -487l26 -92h12l25 92l203 487h155v-695h-130v383l6 92h-12l-25 -94l-162 -381h-133l-162 381l-25 94h-11l5 -92v-383h-129z" />
    <glyph glyph-name="uni041D" unicode="&#x41d;" horiz-adv-x="694" 
d="M53 0v695h131v-189l-3 -98l98 3h136l98 -3l-3 98v189h132v-695h-132v218l3 82l-99 -3h-135l-98 3l3 -83v-217h-131z" />
    <glyph glyph-name="uni041E" unicode="&#x41e;" horiz-adv-x="708" 
d="M356 -10q-157 0 -242.5 97t-85.5 260q0 161 86 259.5t242 98.5q155 0 240 -98.5t85 -259.5q0 -163 -84.5 -260t-240.5 -97zM356 103q94 0 143 67t49 178q0 108 -49.5 175.5t-142.5 67.5q-95 0 -145.5 -67.5t-50.5 -175.5q0 -111 50.5 -178t145.5 -67z" />
    <glyph glyph-name="uni041F" unicode="&#x41f;" horiz-adv-x="694" 
d="M53 0v695h589v-695h-132v502l3 81l-99 -3h-135l-98 3l3 -83v-500h-131z" />
    <glyph glyph-name="uni0420" unicode="&#x420;" horiz-adv-x="623" 
d="M53 0v695h296q120 0 188.5 -55.5t68.5 -165.5t-68 -165t-189 -55h-74l-94 2l3 -85v-171h-131zM182 365l93 2h87q58 0 88.5 29t30.5 78q0 48 -31 78t-88 30h-87l-93 1l2 -99v-19z" />
    <glyph glyph-name="uni0421" unicode="&#x421;" horiz-adv-x="687" 
d="M349 -9q-147 0 -234 96.5t-87 259.5q0 162 87 260t232 98q132 0 212.5 -72.5t91.5 -201.5l-131 -10q-8 82 -54 126t-119 44q-86 0 -137 -66t-51 -177q0 -113 51.5 -178t138.5 -65q76 0 123.5 44.5t57.5 127.5l128 -11q-12 -130 -94.5 -202.5t-214.5 -72.5z" />
    <glyph glyph-name="uni0422" unicode="&#x422;" horiz-adv-x="640" 
d="M254 0v448l3 135l-111 -3h-134v115h616v-115h-135l-110 3l2 -135v-448h-131z" />
    <glyph glyph-name="uni0423" unicode="&#x423;" horiz-adv-x="631" 
d="M146 -10q-53 0 -91 3v110q52 -4 77 -3q36 2 60 18.5t43 53.5l18 33l-245 490h147l134 -288l23 -78h13l24 79l127 287h147l-253 -527q-45 -96 -95 -137t-129 -41z" />
    <glyph glyph-name="uni0424" unicode="&#x424;" horiz-adv-x="869" 
d="M369 -33v31l2 54q-161 7 -252 82t-91 212q0 138 91 214t252 83l-2 51v34h131v-34l-2 -51q161 -7 252 -83t91 -214q0 -137 -91 -212t-252 -82l2 -53v-32h-131zM371 163l-2 64v251l2 54q-108 -7 -161 -55t-53 -131q0 -171 214 -183zM498 163q107 6 160.5 53.5t53.5 129.5
q0 83 -53.5 131t-160.5 55l2 -51v-250z" />
    <glyph glyph-name="uni0425" unicode="&#x425;" horiz-adv-x="691" 
d="M9 0l255 347l-253 348h164l101 -147l62 -105h15l63 105l101 147h163l-253 -348l255 -347h-162l-109 154l-58 99h-15l-58 -99l-110 -154h-161z" />
    <glyph glyph-name="uni0426" unicode="&#x426;" horiz-adv-x="763" 
d="M671 115h72v-279h-113v164h-577v695h131v-500l-3 -83l98 3h126l99 -3l-2 81v502h131v-581z" />
    <glyph glyph-name="uni0427" unicode="&#x427;" horiz-adv-x="665" 
d="M481 0v159l12 111h-16q-24 -25 -77 -40t-106 -15q-112 0 -179 52.5t-67 169.5v258h131v-237q0 -81 35.5 -108t104.5 -27q101 0 162 38v334h131v-695h-131z" />
    <glyph glyph-name="uni0428" unicode="&#x428;" horiz-adv-x="1047" 
d="M53 0v695h131v-451l-2 -132l95 2h88l96 -2l-2 133v450h129v-451l-2 -132l95 2h87l96 -2l-1 134v449h131v-695h-941z" />
    <glyph glyph-name="uni0429" unicode="&#x429;" horiz-adv-x="1068" 
d="M975 115h73v-279h-114v164h-881v695h131v-451l-2 -132l82 2h85l83 -2l-1 133v450h129v-451l-2 -132l81 2h85l83 -2l-1 134v449h132v-581z" />
    <glyph glyph-name="uni042A" unicode="&#x42a;" horiz-adv-x="747" 
d="M481 427q115 0 178.5 -55.5t63.5 -157.5q0 -103 -64 -158.5t-178 -55.5h-314v582l-76 -1h-71v114h279v-191l-2 -79l93 2h91zM481 110q116 0 116 104q0 103 -116 103h-91l-93 2l2 -70v-70l-2 -71l93 2h91z" />
    <glyph glyph-name="uni042B" unicode="&#x42b;" horiz-adv-x="869" 
d="M53 0v695h131v-191l-2 -79l93 2h82q114 0 177.5 -55.5t63.5 -157.5q0 -103 -64 -158.5t-177 -55.5h-304zM685 0v695h131v-695h-131zM182 108l93 2h82q115 0 115 104q0 103 -115 103h-82l-93 2l2 -70v-70z" />
    <glyph glyph-name="uni042C" unicode="&#x42c;" horiz-adv-x="624" 
d="M53 0v695h131v-191l-2 -79l93 2h92q114 0 177.5 -55.5t63.5 -157.5q0 -103 -64 -158.5t-177 -55.5h-314zM182 108l93 2h92q115 0 115 104q0 103 -115 103h-92l-93 2l2 -70v-70z" />
    <glyph glyph-name="uni042D" unicode="&#x42d;" horiz-adv-x="691" 
d="M342 703q147 0 234 -97.5t87 -258.5q0 -160 -87 -256t-236 -96q-118 0 -203 68t-105 180l131 11q19 -70 65.5 -107.5t113.5 -37.5q79 0 128.5 50.5t59.5 143.5l-80 -3h-145v96h145l80 -2q-10 93 -58.5 144t-126.5 51q-68 0 -115.5 -38t-66.5 -109l-131 11
q20 115 105 182.5t205 67.5z" />
    <glyph glyph-name="uni042E" unicode="&#x42e;" horiz-adv-x="922" 
d="M597 -10q-128 0 -206.5 82t-89.5 225l-43 -2h-36l-41 2l3 -123v-174h-131v695h131v-169l-3 -127l41 1h36l43 -1q12 141 90.5 223.5t205.5 82.5q139 0 218.5 -98t79.5 -260q0 -165 -79 -261t-219 -96zM597 103q80 0 124 66.5t44 178.5q0 109 -44 176t-124 67
q-81 0 -126 -67t-45 -176q0 -112 45 -178.5t126 -66.5z" />
    <glyph glyph-name="uni042F" unicode="&#x42f;" horiz-adv-x="634" 
d="M20 0l139 226l35 51v5q-166 39 -166 199q0 105 68 159.5t188 54.5h297v-695h-131v170l3 101l-69 -1h-60l-157 -270h-147zM452 379l-2 72v61l2 74l-93 -1h-88q-57 0 -87.5 -28.5t-30.5 -75.5q0 -46 30.5 -73.5t87.5 -27.5h88z" />
    <glyph glyph-name="uni0430" unicode="&#x430;" horiz-adv-x="555" 
d="M209 -10q-76 0 -122.5 37.5t-46.5 102.5q0 25 7 46t17 36.5t28.5 27.5t34.5 19.5t43 13t45 8t50.5 4t49 1.5h49.5h11v38q0 37 -22.5 60t-63.5 23q-44 0 -71 -25t-32 -69l-123 6q6 93 69 142t157 49q97 0 155 -49.5t58 -146.5v-314h-101l-9 83h-11q-41 -93 -172 -93z
M245 90q56 0 93 30.5t37 76.5v11h-38t-36 -1t-36 -3t-31.5 -5t-27.5 -8t-20 -11.5t-14.5 -16.5t-4.5 -22q0 -51 78 -51z" />
    <glyph glyph-name="uni0431" unicode="&#x431;" horiz-adv-x="546" 
d="M276 -9q-131 0 -198 98q-52 78 -52 238q0 180 104 279q58 59 161 91q45 17 64 29.5t19 33.5h145q-1 -49 -32 -77.5t-90 -52.5q-13 -6 -53 -22.5t-56.5 -24.5t-47.5 -27.5t-46 -38.5t-30 -49.5t-20 -68.5h15q21 45 64 69.5t99 24.5q88 0 143.5 -67.5t55.5 -182.5
q0 -111 -65 -181.5t-180 -70.5zM277 96q53 0 84.5 39t31.5 107q0 67 -31.5 106.5t-84.5 39.5q-54 0 -86 -39.5t-32 -106.5q0 -68 30.5 -107t87.5 -39z" />
    <glyph glyph-name="uni0432" unicode="&#x432;" horiz-adv-x="525" 
d="M53 0v500h261q90 0 136.5 -36t46.5 -105q0 -81 -72 -103v-13q77 -23 77 -102q0 -141 -185 -141h-264zM178 289l39 1h57q55 1 77 15t22 47t-22 46.5t-77 13.5h-55l-41 1l2 -48v-30zM178 87l41 1h58q54 0 77 14.5t23 46.5q0 33 -22.5 47t-77.5 14h-55l-44 1l2 -50v-32z" />
    <glyph glyph-name="uni0433" unicode="&#x433;" horiz-adv-x="444" 
d="M53 0v500h378v-105h-169l-84 2l2 -117v-280h-127z" />
    <glyph glyph-name="uni0434" unicode="&#x434;" horiz-adv-x="645" 
d="M17 -156v262h85q37 68 42 159l14 235h379v-394h88v-262h-114v94l2 64l-69 -2h-238l-77 2l2 -66v-92h-114zM230 104l73 2h52l59 -2l-1 101v119l1 73l-53 -1h-33l-53 1l-10 -142q-7 -97 -35 -143v-8z" />
    <glyph glyph-name="uni0435" unicode="&#x435;" horiz-adv-x="538" 
d="M275 -10q-110 0 -179 71t-69 188t65.5 189t177.5 72q107 0 171.5 -71.5t64.5 -184.5q0 -31 -2 -44h-288l-66 2q6 -59 40.5 -90.5t84.5 -31.5q41 0 71.5 18.5t40.5 53.5l115 -12q-22 -78 -83 -119t-144 -41zM150 295l69 2h100l68 -2q-6 56 -38.5 86t-78.5 30
q-47 0 -80 -29.5t-40 -86.5z" />
    <glyph glyph-name="uni0436" unicode="&#x436;" horiz-adv-x="831" 
d="M674 0l-131 202l-65 1l2 -74v-129h-129v128l2 75l-65 -1l-131 -202h-153l134 185l51 59v12l-50 58l-134 186h153l130 -202l65 -1l-2 80v123h129v-122l-2 -81l65 1l131 202h152l-133 -186l-50 -58v-12l51 -59l133 -185h-153z" />
    <glyph glyph-name="uni0437" unicode="&#x437;" horiz-adv-x="494" 
d="M257 -10q-59 0 -107.5 15.5t-84.5 54t-42 96.5l125 12q11 -76 109 -76q41 0 66 18t25 49q0 65 -93 65h-19v72h19q81 0 81 56q0 26 -20.5 42t-56.5 16q-86 0 -99 -73l-116 11q8 75 65.5 118.5t149.5 43.5q90 0 142.5 -41t52.5 -104q0 -76 -71 -96v-13q39 -6 63.5 -35
t24.5 -74q0 -69 -58 -113t-156 -44z" />
    <glyph glyph-name="uni0438" unicode="&#x438;" horiz-adv-x="583" 
d="M53 0v500h124v-207l-11 -126h16l206 333h142v-500h-124v207l11 126h-16l-206 -333h-142z" />
    <glyph glyph-name="uni0439" unicode="&#x439;" horiz-adv-x="583" 
d="M295 586q-146 0 -147 161h71q1 -50 19 -70t57 -20q40 0 57.5 20t18.5 70h72q-3 -161 -148 -161zM53 0v500h124v-207l-11 -126h16l206 333h142v-500h-124v207l11 126h-16l-206 -333h-142z" />
    <glyph glyph-name="uni043A" unicode="&#x43a;" horiz-adv-x="550" 
d="M543 500v-7l-216 -205l216 -278v-10h-151l-148 210l-64 -61v-149h-127v500h127v-144l-7 -77h11l44 62l157 159h158z" />
    <glyph glyph-name="uni043B" unicode="&#x43b;" horiz-adv-x="578" 
d="M14 -3v109q60 0 85.5 39t28.5 120l10 235h387v-500h-127v329l2 68l-53 -2h-39l-52 2l-1 -53l-3 -80q-6 -140 -64.5 -203.5t-173.5 -63.5z" />
    <glyph glyph-name="uni043C" unicode="&#x43c;" horiz-adv-x="764" 
d="M53 0v500h179l110 -259l37 -102h6l37 102l107 259h183v-500h-127v241l2 91h-6l-141 -332h-116l-140 325h-6l1 -85v-240h-126z" />
    <glyph glyph-name="uni043D" unicode="&#x43d;" 
d="M53 0v500h127v-119l-2 -79l68 2h74l77 -2l-2 77v121h127v-500h-127v129l2 72l-76 -1h-74l-69 1l2 -74v-127h-127z" />
    <glyph glyph-name="uni043E" unicode="&#x43e;" horiz-adv-x="540" 
d="M271 -10q-112 0 -178.5 72t-66.5 187q0 116 66.5 188.5t178.5 72.5t177.5 -72.5t65.5 -188.5q0 -115 -65.5 -187t-177.5 -72zM271 96q55 0 85.5 41t30.5 113t-30.5 113t-85.5 41q-56 0 -87.5 -41.5t-31.5 -112.5t31.5 -112.5t87.5 -41.5z" />
    <glyph glyph-name="uni043F" unicode="&#x43f;" horiz-adv-x="574" 
d="M53 0v500h468v-500h-127v298l2 99l-79 -1h-65l-74 1l2 -97v-300h-127z" />
    <glyph glyph-name="uni0440" unicode="&#x440;" horiz-adv-x="578" 
d="M53 -240v740h128v-26l-8 -62h14q22 42 62 68t94 26q89 0 147 -69.5t58 -186.5q0 -115 -58 -185.5t-147 -70.5q-54 0 -94 26.5t-62 67.5h-14l8 -66v-262h-128zM301 100q53 0 85.5 41t32.5 109t-32.5 109t-85.5 41q-55 0 -87 -41t-32 -109t32.5 -109t86.5 -41z" />
    <glyph glyph-name="uni0441" unicode="&#x441;" horiz-adv-x="526" 
d="M272 -10q-115 0 -180.5 73t-65.5 187t65.5 187t179.5 73q99 0 160.5 -53.5t69.5 -145.5l-119 -10q-7 51 -37 77.5t-75 26.5q-57 0 -88.5 -41.5t-31.5 -113.5q0 -69 32.5 -111.5t88.5 -42.5q99 0 113 104l120 -10q-8 -92 -70.5 -146t-161.5 -54z" />
    <glyph glyph-name="uni0442" unicode="&#x442;" horiz-adv-x="513" 
d="M193 0v306l2 91l-77 -1h-104v104h485v-104h-106l-74 1l1 -90v-307h-127z" />
    <glyph glyph-name="uni0443" unicode="&#x443;" horiz-adv-x="552" 
d="M121 -240q-53 0 -91 3v115q27 -3 67 -3q43 0 66.5 16t39.5 53l18 43l-212 513h144l102 -285l20 -87h13l20 87l94 285h141l-214 -563q-37 -98 -85.5 -137.5t-122.5 -39.5z" />
    <glyph glyph-name="uni0444" unicode="&#x444;" horiz-adv-x="722" 
d="M298 -240v167l2 62q-137 8 -205.5 79.5t-68.5 180.5t68.5 181t205.5 81l-2 62v122h127v-121l-2 -63q138 -8 205.5 -79.5t67.5 -182.5q0 -110 -67.5 -181.5t-205.5 -78.5l2 -62v-167h-127zM423 92q77 6 113.5 49t36.5 109t-36.5 109t-113.5 49l2 -63v-179zM300 94l-2 72
v181l2 59q-75 -5 -112 -48.5t-37 -107.5t37 -107t112 -49z" />
    <glyph glyph-name="uni0445" unicode="&#x445;" horiz-adv-x="541" 
d="M10 0v3l182 247l-182 247v3h156l73 -115l26 -53h11l28 52l71 116h157v-3l-182 -247l182 -247v-3h-157l-74 123l-25 50h-11l-24 -50l-75 -123h-156z" />
    <glyph glyph-name="uni0446" unicode="&#x446;" horiz-adv-x="631" 
d="M612 106v-270h-114v164h-445v500h127v-321l-2 -75l60 2h94l65 -2l-2 76v320h127v-394h90z" />
    <glyph glyph-name="uni0447" unicode="&#x447;" horiz-adv-x="543" 
d="M363 0v122l11 69h-12q-41 -39 -121 -39q-38 0 -70.5 8t-63 26.5t-48 54t-17.5 84.5v175h127v-159q0 -45 24 -63.5t72 -18.5q52 0 98 18v223h127v-500h-127z" />
    <glyph glyph-name="uni0448" unicode="&#x448;" horiz-adv-x="825" 
d="M53 0v500h127v-305l-2 -91l67 2h45l63 -2l-2 93v303h124v-302l-2 -94l70 2h46l58 -2l-2 98v298h127v-500h-719z" />
    <glyph glyph-name="uni0449" unicode="&#x449;" horiz-adv-x="881" 
d="M862 106v-270h-114v164h-695v500h127v-305l-2 -91l67 2h45l63 -2l-2 93v303h124v-302l-2 -94l70 2h46l58 -2l-2 98v298h127v-394h90z" />
    <glyph glyph-name="uni044A" unicode="&#x44a;" horiz-adv-x="604" 
d="M397 306q87 0 135 -40.5t48 -112.5t-48 -112.5t-135 -40.5h-256v397l-49 -1h-83v104h259v-114l-2 -82l65 2h66zM364 85q92 0 92 68t-92 68h-35l-63 1l2 -46v-46l-2 -46l63 1h35z" />
    <glyph glyph-name="uni044B" unicode="&#x44b;" horiz-adv-x="727" 
d="M53 0v500h127v-114l-2 -82l64 2h57q87 0 135.5 -40.5t48.5 -112.5t-48.5 -112.5t-135.5 -40.5h-246zM548 0v500h127v-500h-127zM178 84l63 1h33q84 0 84 68t-84 68h-33l-63 1l2 -46v-46z" />
    <glyph glyph-name="uni044C" unicode="&#x44c;" horiz-adv-x="515" 
d="M53 0v500h127v-114l-2 -82l64 2h66q87 0 135.5 -40.5t48.5 -112.5t-48.5 -112.5t-135.5 -40.5h-255zM178 84l63 1h34q92 0 92 68t-92 68h-34l-63 1l2 -46v-46z" />
    <glyph glyph-name="uni044D" unicode="&#x44d;" horiz-adv-x="524" 
d="M256 510q114 0 178 -73t64 -187t-64.5 -187t-178.5 -73q-93 0 -154 50.5t-75 135.5l120 10q20 -90 113 -90q48 0 78.5 30t39.5 81l-60 -3h-82v92h82l61 -3q-9 53 -39 82.5t-79 29.5q-90 0 -114 -91l-120 10q14 85 76 135.5t154 50.5z" />
    <glyph glyph-name="uni044E" unicode="&#x44e;" horiz-adv-x="746" 
d="M493 -10q-93 0 -151 56t-71 151l-33 -1h-26l-34 1l2 -61v-136h-127v500h127v-127l-2 -73l34 1h26l34 -1q12 96 70 153t151 57q107 0 167 -72.5t60 -188.5t-59.5 -187.5t-167.5 -71.5zM493 96q50 0 77 40.5t27 113.5t-27 113.5t-77 40.5q-51 0 -78 -40.5t-27 -113.5
t27 -113.5t78 -40.5z" />
    <glyph glyph-name="uni044F" unicode="&#x44f;" horiz-adv-x="527" 
d="M18 0l82 134l41 59v6q-47 13 -76.5 48.5t-29.5 90.5q0 76 50 119t145 43h245v-500h-127v97l2 81l-37 -2h-23l-34 2l-96 -178h-142zM350 271l-2 44v48l2 42l-47 -1h-51q-92 0 -92 -66t92 -66h51z" />
    <glyph glyph-name="uni0450" unicode="&#x450;" horiz-adv-x="538" 
d="M218 594l-96 156h111l84 -156h-99zM275 -10q-110 0 -179 71t-69 188t65.5 189t177.5 72q107 0 171.5 -71.5t64.5 -184.5q0 -31 -2 -44h-288l-66 2q6 -59 40.5 -90.5t84.5 -31.5q41 0 71.5 18.5t40.5 53.5l115 -12q-22 -78 -83 -119t-144 -41zM150 295l69 2h100l68 -2
q-6 56 -38.5 86t-78.5 30q-47 0 -80 -29.5t-40 -86.5z" />
    <glyph glyph-name="uni0451" unicode="&#x451;" horiz-adv-x="538" 
d="M111 612v121h122v-121h-122zM299 612v121h122v-121h-122zM275 -10q-110 0 -179 71t-69 188t65.5 189t177.5 72q107 0 171.5 -71.5t64.5 -184.5q0 -31 -2 -44h-288l-66 2q6 -59 40.5 -90.5t84.5 -31.5q41 0 71.5 18.5t40.5 53.5l115 -12q-22 -78 -83 -119t-144 -41z
M150 295l69 2h100l68 -2q-6 56 -38.5 86t-78.5 30q-47 0 -80 -29.5t-40 -86.5z" />
    <glyph glyph-name="uni0452" unicode="&#x452;" horiz-adv-x="602" 
d="M382 506q81 0 126.5 -52t45.5 -149v-307q0 -97 -56 -146.5t-155 -49.5q-23 0 -93 5v111q25 -2 62 -2q114 0 114 81v281q0 117 -99 117q-53 0 -86 -39.5t-33 -114.5v-241h-129v569h-79v91h79v100h129v-100h190v-91h-190v-93l-9 -64h15q60 94 168 94z" />
    <glyph glyph-name="uni0453" unicode="&#x453;" horiz-adv-x="444" 
d="M197 594l104 156h110l-113 -156h-101zM53 0v500h378v-105h-169l-84 2l2 -117v-280h-127z" />
    <glyph glyph-name="uni0454" unicode="&#x454;" horiz-adv-x="531" 
d="M268 96q93 0 113 90l119 -10q-13 -84 -74.5 -135t-153.5 -51q-115 0 -180.5 73t-65.5 187t65 187t180 73q91 0 153 -51t76 -135l-119 -10q-24 91 -115 91q-48 0 -79 -29.5t-40 -81.5l69 2h76v-92h-77l-68 2q10 -51 41.5 -80.5t79.5 -29.5z" />
    <glyph glyph-name="uni0455" unicode="&#x455;" horiz-adv-x="499" 
d="M258 -10q-99 0 -158 44t-72 113l121 12q18 -70 109 -70q44 0 69.5 16.5t25.5 42.5q0 44 -63 52l-95 10q-161 18 -161 135q0 69 58 117t150 48q94 0 147.5 -46t59.5 -118l-112 -8q-4 33 -28 53t-67 20q-42 0 -65 -18.5t-23 -44.5q0 -40 56 -47l99 -11q166 -18 166 -138
q0 -69 -57 -115.5t-160 -46.5z" />
    <glyph glyph-name="uni0456" unicode="&#x456;" horiz-adv-x="234" 
d="M48 604v138h138v-138h-138zM53 0v500h129v-500h-129z" />
    <glyph glyph-name="uni0457" unicode="&#x457;" horiz-adv-x="274" 
d="M-18 612v121h122v-121h-122zM170 612v121h122v-121h-122zM73 0v500h128v-500h-128z" />
    <glyph glyph-name="uni0458" unicode="&#x458;" horiz-adv-x="274" 
d="M88 604v138h138v-138h-138zM20 -245q-40 0 -89 4v115q45 -4 68 -4q39 0 66.5 28t27.5 95v507h129v-504q0 -114 -52.5 -177.5t-149.5 -63.5z" />
    <glyph glyph-name="uni0459" unicode="&#x459;" horiz-adv-x="862" 
d="M655 306q87 0 135.5 -40.5t48.5 -112.5t-48.5 -112.5t-135.5 -40.5h-257v329l1 68l-52 -2h-39l-52 2l-1 -53l-3 -80q-5 -140 -64 -203.5t-174 -63.5v109q60 0 85.5 39t28.5 120l10 235h389v-114l-2 -82l64 2h66zM623 85q91 0 91 68t-91 68h-35l-63 1l2 -46v-46l-2 -46
l63 1h35z" />
    <glyph glyph-name="uni045A" unicode="&#x45a;" horiz-adv-x="860" 
d="M652 305q88 0 136 -40.5t48 -112.5q0 -71 -48 -111.5t-136 -40.5h-257v129l2 72l-76 -1h-74l-69 1l2 -74v-127h-127v500h127v-119l-2 -79l68 2h74l77 -2l-2 77v121h129v-116l-2 -81l65 2h65zM625 85q43 0 65 14t22 49t-22 49t-65 14h-40l-63 1l2 -42v-44l-2 -42l63 1h40z
" />
    <glyph glyph-name="uni045B" unicode="&#x45b;" horiz-adv-x="605" 
d="M385 506q81 0 126.5 -52t45.5 -149v-305h-128v278q0 117 -99 117q-53 0 -86 -39.5t-33 -114.5v-241h-129v569h-82v91h82v100h129v-100h187v-91h-187v-93l-9 -64h15q60 94 168 94z" />
    <glyph glyph-name="uni045C" unicode="&#x45c;" horiz-adv-x="550" 
d="M439 750l-113 -156h-101l104 156h110zM543 500v-7l-216 -205l216 -278v-10h-151l-148 210l-64 -61v-149h-127v500h127v-144l-7 -77h11l44 62l157 159h158z" />
    <glyph glyph-name="uni045D" unicode="&#x45d;" horiz-adv-x="583" 
d="M248 594l-96 156h111l84 -156h-99zM53 0v500h124v-207l-11 -126h16l206 333h142v-500h-124v207l11 126h-16l-206 -333h-142z" />
    <glyph glyph-name="uni045E" unicode="&#x45e;" horiz-adv-x="552" 
d="M279 586q-146 0 -147 161h71q1 -50 19 -70t57 -20q40 0 57.5 20t18.5 70h72q-3 -161 -148 -161zM121 -240q-53 0 -91 3v115q27 -3 67 -3q43 0 66.5 16t39.5 53l18 43l-212 513h144l102 -285l20 -87h13l20 87l94 285h141l-214 -563q-37 -98 -85.5 -137.5t-122.5 -39.5z
" />
    <glyph glyph-name="uni045F" unicode="&#x45f;" horiz-adv-x="580" 
d="M229 -164v83l2 81h-178v500h127v-295l-2 -102l83 1h63l78 -1l-2 104v293h127v-500h-178l1 -81v-83h-121z" />
    <glyph glyph-name="uni0462" unicode="&#x462;" horiz-adv-x="731" 
d="M473 427q115 0 178 -55.5t63 -157.5q0 -103 -63.5 -158.5t-177.5 -55.5h-314v500l-71 -2h-68v91h69l70 -1v107h131v-107l76 1h64v-91h-67l-73 2v-23l-1 -52l93 2h91zM473 110q116 0 116 104q0 103 -116 103h-91l-93 2l1 -70v-70l-1 -71l93 2h91z" />
    <glyph glyph-name="uni0463" unicode="&#x463;" horiz-adv-x="605" 
d="M398 306q87 0 135.5 -40.5t48.5 -112.5t-48.5 -112.5t-135.5 -40.5h-256v410l-70 -1h-63v91h66l67 -2v262h127v-262l80 2h61v-91h-63l-78 1v-32l-2 -74l65 2h66zM365 85q92 0 92 68t-92 68h-34l-64 1l2 -46v-46l-2 -46l64 1h34z" />
    <glyph glyph-name="uni0472" unicode="&#x472;" horiz-adv-x="708" 
d="M356 705q155 0 240 -98.5t85 -259.5q0 -163 -84.5 -260t-240.5 -97q-157 0 -242.5 97t-85.5 260q0 161 86 259.5t242 98.5zM356 591q-77 0 -125 -45.5t-64 -123.5q27 8 55 8q45 0 94 -20t92.5 -40.5t74.5 -20.5q30 0 44 13t17 41q-11 86 -59 137t-129 51zM356 103
q77 0 124 45.5t62 125.5q-26 -6 -58 -6q-64 0 -147.5 36t-114.5 36t-43 -13.5t-13 -50.5q15 -81 63 -127t127 -46z" />
    <glyph glyph-name="uni0473" unicode="&#x473;" horiz-adv-x="540" 
d="M271 -10q-112 0 -178.5 72t-66.5 187q0 116 66.5 188.5t178.5 72.5t177.5 -72.5t65.5 -188.5q0 -115 -65.5 -187t-177.5 -72zM357 260q21 0 29 12q-4 62 -34 97t-81 35q-43 0 -72 -25.5t-40 -71.5q21 3 24 3q38 0 96.5 -25t77.5 -25zM271 96q45 0 73.5 27t37.5 76
q-12 -3 -24 -3q-40 0 -99 22t-76 22q-22 0 -30 -12q5 -62 36 -97t82 -35z" />
    <glyph glyph-name="uni0474" unicode="&#x474;" horiz-adv-x="753" 
d="M276 0l-269 695h141l178 -487l20 -79h15l22 79l127 338q34 92 84.5 127.5t151.5 31.5v-115q-46 0 -71 -19.5t-47 -75.5l-197 -495h-155z" />
    <glyph glyph-name="uni0475" unicode="&#x475;" horiz-adv-x="565" 
d="M186 0l-182 500h139l103 -316l13 -63h11l13 64l56 164q31 96 79.5 131t142.5 30v-113q-41 0 -64 -17t-39 -62l-116 -318h-156z" />
    <glyph glyph-name="uni0490" unicode="&#x490;" horiz-adv-x="543" 
d="M411 812h121v-232h-220l-131 3l3 -131v-452h-131v695h358v117z" />
    <glyph glyph-name="uni0491" unicode="&#x491;" horiz-adv-x="444" 
d="M321 627h112v-232h-171l-84 2l2 -117v-280h-127v500h268v127z" />
    <glyph glyph-name="uni0492" unicode="&#x492;" horiz-adv-x="605" 
d="M114 695h480v-115h-220l-131 3l3 -131v-58h113v-97h-113v-297h-132v297h-113v97h113v301z" />
    <glyph glyph-name="uni0493" unicode="&#x493;" horiz-adv-x="487" 
d="M474 395h-169l-84 2l2 -117v-4h95v-90h-95v-186h-127v186h-96v90h96v224h378v-105z" />
    <glyph glyph-name="uni0496" unicode="&#x496;" horiz-adv-x="1025" 
d="M941 107h79v-271h-114v164h-49l-195 293l-91 1l2 -93v-201h-129v201l1 93l-90 -1l-196 -293h-156v3l197 282l52 56v14l-54 57l-195 280v3h156l196 -292l90 -1l-1 104v189h129v-189l-2 -104l91 1l196 292h155v-3l-195 -280l-53 -57v-14l52 -56z" />
    <glyph glyph-name="uni0497" unicode="&#x497;" horiz-adv-x="849" 
d="M749 107h92v-271h-114v164h-53l-132 202l-64 1l2 -74v-129h-129v128l1 75l-64 -1l-131 -202h-153l133 185l51 59v12l-50 58l-134 186h153l131 -202l64 -1l-1 80v123h129v-122l-2 -81l64 1l131 202h153l-134 -186l-50 -58v-12l51 -59z" />
    <glyph glyph-name="uni049A" unicode="&#x49a;" horiz-adv-x="687" 
d="M587 107h94v-271h-114v164h-60l-241 318l-89 -83v-235h-130v695h130v-216l-8 -110h13l64 90l242 236h180l-309 -289z" />
    <glyph glyph-name="uni049B" unicode="&#x49b;" horiz-adv-x="567" 
d="M460 107h97v-271h-114v164h-59l-148 210l-64 -61v-149h-127v500h127v-144l-7 -77h11l45 62l156 159h159v-7l-217 -205z" />
    <glyph glyph-name="uni04A2" unicode="&#x4a2;" horiz-adv-x="760" 
d="M642 107h85v-271h-114v164h-103v218l3 82l-99 -3h-135l-98 3l3 -83v-217h-131v695h131v-189l-3 -98l98 3h136l98 -3l-3 98v189h132v-588z" />
    <glyph glyph-name="uni04A3" unicode="&#x4a3;" horiz-adv-x="613" 
d="M522 107h71v-271h-113v164h-85v129l2 72l-76 -1h-74l-69 1l2 -74v-127h-127v500h127v-119l-2 -79l68 2h74l77 -2l-2 77v121h127v-393z" />
    <glyph glyph-name="uni04AE" unicode="&#x4ae;" horiz-adv-x="672" 
d="M271 0v248l-263 447h152l127 -233l44 -106h13l42 106l125 233h153l-262 -447v-248h-131z" />
    <glyph glyph-name="uni04AF" unicode="&#x4af;" horiz-adv-x="527" 
d="M523 500l-195 -536v-204h-128v201l-196 539h139l103 -316l12 -63h12l13 64l101 315h139z" />
    <glyph glyph-name="uni04B0" unicode="&#x4b0;" horiz-adv-x="672" 
d="M423 285l73 1h58v-114h-59l-93 2v-174h-131v174l-93 -2h-57v114h58l70 -1l-241 410h152l127 -233l44 -106h13l42 106l125 233h153z" />
    <glyph glyph-name="uni04B1" unicode="&#x4b1;" horiz-adv-x="527" 
d="M339 -1l77 1h64v-105h-62l-91 2v-137h-128v137l-83 -2h-69v105h69l71 -1l-183 501h139l103 -316l12 -63h12l12 64l102 315h138z" />
    <glyph glyph-name="uni04B2" unicode="&#x4b2;" horiz-adv-x="712" 
d="M603 107h97v-271h-114v164h-66l-110 154l-58 99h-15l-58 -99l-109 -154h-162l255 347l-253 348h164l101 -147l62 -105h15l63 105l101 147h163l-252 -348z" />
    <glyph glyph-name="uni04B3" unicode="&#x4b3;" horiz-adv-x="576" 
d="M453 107h108v-271h-114v164h-74l-74 123l-24 50h-11l-24 -50l-75 -123h-157v3l183 247l-183 247v3h157l72 -115l27 -53h11l27 52l71 116h157v-3l-182 -247z" />
    <glyph glyph-name="uni04B6" unicode="&#x4b6;" horiz-adv-x="730" 
d="M612 107h86v-271h-114v164h-103v159l12 111h-16q-24 -25 -77 -40t-106 -15q-112 0 -179 52.5t-67 169.5v258h131v-237q0 -81 35.5 -108t104.5 -27q101 0 162 38v334h131v-588z" />
    <glyph glyph-name="uni04B7" unicode="&#x4b7;" horiz-adv-x="582" 
d="M490 107h73v-271h-114v164h-86v122l11 69h-12q-41 -39 -121 -39q-38 0 -70.5 8t-63 26.5t-48 54t-17.5 84.5v175h127v-159q0 -45 24 -63.5t72 -18.5q52 0 98 18v223h127v-393z" />
    <glyph glyph-name="uni04BA" unicode="&#x4ba;" horiz-adv-x="646" 
d="M53 0v695h131v-159l-12 -117h15q62 60 180 60q105 0 168 -52.5t63 -168.5v-258h-131v237q0 134 -135 134q-92 0 -148 -37v-334h-131z" />
    <glyph glyph-name="uni04BB" unicode="&#x4bb;" 
d="M53 0v760h129v-284l-9 -64h14q60 94 169 94q81 0 126 -52t45 -149v-305h-128v278q0 117 -98 117q-53 0 -86 -39.5t-33 -114.5v-241h-129z" />
    <glyph glyph-name="uni04C0" unicode="&#x4c0;" horiz-adv-x="236" 
d="M53 0v695h131v-695h-131z" />
    <glyph glyph-name="uni04C1" unicode="&#x4c1;" horiz-adv-x="1017" 
d="M508 781q-146 0 -147 161h71q1 -50 19 -70t57 -20q40 0 57.5 20t18.5 70h72q-3 -161 -148 -161zM818 412l-53 -57v-14l52 -56l196 -282v-3h-156l-195 293l-91 1l2 -93v-201h-129v201l1 93l-90 -1l-196 -293h-156v3l197 282l52 56v14l-54 57l-195 280v3h156l196 -292
l90 -1l-1 104v189h129v-189l-2 -104l91 1l196 292h155v-3z" />
    <glyph glyph-name="uni04C2" unicode="&#x4c2;" horiz-adv-x="831" 
d="M416 586q-146 0 -147 161h71q1 -50 19 -70t57 -20q40 0 57.5 20t18.5 70h72q-3 -161 -148 -161zM674 0l-131 202l-65 1l2 -74v-129h-129v128l2 75l-65 -1l-131 -202h-153l134 185l51 59v12l-50 58l-134 186h153l130 -202l65 -1l-2 80v123h129v-122l-2 -81l65 1l131 202
h152l-133 -186l-50 -58v-12l51 -59l133 -185h-153z" />
    <glyph glyph-name="uni04CF" unicode="&#x4cf;" horiz-adv-x="234" 
d="M53 0v760h129v-760h-129z" />
    <glyph glyph-name="uni04D0" unicode="&#x4d0;" horiz-adv-x="725" 
d="M363 781q-146 0 -147 161h71q1 -50 19 -70t57 -20q40 0 57.5 20t18.5 70h72q-3 -161 -148 -161zM4 0l287 695h143l288 -695h-143l-62 163l-114 -2h-81l-114 2l-61 -163h-143zM247 269l75 2h81l75 -2l-21 53l-71 175l-18 71h-11l-18 -71l-71 -175z" />
    <glyph glyph-name="uni04D1" unicode="&#x4d1;" horiz-adv-x="555" 
d="M290 586q-146 0 -147 161h71q1 -50 19 -70t57 -20q40 0 57.5 20t18.5 70h72q-3 -161 -148 -161zM209 -10q-76 0 -122.5 37.5t-46.5 102.5q0 25 7 46t17 36.5t28.5 27.5t34.5 19.5t43 13t45 8t50.5 4t49 1.5h49.5h11v38q0 37 -22.5 60t-63.5 23q-44 0 -71 -25t-32 -69
l-123 6q6 93 69 142t157 49q97 0 155 -49.5t58 -146.5v-314h-101l-9 83h-11q-41 -93 -172 -93zM245 90q56 0 93 30.5t37 76.5v11h-38t-36 -1t-36 -3t-31.5 -5t-27.5 -8t-20 -11.5t-14.5 -16.5t-4.5 -22q0 -51 78 -51z" />
    <glyph glyph-name="uni04D2" unicode="&#x4d2;" horiz-adv-x="725" 
d="M208 807v121h122v-121h-122zM396 807v121h122v-121h-122zM4 0l287 695h143l288 -695h-143l-62 163l-114 -2h-81l-114 2l-61 -163h-143zM247 269l75 2h81l75 -2l-21 53l-71 175l-18 71h-11l-18 -71l-71 -175z" />
    <glyph glyph-name="uni04D3" unicode="&#x4d3;" horiz-adv-x="555" 
d="M135 612v121h122v-121h-122zM323 612v121h122v-121h-122zM209 -10q-76 0 -122.5 37.5t-46.5 102.5q0 25 7 46t17 36.5t28.5 27.5t34.5 19.5t43 13t45 8t50.5 4t49 1.5h49.5h11v38q0 37 -22.5 60t-63.5 23q-44 0 -71 -25t-32 -69l-123 6q6 93 69 142t157 49
q97 0 155 -49.5t58 -146.5v-314h-101l-9 83h-11q-41 -93 -172 -93zM245 90q56 0 93 30.5t37 76.5v11h-38t-36 -1t-36 -3t-31.5 -5t-27.5 -8t-20 -11.5t-14.5 -16.5t-4.5 -22q0 -51 78 -51z" />
    <glyph glyph-name="uni04D4" unicode="&#x4d4;" horiz-adv-x="1050" 
d="M4 0l433 695h582v-114h-298l-87 2l2 -67v-43l-2 -60l88 2h245v-113h-245l-88 2l2 -60v-65l-2 -67l88 3h297v-115h-514v158h-261l-94 -158h-146zM305 267h200v313h-15z" />
    <glyph glyph-name="uni04D5" unicode="&#x4d5;" horiz-adv-x="875" 
d="M843 215h-278l-66 2q7 -56 41 -86.5t81 -30.5q88 0 112 75l110 -12q-23 -85 -81 -126.5t-141 -41.5q-116 0 -188 89q-32 -43 -85.5 -66t-117.5 -23q-95 0 -144.5 37t-49.5 96q0 42 25 71.5t62.5 43t81 23.5t81 15t62.5 15.5t25 27.5v8q0 24 -26.5 47t-69.5 23
q-46 0 -76.5 -25.5t-38.5 -75.5l-117 6q10 96 74 147t154 51q108 0 165 -77q64 77 175 77q107 0 170 -71t63 -180q0 -20 -3 -39zM613 400q-42 0 -72.5 -26.5t-40.5 -77.5l65 2h90l70 -2q-10 50 -40 77t-72 27zM373 208v38q-17 -16 -54 -27.5t-68.5 -17.5t-56.5 -22t-25 -41
q0 -48 74 -48q56 0 93 32.5t37 85.5z" />
    <glyph glyph-name="uni04D6" unicode="&#x4d6;" horiz-adv-x="617" 
d="M334 781q-146 0 -147 161h71q1 -50 19 -70t57 -20q40 0 57.5 20t18.5 70h72q-3 -161 -148 -161zM53 0v695h532v-114h-304l-100 1l3 -66v-43l-3 -59l100 1h251v-113h-251l-100 1l3 -59v-65l-3 -66l100 2h304v-115h-532z" />
    <glyph glyph-name="uni04D7" unicode="&#x4d7;" horiz-adv-x="538" 
d="M265 586q-146 0 -147 161h71q1 -50 19 -70t57 -20q40 0 57.5 20t18.5 70h72q-3 -161 -148 -161zM275 -10q-110 0 -179 71t-69 188t65.5 189t177.5 72q107 0 171.5 -71.5t64.5 -184.5q0 -31 -2 -44h-288l-66 2q6 -59 40.5 -90.5t84.5 -31.5q41 0 71.5 18.5t40.5 53.5
l115 -12q-22 -78 -83 -119t-144 -41zM150 295l69 2h100l68 -2q-6 56 -38.5 86t-78.5 30q-47 0 -80 -29.5t-40 -86.5z" />
    <glyph glyph-name="uni04D8" unicode="&#x4d8;" horiz-adv-x="704" 
d="M351 705q155 0 240.5 -98t85.5 -259q0 -160 -86 -259t-240 -99q-153 0 -238 97t-85 260v37h440l76 -2q-8 97 -56.5 153.5t-136.5 56.5q-79 0 -126 -40.5t-61 -103.5l-132 11q23 110 104.5 178t214.5 68zM351 104q80 0 128.5 47t61.5 132l-74 -2h-240l-63 1
q32 -178 187 -178z" />
    <glyph glyph-name="uni04D9" unicode="&#x4d9;" horiz-adv-x="529" 
d="M264 -5q-107 0 -171 69t-64 175q0 26 2 40h283l67 -1q-6 61 -40.5 93t-81.5 32q-40 0 -71 -21t-43 -58l-115 11q23 83 85 126.5t144 43.5q109 0 177 -70t68 -184q0 -115 -65.5 -185.5t-174.5 -70.5zM264 97q44 0 76.5 26.5t37.5 73.5l-67 -2h-94l-66 2q4 -47 36.5 -73.5
t76.5 -26.5z" />
    <glyph glyph-name="uni04DC" unicode="&#x4dc;" horiz-adv-x="1017" 
d="M475 928v-121h-122v121h122zM663 928v-121h-122v121h122zM818 412l-53 -57v-14l52 -56l196 -282v-3h-156l-195 293l-91 1l2 -93v-201h-129v201l1 93l-90 -1l-196 -293h-156v3l197 282l52 56v14l-54 57l-195 280v3h156l196 -292l90 -1l-1 104v189h129v-189l-2 -104l91 1
l196 292h155v-3z" />
    <glyph glyph-name="uni04DD" unicode="&#x4dd;" horiz-adv-x="831" 
d="M384 733v-121h-122v121h122zM572 733v-121h-122v121h122zM674 0l-131 202l-65 1l2 -74v-129h-129v128l2 75l-65 -1l-131 -202h-153l134 185l51 59v12l-50 58l-134 186h153l130 -202l65 -1l-2 80v123h129v-122l-2 -81l65 1l131 202h152l-133 -186l-50 -58v-12l51 -59
l133 -185h-153z" />
    <glyph glyph-name="uni04DE" unicode="&#x4de;" horiz-adv-x="641" 
d="M179 807v121h122v-121h-122zM367 807v121h122v-121h-122zM333 -5q-73 0 -134.5 20t-110 71.5t-58.5 130.5l132 12q8 -62 55.5 -93.5t115.5 -31.5q70 0 108.5 27.5t38.5 77.5q0 48 -37 72.5t-103 24.5h-31v107h31q118 0 118 84q0 46 -33 73.5t-93 27.5q-124 0 -144 -122
l-130 11q11 103 84 160.5t190 57.5q116 0 185.5 -53.5t69.5 -140.5q0 -107 -116 -142v-14q65 -10 102 -49t37 -103q0 -91 -74 -149.5t-203 -58.5z" />
    <glyph glyph-name="uni04DF" unicode="&#x4df;" horiz-adv-x="494" 
d="M98 612v121h122v-121h-122zM286 612v121h122v-121h-122zM257 -10q-59 0 -107.5 15.5t-84.5 54t-42 96.5l125 12q11 -76 109 -76q41 0 66 18t25 49q0 65 -93 65h-19v72h19q81 0 81 56q0 26 -20.5 42t-56.5 16q-86 0 -99 -73l-116 11q8 75 65.5 118.5t149.5 43.5
q90 0 142.5 -41t52.5 -104q0 -76 -71 -96v-13q39 -6 63.5 -35t24.5 -74q0 -69 -58 -113t-156 -44z" />
    <glyph glyph-name="uni04E2" unicode="&#x4e2;" horiz-adv-x="711" 
d="M213 819v97h302v-97h-302zM53 0v695h129v-418l-8 -116h15l56 115l248 419h166v-695h-130v418l9 116h-16l-39 -90l-265 -444h-165z" />
    <glyph glyph-name="uni04E3" unicode="&#x4e3;" horiz-adv-x="583" 
d="M145 624v97h302v-97h-302zM53 0v500h124v-207l-11 -126h16l206 333h142v-500h-124v207l11 126h-16l-206 -333h-142z" />
    <glyph glyph-name="uni04E4" unicode="&#x4e4;" horiz-adv-x="711" 
d="M209 807v121h122v-121h-122zM397 807v121h122v-121h-122zM53 0v695h129v-418l-8 -116h15l56 115l248 419h166v-695h-130v418l9 116h-16l-39 -90l-265 -444h-165z" />
    <glyph glyph-name="uni04E5" unicode="&#x4e5;" horiz-adv-x="583" 
d="M141 612v121h122v-121h-122zM329 612v121h122v-121h-122zM53 0v500h124v-207l-11 -126h16l206 333h142v-500h-124v207l11 126h-16l-206 -333h-142z" />
    <glyph glyph-name="uni04E6" unicode="&#x4e6;" horiz-adv-x="708" 
d="M199 807v121h122v-121h-122zM387 807v121h122v-121h-122zM356 -10q-157 0 -242.5 97t-85.5 260q0 161 86 259.5t242 98.5q155 0 240 -98.5t85 -259.5q0 -163 -84.5 -260t-240.5 -97zM356 103q94 0 143 67t49 178q0 108 -49.5 175.5t-142.5 67.5q-95 0 -145.5 -67.5
t-50.5 -175.5q0 -111 50.5 -178t145.5 -67z" />
    <glyph glyph-name="uni04E7" unicode="&#x4e7;" horiz-adv-x="540" 
d="M115 612v121h122v-121h-122zM303 612v121h122v-121h-122zM271 -10q-112 0 -178.5 72t-66.5 187q0 116 66.5 188.5t178.5 72.5t177.5 -72.5t65.5 -188.5q0 -115 -65.5 -187t-177.5 -72zM271 96q55 0 85.5 41t30.5 113t-30.5 113t-85.5 41q-56 0 -87.5 -41.5t-31.5 -112.5
t31.5 -112.5t87.5 -41.5z" />
    <glyph glyph-name="uni04E8" unicode="&#x4e8;" horiz-adv-x="708" 
d="M356 705q155 0 240 -98.5t85 -259.5q0 -163 -84.5 -260t-240.5 -97q-157 0 -242.5 97t-85.5 260q0 161 86 259.5t242 98.5zM356 591q-84 0 -133.5 -53.5t-59.5 -142.5l72 2h241l69 -2q-10 89 -58.5 142.5t-130.5 53.5zM356 103q83 0 131.5 53t58.5 145l-70 -2h-245l-68 2
q10 -92 59 -145t134 -53z" />
    <glyph glyph-name="uni04E9" unicode="&#x4e9;" horiz-adv-x="540" 
d="M271 510q112 0 177.5 -72.5t65.5 -188.5q0 -115 -65.5 -187t-177.5 -72t-178.5 72t-66.5 187q0 116 66.5 188.5t178.5 72.5zM271 404q-46 0 -76 -29t-39 -80h227q-8 52 -37 80.5t-75 28.5zM271 96q46 0 75 28.5t37 80.5h-227q9 -51 39 -80t76 -29z" />
    <glyph glyph-name="uni04EA" unicode="&#x4ea;" horiz-adv-x="708" 
d="M321 928v-121h-122v121h122zM509 928v-121h-122v121h122zM356 705q155 0 240 -98.5t85 -259.5q0 -163 -84.5 -260t-240.5 -97q-157 0 -242.5 97t-85.5 260q0 161 86 259.5t242 98.5zM356 591q-84 0 -133.5 -53.5t-59.5 -142.5l72 2h241l69 -2q-10 89 -58.5 142.5
t-130.5 53.5zM356 103q83 0 131.5 53t58.5 145l-70 -2h-245l-68 2q10 -92 59 -145t134 -53z" />
    <glyph glyph-name="uni04EB" unicode="&#x4eb;" horiz-adv-x="540" 
d="M237 733v-121h-122v121h122zM425 733v-121h-122v121h122zM271 510q112 0 177.5 -72.5t65.5 -188.5q0 -115 -65.5 -187t-177.5 -72t-178.5 72t-66.5 187q0 116 66.5 188.5t178.5 72.5zM271 404q-46 0 -76 -29t-39 -80h227q-8 52 -37 80.5t-75 28.5zM271 96q46 0 75 28.5
t37 80.5h-227q9 -51 39 -80t76 -29z" />
    <glyph glyph-name="uni04EC" unicode="&#x4ec;" horiz-adv-x="691" 
d="M312 928v-121h-122v121h122zM500 928v-121h-122v121h122zM342 703q147 0 234 -97.5t87 -258.5q0 -160 -87 -256t-236 -96q-118 0 -203 68t-105 180l131 11q19 -70 65.5 -107.5t113.5 -37.5q79 0 128.5 50.5t59.5 143.5l-80 -3h-145v96h145l80 -2q-10 93 -58.5 144
t-126.5 51q-68 0 -115.5 -38t-66.5 -109l-131 11q20 115 105 182.5t205 67.5z" />
    <glyph glyph-name="uni04ED" unicode="&#x4ed;" horiz-adv-x="524" 
d="M224 733v-121h-122v121h122zM412 733v-121h-122v121h122zM256 510q114 0 178 -73t64 -187t-64.5 -187t-178.5 -73q-93 0 -154 50.5t-75 135.5l120 10q20 -90 113 -90q48 0 78.5 30t39.5 81l-60 -3h-82v92h82l61 -3q-9 53 -39 82.5t-79 29.5q-90 0 -114 -91l-120 10
q14 85 76 135.5t154 50.5z" />
    <glyph glyph-name="uni04EE" unicode="&#x4ee;" horiz-adv-x="631" 
d="M165 819v97h302v-97h-302zM146 -10q-53 0 -91 3v110q52 -4 77 -3q36 2 60 18.5t43 53.5l18 33l-245 490h147l134 -288l23 -78h13l24 79l127 287h147l-253 -527q-45 -96 -95 -137t-129 -41z" />
    <glyph glyph-name="uni04EF" unicode="&#x4ef;" horiz-adv-x="552" 
d="M129 624v97h302v-97h-302zM121 -240q-53 0 -91 3v115q27 -3 67 -3q43 0 66.5 16t39.5 53l18 43l-212 513h144l102 -285l20 -87h13l20 87l94 285h141l-214 -563q-37 -98 -85.5 -137.5t-122.5 -39.5z" />
    <glyph glyph-name="uni04F0" unicode="&#x4f0;" horiz-adv-x="631" 
d="M161 807v121h122v-121h-122zM349 807v121h122v-121h-122zM146 -10q-53 0 -91 3v110q52 -4 77 -3q36 2 60 18.5t43 53.5l18 33l-245 490h147l134 -288l23 -78h13l24 79l127 287h147l-253 -527q-45 -96 -95 -137t-129 -41z" />
    <glyph glyph-name="uni04F1" unicode="&#x4f1;" horiz-adv-x="552" 
d="M124 612v121h122v-121h-122zM312 612v121h122v-121h-122zM121 -240q-53 0 -91 3v115q27 -3 67 -3q43 0 66.5 16t39.5 53l18 43l-212 513h144l102 -285l20 -87h13l20 87l94 285h141l-214 -563q-37 -98 -85.5 -137.5t-122.5 -39.5z" />
    <glyph glyph-name="uni04F2" unicode="&#x4f2;" horiz-adv-x="631" 
d="M191 792l103 151h106l-115 -151h-94zM336 792l103 151h107l-115 -151h-95zM146 -10q-53 0 -91 3v110q52 -4 77 -3q36 2 60 18.5t43 53.5l18 33l-245 490h147l134 -288l23 -78h13l24 79l127 287h147l-253 -527q-45 -96 -95 -137t-129 -41z" />
    <glyph glyph-name="uni04F3" unicode="&#x4f3;" horiz-adv-x="552" 
d="M155 597l103 151h106l-115 -151h-94zM300 597l103 151h107l-115 -151h-95zM121 -240q-53 0 -91 3v115q27 -3 67 -3q43 0 66.5 16t39.5 53l18 43l-212 513h144l102 -285l20 -87h13l20 87l94 285h141l-214 -563q-37 -98 -85.5 -137.5t-122.5 -39.5z" />
    <glyph glyph-name="uni1E36" unicode="&#x1e36;" horiz-adv-x="573" 
d="M53 0v695h131v-452l-3 -131l131 3h243v-115h-502zM246 -207v121h128v-121h-128z" />
    <glyph glyph-name="uni1E37" unicode="&#x1e37;" horiz-adv-x="326" 
d="M221 -5q-80 0 -124 48t-44 138v579h127v-573q0 -76 65 -76q15 0 49 3v-113q-44 -6 -73 -6zM141 -207v121h128v-121h-128z" />
    <glyph glyph-name="uni1E3E" unicode="&#x1e3e;" horiz-adv-x="883" 
d="M391 789l104 156h110l-113 -156h-101zM53 0v695h154l203 -487l26 -92h12l25 92l203 487h155v-695h-130v383l6 92h-12l-25 -94l-162 -381h-133l-162 381l-25 94h-11l5 -92v-383h-129z" />
    <glyph glyph-name="uni1E3F" unicode="&#x1e3f;" horiz-adv-x="852" 
d="M375 594l104 156h110l-113 -156h-101zM53 0v500h129v-23l-10 -67h15q33 95 135 95q101 0 137 -95h15q44 95 154 95q76 0 126 -51t50 -167v-287h-129v280q0 115 -85 115q-39 0 -68 -28.5t-29 -99.5v-267h-129v280q0 115 -86 115q-38 0 -67 -31.5t-29 -102.5v-261h-129z
" />
    <glyph glyph-name="uni1E46" unicode="&#x1e46;" horiz-adv-x="711" 
d="M53 0v695h167l247 -419l52 -108h16l-6 109v418h130v-695h-168l-263 444l-36 83h-16l6 -109v-418h-129zM292 -207v121h128v-121h-128z" />
    <glyph glyph-name="uni1E47" unicode="&#x1e47;" 
d="M53 0v500h129v-24l-9 -64h14q60 94 169 94q81 0 126 -52t45 -149v-305h-128v278q0 117 -98 117q-53 0 -86 -39.5t-33 -114.5v-241h-129zM233 -207v121h128v-121h-128z" />
    <glyph glyph-name="uni1E62" unicode="&#x1e62;" horiz-adv-x="653" 
d="M341 -10q-124 0 -206.5 59t-100.5 169l131 12q12 -60 59.5 -93.5t117.5 -33.5t109.5 26t39.5 70q0 39 -25.5 59t-87.5 29l-123 18q-98 14 -151 63t-53 127q0 92 74.5 151t190.5 59q118 0 192 -59t80 -177l-124 -9q-7 66 -46 99.5t-102 33.5q-60 0 -98 -27.5t-38 -70.5
q0 -66 97 -81l136 -20q207 -29 207 -195q0 -95 -76 -152t-203 -57zM284 -207v121h128v-121h-128z" />
    <glyph glyph-name="uni1E63" unicode="&#x1e63;" horiz-adv-x="499" 
d="M258 -10q-99 0 -158 44t-72 113l121 12q18 -70 109 -70q44 0 69.5 16.5t25.5 42.5q0 44 -63 52l-95 10q-161 18 -161 135q0 69 58 117t150 48q94 0 147.5 -46t59.5 -118l-112 -8q-4 33 -28 53t-67 20q-42 0 -65 -18.5t-23 -44.5q0 -40 56 -47l99 -11q166 -18 166 -138
q0 -69 -57 -115.5t-160 -46.5zM199 -197v121h128v-121h-128z" />
    <glyph glyph-name="uni1E6C" unicode="&#x1e6c;" horiz-adv-x="640" 
d="M254 0v448l3 135l-111 -3h-134v115h616v-115h-135l-110 3l2 -135v-448h-131zM255 -207v121h128v-121h-128z" />
    <glyph glyph-name="uni1E6D" unicode="&#x1e6d;" horiz-adv-x="401" 
d="M292 -5q-86 0 -131.5 48t-45.5 138v214l-55 -4h-47v109h47l58 -3l-3 47v105h126v-105l-2 -47l50 3h77v-109h-77l-48 4v-207q0 -76 75 -76q27 0 50 3v-114q-44 -6 -74 -6zM222 -207v121h128v-121h-128z" />
    <glyph glyph-name="Wgrave" unicode="&#x1e80;" horiz-adv-x="1061" 
d="M482 789l-96 156h111l84 -156h-99zM211 0l-203 695h136l131 -467l13 -76h12l18 76l146 467h133l146 -467l18 -76h12l13 76l131 467h136l-204 -695h-155l-139 419l-19 88h-12l-18 -88l-139 -419h-156z" />
    <glyph glyph-name="wgrave" unicode="&#x1e81;" horiz-adv-x="826" 
d="M366 594l-96 156h111l84 -156h-99zM155 0l-151 500h138l82 -320l8 -54h11l10 54l97 320h126l98 -320l10 -54h11l6 54l82 320h139l-151 -500h-155l-85 271l-10 59h-14l-10 -59l-87 -271h-155z" />
    <glyph glyph-name="Wacute" unicode="&#x1e82;" horiz-adv-x="1061" 
d="M480 789l104 156h110l-113 -156h-101zM211 0l-203 695h136l131 -467l13 -76h12l18 76l146 467h133l146 -467l18 -76h12l13 76l131 467h136l-204 -695h-155l-139 419l-19 88h-12l-18 -88l-139 -419h-156z" />
    <glyph glyph-name="wacute" unicode="&#x1e83;" horiz-adv-x="826" 
d="M363 594l104 156h110l-113 -156h-101zM155 0l-151 500h138l82 -320l8 -54h11l10 54l97 320h126l98 -320l10 -54h11l6 54l82 320h139l-151 -500h-155l-85 271l-10 59h-14l-10 -59l-87 -271h-155z" />
    <glyph glyph-name="Wdieresis" unicode="&#x1e84;" horiz-adv-x="1061" 
d="M375 807v121h122v-121h-122zM563 807v121h122v-121h-122zM211 0l-203 695h136l131 -467l13 -76h12l18 76l146 467h133l146 -467l18 -76h12l13 76l131 467h136l-204 -695h-155l-139 419l-19 88h-12l-18 -88l-139 -419h-156z" />
    <glyph glyph-name="wdieresis" unicode="&#x1e85;" horiz-adv-x="826" 
d="M259 612v121h122v-121h-122zM447 612v121h122v-121h-122zM155 0l-151 500h138l82 -320l8 -54h11l10 54l97 320h126l98 -320l10 -54h11l6 54l82 320h139l-151 -500h-155l-85 271l-10 59h-14l-10 -59l-87 -271h-155z" />
    <glyph glyph-name="uni1E92" unicode="&#x1e92;" horiz-adv-x="619" 
d="M19 0v107l363 418l58 41v14h-415v115h574v-105l-365 -420l-58 -41v-14h426v-115h-583zM246 -207v121h128v-121h-128z" />
    <glyph glyph-name="uni1E93" unicode="&#x1e93;" horiz-adv-x="498" 
d="M22 0v93l247 268l33 20v12h-274v107h436v-94l-245 -265l-33 -21v-12h282v-108h-446zM186 -207v121h128v-121h-128z" />
    <glyph glyph-name="uni1E9E" unicode="&#x1e9e;" horiz-adv-x="695" 
d="M391 -5q-60 0 -168 8v113q82 -8 159 -8q152 0 152 96q0 23 -8 40t-29 32t-65.5 23t-110.5 8v92l119 149v14q-44 22 -105 22q-71 0 -113.5 -38t-42.5 -109v-437h-131v438q0 122 84.5 189.5t199.5 67.5q167 0 246 -103l-100 -145l-50 -52v-12q110 1 171 -49.5t61 -136.5
q0 -102 -71.5 -152t-197.5 -50z" />
    <glyph glyph-name="uni1EA0" unicode="&#x1ea0;" horiz-adv-x="725" 
d="M4 0l287 695h143l288 -695h-143l-62 163l-114 -2h-81l-114 2l-61 -163h-143zM247 269l75 2h81l75 -2l-21 53l-71 175l-18 71h-11l-18 -71l-71 -175zM299 -207v121h128v-121h-128z" />
    <glyph glyph-name="uni1EA1" unicode="&#x1ea1;" horiz-adv-x="555" 
d="M210 -10q-77 0 -123.5 37.5t-46.5 102.5q0 32 11.5 57.5t27 42t45 27.5t52 16.5t62.5 8.5t62 3.5t65 0.5h3h3h4v38q0 37 -22.5 60t-63.5 23q-44 0 -72 -25t-32 -69l-122 7q7 89 70.5 139.5t155.5 50.5q96 0 155 -51t59 -148v-311h-97l-12 83h-11q-41 -93 -173 -93z
M245 85q58 0 94 31t36 81v14q-32 0 -50.5 -0.5t-47 -2.5t-45 -6.5t-33.5 -12t-24.5 -19.5t-7.5 -29q0 -26 20.5 -41t57.5 -15zM229 -207v121h128v-121h-128z" />
    <glyph glyph-name="uni1EA2" unicode="&#x1ea2;" horiz-adv-x="725" 
d="M335 783q8 27 8 49q0 37 -35 37q-29 0 -71 -13v80q45 16 92 16t73.5 -27t26.5 -68q0 -39 -13 -74h-81zM4 0l287 695h143l288 -695h-143l-62 163l-114 -2h-81l-114 2l-61 -163h-143zM247 269l75 2h81l75 -2l-21 53l-71 175l-18 71h-11l-18 -71l-71 -175z" />
    <glyph glyph-name="uni1EA3" unicode="&#x1ea3;" horiz-adv-x="555" 
d="M264 588q8 27 8 49q0 37 -35 37q-29 0 -71 -13v80q45 16 92 16t73.5 -27t26.5 -68q0 -39 -13 -74h-81zM210 -10q-77 0 -123.5 37.5t-46.5 102.5q0 32 11.5 57.5t27 42t45 27.5t52 16.5t62.5 8.5t62 3.5t65 0.5h3h3h4v38q0 37 -22.5 60t-63.5 23q-44 0 -72 -25t-32 -69
l-122 7q7 89 70.5 139.5t155.5 50.5q96 0 155 -51t59 -148v-311h-97l-12 83h-11q-41 -93 -173 -93zM245 85q58 0 94 31t36 81v14q-32 0 -50.5 -0.5t-47 -2.5t-45 -6.5t-33.5 -12t-24.5 -19.5t-7.5 -29q0 -26 20.5 -41t57.5 -15z" />
    <glyph glyph-name="uni1EA4" unicode="&#x1ea4;" horiz-adv-x="725" 
d="M465 905l83 140h88l-91 -140h-80zM196 792l110 151h113l110 -151h-107l-51 92h-16l-51 -92h-108zM4 0l287 695h143l288 -695h-143l-62 163l-114 -2h-81l-114 2l-61 -163h-143zM247 269l75 2h81l75 -2l-21 53l-71 175l-18 71h-11l-18 -71l-71 -175z" />
    <glyph glyph-name="uni1EA5" unicode="&#x1ea5;" horiz-adv-x="555" 
d="M395 710l83 140h88l-91 -140h-80zM126 597l110 151h113l110 -151h-107l-51 92h-16l-51 -92h-108zM210 -10q-77 0 -123.5 37.5t-46.5 102.5q0 32 11.5 57.5t27 42t45 27.5t52 16.5t62.5 8.5t62 3.5t65 0.5h3h3h4v38q0 37 -22.5 60t-63.5 23q-44 0 -72 -25t-32 -69l-122 7
q7 89 70.5 139.5t155.5 50.5q96 0 155 -51t59 -148v-311h-97l-12 83h-11q-41 -93 -173 -93zM245 85q58 0 94 31t36 81v14q-32 0 -50.5 -0.5t-47 -2.5t-45 -6.5t-33.5 -12t-24.5 -19.5t-7.5 -29q0 -26 20.5 -41t57.5 -15z" />
    <glyph glyph-name="uni1EA6" unicode="&#x1ea6;" horiz-adv-x="725" 
d="M181 901l-76 140h89l67 -140h-80zM197 792l110 151h112l111 -151h-108l-50 92h-17l-51 -92h-107zM4 0l287 695h143l288 -695h-143l-62 163l-114 -2h-81l-114 2l-61 -163h-143zM247 269l75 2h81l75 -2l-21 53l-71 175l-18 71h-11l-18 -71l-71 -175z" />
    <glyph glyph-name="uni1EA7" unicode="&#x1ea7;" horiz-adv-x="555" 
d="M110 706l-76 140h89l67 -140h-80zM126 597l110 151h112l111 -151h-108l-50 92h-17l-51 -92h-107zM210 -10q-77 0 -123.5 37.5t-46.5 102.5q0 32 11.5 57.5t27 42t45 27.5t52 16.5t62.5 8.5t62 3.5t65 0.5h3h3h4v38q0 37 -22.5 60t-63.5 23q-44 0 -72 -25t-32 -69l-122 7
q7 89 70.5 139.5t155.5 50.5q96 0 155 -51t59 -148v-311h-97l-12 83h-11q-41 -93 -173 -93zM245 85q58 0 94 31t36 81v14q-32 0 -50.5 -0.5t-47 -2.5t-45 -6.5t-33.5 -12t-24.5 -19.5t-7.5 -29q0 -26 20.5 -41t57.5 -15z" />
    <glyph glyph-name="uni1EA8" unicode="&#x1ea8;" horiz-adv-x="725" 
d="M468 919q9 26 9 49q0 38 -36 38q-31 0 -70 -14v81q47 15 92 15q46 0 72.5 -26.5t26.5 -68.5q0 -41 -12 -74h-82zM196 792l110 151h113l110 -151h-107l-51 92h-16l-51 -92h-108zM4 0l287 695h143l288 -695h-143l-62 163l-114 -2h-81l-114 2l-61 -163h-143zM247 269l75 2
h81l75 -2l-21 53l-71 175l-18 71h-11l-18 -71l-71 -175z" />
    <glyph glyph-name="uni1EA9" unicode="&#x1ea9;" horiz-adv-x="555" 
d="M398 724q9 26 9 49q0 38 -36 38q-31 0 -70 -14v81q47 15 92 15q46 0 72.5 -26.5t26.5 -68.5q0 -41 -12 -74h-82zM126 597l110 151h113l110 -151h-107l-51 92h-16l-51 -92h-108zM210 -10q-77 0 -123.5 37.5t-46.5 102.5q0 32 11.5 57.5t27 42t45 27.5t52 16.5t62.5 8.5
t62 3.5t65 0.5h3h3h4v38q0 37 -22.5 60t-63.5 23q-44 0 -72 -25t-32 -69l-122 7q7 89 70.5 139.5t155.5 50.5q96 0 155 -51t59 -148v-311h-97l-12 83h-11q-41 -93 -173 -93zM245 85q58 0 94 31t36 81v14q-32 0 -50.5 -0.5t-47 -2.5t-45 -6.5t-33.5 -12t-24.5 -19.5t-7.5 -29
q0 -26 20.5 -41t57.5 -15z" />
    <glyph glyph-name="uni1EAA" unicode="&#x1eaa;" horiz-adv-x="725" 
d="M222 980q0 146 84 146q20 0 37.5 -11t27 -25t20.5 -25t20 -11q31 0 31 72h61q0 -71 -24 -108.5t-63 -37.5q-27 0 -46.5 16.5t-33 32.5t-25.5 16q-28 0 -28 -65h-61zM196 792l110 151h113l110 -151h-107l-51 92h-16l-51 -92h-108zM4 0l287 695h143l288 -695h-143l-62 163
l-114 -2h-81l-114 2l-61 -163h-143zM247 269l75 2h81l75 -2l-21 53l-71 175l-18 71h-11l-18 -71l-71 -175z" />
    <glyph glyph-name="uni1EAB" unicode="&#x1eab;" horiz-adv-x="555" 
d="M152 785q0 146 84 146q20 0 37.5 -11.5t27 -24.5t20.5 -24.5t20 -11.5q31 0 31 72h61q0 -71 -24 -108.5t-63 -37.5q-27 0 -46.5 16.5t-33 32.5t-25.5 16q-28 0 -28 -65h-61zM126 597l110 151h113l110 -151h-107l-51 92h-16l-51 -92h-108zM210 -10q-77 0 -123.5 37.5
t-46.5 102.5q0 32 11.5 57.5t27 42t45 27.5t52 16.5t62.5 8.5t62 3.5t65 0.5h3h3h4v38q0 37 -22.5 60t-63.5 23q-44 0 -72 -25t-32 -69l-122 7q7 89 70.5 139.5t155.5 50.5q96 0 155 -51t59 -148v-311h-97l-12 83h-11q-41 -93 -173 -93zM245 85q58 0 94 31t36 81v14
q-32 0 -50.5 -0.5t-47 -2.5t-45 -6.5t-33.5 -12t-24.5 -19.5t-7.5 -29q0 -26 20.5 -41t57.5 -15z" />
    <glyph glyph-name="uni1EAC" unicode="&#x1eac;" horiz-adv-x="725" 
d="M196 792l110 151h113l110 -151h-107l-51 92h-16l-51 -92h-108zM4 0l287 695h143l288 -695h-143l-62 163l-114 -2h-81l-114 2l-61 -163h-143zM247 269l75 2h81l75 -2l-21 53l-71 175l-18 71h-11l-18 -71l-71 -175zM299 -207v121h128v-121h-128z" />
    <glyph glyph-name="uni1EAD" unicode="&#x1ead;" horiz-adv-x="555" 
d="M126 597l110 151h113l110 -151h-107l-51 92h-16l-51 -92h-108zM210 -10q-77 0 -123.5 37.5t-46.5 102.5q0 32 11.5 57.5t27 42t45 27.5t52 16.5t62.5 8.5t62 3.5t65 0.5h3h3h4v38q0 37 -22.5 60t-63.5 23q-44 0 -72 -25t-32 -69l-122 7q7 89 70.5 139.5t155.5 50.5
q96 0 155 -51t59 -148v-311h-97l-12 83h-11q-41 -93 -173 -93zM245 85q58 0 94 31t36 81v14q-32 0 -50.5 -0.5t-47 -2.5t-45 -6.5t-33.5 -12t-24.5 -19.5t-7.5 -29q0 -26 20.5 -41t57.5 -15zM229 -207v121h128v-121h-128z" />
    <glyph glyph-name="uni1EAE" unicode="&#x1eae;" horiz-adv-x="725" 
d="M312 959l104 156h110l-114 -156h-100zM363 781q-146 0 -147 161h71q1 -50 19 -70t57 -20q40 0 57.5 20t18.5 70h72q-3 -161 -148 -161zM4 0l287 695h143l288 -695h-143l-62 163l-114 -2h-81l-114 2l-61 -163h-143zM247 269l75 2h81l75 -2l-21 53l-71 175l-18 71h-11
l-18 -71l-71 -175z" />
    <glyph glyph-name="uni1EAF" unicode="&#x1eaf;" horiz-adv-x="555" 
d="M242 764l104 156h110l-113 -156h-101zM293 586q-146 0 -147 161h71q1 -50 19 -70t57 -20q40 0 57.5 20t18.5 70h72q-3 -161 -148 -161zM210 -10q-77 0 -123.5 37.5t-46.5 102.5q0 32 11.5 57.5t27 42t45 27.5t52 16.5t62.5 8.5t62 3.5t65 0.5h3h3h4v38q0 37 -22.5 60
t-63.5 23q-44 0 -72 -25t-32 -69l-122 7q7 89 70.5 139.5t155.5 50.5q96 0 155 -51t59 -148v-311h-97l-12 83h-11q-41 -93 -173 -93zM245 85q58 0 94 31t36 81v14q-32 0 -50.5 -0.5t-47 -2.5t-45 -6.5t-33.5 -12t-24.5 -19.5t-7.5 -29q0 -26 20.5 -41t57.5 -15z" />
    <glyph glyph-name="uni1EB0" unicode="&#x1eb0;" horiz-adv-x="725" 
d="M318 956l-95 156h111l84 -156h-100zM363 781q-146 0 -147 161h71q1 -50 19 -70t57 -20q40 0 57.5 20t18.5 70h72q-3 -161 -148 -161zM4 0l287 695h143l288 -695h-143l-62 163l-114 -2h-81l-114 2l-61 -163h-143zM247 269l75 2h81l75 -2l-21 53l-71 175l-18 71h-11
l-18 -71l-71 -175z" />
    <glyph glyph-name="uni1EB1" unicode="&#x1eb1;" horiz-adv-x="555" 
d="M248 761l-95 156h111l84 -156h-100zM293 586q-146 0 -147 161h71q1 -50 19 -70t57 -20q40 0 57.5 20t18.5 70h72q-3 -161 -148 -161zM210 -10q-77 0 -123.5 37.5t-46.5 102.5q0 32 11.5 57.5t27 42t45 27.5t52 16.5t62.5 8.5t62 3.5t65 0.5h3h3h4v38q0 37 -22.5 60
t-63.5 23q-44 0 -72 -25t-32 -69l-122 7q7 89 70.5 139.5t155.5 50.5q96 0 155 -51t59 -148v-311h-97l-12 83h-11q-41 -93 -173 -93zM245 85q58 0 94 31t36 81v14q-32 0 -50.5 -0.5t-47 -2.5t-45 -6.5t-33.5 -12t-24.5 -19.5t-7.5 -29q0 -26 20.5 -41t57.5 -15z" />
    <glyph glyph-name="uni1EB2" unicode="&#x1eb2;" horiz-adv-x="725" 
d="M335 954q9 30 9 49q0 38 -36 38q-31 0 -71 -14v81q48 15 92 15q47 0 73.5 -26.5t26.5 -68.5q0 -41 -12 -74h-82zM363 781q-146 0 -147 161h71q1 -50 19 -70t57 -20q40 0 57.5 20t18.5 70h72q-3 -161 -148 -161zM4 0l287 695h143l288 -695h-143l-62 163l-114 -2h-81
l-114 2l-61 -163h-143zM247 269l75 2h81l75 -2l-21 53l-71 175l-18 71h-11l-18 -71l-71 -175z" />
    <glyph glyph-name="uni1EB3" unicode="&#x1eb3;" horiz-adv-x="555" 
d="M265 759q9 30 9 49q0 38 -36 38q-31 0 -71 -14v81q48 15 92 15q47 0 73.5 -26.5t26.5 -68.5q0 -41 -12 -74h-82zM293 586q-146 0 -147 161h71q1 -50 19 -70t57 -20q40 0 57.5 20t18.5 70h72q-3 -161 -148 -161zM210 -10q-77 0 -123.5 37.5t-46.5 102.5q0 32 11.5 57.5
t27 42t45 27.5t52 16.5t62.5 8.5t62 3.5t65 0.5h3h3h4v38q0 37 -22.5 60t-63.5 23q-44 0 -72 -25t-32 -69l-122 7q7 89 70.5 139.5t155.5 50.5q96 0 155 -51t59 -148v-311h-97l-12 83h-11q-41 -93 -173 -93zM245 85q58 0 94 31t36 81v14q-32 0 -50.5 -0.5t-47 -2.5t-45 -6.5
t-33.5 -12t-24.5 -19.5t-7.5 -29q0 -26 20.5 -41t57.5 -15z" />
    <glyph glyph-name="uni1EB4" unicode="&#x1eb4;" horiz-adv-x="725" 
d="M223 978q0 146 84 146q20 0 37.5 -11t27 -25t20.5 -25t20 -11q32 0 32 72h60q0 -71 -24 -108.5t-63 -37.5q-27 0 -46.5 16.5t-32.5 32.5t-25 16q-29 0 -29 -65h-61zM363 781q-146 0 -147 161h71q1 -50 19 -70t57 -20q40 0 57.5 20t18.5 70h72q-3 -161 -148 -161zM4 0
l287 695h143l288 -695h-143l-62 163l-114 -2h-81l-114 2l-61 -163h-143zM247 269l75 2h81l75 -2l-21 53l-71 175l-18 71h-11l-18 -71l-71 -175z" />
    <glyph glyph-name="uni1EB5" unicode="&#x1eb5;" horiz-adv-x="555" 
d="M153 783q0 146 84 146q20 0 37.5 -11.5t27 -24.5t20.5 -24.5t20 -11.5q32 0 32 72h60q0 -71 -24 -108.5t-63 -37.5q-27 0 -46.5 16.5t-32.5 32.5t-25 16q-29 0 -29 -65h-61zM293 586q-146 0 -147 161h71q1 -50 19 -70t57 -20q40 0 57.5 20t18.5 70h72q-3 -161 -148 -161z
M210 -10q-77 0 -123.5 37.5t-46.5 102.5q0 32 11.5 57.5t27 42t45 27.5t52 16.5t62.5 8.5t62 3.5t65 0.5h3h3h4v38q0 37 -22.5 60t-63.5 23q-44 0 -72 -25t-32 -69l-122 7q7 89 70.5 139.5t155.5 50.5q96 0 155 -51t59 -148v-311h-97l-12 83h-11q-41 -93 -173 -93zM245 85
q58 0 94 31t36 81v14q-32 0 -50.5 -0.5t-47 -2.5t-45 -6.5t-33.5 -12t-24.5 -19.5t-7.5 -29q0 -26 20.5 -41t57.5 -15z" />
    <glyph glyph-name="uni1EB6" unicode="&#x1eb6;" horiz-adv-x="725" 
d="M363 781q-146 0 -147 161h71q1 -50 19 -70t57 -20q40 0 57.5 20t18.5 70h72q-3 -161 -148 -161zM4 0l287 695h143l288 -695h-143l-62 163l-114 -2h-81l-114 2l-61 -163h-143zM247 269l75 2h81l75 -2l-21 53l-71 175l-18 71h-11l-18 -71l-71 -175zM299 -207v121h128v-121
h-128z" />
    <glyph glyph-name="uni1EB7" unicode="&#x1eb7;" horiz-adv-x="555" 
d="M293 586q-146 0 -147 161h71q1 -50 19 -70t57 -20q40 0 57.5 20t18.5 70h72q-3 -161 -148 -161zM210 -10q-77 0 -123.5 37.5t-46.5 102.5q0 32 11.5 57.5t27 42t45 27.5t52 16.5t62.5 8.5t62 3.5t65 0.5h3h3h4v38q0 37 -22.5 60t-63.5 23q-44 0 -72 -25t-32 -69l-122 7
q7 89 70.5 139.5t155.5 50.5q96 0 155 -51t59 -148v-311h-97l-12 83h-11q-41 -93 -173 -93zM245 85q58 0 94 31t36 81v14q-32 0 -50.5 -0.5t-47 -2.5t-45 -6.5t-33.5 -12t-24.5 -19.5t-7.5 -29q0 -26 20.5 -41t57.5 -15zM229 -207v121h128v-121h-128z" />
    <glyph glyph-name="uni1EB8" unicode="&#x1eb8;" horiz-adv-x="617" 
d="M53 0v695h532v-114h-304l-100 1l3 -66v-43l-3 -59l100 1h251v-113h-251l-100 1l3 -59v-65l-3 -66l100 2h304v-115h-532zM257 -207v121h128v-121h-128z" />
    <glyph glyph-name="uni1EB9" unicode="&#x1eb9;" horiz-adv-x="538" 
d="M275 -10q-110 0 -179 71t-69 188t65.5 189t177.5 72q107 0 171.5 -71.5t64.5 -184.5q0 -31 -2 -44h-288l-66 2q6 -59 40.5 -90.5t84.5 -31.5q41 0 71.5 18.5t40.5 53.5l115 -12q-22 -78 -83 -119t-144 -41zM150 295l69 2h100l68 -2q-6 56 -38.5 86t-78.5 30
q-47 0 -80 -29.5t-40 -86.5zM202 -207v121h128v-121h-128z" />
    <glyph glyph-name="uni1EBA" unicode="&#x1eba;" horiz-adv-x="617" 
d="M306 783q8 27 8 49q0 37 -35 37q-29 0 -71 -13v80q45 16 92 16t73.5 -27t26.5 -68q0 -39 -13 -74h-81zM53 0v695h532v-114h-304l-100 1l3 -66v-43l-3 -59l100 1h251v-113h-251l-100 1l3 -59v-65l-3 -66l100 2h304v-115h-532z" />
    <glyph glyph-name="uni1EBB" unicode="&#x1ebb;" horiz-adv-x="538" 
d="M237 588q8 27 8 49q0 37 -35 37q-29 0 -71 -13v80q45 16 92 16t73.5 -27t26.5 -68q0 -39 -13 -74h-81zM275 -10q-110 0 -179 71t-69 188t65.5 189t177.5 72q107 0 171.5 -71.5t64.5 -184.5q0 -31 -2 -44h-288l-66 2q6 -59 40.5 -90.5t84.5 -31.5q41 0 71.5 18.5
t40.5 53.5l115 -12q-22 -78 -83 -119t-144 -41zM150 295l69 2h100l68 -2q-6 56 -38.5 86t-78.5 30q-47 0 -80 -29.5t-40 -86.5z" />
    <glyph glyph-name="uni1EBC" unicode="&#x1ebc;" horiz-adv-x="617" 
d="M179 786q0 81 24.5 121.5t68.5 40.5q23 0 42 -12.5t29.5 -28t23 -28t22.5 -12.5q35 0 35 81h66q0 -79 -26.5 -120.5t-68.5 -41.5q-24 0 -43 11t-29 25t-22 25t-23 11q-31 0 -31 -72h-68zM53 0v695h532v-114h-304l-100 1l3 -66v-43l-3 -59l100 1h251v-113h-251l-100 1
l3 -59v-65l-3 -66l100 2h304v-115h-532z" />
    <glyph glyph-name="uni1EBD" unicode="&#x1ebd;" horiz-adv-x="538" 
d="M110 591q0 81 24.5 121.5t68.5 40.5q23 0 42 -12.5t29.5 -28t23 -28t22.5 -12.5q35 0 35 81h66q0 -79 -26.5 -120.5t-68.5 -41.5q-24 0 -43 11.5t-29 24.5t-22 24.5t-23 11.5q-31 0 -31 -72h-68zM275 -10q-110 0 -179 71t-69 188t65.5 189t177.5 72q107 0 171.5 -71.5
t64.5 -184.5q0 -31 -2 -44h-288l-66 2q6 -59 40.5 -90.5t84.5 -31.5q41 0 71.5 18.5t40.5 53.5l115 -12q-22 -78 -83 -119t-144 -41zM150 295l69 2h100l68 -2q-6 56 -38.5 86t-78.5 30q-47 0 -80 -29.5t-40 -86.5z" />
    <glyph glyph-name="uni1EBE" unicode="&#x1ebe;" horiz-adv-x="617" 
d="M437 905l83 140h88l-91 -140h-80zM168 792l110 151h113l110 -151h-107l-51 92h-16l-51 -92h-108zM53 0v695h532v-114h-304l-100 1l3 -66v-43l-3 -59l100 1h251v-113h-251l-100 1l3 -59v-65l-3 -66l100 2h304v-115h-532z" />
    <glyph glyph-name="uni1EBF" unicode="&#x1ebf;" horiz-adv-x="538" 
d="M368 710l83 140h88l-91 -140h-80zM99 597l110 151h113l110 -151h-107l-51 92h-16l-51 -92h-108zM275 -10q-110 0 -179 71t-69 188t65.5 189t177.5 72q107 0 171.5 -71.5t64.5 -184.5q0 -31 -2 -44h-288l-66 2q6 -59 40.5 -90.5t84.5 -31.5q41 0 71.5 18.5t40.5 53.5
l115 -12q-22 -78 -83 -119t-144 -41zM150 295l69 2h100l68 -2q-6 56 -38.5 86t-78.5 30q-47 0 -80 -29.5t-40 -86.5z" />
    <glyph glyph-name="uni1EC0" unicode="&#x1ec0;" horiz-adv-x="617" 
d="M152 901l-76 140h89l67 -140h-80zM168 792l110 151h112l111 -151h-108l-50 92h-17l-51 -92h-107zM53 0v695h532v-114h-304l-100 1l3 -66v-43l-3 -59l100 1h251v-113h-251l-100 1l3 -59v-65l-3 -66l100 2h304v-115h-532z" />
    <glyph glyph-name="uni1EC1" unicode="&#x1ec1;" horiz-adv-x="538" 
d="M83 706l-76 140h89l67 -140h-80zM99 597l110 151h112l111 -151h-108l-50 92h-17l-51 -92h-107zM275 -10q-110 0 -179 71t-69 188t65.5 189t177.5 72q107 0 171.5 -71.5t64.5 -184.5q0 -31 -2 -44h-288l-66 2q6 -59 40.5 -90.5t84.5 -31.5q41 0 71.5 18.5t40.5 53.5
l115 -12q-22 -78 -83 -119t-144 -41zM150 295l69 2h100l68 -2q-6 56 -38.5 86t-78.5 30q-47 0 -80 -29.5t-40 -86.5z" />
    <glyph glyph-name="uni1EC2" unicode="&#x1ec2;" horiz-adv-x="617" 
d="M440 919q9 26 9 49q0 38 -36 38q-31 0 -70 -14v81q47 15 92 15q46 0 72.5 -26.5t26.5 -68.5q0 -41 -12 -74h-82zM168 792l110 151h113l110 -151h-107l-51 92h-16l-51 -92h-108zM53 0v695h532v-114h-304l-100 1l3 -66v-43l-3 -59l100 1h251v-113h-251l-100 1l3 -59v-65
l-3 -66l100 2h304v-115h-532z" />
    <glyph glyph-name="uni1EC3" unicode="&#x1ec3;" horiz-adv-x="538" 
d="M371 724q9 26 9 49q0 38 -36 38q-31 0 -70 -14v81q47 15 92 15q46 0 72.5 -26.5t26.5 -68.5q0 -41 -12 -74h-82zM99 597l110 151h113l110 -151h-107l-51 92h-16l-51 -92h-108zM275 -10q-110 0 -179 71t-69 188t65.5 189t177.5 72q107 0 171.5 -71.5t64.5 -184.5
q0 -31 -2 -44h-288l-66 2q6 -59 40.5 -90.5t84.5 -31.5q41 0 71.5 18.5t40.5 53.5l115 -12q-22 -78 -83 -119t-144 -41zM150 295l69 2h100l68 -2q-6 56 -38.5 86t-78.5 30q-47 0 -80 -29.5t-40 -86.5z" />
    <glyph glyph-name="uni1EC4" unicode="&#x1ec4;" horiz-adv-x="617" 
d="M194 980q0 146 84 146q20 0 37.5 -11t27 -25t20.5 -25t20 -11q31 0 31 72h61q0 -71 -24 -108.5t-63 -37.5q-27 0 -46.5 16.5t-33 32.5t-25.5 16q-28 0 -28 -65h-61zM168 792l110 151h113l110 -151h-107l-51 92h-16l-51 -92h-108zM53 0v695h532v-114h-304l-100 1l3 -66
v-43l-3 -59l100 1h251v-113h-251l-100 1l3 -59v-65l-3 -66l100 2h304v-115h-532z" />
    <glyph glyph-name="uni1EC5" unicode="&#x1ec5;" horiz-adv-x="538" 
d="M125 785q0 146 84 146q20 0 37.5 -11.5t27 -24.5t20.5 -24.5t20 -11.5q31 0 31 72h61q0 -71 -24 -108.5t-63 -37.5q-27 0 -46.5 16.5t-33 32.5t-25.5 16q-28 0 -28 -65h-61zM99 597l110 151h113l110 -151h-107l-51 92h-16l-51 -92h-108zM275 -10q-110 0 -179 71t-69 188
t65.5 189t177.5 72q107 0 171.5 -71.5t64.5 -184.5q0 -31 -2 -44h-288l-66 2q6 -59 40.5 -90.5t84.5 -31.5q41 0 71.5 18.5t40.5 53.5l115 -12q-22 -78 -83 -119t-144 -41zM150 295l69 2h100l68 -2q-6 56 -38.5 86t-78.5 30q-47 0 -80 -29.5t-40 -86.5z" />
    <glyph glyph-name="uni1EC6" unicode="&#x1ec6;" horiz-adv-x="617" 
d="M168 792l110 151h113l110 -151h-107l-51 92h-16l-51 -92h-108zM53 0v695h532v-114h-304l-100 1l3 -66v-43l-3 -59l100 1h251v-113h-251l-100 1l3 -59v-65l-3 -66l100 2h304v-115h-532zM257 -207v121h128v-121h-128z" />
    <glyph glyph-name="uni1EC7" unicode="&#x1ec7;" horiz-adv-x="538" 
d="M99 597l110 151h113l110 -151h-107l-51 92h-16l-51 -92h-108zM275 -10q-110 0 -179 71t-69 188t65.5 189t177.5 72q107 0 171.5 -71.5t64.5 -184.5q0 -31 -2 -44h-288l-66 2q6 -59 40.5 -90.5t84.5 -31.5q41 0 71.5 18.5t40.5 53.5l115 -12q-22 -78 -83 -119t-144 -41z
M150 295l69 2h100l68 -2q-6 56 -38.5 86t-78.5 30q-47 0 -80 -29.5t-40 -86.5zM202 -207v121h128v-121h-128z" />
    <glyph glyph-name="uni1EC8" unicode="&#x1ec8;" horiz-adv-x="236" 
d="M89 783q8 27 8 49q0 37 -35 37q-29 0 -71 -13v80q45 16 92 16t73.5 -27t26.5 -68q0 -39 -13 -74h-81zM53 0v695h131v-695h-131z" />
    <glyph glyph-name="uni1EC9" unicode="&#x1ec9;" horiz-adv-x="274" 
d="M108 588q8 27 8 49q0 37 -35 37q-29 0 -71 -13v80q45 16 92 16t73.5 -27t26.5 -68q0 -39 -13 -74h-81zM73 0v500h128v-500h-128z" />
    <glyph glyph-name="uni1ECA" unicode="&#x1eca;" horiz-adv-x="236" 
d="M53 0v695h131v-695h-131zM54 -207v121h128v-121h-128z" />
    <glyph glyph-name="uni1ECB" unicode="&#x1ecb;" horiz-adv-x="234" 
d="M48 604v138h138v-138h-138zM53 0v500h129v-500h-129zM63 -207v121h127v-121h-127z" />
    <glyph glyph-name="uni1ECC" unicode="&#x1ecc;" horiz-adv-x="708" 
d="M356 -10q-157 0 -242.5 97t-85.5 260q0 161 86 259.5t242 98.5q155 0 240 -98.5t85 -259.5q0 -163 -84.5 -260t-240.5 -97zM356 103q94 0 143 67t49 178q0 108 -49.5 175.5t-142.5 67.5q-95 0 -145.5 -67.5t-50.5 -175.5q0 -111 50.5 -178t145.5 -67zM288 -207v121h128
v-121h-128z" />
    <glyph glyph-name="uni1ECD" unicode="&#x1ecd;" horiz-adv-x="540" 
d="M271 -10q-112 0 -178.5 72t-66.5 187q0 116 66.5 188.5t178.5 72.5t177.5 -72.5t65.5 -188.5q0 -115 -65.5 -187t-177.5 -72zM271 96q55 0 85.5 41t30.5 113t-30.5 113t-85.5 41q-56 0 -87.5 -41.5t-31.5 -112.5t31.5 -112.5t87.5 -41.5zM206 -207v121h128v-121h-128z
" />
    <glyph glyph-name="uni1ECE" unicode="&#x1ece;" horiz-adv-x="708" 
d="M325 783q8 27 8 49q0 37 -35 37q-29 0 -71 -13v80q45 16 92 16t73.5 -27t26.5 -68q0 -39 -13 -74h-81zM356 -10q-157 0 -242.5 97t-85.5 260q0 161 86 259.5t242 98.5q155 0 240 -98.5t85 -259.5q0 -163 -84.5 -260t-240.5 -97zM356 103q94 0 143 67t49 178
q0 108 -49.5 175.5t-142.5 67.5q-95 0 -145.5 -67.5t-50.5 -175.5q0 -111 50.5 -178t145.5 -67z" />
    <glyph glyph-name="uni1ECF" unicode="&#x1ecf;" horiz-adv-x="540" 
d="M241 588q8 27 8 49q0 37 -35 37q-29 0 -71 -13v80q45 16 92 16t73.5 -27t26.5 -68q0 -39 -13 -74h-81zM271 -10q-112 0 -178.5 72t-66.5 187q0 116 66.5 188.5t178.5 72.5t177.5 -72.5t65.5 -188.5q0 -115 -65.5 -187t-177.5 -72zM271 96q55 0 85.5 41t30.5 113
t-30.5 113t-85.5 41q-56 0 -87.5 -41.5t-31.5 -112.5t31.5 -112.5t87.5 -41.5z" />
    <glyph glyph-name="uni1ED0" unicode="&#x1ed0;" horiz-adv-x="708" 
d="M456 905l83 140h88l-91 -140h-80zM187 792l110 151h113l110 -151h-107l-51 92h-16l-51 -92h-108zM356 -10q-157 0 -242.5 97t-85.5 260q0 161 86 259.5t242 98.5q155 0 240 -98.5t85 -259.5q0 -163 -84.5 -260t-240.5 -97zM356 103q94 0 143 67t49 178q0 108 -49.5 175.5
t-142.5 67.5q-95 0 -145.5 -67.5t-50.5 -175.5q0 -111 50.5 -178t145.5 -67z" />
    <glyph glyph-name="uni1ED1" unicode="&#x1ed1;" horiz-adv-x="540" 
d="M372 710l83 140h88l-91 -140h-80zM103 597l110 151h113l110 -151h-107l-51 92h-16l-51 -92h-108zM271 -10q-112 0 -178.5 72t-66.5 187q0 116 66.5 188.5t178.5 72.5t177.5 -72.5t65.5 -188.5q0 -115 -65.5 -187t-177.5 -72zM271 96q55 0 85.5 41t30.5 113t-30.5 113
t-85.5 41q-56 0 -87.5 -41.5t-31.5 -112.5t31.5 -112.5t87.5 -41.5z" />
    <glyph glyph-name="uni1ED2" unicode="&#x1ed2;" horiz-adv-x="708" 
d="M171 901l-76 140h89l67 -140h-80zM187 792l110 151h112l111 -151h-108l-50 92h-17l-51 -92h-107zM356 -10q-157 0 -242.5 97t-85.5 260q0 161 86 259.5t242 98.5q155 0 240 -98.5t85 -259.5q0 -163 -84.5 -260t-240.5 -97zM356 103q94 0 143 67t49 178q0 108 -49.5 175.5
t-142.5 67.5q-95 0 -145.5 -67.5t-50.5 -175.5q0 -111 50.5 -178t145.5 -67z" />
    <glyph glyph-name="uni1ED3" unicode="&#x1ed3;" horiz-adv-x="540" 
d="M87 706l-76 140h89l67 -140h-80zM103 597l110 151h112l111 -151h-108l-50 92h-17l-51 -92h-107zM271 -10q-112 0 -178.5 72t-66.5 187q0 116 66.5 188.5t178.5 72.5t177.5 -72.5t65.5 -188.5q0 -115 -65.5 -187t-177.5 -72zM271 96q55 0 85.5 41t30.5 113t-30.5 113
t-85.5 41q-56 0 -87.5 -41.5t-31.5 -112.5t31.5 -112.5t87.5 -41.5z" />
    <glyph glyph-name="uni1ED4" unicode="&#x1ed4;" horiz-adv-x="708" 
d="M459 919q9 26 9 49q0 38 -36 38q-31 0 -70 -14v81q47 15 92 15q46 0 72.5 -26.5t26.5 -68.5q0 -41 -12 -74h-82zM187 792l110 151h113l110 -151h-107l-51 92h-16l-51 -92h-108zM356 -10q-157 0 -242.5 97t-85.5 260q0 161 86 259.5t242 98.5q155 0 240 -98.5t85 -259.5
q0 -163 -84.5 -260t-240.5 -97zM356 103q94 0 143 67t49 178q0 108 -49.5 175.5t-142.5 67.5q-95 0 -145.5 -67.5t-50.5 -175.5q0 -111 50.5 -178t145.5 -67z" />
    <glyph glyph-name="uni1ED5" unicode="&#x1ed5;" horiz-adv-x="540" 
d="M375 724q9 26 9 49q0 38 -36 38q-31 0 -70 -14v81q47 15 92 15q46 0 72.5 -26.5t26.5 -68.5q0 -41 -12 -74h-82zM103 597l110 151h113l110 -151h-107l-51 92h-16l-51 -92h-108zM271 -10q-112 0 -178.5 72t-66.5 187q0 116 66.5 188.5t178.5 72.5t177.5 -72.5t65.5 -188.5
q0 -115 -65.5 -187t-177.5 -72zM271 96q55 0 85.5 41t30.5 113t-30.5 113t-85.5 41q-56 0 -87.5 -41.5t-31.5 -112.5t31.5 -112.5t87.5 -41.5z" />
    <glyph glyph-name="uni1ED6" unicode="&#x1ed6;" horiz-adv-x="708" 
d="M213 980q0 146 84 146q20 0 37.5 -11t27 -25t20.5 -25t20 -11q31 0 31 72h61q0 -71 -24 -108.5t-63 -37.5q-27 0 -46.5 16.5t-33 32.5t-25.5 16q-28 0 -28 -65h-61zM187 792l110 151h113l110 -151h-107l-51 92h-16l-51 -92h-108zM356 -10q-157 0 -242.5 97t-85.5 260
q0 161 86 259.5t242 98.5q155 0 240 -98.5t85 -259.5q0 -163 -84.5 -260t-240.5 -97zM356 103q94 0 143 67t49 178q0 108 -49.5 175.5t-142.5 67.5q-95 0 -145.5 -67.5t-50.5 -175.5q0 -111 50.5 -178t145.5 -67z" />
    <glyph glyph-name="uni1ED7" unicode="&#x1ed7;" horiz-adv-x="540" 
d="M129 785q0 146 84 146q20 0 37.5 -11.5t27 -24.5t20.5 -24.5t20 -11.5q31 0 31 72h61q0 -71 -24 -108.5t-63 -37.5q-27 0 -46.5 16.5t-33 32.5t-25.5 16q-28 0 -28 -65h-61zM103 597l110 151h113l110 -151h-107l-51 92h-16l-51 -92h-108zM271 -10q-112 0 -178.5 72
t-66.5 187q0 116 66.5 188.5t178.5 72.5t177.5 -72.5t65.5 -188.5q0 -115 -65.5 -187t-177.5 -72zM271 96q55 0 85.5 41t30.5 113t-30.5 113t-85.5 41q-56 0 -87.5 -41.5t-31.5 -112.5t31.5 -112.5t87.5 -41.5z" />
    <glyph glyph-name="uni1ED8" unicode="&#x1ed8;" horiz-adv-x="708" 
d="M187 792l110 151h113l110 -151h-107l-51 92h-16l-51 -92h-108zM356 -10q-157 0 -242.5 97t-85.5 260q0 161 86 259.5t242 98.5q155 0 240 -98.5t85 -259.5q0 -163 -84.5 -260t-240.5 -97zM356 103q94 0 143 67t49 178q0 108 -49.5 175.5t-142.5 67.5q-95 0 -145.5 -67.5
t-50.5 -175.5q0 -111 50.5 -178t145.5 -67zM288 -207v121h128v-121h-128z" />
    <glyph glyph-name="uni1ED9" unicode="&#x1ed9;" horiz-adv-x="540" 
d="M103 597l110 151h113l110 -151h-107l-51 92h-16l-51 -92h-108zM271 -10q-112 0 -178.5 72t-66.5 187q0 116 66.5 188.5t178.5 72.5t177.5 -72.5t65.5 -188.5q0 -115 -65.5 -187t-177.5 -72zM271 96q55 0 85.5 41t30.5 113t-30.5 113t-85.5 41q-56 0 -87.5 -41.5
t-31.5 -112.5t31.5 -112.5t87.5 -41.5zM206 -207v121h128v-121h-128z" />
    <glyph glyph-name="uni1EDA" unicode="&#x1eda;" horiz-adv-x="708" 
d="M517 945l-113 -156h-101l104 156h110zM601 601q80 -95 80 -254q0 -163 -84.5 -260t-240.5 -97q-157 0 -242.5 97t-85.5 260q0 161 86 259.5t242 98.5q103 0 180 -47q12 5 20 14.5t10.5 24t3.5 24.5t0 27t-1 20h94q0 -39 -2.5 -64t-17 -56.5t-42.5 -46.5zM356 103
q94 0 143 67t49 178q0 108 -49.5 175.5t-142.5 67.5q-95 0 -145.5 -67.5t-50.5 -175.5q0 -111 50.5 -178t145.5 -67z" />
    <glyph glyph-name="uni1EDB" unicode="&#x1edb;" horiz-adv-x="540" 
d="M433 750l-113 -156h-101l104 156h110zM527 596q0 -30 -1.5 -49.5t-7.5 -46t-21 -45.5t-39 -29q56 -70 56 -177q0 -115 -65.5 -187t-177.5 -72t-178.5 72t-66.5 187q0 116 66.5 188.5t178.5 72.5q65 0 119 -27q16 3 25.5 12t13 25t5 25.5t0.5 29.5t-1 21h94zM271 96
q55 0 85.5 41t30.5 113t-30.5 113t-85.5 41q-56 0 -87.5 -41.5t-31.5 -112.5t31.5 -112.5t87.5 -41.5z" />
    <glyph glyph-name="uni1EDC" unicode="&#x1edc;" horiz-adv-x="708" 
d="M405 789h-99l-96 156h111zM601 601q80 -95 80 -254q0 -163 -84.5 -260t-240.5 -97q-157 0 -242.5 97t-85.5 260q0 161 86 259.5t242 98.5q103 0 180 -47q12 5 20 14.5t10.5 24t3.5 24.5t0 27t-1 20h94q0 -39 -2.5 -64t-17 -56.5t-42.5 -46.5zM356 103q94 0 143 67t49 178
q0 108 -49.5 175.5t-142.5 67.5q-95 0 -145.5 -67.5t-50.5 -175.5q0 -111 50.5 -178t145.5 -67z" />
    <glyph glyph-name="uni1EDD" unicode="&#x1edd;" horiz-adv-x="540" 
d="M321 594h-99l-96 156h111zM527 596q0 -30 -1.5 -49.5t-7.5 -46t-21 -45.5t-39 -29q56 -70 56 -177q0 -115 -65.5 -187t-177.5 -72t-178.5 72t-66.5 187q0 116 66.5 188.5t178.5 72.5q65 0 119 -27q16 3 25.5 12t13 25t5 25.5t0.5 29.5t-1 21h94zM271 96q55 0 85.5 41
t30.5 113t-30.5 113t-85.5 41q-56 0 -87.5 -41.5t-31.5 -112.5t31.5 -112.5t87.5 -41.5z" />
    <glyph glyph-name="uni1EDE" unicode="&#x1ede;" horiz-adv-x="708" 
d="M333 832q0 37 -35 37q-29 0 -71 -13v80q45 16 92 16t73.5 -27t26.5 -68q0 -39 -13 -74h-81q8 27 8 49zM601 601q80 -95 80 -254q0 -163 -84.5 -260t-240.5 -97q-157 0 -242.5 97t-85.5 260q0 161 86 259.5t242 98.5q103 0 180 -47q12 5 20 14.5t10.5 24t3.5 24.5t0 27
t-1 20h94q0 -39 -2.5 -64t-17 -56.5t-42.5 -46.5zM356 103q94 0 143 67t49 178q0 108 -49.5 175.5t-142.5 67.5q-95 0 -145.5 -67.5t-50.5 -175.5q0 -111 50.5 -178t145.5 -67z" />
    <glyph glyph-name="uni1EDF" unicode="&#x1edf;" horiz-adv-x="540" 
d="M249 637q0 37 -35 37q-29 0 -71 -13v80q45 16 92 16t73.5 -27t26.5 -68q0 -39 -13 -74h-81q8 27 8 49zM527 596q0 -30 -1.5 -49.5t-7.5 -46t-21 -45.5t-39 -29q56 -70 56 -177q0 -115 -65.5 -187t-177.5 -72t-178.5 72t-66.5 187q0 116 66.5 188.5t178.5 72.5
q65 0 119 -27q16 3 25.5 12t13 25t5 25.5t0.5 29.5t-1 21h94zM271 96q55 0 85.5 41t30.5 113t-30.5 113t-85.5 41q-56 0 -87.5 -41.5t-31.5 -112.5t31.5 -112.5t87.5 -41.5z" />
    <glyph glyph-name="uni1EE0" unicode="&#x1ee0;" horiz-adv-x="708" 
d="M297 858q-31 0 -31 -72h-68q0 81 24.5 121.5t68.5 40.5q23 0 42 -12.5t29.5 -28t23 -28t22.5 -12.5q35 0 35 81h66q0 -79 -26.5 -120.5t-68.5 -41.5q-24 0 -43 11t-29 25t-22 25t-23 11zM601 601q80 -95 80 -254q0 -163 -84.5 -260t-240.5 -97q-157 0 -242.5 97
t-85.5 260q0 161 86 259.5t242 98.5q103 0 180 -47q12 5 20 14.5t10.5 24t3.5 24.5t0 27t-1 20h94q0 -39 -2.5 -64t-17 -56.5t-42.5 -46.5zM356 103q94 0 143 67t49 178q0 108 -49.5 175.5t-142.5 67.5q-95 0 -145.5 -67.5t-50.5 -175.5q0 -111 50.5 -178t145.5 -67z" />
    <glyph glyph-name="uni1EE1" unicode="&#x1ee1;" horiz-adv-x="540" 
d="M213 663q-31 0 -31 -72h-68q0 81 24.5 121.5t68.5 40.5q23 0 42 -12.5t29.5 -28t23 -28t22.5 -12.5q35 0 35 81h66q0 -79 -26.5 -120.5t-68.5 -41.5q-24 0 -43 11.5t-29 24.5t-22 24.5t-23 11.5zM527 596q0 -30 -1.5 -49.5t-7.5 -46t-21 -45.5t-39 -29q56 -70 56 -177
q0 -115 -65.5 -187t-177.5 -72t-178.5 72t-66.5 187q0 116 66.5 188.5t178.5 72.5q65 0 119 -27q16 3 25.5 12t13 25t5 25.5t0.5 29.5t-1 21h94zM271 96q55 0 85.5 41t30.5 113t-30.5 113t-85.5 41q-56 0 -87.5 -41.5t-31.5 -112.5t31.5 -112.5t87.5 -41.5z" />
    <glyph glyph-name="uni1EE2" unicode="&#x1ee2;" horiz-adv-x="708" 
d="M601 601q80 -95 80 -254q0 -163 -84.5 -260t-240.5 -97q-157 0 -242.5 97t-85.5 260q0 161 86 259.5t242 98.5q103 0 180 -47q12 5 20 14.5t10.5 24t3.5 24.5t0 27t-1 20h94q0 -39 -2.5 -64t-17 -56.5t-42.5 -46.5zM356 103q94 0 143 67t49 178q0 108 -49.5 175.5
t-142.5 67.5q-95 0 -145.5 -67.5t-50.5 -175.5q0 -111 50.5 -178t145.5 -67zM288 -207v121h128v-121h-128z" />
    <glyph glyph-name="uni1EE3" unicode="&#x1ee3;" horiz-adv-x="540" 
d="M527 596q0 -30 -1.5 -49.5t-7.5 -46t-21 -45.5t-39 -29q56 -70 56 -177q0 -115 -65.5 -187t-177.5 -72t-178.5 72t-66.5 187q0 116 66.5 188.5t178.5 72.5q65 0 119 -27q16 3 25.5 12t13 25t5 25.5t0.5 29.5t-1 21h94zM271 96q55 0 85.5 41t30.5 113t-30.5 113t-85.5 41
q-56 0 -87.5 -41.5t-31.5 -112.5t31.5 -112.5t87.5 -41.5zM206 -207v121h128v-121h-128z" />
    <glyph glyph-name="uni1EE4" unicode="&#x1ee4;" horiz-adv-x="705" 
d="M355 -10q-141 0 -224 77t-83 220v408h131v-407q0 -90 47 -135.5t129 -45.5q79 0 125 45.5t46 135.5v407h132v-408q0 -143 -82 -220t-221 -77zM288 -207v121h128v-121h-128z" />
    <glyph glyph-name="uni1EE5" unicode="&#x1ee5;" 
d="M222 -6q-82 0 -128 54.5t-46 156.5v295h128v-268q0 -127 98 -127q53 0 86 39.5t33 114.5v241h130v-500h-130v24l9 64h-15q-54 -94 -165 -94zM220 -207v121h128v-121h-128z" />
    <glyph glyph-name="uni1EE6" unicode="&#x1ee6;" horiz-adv-x="705" 
d="M323 783q8 27 8 49q0 37 -35 37q-29 0 -71 -13v80q45 16 92 16t73.5 -27t26.5 -68q0 -39 -13 -74h-81zM355 -10q-141 0 -224 77t-83 220v408h131v-407q0 -90 47 -135.5t129 -45.5q79 0 125 45.5t46 135.5v407h132v-408q0 -143 -82 -220t-221 -77z" />
    <glyph glyph-name="uni1EE7" unicode="&#x1ee7;" 
d="M255 588q8 27 8 49q0 37 -35 37q-29 0 -71 -13v80q45 16 92 16t73.5 -27t26.5 -68q0 -39 -13 -74h-81zM222 -6q-82 0 -128 54.5t-46 156.5v295h128v-268q0 -127 98 -127q53 0 86 39.5t33 114.5v241h130v-500h-130v24l9 64h-15q-54 -94 -165 -94z" />
    <glyph glyph-name="uni1EE8" unicode="&#x1ee8;" horiz-adv-x="705" 
d="M515 945l-113 -156h-101l104 156h110zM766 810q0 -28 -1 -45.5t-6.5 -44t-16.5 -42.5t-32.5 -30t-51.5 -17v-344q0 -143 -82 -220t-221 -77q-141 0 -224 77t-83 220v408h131v-407q0 -90 47 -135.5t129 -45.5q79 0 125 45.5t46 135.5v407h84q18 0 31 6.5t19.5 15t9.5 23.5
t3 24.5t-0.5 26t-0.5 19.5h94z" />
    <glyph glyph-name="uni1EE9" unicode="&#x1ee9;" 
d="M447 750l-113 -156h-101l104 156h110zM625 615q0 -34 -2 -56t-11 -52t-31.5 -48t-57.5 -23v-436h-130v24l9 64h-15q-54 -94 -165 -94q-82 0 -128 54.5t-46 156.5v295h128v-268q0 -127 98 -127q53 0 86 39.5t33 114.5v241h76q18 0 31 6.5t19.5 15t9.5 23.5t3 24.5t-0.5 26
t-0.5 19.5h94z" />
    <glyph glyph-name="uni1EEA" unicode="&#x1eea;" horiz-adv-x="705" 
d="M403 789h-99l-96 156h111zM766 810q0 -28 -1 -45.5t-6.5 -44t-16.5 -42.5t-32.5 -30t-51.5 -17v-344q0 -143 -82 -220t-221 -77q-141 0 -224 77t-83 220v408h131v-407q0 -90 47 -135.5t129 -45.5q79 0 125 45.5t46 135.5v407h84q18 0 31 6.5t19.5 15t9.5 23.5t3 24.5
t-0.5 26t-0.5 19.5h94z" />
    <glyph glyph-name="uni1EEB" unicode="&#x1eeb;" 
d="M335 594h-99l-96 156h111zM625 615q0 -34 -2 -56t-11 -52t-31.5 -48t-57.5 -23v-436h-130v24l9 64h-15q-54 -94 -165 -94q-82 0 -128 54.5t-46 156.5v295h128v-268q0 -127 98 -127q53 0 86 39.5t33 114.5v241h76q18 0 31 6.5t19.5 15t9.5 23.5t3 24.5t-0.5 26t-0.5 19.5
h94z" />
    <glyph glyph-name="uni1EEC" unicode="&#x1eec;" horiz-adv-x="705" 
d="M331 832q0 37 -35 37q-29 0 -71 -13v80q45 16 92 16t73.5 -27t26.5 -68q0 -39 -13 -74h-81q8 27 8 49zM766 810q0 -28 -1 -45.5t-6.5 -44t-16.5 -42.5t-32.5 -30t-51.5 -17v-344q0 -143 -82 -220t-221 -77q-141 0 -224 77t-83 220v408h131v-407q0 -90 47 -135.5
t129 -45.5q79 0 125 45.5t46 135.5v407h84q18 0 31 6.5t19.5 15t9.5 23.5t3 24.5t-0.5 26t-0.5 19.5h94z" />
    <glyph glyph-name="uni1EED" unicode="&#x1eed;" 
d="M263 637q0 37 -35 37q-29 0 -71 -13v80q45 16 92 16t73.5 -27t26.5 -68q0 -39 -13 -74h-81q8 27 8 49zM625 615q0 -34 -2 -56t-11 -52t-31.5 -48t-57.5 -23v-436h-130v24l9 64h-15q-54 -94 -165 -94q-82 0 -128 54.5t-46 156.5v295h128v-268q0 -127 98 -127q53 0 86 39.5
t33 114.5v241h76q18 0 31 6.5t19.5 15t9.5 23.5t3 24.5t-0.5 26t-0.5 19.5h94z" />
    <glyph glyph-name="uni1EEE" unicode="&#x1eee;" horiz-adv-x="705" 
d="M295 858q-31 0 -31 -72h-68q0 81 24.5 121.5t68.5 40.5q23 0 42 -12.5t29.5 -28t23 -28t22.5 -12.5q35 0 35 81h66q0 -79 -26.5 -120.5t-68.5 -41.5q-24 0 -43 11t-29 25t-22 25t-23 11zM766 810q0 -28 -1 -45.5t-6.5 -44t-16.5 -42.5t-32.5 -30t-51.5 -17v-344
q0 -143 -82 -220t-221 -77q-141 0 -224 77t-83 220v408h131v-407q0 -90 47 -135.5t129 -45.5q79 0 125 45.5t46 135.5v407h84q18 0 31 6.5t19.5 15t9.5 23.5t3 24.5t-0.5 26t-0.5 19.5h94z" />
    <glyph glyph-name="uni1EEF" unicode="&#x1eef;" 
d="M227 663q-31 0 -31 -72h-68q0 81 24.5 121.5t68.5 40.5q23 0 42 -12.5t29.5 -28t23 -28t22.5 -12.5q35 0 35 81h66q0 -79 -26.5 -120.5t-68.5 -41.5q-24 0 -43 11.5t-29 24.5t-22 24.5t-23 11.5zM625 615q0 -34 -2 -56t-11 -52t-31.5 -48t-57.5 -23v-436h-130v24l9 64
h-15q-54 -94 -165 -94q-82 0 -128 54.5t-46 156.5v295h128v-268q0 -127 98 -127q53 0 86 39.5t33 114.5v241h76q18 0 31 6.5t19.5 15t9.5 23.5t3 24.5t-0.5 26t-0.5 19.5h94z" />
    <glyph glyph-name="uni1EF0" unicode="&#x1ef0;" horiz-adv-x="705" 
d="M766 810q0 -28 -1 -45.5t-6.5 -44t-16.5 -42.5t-32.5 -30t-51.5 -17v-344q0 -143 -82 -220t-221 -77q-141 0 -224 77t-83 220v408h131v-407q0 -90 47 -135.5t129 -45.5q79 0 125 45.5t46 135.5v407h84q18 0 31 6.5t19.5 15t9.5 23.5t3 24.5t-0.5 26t-0.5 19.5h94z
M288 -207v121h128v-121h-128z" />
    <glyph glyph-name="uni1EF1" unicode="&#x1ef1;" 
d="M625 615q0 -34 -2 -56t-11 -52t-31.5 -48t-57.5 -23v-436h-130v24l9 64h-15q-54 -94 -165 -94q-82 0 -128 54.5t-46 156.5v295h128v-268q0 -127 98 -127q53 0 86 39.5t33 114.5v241h76q18 0 31 6.5t19.5 15t9.5 23.5t3 24.5t-0.5 26t-0.5 19.5h94zM220 -207v121h128v-121
h-128z" />
    <glyph glyph-name="Ygrave" unicode="&#x1ef2;" horiz-adv-x="738" 
d="M320 789l-96 156h111l84 -156h-99zM304 0v251l-296 444h157l152 -236l47 -96h13l45 96l150 236h158l-295 -444v-251h-131z" />
    <glyph glyph-name="ygrave" unicode="&#x1ef3;" horiz-adv-x="552" 
d="M231 594l-96 156h111l84 -156h-99zM121 -240q-53 0 -91 3v115q27 -3 67 -3q43 0 66.5 16t39.5 53l18 43l-212 513h144l102 -285l20 -87h13l20 87l94 285h141l-214 -563q-37 -98 -85.5 -137.5t-122.5 -39.5z" />
    <glyph glyph-name="uni1EF4" unicode="&#x1ef4;" horiz-adv-x="738" 
d="M304 0v251l-296 444h157l152 -236l47 -96h13l45 96l150 236h158l-295 -444v-251h-131zM304 -207v121h128v-121h-128z" />
    <glyph glyph-name="uni1EF5" unicode="&#x1ef5;" horiz-adv-x="552" 
d="M121 -240q-53 0 -91 3v115q27 -3 67 -3q43 0 66.5 16t39.5 53l18 43l-212 513h144l102 -285l20 -87h13l20 87l94 285h141l-214 -563q-37 -98 -85.5 -137.5t-122.5 -39.5zM213 -405v121h128v-121h-128z" />
    <glyph glyph-name="uni1EF6" unicode="&#x1ef6;" horiz-adv-x="738" 
d="M340 783q8 27 8 49q0 37 -35 37q-29 0 -71 -13v80q45 16 92 16t73.5 -27t26.5 -68q0 -39 -13 -74h-81zM304 0v251l-296 444h157l152 -236l47 -96h13l45 96l150 236h158l-295 -444v-251h-131z" />
    <glyph glyph-name="uni1EF7" unicode="&#x1ef7;" horiz-adv-x="552" 
d="M251 588q8 27 8 49q0 37 -35 37q-29 0 -71 -13v80q45 16 92 16t73.5 -27t26.5 -68q0 -39 -13 -74h-81zM121 -240q-53 0 -91 3v115q27 -3 67 -3q43 0 66.5 16t39.5 53l18 43l-212 513h144l102 -285l20 -87h13l20 87l94 285h141l-214 -563q-37 -98 -85.5 -137.5
t-122.5 -39.5z" />
    <glyph glyph-name="uni1EF8" unicode="&#x1ef8;" horiz-adv-x="738" 
d="M212 786q0 81 24.5 121.5t68.5 40.5q23 0 42 -12.5t29.5 -28t23 -28t22.5 -12.5q35 0 35 81h66q0 -79 -26.5 -120.5t-68.5 -41.5q-24 0 -43 11t-29 25t-22 25t-23 11q-31 0 -31 -72h-68zM304 0v251l-296 444h157l152 -236l47 -96h13l45 96l150 236h158l-295 -444v-251
h-131z" />
    <glyph glyph-name="uni1EF9" unicode="&#x1ef9;" horiz-adv-x="552" 
d="M123 591q0 81 24.5 121.5t68.5 40.5q23 0 42 -12.5t29.5 -28t23 -28t22.5 -12.5q35 0 35 81h66q0 -79 -26.5 -120.5t-68.5 -41.5q-24 0 -43 11.5t-29 24.5t-22 24.5t-23 11.5q-31 0 -31 -72h-68zM121 -240q-53 0 -91 3v115q27 -3 67 -3q43 0 66.5 16t39.5 53l18 43
l-212 513h144l102 -285l20 -87h13l20 87l94 285h141l-214 -563q-37 -98 -85.5 -137.5t-122.5 -39.5z" />
    <glyph glyph-name="endash" unicode="&#x2013;" horiz-adv-x="609" 
d="M51 211v111h507v-111h-507z" />
    <glyph glyph-name="emdash" unicode="&#x2014;" horiz-adv-x="803" 
d="M51 211v111h700v-111h-700z" />
    <glyph glyph-name="quoteleft" unicode="&#x2018;" horiz-adv-x="249" 
d="M48 430v127q0 30 4.5 52.5t16 44t35 32.5t59.5 11q21 0 39 -2v-80q-5 0 -14 2t-12 2q-32 0 -43.5 -13.5t-11.5 -48.5h67v-127h-140z" />
    <glyph glyph-name="quoteright" unicode="&#x2019;" horiz-adv-x="249" 
d="M86 430l-38 1v81q18 -4 25 -4q32 0 43.5 13.5t11.5 47.5h-67v128h141v-128q0 -65 -24 -102t-92 -37z" />
    <glyph glyph-name="quotesinglbase" unicode="&#x201a;" horiz-adv-x="249" 
d="M86 -148q-20 0 -38 2v80q4 0 12.5 -2t12.5 -2q32 0 43.5 14t11.5 48h-67v127h141v-127q0 -65 -24 -102.5t-92 -37.5z" />
    <glyph glyph-name="quotedblleft" unicode="&#x201c;" horiz-adv-x="456" 
d="M48 430v127q0 30 4.5 52.5t16 44t35 32.5t59.5 11q21 0 39 -2v-80q-5 0 -14 2t-12 2q-32 0 -43.5 -13.5t-11.5 -48.5h67v-127h-140zM254 430v127q0 65 24 102.5t92 37.5q18 0 38 -2v-80q-4 0 -13 2t-13 2q-32 0 -43 -13.5t-11 -48.5h67v-127h-141z" />
    <glyph glyph-name="quotedblright" unicode="&#x201d;" horiz-adv-x="456" 
d="M86 430l-38 1v81q18 -4 25 -4q32 0 43.5 13.5t11.5 47.5h-67v128h141v-128q0 -65 -24 -102t-92 -37zM292 430l-38 1v81q20 -4 25 -4q32 0 43.5 13t11.5 48h-66v128h140v-128q0 -65 -24 -102t-92 -37z" />
    <glyph glyph-name="quotedblbase" unicode="&#x201e;" horiz-adv-x="456" 
d="M86 -148q-20 0 -38 2v80q4 0 12.5 -2t12.5 -2q32 0 43.5 14t11.5 48h-67v127h141v-127q0 -65 -24 -102.5t-92 -37.5zM293 -148q-20 0 -38 2v80q4 0 12.5 -2t12.5 -2q32 0 43.5 14t11.5 48h-67v127h141v-127q0 -65 -24 -102.5t-92 -37.5z" />
    <glyph glyph-name="dagger" unicode="&#x2020;" horiz-adv-x="534" 
d="M209 219v163l2 135l-76 -3h-67v110h71l72 -1l-2 65v57h115v-55l-2 -67l75 1h69v-110h-69l-75 3l2 -135v-163h-115z" />
    <glyph glyph-name="daggerdbl" unicode="&#x2021;" horiz-adv-x="534" 
d="M209 219v123l-70 -3h-71v110h67l75 -1v69l-75 -3h-67v110h71l70 -1v122h115v-122l73 1h69v-110h-69l-74 3v-69l74 1h69v-110h-69l-73 3v-123h-115z" />
    <glyph glyph-name="bullet" unicode="&#x2022;" horiz-adv-x="342" 
d="M171 136q-49 0 -84.5 35t-35.5 85t35.5 85t84.5 35t84.5 -35t35.5 -85t-35.5 -85t-84.5 -35z" />
    <glyph glyph-name="ellipsis" unicode="&#x2026;" horiz-adv-x="695" 
d="M48 -8v135h141v-135h-141zM278 -8v135h140v-135h-140zM506 -8v135h141v-135h-141z" />
    <glyph glyph-name="perthousand" unicode="&#x2030;" horiz-adv-x="1317" 
d="M213 331q-76 0 -121.5 52t-45.5 133t45.5 134t121.5 53q77 0 121.5 -52.5t44.5 -134.5t-44.5 -133.5t-121.5 -51.5zM207 0l395 695h127l-395 -695h-127zM213 426q31 0 46.5 25.5t15.5 64.5t-15.5 65.5t-46.5 26.5t-46.5 -26.5t-15.5 -65.5t15.5 -64.5t46.5 -25.5zM720 -8
q-76 0 -121 52t-45 133t45 134t121 53q77 0 122 -52.5t45 -134.5q0 -81 -45 -133t-122 -52zM1104 -8q-76 0 -121 52t-45 133t45 134t121 53q77 0 122 -52.5t45 -134.5q0 -81 -45 -133t-122 -52zM721 87q30 0 46 26t16 64t-16 65t-46 27q-31 0 -47 -26.5t-16 -65.5
q0 -38 16 -64t47 -26zM1104 87q31 0 46.5 25.5t15.5 64.5t-15.5 65.5t-46.5 26.5t-46.5 -26.5t-15.5 -65.5t15.5 -64.5t46.5 -25.5z" />
    <glyph glyph-name="guilsinglleft" unicode="&#x2039;" horiz-adv-x="391" 
d="M225 46l-188 201v6l188 201h129l-191 -201v-6l191 -201h-129z" />
    <glyph glyph-name="guilsinglright" unicode="&#x203a;" horiz-adv-x="391" 
d="M37 46l191 201v6l-191 201h129l188 -201v-6l-188 -201h-129z" />
    <glyph glyph-name="fraction" unicode="&#x2044;" horiz-adv-x="234" 
d="M-153 -30l450 755h90l-450 -755h-90z" />
    <glyph glyph-name="uni2070" unicode="&#x2070;" horiz-adv-x="387" 
d="M194 376q-73 0 -118.5 50t-45.5 151q0 100 45.5 151.5t118.5 51.5q74 0 118.5 -50.5t44.5 -152.5q0 -101 -44.5 -151t-118.5 -50zM194 448q40 0 63 33.5t23 95.5q0 63 -23 97t-63 34q-41 0 -64 -34t-23 -97t23 -96t64 -33z" />
    <glyph glyph-name="uni2074" unicode="&#x2074;" horiz-adv-x="400" 
d="M244 379v47l1 43l-57 -2h-159v62l194 246h99v-183l-2 -60l59 1v-66l-58 2l1 -41v-49h-78zM117 531l42 2h34l52 -1l-1 56v70l2 42h-6l-24 -35l-72 -95l-27 -33v-6z" />
    <glyph glyph-name="uni2075" unicode="&#x2075;" horiz-adv-x="375" 
d="M196 376q-64 0 -107.5 33.5t-50.5 93.5l73 7q5 -32 28.5 -51t57.5 -19q35 0 56.5 19.5t21.5 51.5t-20.5 51t-55.5 19q-48 0 -86 -36l-67 33l31 197h245v-67h-185l-4 -28l-6 -36l-7 -31l3 -2q44 27 97 27q58 0 94 -35.5t36 -92.5q0 -60 -43.5 -97t-110.5 -37z" />
    <glyph glyph-name="uni2076" unicode="&#x2076;" horiz-adv-x="382" 
d="M203 376q-72 0 -118.5 46t-46.5 137q0 112 52 165.5t121 53.5q114 0 137 -118l-71 -6q-12 60 -69 60q-36 0 -64 -30t-35 -86l4 -1q34 43 98 43q67 0 104.5 -37.5t37.5 -95.5q0 -56 -42.5 -93.5t-107.5 -37.5zM199 440q37 0 58 20t21 50q0 32 -20.5 51.5t-56.5 19.5
q-37 0 -59.5 -19t-22.5 -49t22 -51.5t58 -21.5z" />
    <glyph glyph-name="uni2077" unicode="&#x2077;" horiz-adv-x="359" 
d="M123 379q1 110 37 183.5t105 142.5l-1 5l-58 -2h-182v67h298l20 -76q-77 -70 -108.5 -138.5t-32.5 -181.5h-78z" />
    <glyph glyph-name="uni2078" unicode="&#x2078;" horiz-adv-x="386" 
d="M193 376q-75 0 -117 33t-42 81q0 38 21 61.5t50 33.5v3q-21 7 -39 28.5t-18 52.5q0 47 40 78t105 31t104.5 -31t39.5 -78q0 -31 -17.5 -52.5t-38.5 -28.5v-3q29 -10 50 -33.5t21 -61.5q0 -48 -42 -81t-117 -33zM193 613q34 0 52 14.5t18 37.5q0 21 -17.5 36t-52.5 15
t-52.5 -15t-17.5 -36q0 -23 18.5 -37.5t51.5 -14.5zM193 438q40 0 62 16.5t22 41.5q0 27 -21.5 42.5t-62.5 15.5t-63 -16t-22 -42q0 -25 22 -41.5t63 -16.5z" />
    <glyph glyph-name="uni2079" unicode="&#x2079;" horiz-adv-x="377" 
d="M177 376q-51 0 -92.5 28.5t-52.5 87.5l71 6q16 -57 76 -57q84 0 91 117l-4 1q-30 -43 -95 -43q-64 0 -102 35.5t-38 91.5q0 60 41 97.5t110 37.5q71 0 114 -45t43 -140q0 -115 -45.5 -166t-116.5 -51zM183 576q34 0 55 19t21 49t-20.5 49t-56.5 19q-35 0 -55.5 -18.5
t-20.5 -49.5q0 -30 21 -49t56 -19z" />
    <glyph glyph-name="uni2080" unicode="&#x2080;" horiz-adv-x="387" 
d="M194 -203q-73 0 -118.5 50t-45.5 151q0 100 45.5 151.5t118.5 51.5q74 0 118.5 -50.5t44.5 -152.5q0 -101 -44.5 -151t-118.5 -50zM194 -131q40 0 63 33.5t23 95.5q0 63 -23 97t-63 34q-41 0 -64 -34t-23 -97t23 -96t64 -33z" />
    <glyph glyph-name="uni2081" unicode="&#x2081;" horiz-adv-x="334" 
d="M29 -200v70h48l65 -1l-1 69v60l3 67h-3q-24 -34 -117 -34v63q120 3 127 102h66v-258l-2 -69l68 1h22v-70h-276z" />
    <glyph glyph-name="uni2082" unicode="&#x2082;" horiz-adv-x="375" 
d="M30 -200v66l144 89q90 54 90 108q0 28 -18.5 46t-50.5 18q-33 0 -55.5 -19.5t-26.5 -52.5l-75 5q6 61 50 100t108 39q67 0 105.5 -36.5t38.5 -98.5q0 -48 -29.5 -84t-82.5 -68l-69 -43v-3l57 3h124v-69h-310z" />
    <glyph glyph-name="uni2083" unicode="&#x2083;" horiz-adv-x="373" 
d="M189 -203q-60 0 -108.5 30.5t-59.5 94.5l76 8q6 -31 32 -48.5t60 -17.5q37 0 58.5 15.5t21.5 39.5q0 54 -80 54h-17v64h17q68 0 68 47q0 19 -18 33.5t-47 14.5q-66 0 -79 -62l-74 7q9 56 50.5 89t103.5 33t101.5 -33t39.5 -78q0 -60 -64 -79v-4q32 -8 53.5 -30t21.5 -59
q0 -52 -43.5 -85.5t-112.5 -33.5z" />
    <glyph glyph-name="uni2084" unicode="&#x2084;" horiz-adv-x="400" 
d="M244 -200v47l1 43l-57 -2h-159v62l194 246h99v-183l-2 -60l59 1v-66l-58 2l1 -41v-49h-78zM117 -48l42 2h34l52 -1l-1 56v70l2 42h-6l-24 -35l-72 -95l-27 -33v-6z" />
    <glyph glyph-name="uni2085" unicode="&#x2085;" horiz-adv-x="375" 
d="M196 -203q-64 0 -107.5 33.5t-50.5 93.5l73 7q5 -32 28.5 -51t57.5 -19q35 0 56.5 19.5t21.5 51.5t-20.5 51t-55.5 19q-48 0 -86 -36l-67 33l31 197h245v-67h-185l-4 -28l-6 -36l-7 -31l3 -2q44 27 97 27q58 0 94 -35.5t36 -92.5q0 -60 -43.5 -97t-110.5 -37z" />
    <glyph glyph-name="uni2086" unicode="&#x2086;" horiz-adv-x="382" 
d="M203 -203q-72 0 -118.5 46t-46.5 137q0 112 52 165.5t121 53.5q114 0 137 -118l-71 -6q-12 60 -69 60q-36 0 -64 -30t-35 -86l4 -1q34 43 98 43q67 0 104.5 -37.5t37.5 -95.5q0 -56 -42.5 -93.5t-107.5 -37.5zM199 -139q37 0 58 20t21 50q0 32 -20.5 51.5t-56.5 19.5
q-37 0 -59.5 -19t-22.5 -49t22 -51.5t58 -21.5z" />
    <glyph glyph-name="uni2087" unicode="&#x2087;" horiz-adv-x="359" 
d="M123 -200q1 110 37 183.5t105 142.5l-1 5l-58 -2h-182v67h298l20 -76q-77 -70 -108.5 -138.5t-32.5 -181.5h-78z" />
    <glyph glyph-name="uni2088" unicode="&#x2088;" horiz-adv-x="386" 
d="M193 -203q-75 0 -117 33t-42 81q0 38 21 61.5t50 33.5v3q-21 7 -39 28.5t-18 52.5q0 47 40 78t105 31t104.5 -31t39.5 -78q0 -31 -17.5 -52.5t-38.5 -28.5v-3q29 -10 50 -33.5t21 -61.5q0 -48 -42 -81t-117 -33zM193 34q34 0 52 14.5t18 37.5q0 21 -17.5 36t-52.5 15
t-52.5 -15t-17.5 -36q0 -23 18.5 -37.5t51.5 -14.5zM193 -141q40 0 62 16.5t22 41.5q0 27 -21.5 42.5t-62.5 15.5t-63 -16t-22 -42q0 -25 22 -41.5t63 -16.5z" />
    <glyph glyph-name="uni2089" unicode="&#x2089;" horiz-adv-x="377" 
d="M177 -203q-51 0 -92.5 28.5t-52.5 87.5l71 6q16 -57 76 -57q84 0 91 117l-4 1q-30 -43 -95 -43q-64 0 -102 35.5t-38 91.5q0 60 41 97.5t110 37.5q71 0 114 -45t43 -140q0 -115 -45.5 -166t-116.5 -51zM183 -3q34 0 55 19t21 49t-20.5 49t-56.5 19q-35 0 -55.5 -18.5
t-20.5 -49.5q0 -30 21 -49t56 -19z" />
    <glyph glyph-name="uni20A9" unicode="&#x20a9;" horiz-adv-x="1125" 
d="M1103 400v-78h-127l-94 -322h-156l-107 322h-112l-108 -322h-155l-95 322h-127v78h105l-87 295h137l82 -295h145l92 295h133l92 -295h145l82 295h137l-86 -295h104zM533 400h60l-6 19l-20 88h-8l-20 -88zM350 228l29 94h-98l26 -94l15 -76h8zM818 228l26 94h-98l29 -94
l20 -76h8z" />
    <glyph glyph-name="Euro" unicode="&#x20ac;" horiz-adv-x="791" 
d="M633 277l129 -11q-18 -127 -99 -199t-210 -72q-124 0 -207 69t-107 189h-96v78h87v16v17h-87v78h96q24 120 107 190.5t205 70.5q129 0 208 -72t96 -200l-132 -10q-13 80 -57 124t-115 44q-66 0 -112 -39t-64 -108h222v-78h-234v-16v-17h234v-78h-222q20 -68 66.5 -106
t111.5 -38q73 0 119 43.5t61 124.5z" />
    <glyph glyph-name="uni20BD" unicode="&#x20bd;" horiz-adv-x="711" 
d="M142 0v138h-99v94h99v38h-99v94h99v331h281q130 0 201.5 -55.5t71.5 -165.5q0 -108 -69.5 -156t-203.5 -48h-149v-38h264v-94h-264v-138h-132zM272 365l94 2h87q57 0 87.5 29t30.5 78q0 48 -30.5 78t-87.5 30h-88l-93 1l2 -86v-46z" />
    <glyph glyph-name="uni20BF" unicode="&#x20bf;" horiz-adv-x="674" 
d="M621 207q0 -170 -177 -200v-86h-106v79h-69v-79h-107v79h-109v695h109v79h107v-79h69v79h106v-86q161 -30 161 -190q0 -53 -33.5 -90.5t-86.5 -41.5v-10q66 -10 101 -50t35 -99zM485 498q0 42 -24.5 62t-82.5 20h-122l-75 3l3 -75v-22l-3 -75l75 3h122q57 0 82 20.5
t25 63.5zM377 115q116 0 116 92q0 94 -116 94h-122l-74 3l3 -75v-39l-3 -78l74 3h122z" />
    <glyph glyph-name="uni2116" unicode="&#x2116;" horiz-adv-x="1234" 
d="M983 279q-93 0 -147.5 60t-54.5 152q0 93 54.5 154t147.5 61q91 0 144.5 -61t53.5 -154q0 -92 -53.5 -152t-144.5 -60zM53 0v695h165l267 -429l58 -98h9l-4 102v425h131v-695h-166l-283 454l-39 73h-11l4 -102v-425h-131zM983 384q43 0 66.5 30t23.5 78q0 49 -23.5 79
t-66.5 30q-44 0 -69 -30t-25 -79q0 -48 25 -78t69 -30zM784 138v111h399v-111h-399z" />
    <glyph glyph-name="trademark" unicode="&#x2122;" horiz-adv-x="865" 
d="M169 326v238l2 72l-59 -2h-71v61h327v-61h-72l-58 2l1 -72v-238h-70zM409 326v369h82l108 -258l13 -50h7l13 50l108 258h82v-369h-69v203l3 49h-6l-13 -50l-86 -202h-71l-86 202l-13 50h-6l3 -49v-203h-69z" />
    <glyph glyph-name="oneeighth" unicode="&#x215b;" horiz-adv-x="1002" 
d="M238 -30l450 755h90l-450 -755h-90zM29 299v70h48l65 -1l-1 69v60l3 67h-3q-24 -34 -117 -34v63q120 3 127 102h66v-258l-2 -69l68 1h22v-70h-276zM809 -4q-75 0 -117 33t-42 81q0 38 21 61.5t50 33.5v3q-21 7 -39 28.5t-18 52.5q0 47 40 78t105 31t104.5 -31t39.5 -78
q0 -31 -17.5 -52.5t-38.5 -28.5v-3q29 -10 50 -33.5t21 -61.5q0 -48 -42 -81t-117 -33zM809 233q34 0 52 14.5t18 37.5q0 21 -17.5 36t-52.5 15t-52.5 -15t-17.5 -36q0 -23 18.5 -37.5t51.5 -14.5zM809 58q40 0 62 16.5t22 41.5q0 27 -21.5 42.5t-62.5 15.5t-63 -16t-22 -42
q0 -25 22 -41.5t63 -16.5z" />
    <glyph glyph-name="threeeighths" unicode="&#x215c;" horiz-adv-x="983" 
d="M220 -30l450 755h90l-450 -755h-90zM189 296q-60 0 -108.5 30.5t-59.5 94.5l76 8q6 -31 32 -48.5t60 -17.5q37 0 58.5 15.5t21.5 39.5q0 54 -80 54h-17v64h17q68 0 68 47q0 19 -18 33.5t-47 14.5q-66 0 -79 -62l-74 7q9 56 50.5 89t103.5 33t101.5 -33t39.5 -78
q0 -60 -64 -79v-4q32 -8 53.5 -30t21.5 -59q0 -52 -43.5 -85.5t-112.5 -33.5zM790 -4q-75 0 -117 33t-42 81q0 38 21 61.5t50 33.5v3q-21 7 -39 28.5t-18 52.5q0 47 40 78t105 31t104.5 -31t39.5 -78q0 -31 -17.5 -52.5t-38.5 -28.5v-3q29 -10 50 -33.5t21 -61.5
q0 -48 -42 -81t-117 -33zM790 233q34 0 52 14.5t18 37.5q0 21 -17.5 36t-52.5 15t-52.5 -15t-17.5 -36q0 -23 18.5 -37.5t51.5 -14.5zM790 58q40 0 62 16.5t22 41.5q0 27 -21.5 42.5t-62.5 15.5t-63 -16t-22 -42q0 -25 22 -41.5t63 -16.5z" />
    <glyph glyph-name="fiveeighths" unicode="&#x215d;" horiz-adv-x="986" 
d="M222 -30l450 755h90l-450 -755h-90zM196 296q-64 0 -107.5 33.5t-50.5 93.5l73 7q5 -32 28.5 -51t57.5 -19q35 0 56.5 19.5t21.5 51.5t-20.5 51t-55.5 19q-48 0 -86 -36l-67 33l31 197h245v-67h-185l-4 -28l-6 -36l-7 -31l3 -2q44 27 97 27q58 0 94 -35.5t36 -92.5
q0 -60 -43.5 -97t-110.5 -37zM793 -4q-75 0 -117 33t-42 81q0 38 21 61.5t50 33.5v3q-21 7 -39 28.5t-18 52.5q0 47 40 78t105 31t104.5 -31t39.5 -78q0 -31 -17.5 -52.5t-38.5 -28.5v-3q29 -10 50 -33.5t21 -61.5q0 -48 -42 -81t-117 -33zM793 233q34 0 52 14.5t18 37.5
q0 21 -17.5 36t-52.5 15t-52.5 -15t-17.5 -36q0 -23 18.5 -37.5t51.5 -14.5zM793 58q40 0 62 16.5t22 41.5q0 27 -21.5 42.5t-62.5 15.5t-63 -16t-22 -42q0 -25 22 -41.5t63 -16.5z" />
    <glyph glyph-name="seveneighths" unicode="&#x215e;" horiz-adv-x="966" 
d="M202 -30l450 755h90l-450 -755h-90zM123 299q1 110 37 183.5t105 142.5l-1 5l-58 -2h-182v67h298l20 -76q-77 -70 -108.5 -138.5t-32.5 -181.5h-78zM773 -4q-75 0 -117 33t-42 81q0 38 21 61.5t50 33.5v3q-21 7 -39 28.5t-18 52.5q0 47 40 78t105 31t104.5 -31t39.5 -78
q0 -31 -17.5 -52.5t-38.5 -28.5v-3q29 -10 50 -33.5t21 -61.5q0 -48 -42 -81t-117 -33zM773 233q34 0 52 14.5t18 37.5q0 21 -17.5 36t-52.5 15t-52.5 -15t-17.5 -36q0 -23 18.5 -37.5t51.5 -14.5zM773 58q40 0 62 16.5t22 41.5q0 27 -21.5 42.5t-62.5 15.5t-63 -16t-22 -42
q0 -25 22 -41.5t63 -16.5z" />
    <glyph glyph-name="arrowleft" unicode="&#x2190;" horiz-adv-x="768" 
d="M419 105l-351 215v84l351 214v-119l-183 -92l464 1v-94h-464l183 -89v-120z" />
    <glyph glyph-name="arrowup" unicode="&#x2191;" horiz-adv-x="648" 
d="M276 46v461l-89 -180h-119l214 351h84l214 -351h-119l-91 180v-461h-94z" />
    <glyph glyph-name="arrowright" unicode="&#x2192;" horiz-adv-x="768" 
d="M349 106v119l183 92l-464 -1v93h464l-183 90v119l351 -214v-84z" />
    <glyph glyph-name="arrowdown" unicode="&#x2193;" horiz-adv-x="648" 
d="M282 45l-214 351h119l92 -183l-1 465h93v-465l90 183h119l-214 -351h-84z" />
    <glyph glyph-name="arrowboth" unicode="&#x2194;" horiz-adv-x="1018" 
d="M389 105l-321 215v84l321 214v-119l-153 -92h546l-153 92v119l321 -214v-84l-321 -215v120l153 89h-546l153 -89v-120z" />
    <glyph glyph-name="arrowupdn" unicode="&#x2195;" horiz-adv-x="648" 
d="M282 -46l-214 320h119l90 -153v481l-90 -153l-119 -1l214 322h84l214 -321l-118 -1l-92 154v-481l92 153l118 1l-214 -321h-84z" />
    <glyph glyph-name="uni2196" unicode="&#x2196;" horiz-adv-x="646" 
d="M511 106l-328 329l63 -190l-85 -84l-93 396l60 59l403 -101l-84 -83l-198 68l329 -328z" />
    <glyph glyph-name="uni2197" unicode="&#x2197;" horiz-adv-x="647" 
d="M134 107l-66 67l328 328l-192 -66l-84 84l399 97l60 -59l-98 -400l-83 84l64 194z" />
    <glyph glyph-name="uni2198" unicode="&#x2198;" horiz-adv-x="646" 
d="M518 107l-399 97l83 84l195 -64l-329 328l66 66l328 -329l-66 193l85 84l97 -399z" />
    <glyph glyph-name="uni2199" unicode="&#x2199;" horiz-adv-x="647" 
d="M128 107l-60 59l97 399l84 -83l-64 -195l328 329l66 -66l-329 -328l193 66l84 -85z" />
    <glyph glyph-name="partialdiff" unicode="&#x2202;" horiz-adv-x="538" 
d="M266 -5q-110 0 -176 68.5t-66 174.5q0 108 62 176.5t161 68.5q87 0 132 -56h8q-20 144 -214 333h155q28 -30 48.5 -55t48 -69.5t45 -88.5t30 -107t12.5 -131q0 -153 -68 -233.5t-178 -80.5zM266 110q54 0 84.5 36t30.5 93t-30.5 93t-85.5 36t-87 -36.5t-32 -92.5
t32 -92.5t88 -36.5z" />
    <glyph glyph-name="emptyset" unicode="&#x2205;" horiz-adv-x="683" 
d="M654 556l-68 -68q52 -76 52 -171q0 -125 -84 -211t-212 -86q-96 0 -172 51l-67 -67l-75 74l68 68q-51 74 -51 171q0 125 84 210.5t213 85.5q94 0 170 -50l67 67zM155 317q0 -48 22 -90l254 255q-42 21 -89 21q-82 0 -134.5 -54t-52.5 -132zM528 317q0 49 -22 91
l-255 -256q41 -22 91 -22q81 0 133.5 54t52.5 133z" />
    <glyph glyph-name="product" unicode="&#x220f;" horiz-adv-x="734" 
d="M172 -54v495l3 142l-113 -3v115h610v-115l-112 3l2 -140v-497h-117v497l2 140l-73 -3h-14l-73 3l3 -141v-496h-118z" />
    <glyph glyph-name="summation" unicode="&#x2211;" horiz-adv-x="552" 
d="M53 -172v125l231 311l-228 307v124h460v-112h-316v-7l213 -283v-56l-216 -290v-6h324v-113h-468z" />
    <glyph glyph-name="minus" unicode="&#x2212;" horiz-adv-x="572" 
d="M42 263v112h488v-112h-488z" />
    <glyph glyph-name="radical" unicode="&#x221a;" horiz-adv-x="715" 
d="M757 695v-106h-176l-241 -829h-147l-175 523h129l91 -297l22 -96h7l19 97l201 708h270z" />
    <glyph glyph-name="infinity" unicode="&#x221e;" horiz-adv-x="735" 
d="M526 498q77 0 121 -46.5t44 -120.5q0 -76 -44 -122.5t-121 -46.5q-106 0 -158 102q-54 -102 -158 -102q-76 0 -121.5 47t-45.5 122q0 74 45.5 120.5t121.5 46.5q106 0 158 -102q52 102 158 102zM219 248q31 0 55.5 22.5t36.5 61.5q-13 36 -37.5 58.5t-54.5 22.5
q-35 0 -58 -22.5t-23 -59.5q0 -38 22.5 -60.5t58.5 -22.5zM517 248q36 0 58 22.5t22 60.5q0 37 -22 59.5t-58 22.5q-30 0 -55 -22.5t-38 -58.5q12 -38 37 -61t56 -23z" />
    <glyph glyph-name="integral" unicode="&#x222b;" horiz-adv-x="504" 
d="M121 -181q-44 0 -88 5v117q27 -4 60 -4q43 0 68.5 25t25.5 91v481q0 115 48 170.5t148 55.5q44 0 88 -5v-117q-36 4 -60 4q-44 0 -69.5 -25t-25.5 -91v-481q0 -115 -48 -170.5t-147 -55.5z" />
    <glyph glyph-name="approxequal" unicode="&#x2248;" horiz-adv-x="597" 
d="M32 331q0 88 42.5 131.5t114.5 43.5q46 0 109.5 -33.5t96.5 -33.5q65 0 65 73h105q0 -88 -43 -131t-115 -43q-45 0 -111.5 33.5t-94.5 33.5q-64 0 -64 -74h-105zM32 125q0 88 42.5 131.5t114.5 43.5q46 0 109.5 -33.5t96.5 -33.5q65 0 65 73h105q0 -88 -43 -131t-115 -43
q-45 0 -111.5 33.5t-94.5 33.5q-64 0 -64 -74h-105z" />
    <glyph glyph-name="notequal" unicode="&#x2260;" horiz-adv-x="602" 
d="M560 365h-169l-56 -92h225v-112h-294l-62 -102h-123l62 102h-101v112h170l56 92h-226v112h294l62 101h123l-62 -101h101v-112z" />
    <glyph glyph-name="lessequal" unicode="&#x2264;" horiz-adv-x="545" 
d="M503 172l-461 97v138l461 97v-96l-253 -48l-97 -17v-8l95 -17l255 -49v-97zM42 35v104h461v-104h-461z" />
    <glyph glyph-name="greaterequal" unicode="&#x2265;" horiz-adv-x="545" 
d="M42 172v97l255 49l96 17v8l-97 17l-254 48v96l461 -97v-138zM42 35v104h461v-104h-461z" />
    <glyph glyph-name="lozenge" unicode="&#x25ca;" horiz-adv-x="553" 
d="M203 0l-135 347l135 348h147l135 -348l-135 -347h-147zM272 132h8l9 29l73 186l-73 187l-9 29h-8l-9 -31l-72 -185l72 -184z" />
    <glyph glyph-name="heart" unicode="&#x2665;" horiz-adv-x="722" 
d="M361 55q-48 45 -70 66.5t-65.5 66t-66 74.5t-49 69.5t-38 76t-11.5 71.5q2 70 43 113.5t108 43.5q46 0 86 -29t59 -85h9q45 114 152 114q63 0 103 -44.5t40 -109.5q0 -49 -26 -105t-75 -115t-93 -104.5t-106 -102.5z" />
    <glyph glyph-name="fi" unicode="&#xfb01;" horiz-adv-x="638" 
d="M585 500v-500h-127v391h-150l-61 2v-393h-129v393l-58 -2h-50v109h50l59 -2l-1 50q0 97 52.5 154.5t155.5 57.5h89v-115h-64q-104 0 -104 -97l-1 -50l59 2h280zM451 742h139v-130h-139v130z" />
    <glyph glyph-name="i.loclTRK" horiz-adv-x="274" 
d="M69 605v136h136v-136h-136zM73 0v500h128v-500h-128z" />
    <glyph glyph-name="f.ss01" horiz-adv-x="445" 
d="M128 0v393l-58 -2h-60v109h60l59 -2l-1 50q0 98 53.5 155t162.5 57q57 0 89 -4v-115q-31 4 -67 4q-109 0 -109 -97l-1 -50l59 2h113v-109h-110l-61 2v-393h-129z" />
    <glyph glyph-name="l.ss01" horiz-adv-x="369" 
d="M249 -5q-100 0 -148 55.5t-48 170.5v539h127v-533q0 -66 26.5 -91t70.5 -25q23 0 59 4v-115q-42 -5 -87 -5z" />
    <glyph glyph-name="t.ss01" horiz-adv-x="464" 
d="M341 -1q-103 0 -158 58.5t-55 170.5v167l-55 -4h-60v109h60l58 -3l-3 47v91l122 51h4v-142l-3 -47l58 3h111v-109h-111l-55 4v-168q0 -111 112 -111q32 0 62 4v-116q-48 -5 -87 -5z" />
    <glyph glyph-name="j.ss02" horiz-adv-x="234" 
d="M48 612v137h138v-137h-138zM53 -240v740h129v-740h-129z" />
    <glyph glyph-name="l.ss02" horiz-adv-x="234" 
d="M53 0v760h129v-760h-129z" />
    <glyph glyph-name="a.ss03" horiz-adv-x="578" 
d="M240 -6q-93 0 -152 69t-59 186q0 115 59.5 186t151.5 71q53 0 92 -27t58 -67h16l-9 66v22h129v-500h-129v25l9 59h-16q-18 -39 -57 -64.5t-93 -25.5zM277 100q54 0 86.5 41t32.5 108q0 68 -32.5 109.5t-86.5 41.5q-53 0 -85.5 -41t-32.5 -110q0 -68 32.5 -108.5
t85.5 -40.5z" />
    <glyph glyph-name="t_t" horiz-adv-x="714" 
d="M291 -5q-86 0 -131.5 48t-45.5 138v214l-55 -4h-46v109h46l58 -3l-3 45v93l123 51h4v-142l-3 -47l50 3h90l55 -3l-3 46v92l122 51h4v-142l-3 -47l51 3h75v-109h-75l-48 4v-207q0 -76 74 -76q26 0 49 3v-114q-43 -6 -73 -6q-86 0 -131 48t-45 138v214l-52 -4h-90l-47 4
v-207q0 -41 19 -58.5t55 -17.5q26 0 49 3v-114q-44 -6 -73 -6z" />
    <glyph glyph-name="uni0414.loclBGR" horiz-adv-x="839" 
d="M20 -164v279h106l217 580h155l216 -580h106v-279h-114v164h-573v-164h-113zM261 114l82 1h156l80 -1l-27 72l-105 295l-19 88h-15l-20 -88l-106 -298z" />
    <glyph glyph-name="uni041B.loclBGR" horiz-adv-x="690" 
d="M7 0l261 695h155l261 -695h-141l-170 481l-20 88h-15l-20 -88l-170 -481h-141z" />
    </font>
</defs>
</svg>
